G04 #@! TF.GenerationSoftware,KiCad,Pcbnew,7.0.10*
G04 #@! TF.CreationDate,2024-04-17T21:52:57+03:00*
G04 #@! TF.ProjectId,GAMEBOY_STM32_CART,47414d45-424f-4595-9f53-544d33325f43,v5.1*
G04 #@! TF.SameCoordinates,Original*
G04 #@! TF.FileFunction,Copper,L3,Inr*
G04 #@! TF.FilePolarity,Positive*
%FSLAX46Y46*%
G04 Gerber Fmt 4.6, Leading zero omitted, Abs format (unit mm)*
G04 Created by KiCad (PCBNEW 7.0.10) date 2024-04-17 21:52:57*
%MOMM*%
%LPD*%
G01*
G04 APERTURE LIST*
G04 #@! TA.AperFunction,ComponentPad*
%ADD10O,1.000000X1.600000*%
G04 #@! TD*
G04 #@! TA.AperFunction,ComponentPad*
%ADD11O,1.000000X2.100000*%
G04 #@! TD*
G04 #@! TA.AperFunction,ViaPad*
%ADD12C,0.600000*%
G04 #@! TD*
G04 #@! TA.AperFunction,ViaPad*
%ADD13C,0.800000*%
G04 #@! TD*
G04 #@! TA.AperFunction,Conductor*
%ADD14C,0.200000*%
G04 #@! TD*
G04 #@! TA.AperFunction,Conductor*
%ADD15C,0.400000*%
G04 #@! TD*
G04 #@! TA.AperFunction,Profile*
%ADD16C,0.150000*%
G04 #@! TD*
G04 APERTURE END LIST*
D10*
X114570000Y-29120000D03*
D11*
X114570000Y-33300000D03*
D10*
X123210000Y-29120000D03*
D11*
X123210000Y-33300000D03*
D12*
X112400000Y-28800000D03*
X119100000Y-29300000D03*
X115800000Y-29373000D03*
X91700000Y-58600000D03*
X93200000Y-57400000D03*
X101800000Y-67400000D03*
X105900000Y-67300000D03*
X105000000Y-68000000D03*
X107000000Y-68000000D03*
X105400000Y-54800000D03*
X116400000Y-60300000D03*
X118400000Y-61200000D03*
X118400000Y-59500000D03*
X117500000Y-57800000D03*
X117400000Y-59500000D03*
X117400000Y-61200000D03*
X117400000Y-62400000D03*
X116000000Y-62400000D03*
X114300000Y-62400000D03*
X113000000Y-62400000D03*
X113000000Y-61200000D03*
X108600000Y-61300000D03*
X111200000Y-61700000D03*
X111200000Y-60200000D03*
X111200000Y-58900000D03*
X111200000Y-57800000D03*
X111200000Y-56700000D03*
X110100000Y-56700000D03*
X110100000Y-57800000D03*
X110100000Y-59000000D03*
X110100000Y-60300000D03*
X110100000Y-61700000D03*
X77527207Y-47100000D03*
X78100000Y-59300000D03*
X106400000Y-37800000D03*
X110000000Y-39800000D03*
X102900000Y-40603990D03*
X100900000Y-44400000D03*
X94700000Y-40400000D03*
X87000000Y-30300000D03*
X82200000Y-30100000D03*
X90300000Y-37000000D03*
X89100000Y-35600000D03*
X88700000Y-31800000D03*
X101600000Y-28600000D03*
X102700000Y-34200000D03*
X102700000Y-32900000D03*
X106700000Y-32500000D03*
X104100000Y-33200000D03*
X103900000Y-32200000D03*
X104700000Y-35100000D03*
X88200000Y-40200000D03*
X92000000Y-81100000D03*
X90600000Y-81100000D03*
X89000000Y-81200000D03*
X110500000Y-71000000D03*
X107500000Y-73500000D03*
X107800000Y-77900000D03*
X109300000Y-77800000D03*
X106600000Y-77900000D03*
X104300000Y-78000000D03*
X102100000Y-80900000D03*
X99400000Y-81300000D03*
X98000000Y-81100000D03*
X96500000Y-80700000D03*
X95100000Y-80700000D03*
X93500000Y-80800000D03*
X125900000Y-51700000D03*
X125800000Y-52700000D03*
X125800000Y-55600000D03*
X125900000Y-56700000D03*
X125800000Y-58300000D03*
X116600000Y-64600000D03*
X123100000Y-64600000D03*
X124700000Y-64100000D03*
X125800000Y-63100000D03*
X125900000Y-61300000D03*
X125900000Y-59500000D03*
X121600000Y-61500000D03*
X121600000Y-60200000D03*
X120400000Y-56000000D03*
X120300000Y-54400000D03*
X119600000Y-55100000D03*
X120900000Y-55000000D03*
X118700000Y-46700000D03*
X114400000Y-44400000D03*
X116600000Y-45200000D03*
X116700000Y-44300000D03*
X118650000Y-45600000D03*
X122500000Y-46500000D03*
X121000000Y-46500000D03*
X121000000Y-44500000D03*
X122500000Y-40000000D03*
X120150000Y-39500000D03*
X117565687Y-39565687D03*
X119048476Y-37503795D03*
X126000000Y-34000000D03*
X122000000Y-36500000D03*
X114000000Y-36500000D03*
X111500000Y-36500000D03*
X111500000Y-35500000D03*
X110500000Y-35000000D03*
X108000000Y-34500000D03*
X108000000Y-35500000D03*
X109000000Y-35500000D03*
X107000000Y-35500000D03*
X106000000Y-35500000D03*
X107500000Y-32000000D03*
X110500000Y-28500000D03*
X106000000Y-28500000D03*
X103500000Y-28500000D03*
X78000000Y-40500000D03*
X78000000Y-37500000D03*
X78000000Y-35000000D03*
X78000000Y-32500000D03*
X78000000Y-30500000D03*
X89500000Y-33000000D03*
X90500000Y-33000000D03*
X90500000Y-31500000D03*
X92000000Y-37500000D03*
X92000000Y-36000000D03*
X92000000Y-34500000D03*
X97000000Y-39500000D03*
X97000000Y-40500000D03*
X96300000Y-43300000D03*
X97000000Y-42500000D03*
X95500000Y-42500000D03*
X93000000Y-42000000D03*
X97500000Y-64000000D03*
X96000000Y-62500000D03*
X94000000Y-58000000D03*
X92500000Y-58000000D03*
X95000000Y-50500000D03*
X92000000Y-50000000D03*
X94000000Y-52000000D03*
X92000000Y-52000000D03*
X94000000Y-51000000D03*
X92000000Y-51000000D03*
X82000000Y-78000000D03*
X82000000Y-76000000D03*
X82000000Y-74500000D03*
X82000000Y-73500000D03*
X83000000Y-78000000D03*
X83000000Y-76000000D03*
X83000000Y-74500000D03*
X83000000Y-72500000D03*
X92000000Y-71000000D03*
X93000000Y-70000000D03*
X98000000Y-74500000D03*
X98000000Y-72500000D03*
X107000000Y-71000000D03*
X110500000Y-73500000D03*
X110500000Y-76500000D03*
X107500000Y-76500000D03*
X126000000Y-78500000D03*
X123000000Y-74500000D03*
X126000000Y-77000000D03*
X126000000Y-74500000D03*
X119500000Y-72000000D03*
X123000000Y-72500000D03*
X126000000Y-72500000D03*
X126000000Y-70000000D03*
X123000000Y-69500000D03*
X119500000Y-69500000D03*
X126000000Y-68000000D03*
X122500000Y-68000000D03*
X119500000Y-68000000D03*
X117000000Y-68000000D03*
X113000000Y-72900000D03*
X119000000Y-78000000D03*
X119000000Y-76500000D03*
X116000000Y-77000000D03*
X116000000Y-75000000D03*
X113000000Y-76500000D03*
X113000000Y-74500000D03*
X109000000Y-76500000D03*
X109000000Y-73500000D03*
X109000000Y-71000000D03*
X96800000Y-38000000D03*
X99600000Y-34000000D03*
X96000000Y-34800000D03*
X94200000Y-35200000D03*
X107600000Y-28800000D03*
X122400000Y-53200000D03*
X114800000Y-57400000D03*
X114600000Y-56400000D03*
X114800000Y-53400000D03*
X114800000Y-54400000D03*
X116200000Y-59000000D03*
X123950000Y-58400000D03*
X100812500Y-68400000D03*
X114800000Y-64400000D03*
X104600000Y-55200000D03*
X106800000Y-57200000D03*
X114000000Y-67000000D03*
X112824265Y-64800000D03*
X126519000Y-35000000D03*
X125200000Y-33400000D03*
X124400000Y-34200000D03*
X117842414Y-33012276D03*
X116440000Y-35560000D03*
X121420741Y-35388889D03*
X106600000Y-34400000D03*
X119600000Y-30627000D03*
X122200000Y-29200000D03*
X77400000Y-48400000D03*
X84400000Y-53000000D03*
X77400000Y-66000000D03*
X77400000Y-63000000D03*
X91600000Y-70000000D03*
X107800000Y-48400000D03*
X101200000Y-51600000D03*
X116200000Y-52600000D03*
X117907107Y-47107107D03*
X117907107Y-46307107D03*
X113400000Y-54200000D03*
X113400000Y-53400000D03*
X100622975Y-53951599D03*
X99758201Y-53406685D03*
X99837628Y-54334642D03*
X101300000Y-54438000D03*
X97681072Y-62120537D03*
X98246758Y-61554851D03*
X99150000Y-30750000D03*
X108400000Y-43800000D03*
X107600000Y-43800000D03*
X100400000Y-28600000D03*
X82000000Y-68000000D03*
X80000000Y-44865000D03*
X86200000Y-43400000D03*
X93907108Y-43707108D03*
X88600000Y-48600000D03*
X93424265Y-48375735D03*
X99800000Y-44000000D03*
X117350000Y-53400000D03*
X114650000Y-55300000D03*
X101600000Y-38000000D03*
X120600000Y-47200000D03*
X119400000Y-47400000D03*
X102175735Y-42624265D03*
X118650000Y-62800000D03*
X103850000Y-35850000D03*
D13*
X124200000Y-79200000D03*
X122800000Y-80200000D03*
X120800000Y-79000000D03*
X119800000Y-80200000D03*
X118000000Y-79000000D03*
X98751124Y-58663669D03*
X100000000Y-58838000D03*
X116600000Y-79800000D03*
X115000000Y-79000000D03*
X98400000Y-59600000D03*
X113800000Y-79800000D03*
X99200000Y-60200000D03*
X112200000Y-79200000D03*
X99078698Y-61200000D03*
X110600000Y-79400000D03*
X99600000Y-62200000D03*
D12*
X85184886Y-52200000D03*
D13*
X109200000Y-79600000D03*
D12*
X84734358Y-51443761D03*
D13*
X107800000Y-79200000D03*
D12*
X85400000Y-51000000D03*
D13*
X106000000Y-78900000D03*
X101800000Y-78500000D03*
X94400000Y-54200000D03*
X100000000Y-78400000D03*
X93400000Y-54000000D03*
X92200000Y-53400000D03*
X98800000Y-78500000D03*
X104000000Y-41000000D03*
X105000000Y-41000000D03*
X79400000Y-81200000D03*
X105000000Y-42000000D03*
X104000000Y-42000000D03*
X80000000Y-79200000D03*
X106000000Y-41000000D03*
X106000000Y-42000000D03*
X78800000Y-79200000D03*
X80000000Y-80400000D03*
X77600000Y-79200000D03*
X78800000Y-80400000D03*
X91200000Y-53200000D03*
X97800000Y-78500000D03*
X96644975Y-78500000D03*
X90000000Y-52600000D03*
X89611319Y-51657116D03*
X95600000Y-78500000D03*
X94400000Y-78500000D03*
X88900000Y-50700834D03*
X93400000Y-78500000D03*
X89848422Y-50383815D03*
X90600000Y-49600000D03*
X92000000Y-78500000D03*
D12*
X84955690Y-54450188D03*
D13*
X86255025Y-79210660D03*
X86800000Y-80400000D03*
D12*
X85668328Y-53863343D03*
X85173718Y-56177752D03*
D13*
X85200000Y-81000000D03*
D12*
X84600000Y-57300000D03*
D13*
X83800000Y-81200000D03*
D12*
X84147128Y-58110750D03*
D13*
X82400000Y-81000000D03*
X81400000Y-80800000D03*
D12*
X84000000Y-59200000D03*
D13*
X95000000Y-61800000D03*
X125400000Y-39600000D03*
X125300000Y-44800000D03*
X93607109Y-62400000D03*
X124000000Y-39800000D03*
X92907109Y-61492891D03*
X123900000Y-45000000D03*
X92200000Y-62200000D03*
X91700000Y-63200000D03*
X121800000Y-38600000D03*
D12*
X127400000Y-65800000D03*
X126824265Y-65200000D03*
X126224265Y-64624265D03*
X83200000Y-59000000D03*
X120820000Y-40368168D03*
X83367158Y-57932842D03*
X117000000Y-39000000D03*
X110275735Y-45075735D03*
X83600456Y-57095407D03*
X83342892Y-56338000D03*
X113800000Y-39400000D03*
X84200000Y-56000000D03*
X112000000Y-45400000D03*
X112800000Y-40000000D03*
X84800000Y-55400000D03*
X84200000Y-54738000D03*
X113200000Y-44800000D03*
X79178677Y-45178677D03*
X81852983Y-69158949D03*
X83600000Y-61600000D03*
X82200000Y-43400000D03*
X83600000Y-60800000D03*
X83200000Y-43400000D03*
X85102793Y-41129001D03*
X81800000Y-71800000D03*
X87400000Y-43400000D03*
X80600000Y-66600000D03*
X81800000Y-70800000D03*
X89200000Y-42200000D03*
X81787087Y-69956233D03*
X91200000Y-43164998D03*
X104200000Y-52800000D03*
X123071660Y-62126870D03*
D13*
X97000000Y-68400000D03*
X99200000Y-69000000D03*
D12*
X123950000Y-61900000D03*
X105000000Y-52200000D03*
X121950000Y-52350000D03*
X105800000Y-51600000D03*
X122850000Y-52500000D03*
D13*
X94800000Y-64600000D03*
X91800000Y-73400000D03*
X95800000Y-64000000D03*
X96300000Y-74000000D03*
X96600000Y-64800000D03*
X91800030Y-72203500D03*
X97400000Y-65400000D03*
X97000000Y-72200000D03*
D12*
X123000000Y-48400000D03*
X85400000Y-48800000D03*
X123850000Y-52450000D03*
X84400000Y-49000000D03*
X122200000Y-47600000D03*
X83600000Y-60000000D03*
X122707108Y-57942892D03*
X100400000Y-51600000D03*
X88400000Y-41800000D03*
X86200000Y-41000000D03*
D13*
X98300000Y-57734579D03*
X125800000Y-80000000D03*
D12*
X82800000Y-64600000D03*
X77400000Y-64000000D03*
X93400000Y-68340000D03*
X105600000Y-55800000D03*
D13*
X92078772Y-42605056D03*
D12*
X94600000Y-43200000D03*
D14*
X123210000Y-33300000D02*
X123210000Y-29120000D01*
D15*
X89700000Y-44100000D02*
X94600000Y-44100000D01*
X77400000Y-48400000D02*
X78400000Y-47400000D01*
X78400000Y-47400000D02*
X86400000Y-47400000D01*
X86400000Y-47400000D02*
X89700000Y-44100000D01*
D14*
X119350000Y-44950000D02*
X119350000Y-47350000D01*
X117600000Y-43200000D02*
X119350000Y-44950000D01*
X102751470Y-43200000D02*
X117600000Y-43200000D01*
X102175735Y-42624265D02*
X102751470Y-43200000D01*
X119350000Y-47350000D02*
X119400000Y-47400000D01*
X103200000Y-42800000D02*
X102200000Y-41800000D01*
X102200000Y-41800000D02*
X102200000Y-38600000D01*
X117800000Y-42800000D02*
X103200000Y-42800000D01*
X102200000Y-38600000D02*
X101600000Y-38000000D01*
X119750000Y-44750000D02*
X117800000Y-42800000D01*
X120600000Y-47200000D02*
X119750000Y-46350000D01*
X119750000Y-46350000D02*
X119750000Y-44750000D01*
X124000000Y-48400000D02*
X123000000Y-48400000D01*
X123850000Y-52450000D02*
X124400000Y-51900000D01*
X124400000Y-51900000D02*
X124400000Y-48800000D01*
X124400000Y-48800000D02*
X124000000Y-48400000D01*
X124800000Y-52800000D02*
X124800000Y-48000000D01*
X124400000Y-53200000D02*
X124800000Y-52800000D01*
X124800000Y-48000000D02*
X124400000Y-47600000D01*
X124400000Y-47600000D02*
X122200000Y-47600000D01*
X122400000Y-53200000D02*
X124400000Y-53200000D01*
X123898529Y-62800000D02*
X118650000Y-62800000D01*
X125200000Y-61498529D02*
X123898529Y-62800000D01*
X125200000Y-47500000D02*
X125200000Y-61498529D01*
X123250000Y-45550000D02*
X125200000Y-47500000D01*
X121115685Y-45550000D02*
X123250000Y-45550000D01*
X117965686Y-42400000D02*
X121115685Y-45550000D01*
X107700000Y-42400000D02*
X117965686Y-42400000D01*
X107000000Y-41700000D02*
X107700000Y-42400000D01*
X106350000Y-39600000D02*
X107000000Y-40250000D01*
X102900000Y-39600000D02*
X106350000Y-39600000D01*
X107000000Y-40250000D02*
X107000000Y-41700000D01*
X102600000Y-39300000D02*
X102900000Y-39600000D01*
X102600000Y-37100000D02*
X102600000Y-39300000D01*
X103850000Y-35850000D02*
X102600000Y-37100000D01*
D15*
X94600000Y-44100000D02*
X94227207Y-44100000D01*
X99700000Y-44100000D02*
X94600000Y-44100000D01*
X94227207Y-44100000D02*
X93870711Y-43743504D01*
X99800000Y-44000000D02*
X99700000Y-44100000D01*
G04 #@! TA.AperFunction,Conductor*
G36*
X102765045Y-39983763D02*
G01*
X102765414Y-39982630D01*
X102774692Y-39985644D01*
X102774696Y-39985646D01*
X102796578Y-39989111D01*
X102815491Y-39993652D01*
X102836567Y-40000500D01*
X102868481Y-40000500D01*
X106132745Y-40000500D01*
X106199784Y-40020185D01*
X106220426Y-40036819D01*
X106298781Y-40115174D01*
X106332266Y-40176497D01*
X106327282Y-40246189D01*
X106285410Y-40302122D01*
X106219946Y-40326539D01*
X106181426Y-40323252D01*
X106085057Y-40299500D01*
X106085056Y-40299500D01*
X105914944Y-40299500D01*
X105749773Y-40340210D01*
X105599150Y-40419264D01*
X105582227Y-40434257D01*
X105518993Y-40463978D01*
X105449730Y-40454794D01*
X105417773Y-40434257D01*
X105400852Y-40419266D01*
X105400850Y-40419265D01*
X105400849Y-40419264D01*
X105250226Y-40340210D01*
X105085056Y-40299500D01*
X104914944Y-40299500D01*
X104749773Y-40340210D01*
X104599150Y-40419264D01*
X104582227Y-40434257D01*
X104518993Y-40463978D01*
X104449730Y-40454794D01*
X104417773Y-40434257D01*
X104400852Y-40419266D01*
X104400850Y-40419265D01*
X104400849Y-40419264D01*
X104250226Y-40340210D01*
X104085056Y-40299500D01*
X103914944Y-40299500D01*
X103749773Y-40340210D01*
X103599150Y-40419263D01*
X103471816Y-40532072D01*
X103375182Y-40672068D01*
X103314860Y-40831125D01*
X103314859Y-40831130D01*
X103294355Y-41000000D01*
X103314859Y-41168869D01*
X103314860Y-41168874D01*
X103375182Y-41327931D01*
X103445332Y-41429560D01*
X103467215Y-41495915D01*
X103449750Y-41563566D01*
X103445332Y-41570440D01*
X103375183Y-41672068D01*
X103375182Y-41672068D01*
X103314860Y-41831125D01*
X103314859Y-41831130D01*
X103294355Y-42000000D01*
X103294355Y-42000006D01*
X103296366Y-42016573D01*
X103284904Y-42085496D01*
X103237998Y-42137280D01*
X103170542Y-42155485D01*
X103103952Y-42134330D01*
X103085589Y-42119196D01*
X102636819Y-41670426D01*
X102603334Y-41609103D01*
X102600500Y-41582745D01*
X102600500Y-40099238D01*
X102620185Y-40032199D01*
X102672989Y-39986444D01*
X102742147Y-39976500D01*
X102765045Y-39983763D01*
G37*
G04 #@! TD.AperFunction*
G04 #@! TA.AperFunction,Conductor*
G36*
X99899507Y-28045185D02*
G01*
X99945262Y-28097989D01*
X99955206Y-28167147D01*
X99930844Y-28224986D01*
X99875464Y-28297157D01*
X99814956Y-28443237D01*
X99814955Y-28443239D01*
X99794318Y-28599998D01*
X99794318Y-28600001D01*
X99814955Y-28756760D01*
X99814956Y-28756762D01*
X99875464Y-28902841D01*
X99971718Y-29028282D01*
X100097159Y-29124536D01*
X100243238Y-29185044D01*
X100321619Y-29195363D01*
X100399999Y-29205682D01*
X100400000Y-29205682D01*
X100400001Y-29205682D01*
X100452254Y-29198802D01*
X100556762Y-29185044D01*
X100702841Y-29124536D01*
X100828282Y-29028282D01*
X100924536Y-28902841D01*
X100985044Y-28756762D01*
X101005682Y-28600000D01*
X101003874Y-28586269D01*
X100985044Y-28443239D01*
X100985044Y-28443238D01*
X100924536Y-28297159D01*
X100924535Y-28297158D01*
X100924535Y-28297157D01*
X100869156Y-28224986D01*
X100843962Y-28159817D01*
X100858000Y-28091372D01*
X100906814Y-28041383D01*
X100967532Y-28025500D01*
X113933060Y-28025500D01*
X114000099Y-28045185D01*
X114045854Y-28097989D01*
X114055798Y-28167147D01*
X114026773Y-28230703D01*
X114020741Y-28237181D01*
X113940184Y-28317737D01*
X113844211Y-28470476D01*
X113784631Y-28640745D01*
X113784630Y-28640750D01*
X113769500Y-28775039D01*
X113769500Y-29464960D01*
X113784630Y-29599249D01*
X113784631Y-29599254D01*
X113844211Y-29769523D01*
X113881337Y-29828608D01*
X113940184Y-29922262D01*
X114067738Y-30049816D01*
X114067740Y-30049817D01*
X114194759Y-30129629D01*
X114220478Y-30145789D01*
X114324789Y-30182289D01*
X114390745Y-30205368D01*
X114390750Y-30205369D01*
X114569996Y-30225565D01*
X114570000Y-30225565D01*
X114570004Y-30225565D01*
X114749249Y-30205369D01*
X114749252Y-30205368D01*
X114749255Y-30205368D01*
X114919522Y-30145789D01*
X115072262Y-30049816D01*
X115199816Y-29922262D01*
X115295789Y-29769522D01*
X115355368Y-29599255D01*
X115370500Y-29464954D01*
X115370500Y-28775046D01*
X115359280Y-28675463D01*
X115355369Y-28640750D01*
X115355368Y-28640745D01*
X115295788Y-28470476D01*
X115199815Y-28317737D01*
X115119259Y-28237181D01*
X115085774Y-28175858D01*
X115090758Y-28106166D01*
X115132630Y-28050233D01*
X115198094Y-28025816D01*
X115206940Y-28025500D01*
X122573060Y-28025500D01*
X122640099Y-28045185D01*
X122685854Y-28097989D01*
X122695798Y-28167147D01*
X122666773Y-28230703D01*
X122660741Y-28237181D01*
X122580184Y-28317737D01*
X122484209Y-28470479D01*
X122463559Y-28529493D01*
X122422836Y-28586269D01*
X122357883Y-28612015D01*
X122330333Y-28611476D01*
X122200001Y-28594318D01*
X122199999Y-28594318D01*
X122043239Y-28614955D01*
X122043237Y-28614956D01*
X121897160Y-28675463D01*
X121771718Y-28771718D01*
X121675463Y-28897160D01*
X121614956Y-29043237D01*
X121614955Y-29043239D01*
X121594318Y-29199998D01*
X121594318Y-29200001D01*
X121614955Y-29356760D01*
X121614956Y-29356762D01*
X121675464Y-29502841D01*
X121771718Y-29628282D01*
X121897159Y-29724536D01*
X122043238Y-29785044D01*
X122121619Y-29795363D01*
X122199999Y-29805682D01*
X122200000Y-29805682D01*
X122200001Y-29805682D01*
X122216337Y-29803531D01*
X122356762Y-29785044D01*
X122368889Y-29780020D01*
X122438355Y-29772549D01*
X122500836Y-29803821D01*
X122521334Y-29828604D01*
X122580184Y-29922262D01*
X122707737Y-30049815D01*
X122707740Y-30049817D01*
X122751471Y-30077295D01*
X122797763Y-30129629D01*
X122809500Y-30182289D01*
X122809500Y-31987710D01*
X122789815Y-32054749D01*
X122751472Y-32092704D01*
X122707738Y-32120183D01*
X122580184Y-32247737D01*
X122484210Y-32400478D01*
X122477808Y-32418774D01*
X122437085Y-32475549D01*
X122372131Y-32501295D01*
X122303570Y-32487837D01*
X122262394Y-32453306D01*
X122190451Y-32359549D01*
X122070233Y-32267302D01*
X122070229Y-32267300D01*
X122006801Y-32241027D01*
X121930236Y-32209313D01*
X121916171Y-32207461D01*
X121817727Y-32194500D01*
X121817720Y-32194500D01*
X121742280Y-32194500D01*
X121742272Y-32194500D01*
X121629764Y-32209313D01*
X121629763Y-32209313D01*
X121489770Y-32267300D01*
X121489767Y-32267301D01*
X121489767Y-32267302D01*
X121369549Y-32359549D01*
X121338145Y-32400476D01*
X121277300Y-32479770D01*
X121219313Y-32619763D01*
X121219312Y-32619765D01*
X121199534Y-32769999D01*
X121199534Y-32770000D01*
X121219312Y-32920234D01*
X121219313Y-32920236D01*
X121257436Y-33012274D01*
X121277302Y-33060233D01*
X121369549Y-33180451D01*
X121489767Y-33272698D01*
X121629764Y-33330687D01*
X121742280Y-33345500D01*
X121742287Y-33345500D01*
X121817713Y-33345500D01*
X121817720Y-33345500D01*
X121930236Y-33330687D01*
X122070233Y-33272698D01*
X122190451Y-33180451D01*
X122190455Y-33180446D01*
X122196198Y-33174704D01*
X122198196Y-33176702D01*
X122243539Y-33143587D01*
X122313285Y-33139425D01*
X122374209Y-33173631D01*
X122406969Y-33235345D01*
X122409500Y-33260272D01*
X122409500Y-33894960D01*
X122424630Y-34029249D01*
X122424631Y-34029254D01*
X122484211Y-34199523D01*
X122511680Y-34243239D01*
X122580184Y-34352262D01*
X122707738Y-34479816D01*
X122798080Y-34536582D01*
X122830193Y-34556760D01*
X122860478Y-34575789D01*
X123010492Y-34628281D01*
X123030745Y-34635368D01*
X123030750Y-34635369D01*
X123209996Y-34655565D01*
X123210000Y-34655565D01*
X123210004Y-34655565D01*
X123389249Y-34635369D01*
X123389252Y-34635368D01*
X123389255Y-34635368D01*
X123559522Y-34575789D01*
X123712262Y-34479816D01*
X123712265Y-34479812D01*
X123714843Y-34478193D01*
X123782080Y-34459192D01*
X123848915Y-34479559D01*
X123879190Y-34507697D01*
X123971718Y-34628282D01*
X124097159Y-34724536D01*
X124243238Y-34785044D01*
X124321619Y-34795363D01*
X124399999Y-34805682D01*
X124400000Y-34805682D01*
X124400001Y-34805682D01*
X124452254Y-34798802D01*
X124556762Y-34785044D01*
X124702841Y-34724536D01*
X124828282Y-34628282D01*
X124924536Y-34502841D01*
X124985044Y-34356762D01*
X125005682Y-34200000D01*
X124997313Y-34136435D01*
X125008078Y-34067403D01*
X125054457Y-34015147D01*
X125121726Y-33996261D01*
X125136421Y-33997311D01*
X125200000Y-34005682D01*
X125356762Y-33985044D01*
X125502841Y-33924536D01*
X125628282Y-33828282D01*
X125724536Y-33702841D01*
X125785044Y-33556762D01*
X125805682Y-33400000D01*
X125785044Y-33243238D01*
X125724536Y-33097159D01*
X125628282Y-32971718D01*
X125502841Y-32875464D01*
X125356762Y-32814956D01*
X125356760Y-32814955D01*
X125200001Y-32794318D01*
X125199999Y-32794318D01*
X125043239Y-32814955D01*
X125043237Y-32814956D01*
X124897160Y-32875463D01*
X124771718Y-32971718D01*
X124675463Y-33097160D01*
X124614956Y-33243237D01*
X124614955Y-33243239D01*
X124594318Y-33399998D01*
X124594318Y-33400001D01*
X124602686Y-33463562D01*
X124591920Y-33532597D01*
X124545540Y-33584853D01*
X124478272Y-33603738D01*
X124463562Y-33602686D01*
X124400001Y-33594318D01*
X124399999Y-33594318D01*
X124243239Y-33614955D01*
X124243234Y-33614957D01*
X124181952Y-33640341D01*
X124112483Y-33647810D01*
X124050004Y-33616534D01*
X124014352Y-33556445D01*
X124010500Y-33525780D01*
X124010500Y-32705043D01*
X124010499Y-32705039D01*
X123995369Y-32570750D01*
X123995368Y-32570745D01*
X123958173Y-32464448D01*
X123935789Y-32400478D01*
X123839816Y-32247738D01*
X123712262Y-32120184D01*
X123712261Y-32120183D01*
X123668528Y-32092704D01*
X123622237Y-32040370D01*
X123610500Y-31987710D01*
X123610500Y-30182289D01*
X123630185Y-30115250D01*
X123668529Y-30077295D01*
X123712262Y-30049816D01*
X123837819Y-29924259D01*
X123899142Y-29890774D01*
X123968834Y-29895758D01*
X124024767Y-29937630D01*
X124049184Y-30003094D01*
X124049500Y-30011940D01*
X124049500Y-30470762D01*
X124053493Y-30479054D01*
X124062660Y-30505253D01*
X124064710Y-30514231D01*
X124064711Y-30514233D01*
X124064712Y-30514234D01*
X124070449Y-30521428D01*
X124085218Y-30544931D01*
X124089211Y-30553223D01*
X124089212Y-30553224D01*
X124096406Y-30558961D01*
X124116038Y-30578593D01*
X124121776Y-30585788D01*
X124130065Y-30589779D01*
X124153570Y-30604549D01*
X124160769Y-30610290D01*
X124169743Y-30612338D01*
X124195944Y-30621506D01*
X124204237Y-30625500D01*
X124227410Y-30625500D01*
X127925500Y-30625500D01*
X127992539Y-30645185D01*
X128038294Y-30697989D01*
X128049500Y-30749500D01*
X128049500Y-65294723D01*
X128029815Y-65361762D01*
X127977011Y-65407517D01*
X127907853Y-65417461D01*
X127844297Y-65388436D01*
X127832833Y-65376269D01*
X127828286Y-65371722D01*
X127828283Y-65371720D01*
X127828282Y-65371718D01*
X127702841Y-65275464D01*
X127556762Y-65214956D01*
X127548924Y-65213924D01*
X127524044Y-65210648D01*
X127460149Y-65182379D01*
X127421679Y-65124054D01*
X127417294Y-65103894D01*
X127409309Y-65043238D01*
X127348801Y-64897159D01*
X127252547Y-64771718D01*
X127127106Y-64675464D01*
X126981027Y-64614956D01*
X126949787Y-64610843D01*
X126920368Y-64606970D01*
X126856472Y-64578703D01*
X126818001Y-64520379D01*
X126813615Y-64500214D01*
X126809309Y-64467505D01*
X126809309Y-64467504D01*
X126809309Y-64467503D01*
X126748801Y-64321424D01*
X126652547Y-64195983D01*
X126527106Y-64099729D01*
X126526553Y-64099500D01*
X126381027Y-64039221D01*
X126381025Y-64039220D01*
X126224266Y-64018583D01*
X126224264Y-64018583D01*
X126067504Y-64039220D01*
X126067502Y-64039221D01*
X125921425Y-64099728D01*
X125795983Y-64195983D01*
X125699728Y-64321425D01*
X125639221Y-64467502D01*
X125639220Y-64467504D01*
X125618583Y-64624263D01*
X125618583Y-64624266D01*
X125639220Y-64781025D01*
X125639221Y-64781027D01*
X125687324Y-64897159D01*
X125699729Y-64927106D01*
X125795983Y-65052547D01*
X125921424Y-65148801D01*
X126067503Y-65209309D01*
X126128159Y-65217294D01*
X126192055Y-65245560D01*
X126230527Y-65303884D01*
X126234913Y-65324044D01*
X126238189Y-65348924D01*
X126239221Y-65356762D01*
X126299729Y-65502841D01*
X126395983Y-65628282D01*
X126521424Y-65724536D01*
X126667503Y-65785044D01*
X126700215Y-65789350D01*
X126764111Y-65817615D01*
X126802583Y-65875939D01*
X126806970Y-65896103D01*
X126814956Y-65956762D01*
X126875464Y-66102841D01*
X126971718Y-66228282D01*
X127097159Y-66324536D01*
X127243238Y-66385044D01*
X127313681Y-66394318D01*
X127399999Y-66405682D01*
X127400000Y-66405682D01*
X127400001Y-66405682D01*
X127452254Y-66398802D01*
X127556762Y-66385044D01*
X127702841Y-66324536D01*
X127828282Y-66228282D01*
X127828286Y-66228277D01*
X127834029Y-66222535D01*
X127835309Y-66223815D01*
X127883543Y-66188590D01*
X127953289Y-66184430D01*
X128014212Y-66218638D01*
X128046969Y-66280352D01*
X128049500Y-66305276D01*
X128049500Y-79900500D01*
X128029815Y-79967539D01*
X127977011Y-80013294D01*
X127925500Y-80024500D01*
X127195763Y-80024500D01*
X127104237Y-80024500D01*
X127104235Y-80024500D01*
X127104233Y-80024501D01*
X127095939Y-80028495D01*
X127069745Y-80037660D01*
X127060769Y-80039709D01*
X127053566Y-80045453D01*
X127030070Y-80060217D01*
X127021776Y-80064211D01*
X127021775Y-80064213D01*
X127016036Y-80071409D01*
X126996409Y-80091036D01*
X126989213Y-80096775D01*
X126989211Y-80096776D01*
X126985217Y-80105070D01*
X126970453Y-80128566D01*
X126964709Y-80135769D01*
X126962660Y-80144745D01*
X126953495Y-80170939D01*
X126949501Y-80179233D01*
X126949500Y-80179238D01*
X126949500Y-88500500D01*
X126929815Y-88567539D01*
X126877011Y-88613294D01*
X126825500Y-88624500D01*
X78274500Y-88624500D01*
X78207461Y-88604815D01*
X78161706Y-88552011D01*
X78150500Y-88500500D01*
X78150500Y-81035967D01*
X78170185Y-80968928D01*
X78222989Y-80923173D01*
X78292147Y-80913229D01*
X78355703Y-80942254D01*
X78356595Y-80943036D01*
X78385755Y-80968869D01*
X78399150Y-80980736D01*
X78549774Y-81059790D01*
X78581788Y-81067680D01*
X78600028Y-81072176D01*
X78660410Y-81107331D01*
X78692199Y-81169550D01*
X78694355Y-81192573D01*
X78694355Y-81199999D01*
X78714859Y-81368869D01*
X78714860Y-81368874D01*
X78775182Y-81527931D01*
X78837475Y-81618177D01*
X78871817Y-81667929D01*
X78977505Y-81761560D01*
X78999150Y-81780736D01*
X79149773Y-81859789D01*
X79149775Y-81859790D01*
X79314944Y-81900500D01*
X79485056Y-81900500D01*
X79650225Y-81859790D01*
X79729692Y-81818081D01*
X79800849Y-81780736D01*
X79800850Y-81780734D01*
X79800852Y-81780734D01*
X79928183Y-81667929D01*
X80024818Y-81527930D01*
X80085140Y-81368872D01*
X80105645Y-81200000D01*
X80105645Y-81199999D01*
X80105645Y-81192573D01*
X80125330Y-81125534D01*
X80178134Y-81079779D01*
X80199972Y-81072176D01*
X80250222Y-81059791D01*
X80250223Y-81059790D01*
X80250225Y-81059790D01*
X80400852Y-80980734D01*
X80508818Y-80885085D01*
X80572051Y-80855363D01*
X80641314Y-80864547D01*
X80694618Y-80909719D01*
X80714141Y-80962951D01*
X80714859Y-80968869D01*
X80714860Y-80968874D01*
X80775182Y-81127931D01*
X80803910Y-81169550D01*
X80871817Y-81267929D01*
X80939546Y-81327931D01*
X80999150Y-81380736D01*
X81136266Y-81452700D01*
X81149775Y-81459790D01*
X81314944Y-81500500D01*
X81485056Y-81500500D01*
X81650225Y-81459790D01*
X81711493Y-81427633D01*
X81779999Y-81413908D01*
X81845053Y-81439400D01*
X81866789Y-81462362D01*
X81866843Y-81462315D01*
X81868272Y-81463928D01*
X81871162Y-81466981D01*
X81871814Y-81467926D01*
X81999150Y-81580736D01*
X82149773Y-81659789D01*
X82149775Y-81659790D01*
X82314944Y-81700500D01*
X82485056Y-81700500D01*
X82650225Y-81659790D01*
X82729692Y-81618081D01*
X82800849Y-81580736D01*
X82800850Y-81580734D01*
X82800852Y-81580734D01*
X82928183Y-81467929D01*
X82938696Y-81452698D01*
X82992976Y-81408708D01*
X83062424Y-81401047D01*
X83124990Y-81432148D01*
X83156688Y-81479165D01*
X83175182Y-81527930D01*
X83271817Y-81667929D01*
X83377505Y-81761560D01*
X83399150Y-81780736D01*
X83549773Y-81859789D01*
X83549775Y-81859790D01*
X83714944Y-81900500D01*
X83885056Y-81900500D01*
X84050225Y-81859790D01*
X84129692Y-81818081D01*
X84200849Y-81780736D01*
X84200850Y-81780734D01*
X84200852Y-81780734D01*
X84328183Y-81667929D01*
X84424818Y-81527930D01*
X84443311Y-81479166D01*
X84485488Y-81423464D01*
X84551086Y-81399406D01*
X84619276Y-81414632D01*
X84661301Y-81452694D01*
X84671817Y-81467929D01*
X84739546Y-81527931D01*
X84799150Y-81580736D01*
X84949773Y-81659789D01*
X84949775Y-81659790D01*
X85114944Y-81700500D01*
X85285056Y-81700500D01*
X85450225Y-81659790D01*
X85529692Y-81618081D01*
X85600849Y-81580736D01*
X85600850Y-81580734D01*
X85600852Y-81580734D01*
X85728183Y-81467929D01*
X85824818Y-81327930D01*
X85885140Y-81168872D01*
X85905645Y-81000000D01*
X85885140Y-80831128D01*
X85824818Y-80672070D01*
X85821958Y-80667927D01*
X85753583Y-80568869D01*
X85728183Y-80532071D01*
X85600852Y-80419266D01*
X85600849Y-80419263D01*
X85450226Y-80340210D01*
X85285056Y-80299500D01*
X85114944Y-80299500D01*
X84949773Y-80340210D01*
X84799150Y-80419263D01*
X84671816Y-80532072D01*
X84575182Y-80672068D01*
X84575181Y-80672071D01*
X84556687Y-80720835D01*
X84514509Y-80776537D01*
X84448911Y-80800593D01*
X84380721Y-80785365D01*
X84338696Y-80747302D01*
X84328183Y-80732071D01*
X84200849Y-80619263D01*
X84050226Y-80540210D01*
X83885056Y-80499500D01*
X83714944Y-80499500D01*
X83549773Y-80540210D01*
X83399150Y-80619263D01*
X83271815Y-80732072D01*
X83261301Y-80747305D01*
X83207017Y-80791294D01*
X83137568Y-80798951D01*
X83075004Y-80767846D01*
X83043311Y-80720833D01*
X83024818Y-80672071D01*
X83024818Y-80672070D01*
X83021958Y-80667927D01*
X82953583Y-80568869D01*
X82928183Y-80532071D01*
X82800852Y-80419266D01*
X82800849Y-80419263D01*
X82650226Y-80340210D01*
X82485056Y-80299500D01*
X82314944Y-80299500D01*
X82149774Y-80340209D01*
X82088505Y-80372366D01*
X82019996Y-80386090D01*
X81954943Y-80360597D01*
X81933211Y-80337636D01*
X81933157Y-80337685D01*
X81931686Y-80336025D01*
X81928828Y-80333005D01*
X81928184Y-80332072D01*
X81800849Y-80219263D01*
X81650226Y-80140210D01*
X81485056Y-80099500D01*
X81314944Y-80099500D01*
X81149773Y-80140210D01*
X80999149Y-80219264D01*
X80999147Y-80219266D01*
X80891180Y-80314915D01*
X80827947Y-80344636D01*
X80758684Y-80335452D01*
X80705381Y-80290279D01*
X80685858Y-80237043D01*
X80685140Y-80231128D01*
X80680641Y-80219266D01*
X80650660Y-80140210D01*
X80624818Y-80072070D01*
X80621959Y-80067927D01*
X80528182Y-79932069D01*
X80483873Y-79892816D01*
X80446746Y-79833627D01*
X80447513Y-79763761D01*
X80483873Y-79707184D01*
X80528182Y-79667930D01*
X80533802Y-79659789D01*
X80624818Y-79527930D01*
X80685140Y-79368872D01*
X80704351Y-79210660D01*
X85549380Y-79210660D01*
X85569884Y-79379529D01*
X85569885Y-79379534D01*
X85630207Y-79538591D01*
X85677209Y-79606684D01*
X85726842Y-79678589D01*
X85796398Y-79740210D01*
X85854175Y-79791396D01*
X86004799Y-79870450D01*
X86040167Y-79879167D01*
X86095688Y-79892851D01*
X86156068Y-79928007D01*
X86187857Y-79990226D01*
X86180962Y-80059754D01*
X86175814Y-80070866D01*
X86175182Y-80072069D01*
X86114860Y-80231125D01*
X86114859Y-80231130D01*
X86094355Y-80400000D01*
X86114859Y-80568869D01*
X86114860Y-80568874D01*
X86175182Y-80727931D01*
X86224929Y-80800000D01*
X86271817Y-80867929D01*
X86334175Y-80923173D01*
X86399150Y-80980736D01*
X86549773Y-81059789D01*
X86549775Y-81059790D01*
X86714944Y-81100500D01*
X86885056Y-81100500D01*
X87050225Y-81059790D01*
X87164144Y-81000000D01*
X87200849Y-80980736D01*
X87200850Y-80980734D01*
X87200852Y-80980734D01*
X87328183Y-80867929D01*
X87424818Y-80727930D01*
X87485140Y-80568872D01*
X87505645Y-80400000D01*
X87485140Y-80231128D01*
X87480641Y-80219266D01*
X87450660Y-80140210D01*
X87424818Y-80072070D01*
X87421958Y-80067927D01*
X87352665Y-79967539D01*
X87328183Y-79932071D01*
X87200852Y-79819266D01*
X87200849Y-79819263D01*
X87050226Y-79740210D01*
X86959336Y-79717808D01*
X86898955Y-79682652D01*
X86867167Y-79620432D01*
X86874063Y-79550904D01*
X86879219Y-79539776D01*
X86879835Y-79538600D01*
X86879843Y-79538590D01*
X86940165Y-79379532D01*
X86960670Y-79210660D01*
X86940165Y-79041788D01*
X86936121Y-79031126D01*
X86893874Y-78919728D01*
X86879843Y-78882730D01*
X86866834Y-78863884D01*
X86836037Y-78819266D01*
X86783208Y-78742731D01*
X86655877Y-78629926D01*
X86655874Y-78629923D01*
X86505251Y-78550870D01*
X86340081Y-78510160D01*
X86169969Y-78510160D01*
X86004798Y-78550870D01*
X85854175Y-78629923D01*
X85726841Y-78742732D01*
X85630207Y-78882728D01*
X85569885Y-79041785D01*
X85569884Y-79041790D01*
X85549380Y-79210660D01*
X80704351Y-79210660D01*
X80705645Y-79200000D01*
X80685140Y-79031128D01*
X80680641Y-79019266D01*
X80660953Y-78967352D01*
X80624818Y-78872070D01*
X80621958Y-78867927D01*
X80549499Y-78762953D01*
X80528183Y-78732071D01*
X80412885Y-78629926D01*
X80400849Y-78619263D01*
X80250226Y-78540210D01*
X80087085Y-78500000D01*
X91294355Y-78500000D01*
X91314859Y-78668869D01*
X91314860Y-78668874D01*
X91375182Y-78827931D01*
X91424929Y-78900000D01*
X91471817Y-78967929D01*
X91566787Y-79052065D01*
X91599150Y-79080736D01*
X91725981Y-79147302D01*
X91749775Y-79159790D01*
X91914944Y-79200500D01*
X92085056Y-79200500D01*
X92250225Y-79159790D01*
X92335726Y-79114915D01*
X92400849Y-79080736D01*
X92400850Y-79080734D01*
X92400852Y-79080734D01*
X92528183Y-78967929D01*
X92597951Y-78866853D01*
X92652233Y-78822864D01*
X92721681Y-78815204D01*
X92784246Y-78846307D01*
X92802047Y-78866851D01*
X92823626Y-78898113D01*
X92871816Y-78967928D01*
X92999150Y-79080736D01*
X93125981Y-79147302D01*
X93149775Y-79159790D01*
X93314944Y-79200500D01*
X93485056Y-79200500D01*
X93650225Y-79159790D01*
X93739547Y-79112909D01*
X93800845Y-79080738D01*
X93800846Y-79080736D01*
X93800852Y-79080734D01*
X93817773Y-79065742D01*
X93881004Y-79036022D01*
X93950267Y-79045204D01*
X93982224Y-79065741D01*
X93999148Y-79080734D01*
X93999150Y-79080735D01*
X93999154Y-79080738D01*
X94125981Y-79147302D01*
X94149775Y-79159790D01*
X94314944Y-79200500D01*
X94485056Y-79200500D01*
X94650225Y-79159790D01*
X94800852Y-79080734D01*
X94917774Y-78977150D01*
X94981006Y-78947429D01*
X95050269Y-78956613D01*
X95082225Y-78977149D01*
X95199146Y-79080732D01*
X95199147Y-79080733D01*
X95199149Y-79080735D01*
X95296961Y-79132071D01*
X95349775Y-79159790D01*
X95514944Y-79200500D01*
X95685056Y-79200500D01*
X95850225Y-79159790D01*
X95939547Y-79112909D01*
X96000845Y-79080738D01*
X96000847Y-79080736D01*
X96000852Y-79080734D01*
X96040259Y-79045821D01*
X96103491Y-79016100D01*
X96172755Y-79025282D01*
X96204714Y-79045821D01*
X96244122Y-79080733D01*
X96244124Y-79080735D01*
X96341936Y-79132071D01*
X96394750Y-79159790D01*
X96559919Y-79200500D01*
X96730031Y-79200500D01*
X96895200Y-79159790D01*
X97045827Y-79080734D01*
X97140260Y-78997074D01*
X97203493Y-78967352D01*
X97272756Y-78976536D01*
X97304713Y-78997072D01*
X97399148Y-79080734D01*
X97549775Y-79159790D01*
X97714944Y-79200500D01*
X97885056Y-79200500D01*
X98050225Y-79159790D01*
X98139547Y-79112909D01*
X98200845Y-79080738D01*
X98200846Y-79080736D01*
X98200852Y-79080734D01*
X98217773Y-79065742D01*
X98281004Y-79036022D01*
X98350267Y-79045204D01*
X98382224Y-79065741D01*
X98399148Y-79080734D01*
X98399150Y-79080735D01*
X98399154Y-79080738D01*
X98525981Y-79147302D01*
X98549775Y-79159790D01*
X98714944Y-79200500D01*
X98885056Y-79200500D01*
X99050225Y-79159790D01*
X99135726Y-79114915D01*
X99200849Y-79080736D01*
X99200850Y-79080734D01*
X99200852Y-79080734D01*
X99328183Y-78967929D01*
X99346009Y-78942104D01*
X99400291Y-78898113D01*
X99469740Y-78890453D01*
X99530286Y-78919728D01*
X99561554Y-78947429D01*
X99594409Y-78976536D01*
X99599147Y-78980733D01*
X99599149Y-78980735D01*
X99723161Y-79045822D01*
X99749775Y-79059790D01*
X99914944Y-79100500D01*
X100085056Y-79100500D01*
X100250225Y-79059790D01*
X100333468Y-79016100D01*
X100400849Y-78980736D01*
X100400850Y-78980734D01*
X100400852Y-78980734D01*
X100528183Y-78867929D01*
X100624818Y-78727930D01*
X100685140Y-78568872D01*
X100693503Y-78500000D01*
X101094355Y-78500000D01*
X101114859Y-78668869D01*
X101114860Y-78668874D01*
X101175182Y-78827931D01*
X101224929Y-78900000D01*
X101271817Y-78967929D01*
X101366787Y-79052065D01*
X101399150Y-79080736D01*
X101525981Y-79147302D01*
X101549775Y-79159790D01*
X101714944Y-79200500D01*
X101885056Y-79200500D01*
X102050225Y-79159790D01*
X102135726Y-79114915D01*
X102200849Y-79080736D01*
X102200850Y-79080734D01*
X102200852Y-79080734D01*
X102328183Y-78967929D01*
X102375071Y-78900000D01*
X105294355Y-78900000D01*
X105314859Y-79068869D01*
X105314860Y-79068874D01*
X105375182Y-79227931D01*
X105437475Y-79318177D01*
X105471817Y-79367929D01*
X105555080Y-79441693D01*
X105599150Y-79480736D01*
X105732844Y-79550904D01*
X105749775Y-79559790D01*
X105914944Y-79600500D01*
X106085056Y-79600500D01*
X106250225Y-79559790D01*
X106365097Y-79499500D01*
X106400849Y-79480736D01*
X106400850Y-79480734D01*
X106400852Y-79480734D01*
X106528183Y-79367929D01*
X106624818Y-79227930D01*
X106635410Y-79200000D01*
X107094355Y-79200000D01*
X107114859Y-79368869D01*
X107114860Y-79368874D01*
X107175182Y-79527931D01*
X107224929Y-79600000D01*
X107271817Y-79667929D01*
X107339546Y-79727931D01*
X107399150Y-79780736D01*
X107549773Y-79859789D01*
X107549775Y-79859790D01*
X107714944Y-79900500D01*
X107885056Y-79900500D01*
X108050225Y-79859790D01*
X108200852Y-79780734D01*
X108308818Y-79685085D01*
X108372051Y-79655363D01*
X108441314Y-79664547D01*
X108494618Y-79709719D01*
X108514141Y-79762951D01*
X108514859Y-79768869D01*
X108514860Y-79768874D01*
X108575182Y-79927931D01*
X108633056Y-80011774D01*
X108671817Y-80067929D01*
X108748393Y-80135769D01*
X108799150Y-80180736D01*
X108949773Y-80259789D01*
X108949775Y-80259790D01*
X109114944Y-80300500D01*
X109285056Y-80300500D01*
X109450225Y-80259790D01*
X109529692Y-80218081D01*
X109600849Y-80180736D01*
X109600850Y-80180734D01*
X109600852Y-80180734D01*
X109728183Y-80067929D01*
X109824818Y-79927930D01*
X109843311Y-79879166D01*
X109885488Y-79823464D01*
X109951086Y-79799406D01*
X110019276Y-79814632D01*
X110061301Y-79852694D01*
X110071817Y-79867929D01*
X110144219Y-79932071D01*
X110199150Y-79980736D01*
X110311514Y-80039709D01*
X110349775Y-80059790D01*
X110514944Y-80100500D01*
X110685056Y-80100500D01*
X110850225Y-80059790D01*
X110982767Y-79990226D01*
X111000849Y-79980736D01*
X111000850Y-79980734D01*
X111000852Y-79980734D01*
X111128183Y-79867929D01*
X111224818Y-79727930D01*
X111285140Y-79568872D01*
X111298606Y-79457970D01*
X111326226Y-79393795D01*
X111384160Y-79354738D01*
X111454013Y-79353203D01*
X111513607Y-79389677D01*
X111537643Y-79428948D01*
X111575182Y-79527930D01*
X111575182Y-79527931D01*
X111624929Y-79600000D01*
X111671817Y-79667929D01*
X111739546Y-79727931D01*
X111799150Y-79780736D01*
X111949773Y-79859789D01*
X111949775Y-79859790D01*
X112114944Y-79900500D01*
X112285056Y-79900500D01*
X112450225Y-79859790D01*
X112529692Y-79818081D01*
X112564143Y-79800000D01*
X113094355Y-79800000D01*
X113114859Y-79968869D01*
X113114860Y-79968874D01*
X113175182Y-80127931D01*
X113224929Y-80200000D01*
X113271817Y-80267929D01*
X113350556Y-80337685D01*
X113399150Y-80380736D01*
X113549773Y-80459789D01*
X113549775Y-80459790D01*
X113714944Y-80500500D01*
X113885056Y-80500500D01*
X114050225Y-80459790D01*
X114134715Y-80415446D01*
X114200849Y-80380736D01*
X114200850Y-80380734D01*
X114200852Y-80380734D01*
X114328183Y-80267929D01*
X114424818Y-80127930D01*
X114485140Y-79968872D01*
X114505645Y-79800000D01*
X115894355Y-79800000D01*
X115914859Y-79968869D01*
X115914860Y-79968874D01*
X115975182Y-80127931D01*
X116024929Y-80200000D01*
X116071817Y-80267929D01*
X116150556Y-80337685D01*
X116199150Y-80380736D01*
X116349773Y-80459789D01*
X116349775Y-80459790D01*
X116514944Y-80500500D01*
X116685056Y-80500500D01*
X116850225Y-80459790D01*
X116934715Y-80415446D01*
X117000849Y-80380736D01*
X117000850Y-80380734D01*
X117000852Y-80380734D01*
X117128183Y-80267929D01*
X117175071Y-80200000D01*
X119094355Y-80200000D01*
X119114859Y-80368869D01*
X119114860Y-80368874D01*
X119175182Y-80527931D01*
X119237475Y-80618177D01*
X119271817Y-80667929D01*
X119377505Y-80761560D01*
X119399150Y-80780736D01*
X119541340Y-80855363D01*
X119549775Y-80859790D01*
X119714944Y-80900500D01*
X119885056Y-80900500D01*
X120050225Y-80859790D01*
X120129692Y-80818081D01*
X120200849Y-80780736D01*
X120200850Y-80780734D01*
X120200852Y-80780734D01*
X120328183Y-80667929D01*
X120424818Y-80527930D01*
X120485140Y-80368872D01*
X120505645Y-80200000D01*
X122094355Y-80200000D01*
X122114859Y-80368869D01*
X122114860Y-80368874D01*
X122175182Y-80527931D01*
X122237475Y-80618177D01*
X122271817Y-80667929D01*
X122377505Y-80761560D01*
X122399150Y-80780736D01*
X122541340Y-80855363D01*
X122549775Y-80859790D01*
X122714944Y-80900500D01*
X122885056Y-80900500D01*
X123050225Y-80859790D01*
X123129692Y-80818081D01*
X123200849Y-80780736D01*
X123200850Y-80780734D01*
X123200852Y-80780734D01*
X123328183Y-80667929D01*
X123424818Y-80527930D01*
X123485140Y-80368872D01*
X123505645Y-80200000D01*
X123485140Y-80031128D01*
X123484141Y-80028495D01*
X123432685Y-79892815D01*
X123424818Y-79872070D01*
X123421958Y-79867927D01*
X123361774Y-79780736D01*
X123328183Y-79732071D01*
X123214244Y-79631130D01*
X123200849Y-79619263D01*
X123050226Y-79540210D01*
X122885056Y-79499500D01*
X122714944Y-79499500D01*
X122549773Y-79540210D01*
X122399150Y-79619263D01*
X122271816Y-79732072D01*
X122175182Y-79872068D01*
X122114860Y-80031125D01*
X122114859Y-80031130D01*
X122094355Y-80200000D01*
X120505645Y-80200000D01*
X120485140Y-80031128D01*
X120484141Y-80028495D01*
X120432685Y-79892815D01*
X120424818Y-79872070D01*
X120408072Y-79847810D01*
X120386189Y-79781457D01*
X120403654Y-79713805D01*
X120454921Y-79666335D01*
X120523714Y-79654117D01*
X120542342Y-79658600D01*
X120542492Y-79657995D01*
X120620212Y-79677151D01*
X120714944Y-79700500D01*
X120885056Y-79700500D01*
X121050225Y-79659790D01*
X121151409Y-79606684D01*
X121200849Y-79580736D01*
X121200850Y-79580734D01*
X121200852Y-79580734D01*
X121328183Y-79467929D01*
X121424818Y-79327930D01*
X121473335Y-79200000D01*
X123494355Y-79200000D01*
X123514859Y-79368869D01*
X123514860Y-79368874D01*
X123575182Y-79527931D01*
X123624929Y-79600000D01*
X123671817Y-79667929D01*
X123739546Y-79727931D01*
X123799150Y-79780736D01*
X123949773Y-79859789D01*
X123949775Y-79859790D01*
X124114944Y-79900500D01*
X124285056Y-79900500D01*
X124450225Y-79859790D01*
X124529692Y-79818081D01*
X124600849Y-79780736D01*
X124600850Y-79780734D01*
X124600852Y-79780734D01*
X124728183Y-79667929D01*
X124824818Y-79527930D01*
X124885140Y-79368872D01*
X124905645Y-79200000D01*
X124885140Y-79031128D01*
X124880641Y-79019266D01*
X124860953Y-78967352D01*
X124824818Y-78872070D01*
X124821958Y-78867927D01*
X124749499Y-78762953D01*
X124728183Y-78732071D01*
X124612885Y-78629926D01*
X124600849Y-78619263D01*
X124450226Y-78540210D01*
X124285056Y-78499500D01*
X124114944Y-78499500D01*
X123949773Y-78540210D01*
X123799150Y-78619263D01*
X123739544Y-78672070D01*
X123672882Y-78731128D01*
X123671816Y-78732072D01*
X123575182Y-78872068D01*
X123514860Y-79031125D01*
X123514859Y-79031130D01*
X123494355Y-79200000D01*
X121473335Y-79200000D01*
X121485140Y-79168872D01*
X121505645Y-79000000D01*
X121485140Y-78831128D01*
X121480641Y-78819266D01*
X121424817Y-78672068D01*
X121376422Y-78601957D01*
X121328183Y-78532071D01*
X121200852Y-78419266D01*
X121200849Y-78419263D01*
X121050226Y-78340210D01*
X120885056Y-78299500D01*
X120714944Y-78299500D01*
X120549773Y-78340210D01*
X120399150Y-78419263D01*
X120271816Y-78532072D01*
X120175182Y-78672068D01*
X120114860Y-78831125D01*
X120114859Y-78831130D01*
X120094355Y-79000000D01*
X120114859Y-79168869D01*
X120114860Y-79168874D01*
X120138470Y-79231128D01*
X120175182Y-79327930D01*
X120191927Y-79352190D01*
X120213810Y-79418543D01*
X120196345Y-79486194D01*
X120145078Y-79533665D01*
X120076284Y-79545882D01*
X120057656Y-79541401D01*
X120057508Y-79542005D01*
X119885056Y-79499500D01*
X119714944Y-79499500D01*
X119549773Y-79540210D01*
X119399150Y-79619263D01*
X119271816Y-79732072D01*
X119175182Y-79872068D01*
X119114860Y-80031125D01*
X119114859Y-80031130D01*
X119094355Y-80200000D01*
X117175071Y-80200000D01*
X117224818Y-80127930D01*
X117285140Y-79968872D01*
X117305645Y-79800000D01*
X117285140Y-79631128D01*
X117275868Y-79606681D01*
X117270502Y-79537020D01*
X117303649Y-79475514D01*
X117364787Y-79441693D01*
X117434505Y-79446294D01*
X117474038Y-79469897D01*
X117599147Y-79580733D01*
X117599149Y-79580735D01*
X117706440Y-79637046D01*
X117749775Y-79659790D01*
X117914944Y-79700500D01*
X118085056Y-79700500D01*
X118250225Y-79659790D01*
X118351409Y-79606684D01*
X118400849Y-79580736D01*
X118400850Y-79580734D01*
X118400852Y-79580734D01*
X118528183Y-79467929D01*
X118624818Y-79327930D01*
X118685140Y-79168872D01*
X118705645Y-79000000D01*
X118685140Y-78831128D01*
X118680641Y-78819266D01*
X118624817Y-78672068D01*
X118576422Y-78601957D01*
X118528183Y-78532071D01*
X118400852Y-78419266D01*
X118400849Y-78419263D01*
X118250226Y-78340210D01*
X118085056Y-78299500D01*
X117914944Y-78299500D01*
X117749773Y-78340210D01*
X117599150Y-78419263D01*
X117471816Y-78532072D01*
X117375182Y-78672068D01*
X117314860Y-78831125D01*
X117314859Y-78831130D01*
X117294355Y-79000000D01*
X117314859Y-79168869D01*
X117314859Y-79168870D01*
X117314860Y-79168872D01*
X117323244Y-79190980D01*
X117324131Y-79193317D01*
X117329497Y-79262981D01*
X117296348Y-79324486D01*
X117235210Y-79358307D01*
X117165492Y-79353704D01*
X117125961Y-79330102D01*
X117000852Y-79219266D01*
X117000850Y-79219264D01*
X116850226Y-79140210D01*
X116685056Y-79099500D01*
X116514944Y-79099500D01*
X116349773Y-79140210D01*
X116199150Y-79219263D01*
X116139544Y-79272070D01*
X116076494Y-79327928D01*
X116071816Y-79332072D01*
X115975182Y-79472068D01*
X115914860Y-79631125D01*
X115914859Y-79631130D01*
X115894355Y-79800000D01*
X114505645Y-79800000D01*
X114499323Y-79747935D01*
X114510783Y-79679012D01*
X114557687Y-79627226D01*
X114625143Y-79609019D01*
X114680045Y-79623193D01*
X114706440Y-79637046D01*
X114749775Y-79659790D01*
X114914944Y-79700500D01*
X115085056Y-79700500D01*
X115250225Y-79659790D01*
X115351409Y-79606684D01*
X115400849Y-79580736D01*
X115400850Y-79580734D01*
X115400852Y-79580734D01*
X115528183Y-79467929D01*
X115624818Y-79327930D01*
X115685140Y-79168872D01*
X115705645Y-79000000D01*
X115685140Y-78831128D01*
X115680641Y-78819266D01*
X115624817Y-78672068D01*
X115576422Y-78601957D01*
X115528183Y-78532071D01*
X115400852Y-78419266D01*
X115400849Y-78419263D01*
X115250226Y-78340210D01*
X115085056Y-78299500D01*
X114914944Y-78299500D01*
X114749773Y-78340210D01*
X114599150Y-78419263D01*
X114471816Y-78532072D01*
X114375182Y-78672068D01*
X114314860Y-78831125D01*
X114314859Y-78831130D01*
X114294355Y-79000000D01*
X114294355Y-79000001D01*
X114300676Y-79052065D01*
X114289215Y-79120988D01*
X114242311Y-79172774D01*
X114174855Y-79190980D01*
X114119954Y-79176807D01*
X114087529Y-79159789D01*
X114050225Y-79140210D01*
X114050224Y-79140209D01*
X114050223Y-79140209D01*
X113885056Y-79099500D01*
X113714944Y-79099500D01*
X113549773Y-79140210D01*
X113399150Y-79219263D01*
X113339544Y-79272070D01*
X113276494Y-79327928D01*
X113271816Y-79332072D01*
X113175182Y-79472068D01*
X113114860Y-79631125D01*
X113114859Y-79631130D01*
X113094355Y-79800000D01*
X112564143Y-79800000D01*
X112600849Y-79780736D01*
X112600850Y-79780734D01*
X112600852Y-79780734D01*
X112728183Y-79667929D01*
X112824818Y-79527930D01*
X112885140Y-79368872D01*
X112905645Y-79200000D01*
X112885140Y-79031128D01*
X112880641Y-79019266D01*
X112860953Y-78967352D01*
X112824818Y-78872070D01*
X112821958Y-78867927D01*
X112749499Y-78762953D01*
X112728183Y-78732071D01*
X112612885Y-78629926D01*
X112600849Y-78619263D01*
X112450226Y-78540210D01*
X112285056Y-78499500D01*
X112114944Y-78499500D01*
X111949773Y-78540210D01*
X111799150Y-78619263D01*
X111739544Y-78672070D01*
X111672882Y-78731128D01*
X111671816Y-78732072D01*
X111575182Y-78872068D01*
X111514860Y-79031125D01*
X111514859Y-79031131D01*
X111501394Y-79142027D01*
X111473772Y-79206205D01*
X111415838Y-79245261D01*
X111345985Y-79246796D01*
X111286391Y-79210321D01*
X111262356Y-79171051D01*
X111261529Y-79168870D01*
X111224818Y-79072070D01*
X111222608Y-79068869D01*
X111175071Y-79000000D01*
X111128183Y-78932071D01*
X111014244Y-78831130D01*
X111000849Y-78819263D01*
X110850226Y-78740210D01*
X110685056Y-78699500D01*
X110514944Y-78699500D01*
X110349773Y-78740210D01*
X110199150Y-78819263D01*
X110071816Y-78932072D01*
X109975182Y-79072068D01*
X109975181Y-79072071D01*
X109956687Y-79120835D01*
X109914509Y-79176537D01*
X109848911Y-79200593D01*
X109780721Y-79185365D01*
X109738696Y-79147302D01*
X109728183Y-79132071D01*
X109600849Y-79019263D01*
X109450226Y-78940210D01*
X109285056Y-78899500D01*
X109114944Y-78899500D01*
X108949773Y-78940210D01*
X108799149Y-79019264D01*
X108799147Y-79019266D01*
X108691180Y-79114915D01*
X108627947Y-79144636D01*
X108558684Y-79135452D01*
X108505381Y-79090279D01*
X108485858Y-79037043D01*
X108485140Y-79031128D01*
X108480641Y-79019266D01*
X108460953Y-78967352D01*
X108424818Y-78872070D01*
X108421958Y-78867927D01*
X108349499Y-78762953D01*
X108328183Y-78732071D01*
X108212885Y-78629926D01*
X108200849Y-78619263D01*
X108050226Y-78540210D01*
X107885056Y-78499500D01*
X107714944Y-78499500D01*
X107549773Y-78540210D01*
X107399150Y-78619263D01*
X107339544Y-78672070D01*
X107272882Y-78731128D01*
X107271816Y-78732072D01*
X107175182Y-78872068D01*
X107114860Y-79031125D01*
X107114859Y-79031130D01*
X107094355Y-79200000D01*
X106635410Y-79200000D01*
X106685140Y-79068872D01*
X106705645Y-78900000D01*
X106685140Y-78731128D01*
X106624818Y-78572070D01*
X106622608Y-78568869D01*
X106569660Y-78492161D01*
X106528183Y-78432071D01*
X106414244Y-78331130D01*
X106400849Y-78319263D01*
X106250226Y-78240210D01*
X106085056Y-78199500D01*
X105914944Y-78199500D01*
X105749773Y-78240210D01*
X105599150Y-78319263D01*
X105471816Y-78432072D01*
X105375182Y-78572068D01*
X105314860Y-78731125D01*
X105314859Y-78731130D01*
X105294355Y-78900000D01*
X102375071Y-78900000D01*
X102424818Y-78827930D01*
X102485140Y-78668872D01*
X102505645Y-78500000D01*
X102485140Y-78331128D01*
X102480641Y-78319266D01*
X102424817Y-78172068D01*
X102368306Y-78090199D01*
X102328183Y-78032071D01*
X102233316Y-77948026D01*
X102200849Y-77919263D01*
X102050226Y-77840210D01*
X101885056Y-77799500D01*
X101714944Y-77799500D01*
X101549773Y-77840210D01*
X101399150Y-77919263D01*
X101271816Y-78032072D01*
X101175182Y-78172068D01*
X101114860Y-78331125D01*
X101114859Y-78331130D01*
X101094355Y-78500000D01*
X100693503Y-78500000D01*
X100705645Y-78400000D01*
X100685140Y-78231128D01*
X100624818Y-78072070D01*
X100597208Y-78032071D01*
X100577091Y-78002926D01*
X100528183Y-77932071D01*
X100400852Y-77819266D01*
X100400849Y-77819263D01*
X100250226Y-77740210D01*
X100085056Y-77699500D01*
X99914944Y-77699500D01*
X99749773Y-77740210D01*
X99599150Y-77819263D01*
X99471815Y-77932072D01*
X99453988Y-77957899D01*
X99399704Y-78001888D01*
X99330255Y-78009545D01*
X99269713Y-77980271D01*
X99200852Y-77919266D01*
X99200850Y-77919264D01*
X99050226Y-77840210D01*
X98885056Y-77799500D01*
X98714944Y-77799500D01*
X98549773Y-77840210D01*
X98399150Y-77919264D01*
X98382227Y-77934257D01*
X98318993Y-77963978D01*
X98249730Y-77954794D01*
X98217773Y-77934257D01*
X98215307Y-77932072D01*
X98200852Y-77919266D01*
X98200850Y-77919265D01*
X98200849Y-77919264D01*
X98050226Y-77840210D01*
X97885056Y-77799500D01*
X97714944Y-77799500D01*
X97549773Y-77840210D01*
X97399149Y-77919264D01*
X97399147Y-77919266D01*
X97304713Y-78002926D01*
X97241480Y-78032647D01*
X97172216Y-78023463D01*
X97140260Y-78002926D01*
X97118784Y-77983900D01*
X97045827Y-77919266D01*
X97045825Y-77919265D01*
X97045824Y-77919264D01*
X96895201Y-77840210D01*
X96730031Y-77799500D01*
X96559919Y-77799500D01*
X96394748Y-77840210D01*
X96244124Y-77919264D01*
X96244122Y-77919266D01*
X96204713Y-77954179D01*
X96141480Y-77983900D01*
X96072216Y-77974716D01*
X96040260Y-77954178D01*
X96000852Y-77919266D01*
X96000850Y-77919264D01*
X95850226Y-77840210D01*
X95685056Y-77799500D01*
X95514944Y-77799500D01*
X95349773Y-77840210D01*
X95199150Y-77919263D01*
X95082227Y-78022849D01*
X95018994Y-78052570D01*
X94949730Y-78043386D01*
X94917773Y-78022849D01*
X94800849Y-77919263D01*
X94650226Y-77840210D01*
X94485056Y-77799500D01*
X94314944Y-77799500D01*
X94149773Y-77840210D01*
X93999150Y-77919264D01*
X93982227Y-77934257D01*
X93918993Y-77963978D01*
X93849730Y-77954794D01*
X93817773Y-77934257D01*
X93815307Y-77932072D01*
X93800852Y-77919266D01*
X93800850Y-77919265D01*
X93800849Y-77919264D01*
X93650226Y-77840210D01*
X93485056Y-77799500D01*
X93314944Y-77799500D01*
X93149773Y-77840210D01*
X92999150Y-77919263D01*
X92881533Y-78023463D01*
X92871817Y-78032071D01*
X92802048Y-78133146D01*
X92747767Y-78177136D01*
X92678318Y-78184795D01*
X92615753Y-78153691D01*
X92597952Y-78133148D01*
X92528183Y-78032071D01*
X92439964Y-77953916D01*
X92400849Y-77919263D01*
X92250226Y-77840210D01*
X92085056Y-77799500D01*
X91914944Y-77799500D01*
X91749773Y-77840210D01*
X91599150Y-77919263D01*
X91471816Y-78032072D01*
X91375182Y-78172068D01*
X91314860Y-78331125D01*
X91314859Y-78331130D01*
X91294355Y-78500000D01*
X80087085Y-78500000D01*
X80085056Y-78499500D01*
X79914944Y-78499500D01*
X79749773Y-78540210D01*
X79599150Y-78619263D01*
X79482227Y-78722849D01*
X79418994Y-78752570D01*
X79349730Y-78743386D01*
X79317773Y-78722849D01*
X79200849Y-78619263D01*
X79050226Y-78540210D01*
X78885056Y-78499500D01*
X78714944Y-78499500D01*
X78549773Y-78540210D01*
X78399150Y-78619263D01*
X78282227Y-78722849D01*
X78218994Y-78752570D01*
X78149730Y-78743386D01*
X78117773Y-78722849D01*
X78000849Y-78619263D01*
X77850226Y-78540210D01*
X77685056Y-78499500D01*
X77514944Y-78499500D01*
X77349773Y-78540210D01*
X77232126Y-78601957D01*
X77163618Y-78615683D01*
X77098564Y-78590191D01*
X77057620Y-78533575D01*
X77050500Y-78492161D01*
X77050500Y-73400000D01*
X91094355Y-73400000D01*
X91114859Y-73568869D01*
X91114860Y-73568874D01*
X91175182Y-73727931D01*
X91237475Y-73818177D01*
X91271817Y-73867929D01*
X91377505Y-73961560D01*
X91399150Y-73980736D01*
X91546016Y-74057817D01*
X91549775Y-74059790D01*
X91714944Y-74100500D01*
X91885056Y-74100500D01*
X92050225Y-74059790D01*
X92164144Y-74000000D01*
X95594355Y-74000000D01*
X95614859Y-74168869D01*
X95614860Y-74168874D01*
X95675182Y-74327931D01*
X95737475Y-74418177D01*
X95771817Y-74467929D01*
X95877505Y-74561560D01*
X95899150Y-74580736D01*
X96049773Y-74659789D01*
X96049775Y-74659790D01*
X96214944Y-74700500D01*
X96385056Y-74700500D01*
X96550225Y-74659790D01*
X96629692Y-74618081D01*
X96700849Y-74580736D01*
X96700850Y-74580734D01*
X96700852Y-74580734D01*
X96828183Y-74467929D01*
X96924818Y-74327930D01*
X96985140Y-74168872D01*
X97005645Y-74000000D01*
X96985140Y-73831128D01*
X96924818Y-73672070D01*
X96922889Y-73669276D01*
X98689500Y-73669276D01*
X98721172Y-73980734D01*
X98729012Y-74057822D01*
X98784520Y-74327930D01*
X98807630Y-74440382D01*
X98807631Y-74440388D01*
X98924541Y-74813008D01*
X99078558Y-75171912D01*
X99268097Y-75513394D01*
X99491206Y-75833945D01*
X99745598Y-76130275D01*
X99745599Y-76130276D01*
X100028667Y-76399352D01*
X100337505Y-76638411D01*
X100464071Y-76717300D01*
X100668935Y-76844993D01*
X100668944Y-76844998D01*
X101019582Y-77016994D01*
X101019589Y-77016996D01*
X101019590Y-77016997D01*
X101385812Y-77152631D01*
X101385814Y-77152631D01*
X101385821Y-77152634D01*
X101763904Y-77250527D01*
X102149951Y-77309667D01*
X102442434Y-77324500D01*
X102442450Y-77324500D01*
X102637550Y-77324500D01*
X102637566Y-77324500D01*
X102930049Y-77309667D01*
X103316096Y-77250527D01*
X103694179Y-77152634D01*
X104060418Y-77016994D01*
X104411056Y-76844998D01*
X104742495Y-76638411D01*
X105051333Y-76399352D01*
X105334401Y-76130276D01*
X105588795Y-75833943D01*
X105811904Y-75513393D01*
X106001439Y-75171917D01*
X106155455Y-74813017D01*
X106190758Y-74700500D01*
X106272368Y-74440388D01*
X106272368Y-74440387D01*
X106272371Y-74440378D01*
X106350988Y-74057822D01*
X106390500Y-73669275D01*
X106390500Y-73278725D01*
X106385659Y-73231125D01*
X106355248Y-72932069D01*
X106350988Y-72890178D01*
X106272371Y-72507622D01*
X106272368Y-72507611D01*
X106155458Y-72134991D01*
X106141661Y-72102841D01*
X106001439Y-71776083D01*
X105811904Y-71434607D01*
X105588795Y-71114057D01*
X105588793Y-71114054D01*
X105334401Y-70817724D01*
X105315753Y-70799998D01*
X105051333Y-70548648D01*
X104984812Y-70497157D01*
X104742495Y-70309589D01*
X104411064Y-70103006D01*
X104411055Y-70103001D01*
X104060422Y-69931008D01*
X104060409Y-69931002D01*
X103694187Y-69795368D01*
X103620464Y-69776279D01*
X103316096Y-69697473D01*
X103316093Y-69697472D01*
X103316091Y-69697472D01*
X102930048Y-69638332D01*
X102699219Y-69626626D01*
X102637566Y-69623500D01*
X102442434Y-69623500D01*
X102393111Y-69626001D01*
X102149951Y-69638332D01*
X101763908Y-69697472D01*
X101385813Y-69795368D01*
X101385812Y-69795368D01*
X101019590Y-69931002D01*
X101019577Y-69931008D01*
X100668944Y-70103001D01*
X100668935Y-70103006D01*
X100337504Y-70309589D01*
X100028672Y-70548643D01*
X99745598Y-70817724D01*
X99491206Y-71114054D01*
X99268097Y-71434605D01*
X99078558Y-71776087D01*
X98924541Y-72134991D01*
X98807631Y-72507611D01*
X98807630Y-72507617D01*
X98729011Y-72890182D01*
X98689500Y-73278723D01*
X98689500Y-73669276D01*
X96922889Y-73669276D01*
X96853583Y-73568869D01*
X96828183Y-73532071D01*
X96700852Y-73419266D01*
X96700849Y-73419263D01*
X96550226Y-73340210D01*
X96385056Y-73299500D01*
X96214944Y-73299500D01*
X96049773Y-73340210D01*
X95899150Y-73419263D01*
X95771816Y-73532072D01*
X95675182Y-73672068D01*
X95614860Y-73831125D01*
X95614859Y-73831130D01*
X95594355Y-74000000D01*
X92164144Y-74000000D01*
X92200849Y-73980736D01*
X92200850Y-73980734D01*
X92200852Y-73980734D01*
X92328183Y-73867929D01*
X92424818Y-73727930D01*
X92485140Y-73568872D01*
X92505645Y-73400000D01*
X92485140Y-73231128D01*
X92424818Y-73072070D01*
X92328183Y-72932071D01*
X92328182Y-72932069D01*
X92285863Y-72894579D01*
X92248736Y-72835390D01*
X92249502Y-72765524D01*
X92285860Y-72708949D01*
X92328213Y-72671429D01*
X92424848Y-72531430D01*
X92485170Y-72372372D01*
X92505675Y-72203500D01*
X92505250Y-72200000D01*
X96294355Y-72200000D01*
X96314859Y-72368869D01*
X96314860Y-72368874D01*
X96375182Y-72527931D01*
X96437475Y-72618177D01*
X96471817Y-72667929D01*
X96577505Y-72761560D01*
X96599150Y-72780736D01*
X96749773Y-72859789D01*
X96749775Y-72859790D01*
X96914944Y-72900500D01*
X97085056Y-72900500D01*
X97250225Y-72859790D01*
X97329692Y-72818081D01*
X97400849Y-72780736D01*
X97400850Y-72780734D01*
X97400852Y-72780734D01*
X97528183Y-72667929D01*
X97624818Y-72527930D01*
X97685140Y-72368872D01*
X97705645Y-72200000D01*
X97685140Y-72031128D01*
X97624818Y-71872070D01*
X97528183Y-71732071D01*
X97404803Y-71622766D01*
X97400849Y-71619263D01*
X97250226Y-71540210D01*
X97085056Y-71499500D01*
X96914944Y-71499500D01*
X96749773Y-71540210D01*
X96599150Y-71619263D01*
X96471816Y-71732072D01*
X96375182Y-71872068D01*
X96314860Y-72031125D01*
X96314859Y-72031130D01*
X96294355Y-72200000D01*
X92505250Y-72200000D01*
X92485170Y-72034628D01*
X92483843Y-72031130D01*
X92424847Y-71875568D01*
X92356179Y-71776087D01*
X92328213Y-71735571D01*
X92200882Y-71622766D01*
X92200879Y-71622763D01*
X92050256Y-71543710D01*
X91885086Y-71503000D01*
X91714974Y-71503000D01*
X91549803Y-71543710D01*
X91399180Y-71622763D01*
X91271846Y-71735572D01*
X91175212Y-71875568D01*
X91114890Y-72034625D01*
X91114889Y-72034630D01*
X91094385Y-72203500D01*
X91114889Y-72372369D01*
X91114890Y-72372374D01*
X91175212Y-72531431D01*
X91271847Y-72671430D01*
X91314166Y-72708920D01*
X91351293Y-72768109D01*
X91350527Y-72837974D01*
X91314168Y-72894551D01*
X91271816Y-72932071D01*
X91175182Y-73072068D01*
X91114860Y-73231125D01*
X91114859Y-73231130D01*
X91094355Y-73400000D01*
X77050500Y-73400000D01*
X77050500Y-69956234D01*
X81181405Y-69956234D01*
X81202042Y-70112993D01*
X81202043Y-70112995D01*
X81262551Y-70259074D01*
X81302429Y-70311045D01*
X81327623Y-70376212D01*
X81313585Y-70444657D01*
X81302430Y-70462015D01*
X81275464Y-70497158D01*
X81214956Y-70643237D01*
X81214955Y-70643239D01*
X81194318Y-70799998D01*
X81194318Y-70800001D01*
X81214955Y-70956760D01*
X81214956Y-70956762D01*
X81275464Y-71102842D01*
X81368826Y-71224514D01*
X81394020Y-71289683D01*
X81379981Y-71358128D01*
X81368826Y-71375486D01*
X81275464Y-71497157D01*
X81214956Y-71643237D01*
X81214955Y-71643239D01*
X81194318Y-71799998D01*
X81194318Y-71800001D01*
X81214955Y-71956760D01*
X81214956Y-71956762D01*
X81275464Y-72102841D01*
X81371718Y-72228282D01*
X81497159Y-72324536D01*
X81643238Y-72385044D01*
X81721619Y-72395363D01*
X81799999Y-72405682D01*
X81800000Y-72405682D01*
X81800001Y-72405682D01*
X81852254Y-72398802D01*
X81956762Y-72385044D01*
X82102841Y-72324536D01*
X82228282Y-72228282D01*
X82324536Y-72102841D01*
X82385044Y-71956762D01*
X82405682Y-71800000D01*
X82385044Y-71643238D01*
X82324536Y-71497159D01*
X82231171Y-71375484D01*
X82205979Y-71310317D01*
X82220017Y-71241873D01*
X82231167Y-71224521D01*
X82324536Y-71102841D01*
X82385044Y-70956762D01*
X82405682Y-70800000D01*
X82385044Y-70643238D01*
X82324536Y-70497159D01*
X82324535Y-70497158D01*
X82324535Y-70497157D01*
X82284657Y-70445187D01*
X82259463Y-70380018D01*
X82273502Y-70311573D01*
X82284652Y-70294221D01*
X82311623Y-70259074D01*
X82372131Y-70112995D01*
X82392769Y-69956233D01*
X82372131Y-69799471D01*
X82311623Y-69653392D01*
X82311621Y-69653390D01*
X82310579Y-69650873D01*
X82303110Y-69581404D01*
X82326763Y-69527935D01*
X82377519Y-69461790D01*
X82438027Y-69315711D01*
X82458665Y-69158949D01*
X82438027Y-69002187D01*
X82377519Y-68856108D01*
X82281265Y-68730667D01*
X82281262Y-68730664D01*
X82281260Y-68730662D01*
X82275518Y-68724920D01*
X82277226Y-68723211D01*
X82243261Y-68676695D01*
X82239106Y-68606949D01*
X82273318Y-68546028D01*
X82297958Y-68527354D01*
X82302832Y-68524539D01*
X82302841Y-68524536D01*
X82428282Y-68428282D01*
X82449983Y-68400000D01*
X96294355Y-68400000D01*
X96314859Y-68568869D01*
X96314860Y-68568874D01*
X96375182Y-68727931D01*
X96377071Y-68730667D01*
X96471817Y-68867929D01*
X96577505Y-68961560D01*
X96599150Y-68980736D01*
X96749773Y-69059789D01*
X96749775Y-69059790D01*
X96914944Y-69100500D01*
X97085056Y-69100500D01*
X97250225Y-69059790D01*
X97353318Y-69005682D01*
X97364144Y-69000000D01*
X98494355Y-69000000D01*
X98514859Y-69168869D01*
X98514860Y-69168874D01*
X98575182Y-69327931D01*
X98637475Y-69418177D01*
X98671817Y-69467929D01*
X98777505Y-69561560D01*
X98799150Y-69580736D01*
X98932785Y-69650873D01*
X98949775Y-69659790D01*
X99114944Y-69700500D01*
X99285056Y-69700500D01*
X99450225Y-69659790D01*
X99529692Y-69618081D01*
X99600849Y-69580736D01*
X99600850Y-69580734D01*
X99600852Y-69580734D01*
X99728183Y-69467929D01*
X99824818Y-69327930D01*
X99885140Y-69168872D01*
X99905645Y-69000000D01*
X99885140Y-68831128D01*
X99824818Y-68672070D01*
X99728183Y-68532071D01*
X99600852Y-68419266D01*
X99600849Y-68419263D01*
X99564148Y-68400001D01*
X100206818Y-68400001D01*
X100227455Y-68556760D01*
X100227456Y-68556762D01*
X100287964Y-68702841D01*
X100384218Y-68828282D01*
X100509659Y-68924536D01*
X100655738Y-68985044D01*
X100734119Y-68995363D01*
X100812499Y-69005682D01*
X100812500Y-69005682D01*
X100812501Y-69005682D01*
X100864754Y-68998802D01*
X100969262Y-68985044D01*
X101115341Y-68924536D01*
X101240782Y-68828282D01*
X101337036Y-68702841D01*
X101397544Y-68556762D01*
X101418182Y-68400000D01*
X101397544Y-68243238D01*
X101337036Y-68097159D01*
X101240782Y-67971718D01*
X101115341Y-67875464D01*
X100969262Y-67814956D01*
X100969260Y-67814955D01*
X100812501Y-67794318D01*
X100812499Y-67794318D01*
X100655739Y-67814955D01*
X100655737Y-67814956D01*
X100509660Y-67875463D01*
X100384218Y-67971718D01*
X100287963Y-68097160D01*
X100227456Y-68243237D01*
X100227455Y-68243239D01*
X100206818Y-68399998D01*
X100206818Y-68400001D01*
X99564148Y-68400001D01*
X99450226Y-68340210D01*
X99285056Y-68299500D01*
X99114944Y-68299500D01*
X98949773Y-68340210D01*
X98799150Y-68419263D01*
X98671816Y-68532072D01*
X98575182Y-68672068D01*
X98514860Y-68831125D01*
X98514859Y-68831130D01*
X98494355Y-69000000D01*
X97364144Y-69000000D01*
X97400849Y-68980736D01*
X97400850Y-68980734D01*
X97400852Y-68980734D01*
X97528183Y-68867929D01*
X97624818Y-68727930D01*
X97685140Y-68568872D01*
X97705645Y-68400000D01*
X97685140Y-68231128D01*
X97624818Y-68072070D01*
X97528183Y-67932071D01*
X97400852Y-67819266D01*
X97400849Y-67819263D01*
X97250226Y-67740210D01*
X97085056Y-67699500D01*
X96914944Y-67699500D01*
X96749773Y-67740210D01*
X96599150Y-67819263D01*
X96471816Y-67932072D01*
X96375182Y-68072068D01*
X96314860Y-68231125D01*
X96314859Y-68231130D01*
X96294355Y-68400000D01*
X82449983Y-68400000D01*
X82524536Y-68302841D01*
X82585044Y-68156762D01*
X82605682Y-68000000D01*
X82585044Y-67843238D01*
X82524536Y-67697159D01*
X82428282Y-67571718D01*
X82302841Y-67475464D01*
X82156762Y-67414956D01*
X82156760Y-67414955D01*
X82000001Y-67394318D01*
X81999999Y-67394318D01*
X81843239Y-67414955D01*
X81843237Y-67414956D01*
X81697160Y-67475463D01*
X81571718Y-67571718D01*
X81475463Y-67697160D01*
X81414956Y-67843237D01*
X81414955Y-67843239D01*
X81394318Y-67999998D01*
X81394318Y-68000001D01*
X81414955Y-68156760D01*
X81414956Y-68156762D01*
X81450775Y-68243238D01*
X81475464Y-68302841D01*
X81571718Y-68428282D01*
X81571720Y-68428283D01*
X81571722Y-68428286D01*
X81577465Y-68434029D01*
X81575755Y-68435738D01*
X81609719Y-68482248D01*
X81613877Y-68551994D01*
X81579668Y-68612916D01*
X81555034Y-68631588D01*
X81550147Y-68634409D01*
X81424701Y-68730667D01*
X81328446Y-68856109D01*
X81267939Y-69002186D01*
X81267938Y-69002188D01*
X81247301Y-69158947D01*
X81247301Y-69158950D01*
X81267938Y-69315709D01*
X81267939Y-69315711D01*
X81329490Y-69464308D01*
X81336959Y-69533778D01*
X81313305Y-69587247D01*
X81262551Y-69653390D01*
X81202043Y-69799470D01*
X81202042Y-69799472D01*
X81181405Y-69956231D01*
X81181405Y-69956234D01*
X77050500Y-69956234D01*
X77050500Y-66690788D01*
X77070185Y-66623749D01*
X77122989Y-66577994D01*
X77192147Y-66568050D01*
X77221949Y-66576226D01*
X77243238Y-66585044D01*
X77321619Y-66595363D01*
X77399999Y-66605682D01*
X77400000Y-66605682D01*
X77400001Y-66605682D01*
X77443148Y-66600001D01*
X79994318Y-66600001D01*
X80014955Y-66756760D01*
X80014956Y-66756762D01*
X80050775Y-66843238D01*
X80075464Y-66902841D01*
X80171718Y-67028282D01*
X80297159Y-67124536D01*
X80443238Y-67185044D01*
X80521619Y-67195363D01*
X80599999Y-67205682D01*
X80600000Y-67205682D01*
X80600001Y-67205682D01*
X80652254Y-67198802D01*
X80756762Y-67185044D01*
X80902841Y-67124536D01*
X81028282Y-67028282D01*
X81049983Y-67000001D01*
X113394318Y-67000001D01*
X113414955Y-67156760D01*
X113414956Y-67156762D01*
X113475464Y-67302841D01*
X113571718Y-67428282D01*
X113697159Y-67524536D01*
X113843238Y-67585044D01*
X113921619Y-67595363D01*
X113999999Y-67605682D01*
X114000000Y-67605682D01*
X114000001Y-67605682D01*
X114052254Y-67598802D01*
X114156762Y-67585044D01*
X114302841Y-67524536D01*
X114428282Y-67428282D01*
X114524536Y-67302841D01*
X114585044Y-67156762D01*
X114605682Y-67000000D01*
X114585044Y-66843238D01*
X114524536Y-66697159D01*
X114428282Y-66571718D01*
X114302841Y-66475464D01*
X114156762Y-66414956D01*
X114156760Y-66414955D01*
X114000001Y-66394318D01*
X113999999Y-66394318D01*
X113843239Y-66414955D01*
X113843237Y-66414956D01*
X113697160Y-66475463D01*
X113571718Y-66571718D01*
X113475463Y-66697160D01*
X113414956Y-66843237D01*
X113414955Y-66843239D01*
X113394318Y-66999998D01*
X113394318Y-67000001D01*
X81049983Y-67000001D01*
X81124536Y-66902841D01*
X81185044Y-66756762D01*
X81205682Y-66600000D01*
X81185044Y-66443238D01*
X81124536Y-66297159D01*
X81028282Y-66171718D01*
X80902841Y-66075464D01*
X80864998Y-66059789D01*
X80756762Y-66014956D01*
X80756760Y-66014955D01*
X80600001Y-65994318D01*
X80599999Y-65994318D01*
X80443239Y-66014955D01*
X80443237Y-66014956D01*
X80297160Y-66075463D01*
X80171718Y-66171718D01*
X80075463Y-66297160D01*
X80014956Y-66443237D01*
X80014955Y-66443239D01*
X79994318Y-66599998D01*
X79994318Y-66600001D01*
X77443148Y-66600001D01*
X77452254Y-66598802D01*
X77556762Y-66585044D01*
X77702841Y-66524536D01*
X77828282Y-66428282D01*
X77924536Y-66302841D01*
X77985044Y-66156762D01*
X78005682Y-66000000D01*
X77985044Y-65843238D01*
X77924536Y-65697159D01*
X77828282Y-65571718D01*
X77702841Y-65475464D01*
X77664998Y-65459789D01*
X77556762Y-65414956D01*
X77556760Y-65414955D01*
X77400001Y-65394318D01*
X77399999Y-65394318D01*
X77243239Y-65414955D01*
X77243234Y-65414957D01*
X77221950Y-65423773D01*
X77152480Y-65431240D01*
X77090002Y-65399964D01*
X77054351Y-65339874D01*
X77050500Y-65309211D01*
X77050500Y-64600000D01*
X94094355Y-64600000D01*
X94114859Y-64768869D01*
X94114860Y-64768874D01*
X94175182Y-64927931D01*
X94214605Y-64985044D01*
X94271817Y-65067929D01*
X94339546Y-65127931D01*
X94399150Y-65180736D01*
X94522662Y-65245560D01*
X94549775Y-65259790D01*
X94714944Y-65300500D01*
X94885056Y-65300500D01*
X95050225Y-65259790D01*
X95129692Y-65218081D01*
X95200849Y-65180736D01*
X95200850Y-65180734D01*
X95200852Y-65180734D01*
X95328183Y-65067929D01*
X95424818Y-64927930D01*
X95485140Y-64768872D01*
X95485140Y-64768871D01*
X95487800Y-64761858D01*
X95489669Y-64762567D01*
X95519649Y-64711052D01*
X95581862Y-64679251D01*
X95634582Y-64680692D01*
X95714944Y-64700500D01*
X95772419Y-64700500D01*
X95839458Y-64720185D01*
X95885213Y-64772989D01*
X95895515Y-64809553D01*
X95914859Y-64968869D01*
X95914860Y-64968874D01*
X95975182Y-65127931D01*
X96035252Y-65214956D01*
X96071817Y-65267929D01*
X96172088Y-65356761D01*
X96199150Y-65380736D01*
X96349773Y-65459789D01*
X96349775Y-65459790D01*
X96514944Y-65500500D01*
X96603339Y-65500500D01*
X96670378Y-65520185D01*
X96716133Y-65572989D01*
X96719281Y-65580529D01*
X96775182Y-65727931D01*
X96814605Y-65785044D01*
X96871817Y-65867929D01*
X96972088Y-65956761D01*
X96999150Y-65980736D01*
X97149773Y-66059789D01*
X97149775Y-66059790D01*
X97314944Y-66100500D01*
X97485056Y-66100500D01*
X97650225Y-66059790D01*
X97735650Y-66014955D01*
X97800849Y-65980736D01*
X97800850Y-65980734D01*
X97800852Y-65980734D01*
X97928183Y-65867929D01*
X98024818Y-65727930D01*
X98085140Y-65568872D01*
X98105645Y-65400000D01*
X98085140Y-65231128D01*
X98084603Y-65229713D01*
X98024817Y-65072068D01*
X97945226Y-64956762D01*
X97928183Y-64932071D01*
X97800852Y-64819266D01*
X97800849Y-64819263D01*
X97764148Y-64800001D01*
X112218583Y-64800001D01*
X112239220Y-64956760D01*
X112239221Y-64956762D01*
X112278896Y-65052547D01*
X112299729Y-65102841D01*
X112395983Y-65228282D01*
X112521424Y-65324536D01*
X112667503Y-65385044D01*
X112737946Y-65394318D01*
X112824264Y-65405682D01*
X112824265Y-65405682D01*
X112824266Y-65405682D01*
X112876519Y-65398802D01*
X112981027Y-65385044D01*
X113127106Y-65324536D01*
X113252547Y-65228282D01*
X113348801Y-65102841D01*
X113409309Y-64956762D01*
X113429947Y-64800000D01*
X113409309Y-64643238D01*
X113348801Y-64497159D01*
X113274249Y-64400001D01*
X114194318Y-64400001D01*
X114214955Y-64556760D01*
X114214956Y-64556762D01*
X114250775Y-64643238D01*
X114275464Y-64702841D01*
X114371718Y-64828282D01*
X114497159Y-64924536D01*
X114643238Y-64985044D01*
X114721619Y-64995363D01*
X114799999Y-65005682D01*
X114800000Y-65005682D01*
X114800001Y-65005682D01*
X114852254Y-64998802D01*
X114956762Y-64985044D01*
X115102841Y-64924536D01*
X115228282Y-64828282D01*
X115324536Y-64702841D01*
X115385044Y-64556762D01*
X115405682Y-64400000D01*
X115395337Y-64321425D01*
X115388840Y-64272070D01*
X115385044Y-64243238D01*
X115324536Y-64097159D01*
X115228282Y-63971718D01*
X115102841Y-63875464D01*
X115064998Y-63859789D01*
X114956762Y-63814956D01*
X114956760Y-63814955D01*
X114800001Y-63794318D01*
X114799999Y-63794318D01*
X114643239Y-63814955D01*
X114643237Y-63814956D01*
X114497160Y-63875463D01*
X114371718Y-63971718D01*
X114275463Y-64097160D01*
X114214956Y-64243237D01*
X114214955Y-64243239D01*
X114194318Y-64399998D01*
X114194318Y-64400001D01*
X113274249Y-64400001D01*
X113252547Y-64371718D01*
X113127106Y-64275464D01*
X113118912Y-64272070D01*
X112981027Y-64214956D01*
X112981025Y-64214955D01*
X112824266Y-64194318D01*
X112824264Y-64194318D01*
X112667504Y-64214955D01*
X112667502Y-64214956D01*
X112521425Y-64275463D01*
X112395983Y-64371718D01*
X112299728Y-64497160D01*
X112239221Y-64643237D01*
X112239220Y-64643239D01*
X112218583Y-64799998D01*
X112218583Y-64800001D01*
X97764148Y-64800001D01*
X97650226Y-64740210D01*
X97485056Y-64699500D01*
X97396661Y-64699500D01*
X97329622Y-64679815D01*
X97283867Y-64627011D01*
X97280719Y-64619471D01*
X97224817Y-64472068D01*
X97175070Y-64399998D01*
X97128183Y-64332071D01*
X97000852Y-64219266D01*
X97000849Y-64219263D01*
X96850226Y-64140210D01*
X96685056Y-64099500D01*
X96627581Y-64099500D01*
X96560542Y-64079815D01*
X96514787Y-64027011D01*
X96504485Y-63990447D01*
X96488620Y-63859789D01*
X96485140Y-63831128D01*
X96479006Y-63814955D01*
X96424817Y-63672068D01*
X96364747Y-63585043D01*
X96328183Y-63532071D01*
X96200852Y-63419266D01*
X96200849Y-63419263D01*
X96050226Y-63340210D01*
X95885056Y-63299500D01*
X95714944Y-63299500D01*
X95549773Y-63340210D01*
X95399150Y-63419263D01*
X95271816Y-63532072D01*
X95175182Y-63672068D01*
X95175182Y-63672069D01*
X95112200Y-63838141D01*
X95110337Y-63837434D01*
X95080313Y-63888981D01*
X95018087Y-63920758D01*
X94965415Y-63919306D01*
X94885057Y-63899500D01*
X94885056Y-63899500D01*
X94714944Y-63899500D01*
X94549773Y-63940210D01*
X94399150Y-64019263D01*
X94271816Y-64132072D01*
X94175182Y-64272068D01*
X94114860Y-64431125D01*
X94114859Y-64431130D01*
X94094355Y-64600000D01*
X77050500Y-64600000D01*
X77050500Y-63690788D01*
X77070185Y-63623749D01*
X77122989Y-63577994D01*
X77192147Y-63568050D01*
X77221949Y-63576226D01*
X77243238Y-63585044D01*
X77321619Y-63595363D01*
X77399999Y-63605682D01*
X77400000Y-63605682D01*
X77400001Y-63605682D01*
X77452254Y-63598802D01*
X77556762Y-63585044D01*
X77702841Y-63524536D01*
X77828282Y-63428282D01*
X77924536Y-63302841D01*
X77967134Y-63200000D01*
X90994355Y-63200000D01*
X91014859Y-63368869D01*
X91014860Y-63368874D01*
X91075182Y-63527931D01*
X91114605Y-63585044D01*
X91171817Y-63667929D01*
X91277505Y-63761560D01*
X91299150Y-63780736D01*
X91449773Y-63859789D01*
X91449775Y-63859790D01*
X91614944Y-63900500D01*
X91785056Y-63900500D01*
X91950225Y-63859790D01*
X92035650Y-63814955D01*
X92100849Y-63780736D01*
X92100850Y-63780734D01*
X92100852Y-63780734D01*
X92228183Y-63667929D01*
X92324818Y-63527930D01*
X92385140Y-63368872D01*
X92405645Y-63200000D01*
X92385140Y-63031128D01*
X92380485Y-63018856D01*
X92375119Y-62949194D01*
X92408266Y-62887687D01*
X92444146Y-62864349D01*
X92443583Y-62863276D01*
X92481762Y-62843238D01*
X92600852Y-62780734D01*
X92728183Y-62667929D01*
X92743285Y-62646048D01*
X92797564Y-62602061D01*
X92867013Y-62594400D01*
X92929578Y-62625502D01*
X92961276Y-62672518D01*
X92982291Y-62727930D01*
X93078926Y-62867929D01*
X93170656Y-62949194D01*
X93206259Y-62980736D01*
X93356882Y-63059789D01*
X93356884Y-63059790D01*
X93522053Y-63100500D01*
X93692165Y-63100500D01*
X93857334Y-63059790D01*
X93936801Y-63018081D01*
X94007958Y-62980736D01*
X94007959Y-62980734D01*
X94007961Y-62980734D01*
X94135292Y-62867929D01*
X94231927Y-62727930D01*
X94292249Y-62568872D01*
X94312754Y-62400000D01*
X94312753Y-62399999D01*
X94313658Y-62392554D01*
X94315613Y-62392791D01*
X94332439Y-62335489D01*
X94385243Y-62289734D01*
X94454401Y-62279790D01*
X94517957Y-62308815D01*
X94518930Y-62309667D01*
X94574079Y-62358524D01*
X94599150Y-62380736D01*
X94732667Y-62450811D01*
X94749775Y-62459790D01*
X94914944Y-62500500D01*
X95085056Y-62500500D01*
X95250225Y-62459790D01*
X95371556Y-62396110D01*
X95400849Y-62380736D01*
X95400850Y-62380734D01*
X95400852Y-62380734D01*
X95528183Y-62267929D01*
X95624818Y-62127930D01*
X95627621Y-62120538D01*
X97075390Y-62120538D01*
X97096027Y-62277297D01*
X97096028Y-62277299D01*
X97146837Y-62399964D01*
X97156536Y-62423378D01*
X97252790Y-62548819D01*
X97378231Y-62645073D01*
X97524310Y-62705581D01*
X97602691Y-62715900D01*
X97681071Y-62726219D01*
X97681072Y-62726219D01*
X97681073Y-62726219D01*
X97733326Y-62719339D01*
X97837834Y-62705581D01*
X97983913Y-62645073D01*
X98109354Y-62548819D01*
X98205608Y-62423378D01*
X98266116Y-62277299D01*
X98269681Y-62250214D01*
X98297946Y-62186319D01*
X98356270Y-62147847D01*
X98376430Y-62143461D01*
X98403520Y-62139895D01*
X98549599Y-62079387D01*
X98675040Y-61983133D01*
X98690717Y-61962701D01*
X98747140Y-61921501D01*
X98816886Y-61917344D01*
X98877807Y-61951555D01*
X98910562Y-62013271D01*
X98912187Y-62053135D01*
X98894355Y-62199999D01*
X98914859Y-62368869D01*
X98914860Y-62368874D01*
X98975182Y-62527931D01*
X99005407Y-62571718D01*
X99071817Y-62667929D01*
X99139546Y-62727931D01*
X99199150Y-62780736D01*
X99318236Y-62843237D01*
X99349775Y-62859790D01*
X99514944Y-62900500D01*
X99685056Y-62900500D01*
X99850225Y-62859790D01*
X99929692Y-62818081D01*
X100000849Y-62780736D01*
X100000850Y-62780734D01*
X100000852Y-62780734D01*
X100128183Y-62667929D01*
X100224818Y-62527930D01*
X100285140Y-62368872D01*
X100305645Y-62200000D01*
X100285140Y-62031128D01*
X100224818Y-61872070D01*
X100128183Y-61732071D01*
X100014244Y-61631130D01*
X100000849Y-61619263D01*
X99850227Y-61540210D01*
X99847697Y-61539587D01*
X99846040Y-61538622D01*
X99843210Y-61537549D01*
X99843388Y-61537078D01*
X99787317Y-61504430D01*
X99755529Y-61442211D01*
X99761432Y-61375217D01*
X99762402Y-61372656D01*
X99763838Y-61368872D01*
X99784343Y-61200000D01*
X99763838Y-61031128D01*
X99703516Y-60872070D01*
X99687841Y-60849362D01*
X99665958Y-60783009D01*
X99683422Y-60715357D01*
X99707660Y-60686110D01*
X99728183Y-60667929D01*
X99824818Y-60527930D01*
X99885140Y-60368872D01*
X99905645Y-60200000D01*
X99885140Y-60031128D01*
X99824818Y-59872070D01*
X99804917Y-59843239D01*
X99728181Y-59732068D01*
X99723209Y-59726456D01*
X99724674Y-59725157D01*
X99692918Y-59674531D01*
X99693686Y-59604665D01*
X99732104Y-59546306D01*
X99795975Y-59517981D01*
X99841946Y-59520507D01*
X99914944Y-59538500D01*
X100085056Y-59538500D01*
X100250225Y-59497790D01*
X100329692Y-59456081D01*
X100400849Y-59418736D01*
X100400850Y-59418734D01*
X100400852Y-59418734D01*
X100528183Y-59305929D01*
X100624818Y-59165930D01*
X100685140Y-59006872D01*
X100685974Y-59000001D01*
X115594318Y-59000001D01*
X115614955Y-59156760D01*
X115614956Y-59156762D01*
X115664428Y-59276199D01*
X115675464Y-59302841D01*
X115771718Y-59428282D01*
X115897159Y-59524536D01*
X116043238Y-59585044D01*
X116121619Y-59595363D01*
X116199999Y-59605682D01*
X116200000Y-59605682D01*
X116200001Y-59605682D01*
X116252254Y-59598802D01*
X116356762Y-59585044D01*
X116502841Y-59524536D01*
X116628282Y-59428282D01*
X116724536Y-59302841D01*
X116785044Y-59156762D01*
X116799990Y-59043237D01*
X116805682Y-59000001D01*
X116805682Y-58999998D01*
X116785044Y-58843239D01*
X116785044Y-58843238D01*
X116724536Y-58697159D01*
X116628282Y-58571718D01*
X116502841Y-58475464D01*
X116483440Y-58467428D01*
X116356762Y-58414956D01*
X116356760Y-58414955D01*
X116200001Y-58394318D01*
X116199999Y-58394318D01*
X116043239Y-58414955D01*
X116043237Y-58414956D01*
X115897160Y-58475463D01*
X115771718Y-58571718D01*
X115675463Y-58697160D01*
X115614956Y-58843237D01*
X115614955Y-58843239D01*
X115594318Y-58999998D01*
X115594318Y-59000001D01*
X100685974Y-59000001D01*
X100705645Y-58838000D01*
X100685140Y-58669128D01*
X100624818Y-58510070D01*
X100623861Y-58508684D01*
X100576377Y-58439892D01*
X100528183Y-58370071D01*
X100433316Y-58286026D01*
X100400849Y-58257263D01*
X100250226Y-58178210D01*
X100085056Y-58137500D01*
X99914944Y-58137500D01*
X99749773Y-58178210D01*
X99599150Y-58257263D01*
X99531793Y-58316936D01*
X99468559Y-58346656D01*
X99399296Y-58337472D01*
X99347517Y-58294559D01*
X99328848Y-58267512D01*
X99279307Y-58195740D01*
X99151976Y-58082935D01*
X99151973Y-58082932D01*
X99001350Y-58003879D01*
X98836180Y-57963169D01*
X98666068Y-57963169D01*
X98500897Y-58003879D01*
X98350274Y-58082932D01*
X98222940Y-58195741D01*
X98126306Y-58335737D01*
X98065984Y-58494794D01*
X98065983Y-58494799D01*
X98045479Y-58663669D01*
X98065984Y-58832541D01*
X98074994Y-58856300D01*
X98080360Y-58925963D01*
X98047211Y-58987469D01*
X98016682Y-59010063D01*
X97999148Y-59019266D01*
X97999147Y-59019267D01*
X97871816Y-59132072D01*
X97775182Y-59272068D01*
X97714860Y-59431125D01*
X97714859Y-59431130D01*
X97694355Y-59600000D01*
X97714859Y-59768869D01*
X97714860Y-59768874D01*
X97775182Y-59927931D01*
X97824927Y-59999998D01*
X97871817Y-60067929D01*
X97977505Y-60161560D01*
X97999150Y-60180736D01*
X98149773Y-60259789D01*
X98149775Y-60259790D01*
X98314944Y-60300500D01*
X98403339Y-60300500D01*
X98470378Y-60320185D01*
X98516133Y-60372989D01*
X98519281Y-60380529D01*
X98575182Y-60527931D01*
X98575183Y-60527932D01*
X98590855Y-60550636D01*
X98612739Y-60616990D01*
X98595274Y-60684642D01*
X98571035Y-60713890D01*
X98550518Y-60732066D01*
X98453879Y-60872070D01*
X98450986Y-60879699D01*
X98408805Y-60935400D01*
X98343206Y-60959453D01*
X98318861Y-60958661D01*
X98246759Y-60949169D01*
X98246757Y-60949169D01*
X98089997Y-60969806D01*
X98089995Y-60969807D01*
X97943918Y-61030314D01*
X97818476Y-61126569D01*
X97722221Y-61252011D01*
X97661713Y-61398089D01*
X97658148Y-61425174D01*
X97629881Y-61489071D01*
X97571556Y-61527541D01*
X97551395Y-61531927D01*
X97524310Y-61535492D01*
X97378232Y-61596000D01*
X97252790Y-61692255D01*
X97156535Y-61817697D01*
X97096028Y-61963774D01*
X97096027Y-61963776D01*
X97075390Y-62120535D01*
X97075390Y-62120538D01*
X95627621Y-62120538D01*
X95685140Y-61968872D01*
X95705645Y-61800000D01*
X95685140Y-61631128D01*
X95682373Y-61623833D01*
X95650660Y-61540210D01*
X95624818Y-61472070D01*
X95624576Y-61471720D01*
X95558135Y-61375464D01*
X95528183Y-61332071D01*
X95400852Y-61219266D01*
X95400849Y-61219263D01*
X95250226Y-61140210D01*
X95085056Y-61099500D01*
X94914944Y-61099500D01*
X94749773Y-61140210D01*
X94599150Y-61219263D01*
X94471816Y-61332072D01*
X94375182Y-61472068D01*
X94314860Y-61631125D01*
X94314859Y-61631130D01*
X94293451Y-61807446D01*
X94291495Y-61807208D01*
X94274670Y-61864510D01*
X94221866Y-61910265D01*
X94152708Y-61920209D01*
X94089152Y-61891184D01*
X94088129Y-61890287D01*
X94007961Y-61819266D01*
X94007959Y-61819264D01*
X93857335Y-61740210D01*
X93697366Y-61700782D01*
X93636986Y-61665626D01*
X93605197Y-61603407D01*
X93603945Y-61565438D01*
X93604367Y-61561962D01*
X93612754Y-61492891D01*
X93592249Y-61324019D01*
X93582062Y-61297159D01*
X93531926Y-61164959D01*
X93439549Y-61031130D01*
X93435292Y-61024962D01*
X93307961Y-60912157D01*
X93307958Y-60912154D01*
X93157335Y-60833101D01*
X92992165Y-60792391D01*
X92822053Y-60792391D01*
X92656882Y-60833101D01*
X92506259Y-60912154D01*
X92378925Y-61024963D01*
X92282291Y-61164959D01*
X92221969Y-61324016D01*
X92221968Y-61324021D01*
X92213622Y-61392755D01*
X92185999Y-61456933D01*
X92128064Y-61495989D01*
X92120201Y-61498204D01*
X91949773Y-61540210D01*
X91799150Y-61619263D01*
X91671816Y-61732072D01*
X91575182Y-61872068D01*
X91514860Y-62031125D01*
X91514859Y-62031130D01*
X91494355Y-62200000D01*
X91514859Y-62368869D01*
X91514860Y-62368872D01*
X91519515Y-62381147D01*
X91524879Y-62450811D01*
X91491729Y-62512316D01*
X91455854Y-62535653D01*
X91456416Y-62536724D01*
X91299150Y-62619263D01*
X91171816Y-62732072D01*
X91075182Y-62872068D01*
X91014860Y-63031125D01*
X91014859Y-63031130D01*
X90994355Y-63200000D01*
X77967134Y-63200000D01*
X77985044Y-63156762D01*
X78001584Y-63031125D01*
X78005682Y-63000001D01*
X78005682Y-62999998D01*
X77988840Y-62872070D01*
X77985044Y-62843238D01*
X77924536Y-62697159D01*
X77828282Y-62571718D01*
X77702841Y-62475464D01*
X77664998Y-62459789D01*
X77556762Y-62414956D01*
X77556760Y-62414955D01*
X77400001Y-62394318D01*
X77399999Y-62394318D01*
X77243239Y-62414955D01*
X77243234Y-62414957D01*
X77221950Y-62423773D01*
X77152480Y-62431240D01*
X77090002Y-62399964D01*
X77054351Y-62339874D01*
X77050500Y-62309211D01*
X77050500Y-59000001D01*
X82594318Y-59000001D01*
X82614955Y-59156760D01*
X82614956Y-59156762D01*
X82664428Y-59276199D01*
X82675464Y-59302841D01*
X82771718Y-59428282D01*
X82897159Y-59524536D01*
X82897160Y-59524536D01*
X82897161Y-59524537D01*
X82995821Y-59565403D01*
X83050225Y-59609244D01*
X83072290Y-59675538D01*
X83062930Y-59727416D01*
X83014957Y-59843234D01*
X83014955Y-59843239D01*
X82994318Y-59999998D01*
X82994318Y-60000001D01*
X83014955Y-60156760D01*
X83014956Y-60156762D01*
X83075464Y-60302841D01*
X83092095Y-60324516D01*
X83117287Y-60389686D01*
X83103247Y-60458130D01*
X83092095Y-60475484D01*
X83075464Y-60497158D01*
X83014956Y-60643237D01*
X83014955Y-60643239D01*
X82994318Y-60799998D01*
X82994318Y-60800001D01*
X83014955Y-60956760D01*
X83014956Y-60956762D01*
X83075464Y-61102841D01*
X83092095Y-61124516D01*
X83117287Y-61189686D01*
X83103247Y-61258130D01*
X83092095Y-61275484D01*
X83075464Y-61297158D01*
X83014956Y-61443237D01*
X83014955Y-61443239D01*
X82994318Y-61599998D01*
X82994318Y-61600001D01*
X83014955Y-61756760D01*
X83014956Y-61756762D01*
X83070635Y-61891184D01*
X83075464Y-61902841D01*
X83171718Y-62028282D01*
X83297159Y-62124536D01*
X83443238Y-62185044D01*
X83506640Y-62193391D01*
X83599999Y-62205682D01*
X83600000Y-62205682D01*
X83600001Y-62205682D01*
X83652254Y-62198802D01*
X83756762Y-62185044D01*
X83902841Y-62124536D01*
X84028282Y-62028282D01*
X84124536Y-61902841D01*
X84185044Y-61756762D01*
X84199946Y-61643566D01*
X84205682Y-61600001D01*
X84205682Y-61599998D01*
X84188840Y-61472070D01*
X84185044Y-61443238D01*
X84139231Y-61332636D01*
X84124538Y-61297163D01*
X84124537Y-61297162D01*
X84124536Y-61297159D01*
X84107904Y-61275484D01*
X84082711Y-61210319D01*
X84096748Y-61141874D01*
X84107899Y-61124521D01*
X84124536Y-61102841D01*
X84185044Y-60956762D01*
X84205682Y-60800000D01*
X84204680Y-60792391D01*
X84185044Y-60643239D01*
X84185043Y-60643237D01*
X84124536Y-60497159D01*
X84107904Y-60475484D01*
X84082711Y-60410319D01*
X84096748Y-60341874D01*
X84107899Y-60324521D01*
X84124536Y-60302841D01*
X84185044Y-60156762D01*
X84205682Y-60000000D01*
X84188735Y-59871276D01*
X84199500Y-59802243D01*
X84245880Y-59749987D01*
X84264212Y-59740536D01*
X84302841Y-59724536D01*
X84428282Y-59628282D01*
X84524536Y-59502841D01*
X84585044Y-59356762D01*
X84605682Y-59200000D01*
X84600968Y-59164196D01*
X84591923Y-59095492D01*
X84585044Y-59043238D01*
X84524536Y-58897159D01*
X84445911Y-58794693D01*
X84420719Y-58729528D01*
X84434757Y-58661083D01*
X84468803Y-58620834D01*
X84575410Y-58539032D01*
X84671664Y-58413591D01*
X84732172Y-58267512D01*
X84752810Y-58110750D01*
X84737255Y-57992600D01*
X84745006Y-57942893D01*
X122101426Y-57942893D01*
X122122063Y-58099652D01*
X122122064Y-58099654D01*
X122181538Y-58243238D01*
X122182572Y-58245733D01*
X122278826Y-58371174D01*
X122404267Y-58467428D01*
X122550346Y-58527936D01*
X122628727Y-58538255D01*
X122707107Y-58548574D01*
X122707108Y-58548574D01*
X122707109Y-58548574D01*
X122779587Y-58539032D01*
X122863870Y-58527936D01*
X123009949Y-58467428D01*
X123135390Y-58371174D01*
X123135396Y-58371165D01*
X123138853Y-58367710D01*
X123200174Y-58334221D01*
X123269866Y-58339202D01*
X123325802Y-58381070D01*
X123349478Y-58439200D01*
X123364956Y-58556760D01*
X123364956Y-58556762D01*
X123411499Y-58669128D01*
X123425464Y-58702841D01*
X123521718Y-58828282D01*
X123647159Y-58924536D01*
X123793238Y-58985044D01*
X123871619Y-58995363D01*
X123949999Y-59005682D01*
X123950000Y-59005682D01*
X123950001Y-59005682D01*
X124002254Y-58998802D01*
X124106762Y-58985044D01*
X124252841Y-58924536D01*
X124378282Y-58828282D01*
X124474536Y-58702841D01*
X124535044Y-58556762D01*
X124552561Y-58423707D01*
X124561686Y-58403077D01*
X124556523Y-58395042D01*
X124552561Y-58376292D01*
X124541977Y-58295903D01*
X124535044Y-58243238D01*
X124474536Y-58097159D01*
X124378282Y-57971718D01*
X124252841Y-57875464D01*
X124242817Y-57871312D01*
X124106762Y-57814956D01*
X124106760Y-57814955D01*
X123950001Y-57794318D01*
X123949999Y-57794318D01*
X123793239Y-57814955D01*
X123793237Y-57814956D01*
X123647160Y-57875463D01*
X123521710Y-57971724D01*
X123518244Y-57975191D01*
X123456920Y-58008673D01*
X123387228Y-58003684D01*
X123331297Y-57961810D01*
X123307629Y-57903690D01*
X123292152Y-57786131D01*
X123292152Y-57786130D01*
X123231644Y-57640051D01*
X123135390Y-57514610D01*
X123009949Y-57418356D01*
X122985686Y-57408306D01*
X122863870Y-57357848D01*
X122863868Y-57357847D01*
X122707109Y-57337210D01*
X122707107Y-57337210D01*
X122550347Y-57357847D01*
X122550345Y-57357848D01*
X122404268Y-57418355D01*
X122278826Y-57514610D01*
X122182571Y-57640052D01*
X122122064Y-57786129D01*
X122122063Y-57786131D01*
X122101426Y-57942890D01*
X122101426Y-57942893D01*
X84745006Y-57942893D01*
X84748020Y-57923568D01*
X84794400Y-57871312D01*
X84812739Y-57861857D01*
X84902841Y-57824536D01*
X85028282Y-57728282D01*
X85124536Y-57602841D01*
X85185044Y-57456762D01*
X85205682Y-57300000D01*
X85199385Y-57252172D01*
X85185044Y-57143239D01*
X85185044Y-57143238D01*
X85124536Y-56997159D01*
X85110843Y-56979314D01*
X85085650Y-56914147D01*
X85099688Y-56845702D01*
X85148502Y-56795712D01*
X85193030Y-56780891D01*
X85330480Y-56762796D01*
X85476559Y-56702288D01*
X85602000Y-56606034D01*
X85698254Y-56480593D01*
X85758762Y-56334514D01*
X85779400Y-56177752D01*
X85758762Y-56020990D01*
X85698254Y-55874911D01*
X85602000Y-55749470D01*
X85476559Y-55653216D01*
X85476558Y-55653215D01*
X85476556Y-55653214D01*
X85465640Y-55648693D01*
X85411236Y-55604853D01*
X85389171Y-55538559D01*
X85390152Y-55517960D01*
X85405682Y-55400000D01*
X85403153Y-55380793D01*
X85385044Y-55243239D01*
X85385042Y-55243234D01*
X85367134Y-55200001D01*
X103994318Y-55200001D01*
X104014955Y-55356760D01*
X104014956Y-55356762D01*
X104062074Y-55470516D01*
X104075464Y-55502841D01*
X104171718Y-55628282D01*
X104297159Y-55724536D01*
X104443238Y-55785044D01*
X104521619Y-55795363D01*
X104599999Y-55805682D01*
X104600000Y-55805682D01*
X104600001Y-55805682D01*
X104652254Y-55798802D01*
X104756762Y-55785044D01*
X104902841Y-55724536D01*
X105028282Y-55628282D01*
X105124536Y-55502841D01*
X105185044Y-55356762D01*
X105192517Y-55300001D01*
X114044318Y-55300001D01*
X114064955Y-55456760D01*
X114064956Y-55456762D01*
X114125464Y-55602841D01*
X114221718Y-55728282D01*
X114347159Y-55824536D01*
X114493238Y-55885044D01*
X114571619Y-55895363D01*
X114649999Y-55905682D01*
X114650000Y-55905682D01*
X114650001Y-55905682D01*
X114702254Y-55898802D01*
X114806762Y-55885044D01*
X114952841Y-55824536D01*
X115078282Y-55728282D01*
X115174536Y-55602841D01*
X115235044Y-55456762D01*
X115255682Y-55300000D01*
X115235044Y-55143238D01*
X115174536Y-54997159D01*
X115078282Y-54871718D01*
X114952841Y-54775464D01*
X114943797Y-54771718D01*
X114806762Y-54714956D01*
X114806760Y-54714955D01*
X114650001Y-54694318D01*
X114649999Y-54694318D01*
X114493239Y-54714955D01*
X114493237Y-54714956D01*
X114347160Y-54775463D01*
X114221718Y-54871718D01*
X114125463Y-54997160D01*
X114064956Y-55143237D01*
X114064955Y-55143239D01*
X114044318Y-55299998D01*
X114044318Y-55300001D01*
X105192517Y-55300001D01*
X105205682Y-55200000D01*
X105185044Y-55043238D01*
X105124536Y-54897159D01*
X105028282Y-54771718D01*
X104902841Y-54675464D01*
X104882361Y-54666981D01*
X104756762Y-54614956D01*
X104756760Y-54614955D01*
X104600001Y-54594318D01*
X104599999Y-54594318D01*
X104443239Y-54614955D01*
X104443237Y-54614956D01*
X104297160Y-54675463D01*
X104171718Y-54771718D01*
X104075463Y-54897160D01*
X104014956Y-55043237D01*
X104014955Y-55043239D01*
X103994318Y-55199998D01*
X103994318Y-55200001D01*
X85367134Y-55200001D01*
X85324536Y-55097159D01*
X85324535Y-55097157D01*
X85316430Y-55086595D01*
X85291235Y-55021426D01*
X85305273Y-54952981D01*
X85339316Y-54912735D01*
X85383972Y-54878470D01*
X85480226Y-54753029D01*
X85540734Y-54606950D01*
X85544698Y-54576838D01*
X85572965Y-54512943D01*
X85631289Y-54474472D01*
X85660275Y-54470128D01*
X85660270Y-54470086D01*
X85662631Y-54469775D01*
X85667637Y-54469025D01*
X85668329Y-54469025D01*
X85720582Y-54462145D01*
X85825090Y-54448387D01*
X85971169Y-54387879D01*
X86096610Y-54291625D01*
X86192864Y-54166184D01*
X86253372Y-54020105D01*
X86268347Y-53906360D01*
X86274010Y-53863344D01*
X86274010Y-53863341D01*
X86253372Y-53706582D01*
X86253372Y-53706581D01*
X86192864Y-53560502D01*
X86096610Y-53435061D01*
X85971169Y-53338807D01*
X85894742Y-53307150D01*
X85825090Y-53278299D01*
X85825088Y-53278298D01*
X85668329Y-53257661D01*
X85668327Y-53257661D01*
X85511567Y-53278298D01*
X85511565Y-53278299D01*
X85365488Y-53338806D01*
X85240046Y-53435061D01*
X85143791Y-53560503D01*
X85083284Y-53706580D01*
X85083284Y-53706581D01*
X85079320Y-53736692D01*
X85051053Y-53800588D01*
X84992729Y-53839059D01*
X84963741Y-53843402D01*
X84963747Y-53843445D01*
X84961393Y-53843754D01*
X84956381Y-53844506D01*
X84955688Y-53844506D01*
X84798929Y-53865143D01*
X84798927Y-53865144D01*
X84652850Y-53925651D01*
X84652849Y-53925652D01*
X84527408Y-54021906D01*
X84527407Y-54021907D01*
X84527406Y-54021908D01*
X84464000Y-54104540D01*
X84407572Y-54145742D01*
X84349440Y-54151992D01*
X84200001Y-54132318D01*
X84199999Y-54132318D01*
X84043239Y-54152955D01*
X84043237Y-54152956D01*
X83897160Y-54213463D01*
X83771718Y-54309718D01*
X83675463Y-54435160D01*
X83614956Y-54581237D01*
X83614955Y-54581239D01*
X83594318Y-54737998D01*
X83594318Y-54738001D01*
X83614955Y-54894760D01*
X83614956Y-54894762D01*
X83675464Y-55040841D01*
X83771718Y-55166282D01*
X83897159Y-55262536D01*
X83897160Y-55262536D01*
X83903608Y-55267484D01*
X83902515Y-55268907D01*
X83943777Y-55312186D01*
X83956997Y-55380793D01*
X83931026Y-55445657D01*
X83903100Y-55469854D01*
X83903608Y-55470516D01*
X83897160Y-55475463D01*
X83897159Y-55475464D01*
X83861483Y-55502839D01*
X83771716Y-55571719D01*
X83675464Y-55697158D01*
X83671402Y-55704195D01*
X83669030Y-55702825D01*
X83633590Y-55746793D01*
X83567294Y-55768850D01*
X83515432Y-55759491D01*
X83499657Y-55752957D01*
X83499652Y-55752955D01*
X83342893Y-55732318D01*
X83342891Y-55732318D01*
X83186131Y-55752955D01*
X83186129Y-55752956D01*
X83040052Y-55813463D01*
X82914610Y-55909718D01*
X82818355Y-56035160D01*
X82757848Y-56181237D01*
X82757847Y-56181239D01*
X82737210Y-56337998D01*
X82737210Y-56338001D01*
X82757847Y-56494760D01*
X82757848Y-56494762D01*
X82818356Y-56640841D01*
X82914610Y-56766282D01*
X82970797Y-56809396D01*
X83011999Y-56865821D01*
X83015852Y-56930505D01*
X83016473Y-56930587D01*
X83016049Y-56933806D01*
X83016154Y-56935567D01*
X83015439Y-56938438D01*
X82994774Y-57095405D01*
X82994774Y-57095408D01*
X83015411Y-57252167D01*
X83015413Y-57252172D01*
X83039871Y-57311219D01*
X83047340Y-57380688D01*
X83016065Y-57443167D01*
X83000800Y-57457043D01*
X82938876Y-57504560D01*
X82842621Y-57630002D01*
X82782114Y-57776079D01*
X82782113Y-57776081D01*
X82761476Y-57932840D01*
X82761476Y-57932843D01*
X82782113Y-58089602D01*
X82782114Y-58089604D01*
X82842622Y-58235683D01*
X82903153Y-58314568D01*
X82928346Y-58379735D01*
X82914308Y-58448180D01*
X82880263Y-58488428D01*
X82828777Y-58527935D01*
X82771718Y-58571718D01*
X82675463Y-58697160D01*
X82614956Y-58843237D01*
X82614955Y-58843239D01*
X82594318Y-58999998D01*
X82594318Y-59000001D01*
X77050500Y-59000001D01*
X77050500Y-51443762D01*
X84128676Y-51443762D01*
X84149313Y-51600521D01*
X84149314Y-51600523D01*
X84209822Y-51746602D01*
X84306076Y-51872043D01*
X84431517Y-51968297D01*
X84512587Y-52001877D01*
X84566990Y-52045718D01*
X84589055Y-52112012D01*
X84588073Y-52132621D01*
X84579204Y-52199995D01*
X84579204Y-52200001D01*
X84599841Y-52356760D01*
X84599842Y-52356762D01*
X84635661Y-52443238D01*
X84660350Y-52502841D01*
X84756604Y-52628282D01*
X84882045Y-52724536D01*
X85028124Y-52785044D01*
X85098567Y-52794318D01*
X85184885Y-52805682D01*
X85184886Y-52805682D01*
X85184887Y-52805682D01*
X85253696Y-52796623D01*
X85341648Y-52785044D01*
X85487727Y-52724536D01*
X85613168Y-52628282D01*
X85709422Y-52502841D01*
X85769930Y-52356762D01*
X85790568Y-52200000D01*
X85790567Y-52199995D01*
X85769930Y-52043239D01*
X85769930Y-52043238D01*
X85709422Y-51897159D01*
X85613168Y-51771718D01*
X85613166Y-51771716D01*
X85613165Y-51771715D01*
X85605792Y-51766058D01*
X85564589Y-51709630D01*
X85560435Y-51639884D01*
X85594648Y-51578964D01*
X85633820Y-51553125D01*
X85702841Y-51524536D01*
X85828282Y-51428282D01*
X85924536Y-51302841D01*
X85985044Y-51156762D01*
X86005682Y-51000000D01*
X85985044Y-50843238D01*
X85926058Y-50700834D01*
X88194355Y-50700834D01*
X88214859Y-50869703D01*
X88214860Y-50869708D01*
X88275182Y-51028765D01*
X88337475Y-51119011D01*
X88371817Y-51168763D01*
X88477505Y-51262394D01*
X88499150Y-51281570D01*
X88649773Y-51360623D01*
X88649775Y-51360624D01*
X88814944Y-51401334D01*
X88822227Y-51403129D01*
X88821716Y-51405200D01*
X88876038Y-51428577D01*
X88915098Y-51486509D01*
X88920015Y-51539002D01*
X88905674Y-51657115D01*
X88926178Y-51825985D01*
X88926179Y-51825990D01*
X88986501Y-51985047D01*
X89044756Y-52069443D01*
X89083136Y-52125045D01*
X89210467Y-52237850D01*
X89261391Y-52264577D01*
X89311603Y-52313160D01*
X89327578Y-52381179D01*
X89319710Y-52418337D01*
X89314861Y-52431124D01*
X89314859Y-52431130D01*
X89294355Y-52600000D01*
X89314859Y-52768869D01*
X89314860Y-52768874D01*
X89375182Y-52927931D01*
X89405407Y-52971718D01*
X89471817Y-53067929D01*
X89577505Y-53161560D01*
X89599150Y-53180736D01*
X89749773Y-53259789D01*
X89749775Y-53259790D01*
X89914944Y-53300500D01*
X90085056Y-53300500D01*
X90250225Y-53259790D01*
X90327486Y-53219239D01*
X90395994Y-53205514D01*
X90461047Y-53231006D01*
X90501992Y-53287622D01*
X90508208Y-53314089D01*
X90514859Y-53368869D01*
X90514860Y-53368874D01*
X90575182Y-53527931D01*
X90630674Y-53608323D01*
X90671817Y-53667929D01*
X90775551Y-53759829D01*
X90799150Y-53780736D01*
X90919221Y-53843754D01*
X90949775Y-53859790D01*
X91114944Y-53900500D01*
X91285056Y-53900500D01*
X91450225Y-53859790D01*
X91511493Y-53827633D01*
X91579999Y-53813908D01*
X91645053Y-53839400D01*
X91666789Y-53862362D01*
X91666843Y-53862315D01*
X91668272Y-53863928D01*
X91671162Y-53866981D01*
X91671814Y-53867926D01*
X91671816Y-53867928D01*
X91671817Y-53867929D01*
X91723216Y-53913464D01*
X91799150Y-53980736D01*
X91918236Y-54043237D01*
X91949775Y-54059790D01*
X92114944Y-54100500D01*
X92285056Y-54100500D01*
X92450225Y-54059790D01*
X92527486Y-54019239D01*
X92595994Y-54005514D01*
X92661047Y-54031006D01*
X92701992Y-54087622D01*
X92708208Y-54114089D01*
X92714859Y-54168869D01*
X92714860Y-54168874D01*
X92775182Y-54327931D01*
X92816562Y-54387879D01*
X92871817Y-54467929D01*
X92972675Y-54557281D01*
X92999150Y-54580736D01*
X93149773Y-54659789D01*
X93149775Y-54659790D01*
X93314944Y-54700500D01*
X93485056Y-54700500D01*
X93650225Y-54659790D01*
X93711493Y-54627633D01*
X93779999Y-54613908D01*
X93845053Y-54639400D01*
X93866789Y-54662362D01*
X93866843Y-54662315D01*
X93868272Y-54663928D01*
X93871162Y-54666981D01*
X93871814Y-54667926D01*
X93871816Y-54667928D01*
X93871817Y-54667929D01*
X93901604Y-54694318D01*
X93999150Y-54780736D01*
X94148609Y-54859178D01*
X94149775Y-54859790D01*
X94314944Y-54900500D01*
X94485056Y-54900500D01*
X94650225Y-54859790D01*
X94753318Y-54805682D01*
X94800849Y-54780736D01*
X94800850Y-54780734D01*
X94800852Y-54780734D01*
X94928183Y-54667929D01*
X95024818Y-54527930D01*
X95085140Y-54368872D01*
X95105645Y-54200000D01*
X95085140Y-54031128D01*
X95067662Y-53985043D01*
X95034333Y-53897159D01*
X95024818Y-53872070D01*
X95021305Y-53866981D01*
X94975071Y-53800000D01*
X94928183Y-53732071D01*
X94800852Y-53619266D01*
X94800849Y-53619263D01*
X94650226Y-53540210D01*
X94485056Y-53499500D01*
X94314944Y-53499500D01*
X94149774Y-53540209D01*
X94088505Y-53572366D01*
X94019996Y-53586090D01*
X93954943Y-53560597D01*
X93933211Y-53537636D01*
X93933157Y-53537685D01*
X93931686Y-53536025D01*
X93928828Y-53533005D01*
X93928184Y-53532072D01*
X93800849Y-53419263D01*
X93776886Y-53406686D01*
X99152519Y-53406686D01*
X99173156Y-53563445D01*
X99173157Y-53563447D01*
X99232445Y-53706582D01*
X99233665Y-53709526D01*
X99329919Y-53834967D01*
X99329921Y-53834968D01*
X99334867Y-53841414D01*
X99333555Y-53842420D01*
X99362448Y-53895334D01*
X99357464Y-53965026D01*
X99339659Y-53997177D01*
X99313092Y-54031800D01*
X99252584Y-54177879D01*
X99252583Y-54177881D01*
X99231946Y-54334640D01*
X99231946Y-54334643D01*
X99252583Y-54491402D01*
X99252584Y-54491404D01*
X99303760Y-54614955D01*
X99313092Y-54637483D01*
X99409346Y-54762924D01*
X99534787Y-54859178D01*
X99680866Y-54919686D01*
X99759247Y-54930005D01*
X99837627Y-54940324D01*
X99837628Y-54940324D01*
X99837629Y-54940324D01*
X99889882Y-54933444D01*
X99994390Y-54919686D01*
X100140469Y-54859178D01*
X100265910Y-54762924D01*
X100362164Y-54637483D01*
X100370742Y-54616773D01*
X100414581Y-54562370D01*
X100480875Y-54540304D01*
X100501475Y-54541285D01*
X100622975Y-54557281D01*
X100631034Y-54558342D01*
X100630630Y-54561407D01*
X100683616Y-54576966D01*
X100729371Y-54629770D01*
X100731131Y-54633813D01*
X100742957Y-54662362D01*
X100774287Y-54738001D01*
X100775464Y-54740841D01*
X100871718Y-54866282D01*
X100997159Y-54962536D01*
X101143238Y-55023044D01*
X101221619Y-55033363D01*
X101299999Y-55043682D01*
X101300000Y-55043682D01*
X101300001Y-55043682D01*
X101352254Y-55036802D01*
X101456762Y-55023044D01*
X101602841Y-54962536D01*
X101728282Y-54866282D01*
X101824536Y-54740841D01*
X101885044Y-54594762D01*
X101905682Y-54438000D01*
X101899083Y-54387879D01*
X101885044Y-54281239D01*
X101885044Y-54281238D01*
X101851394Y-54200001D01*
X112794318Y-54200001D01*
X112814955Y-54356760D01*
X112814956Y-54356762D01*
X112870726Y-54491404D01*
X112875464Y-54502841D01*
X112971718Y-54628282D01*
X113097159Y-54724536D01*
X113243238Y-54785044D01*
X113321619Y-54795363D01*
X113399999Y-54805682D01*
X113400000Y-54805682D01*
X113400001Y-54805682D01*
X113452254Y-54798802D01*
X113556762Y-54785044D01*
X113702841Y-54724536D01*
X113828282Y-54628282D01*
X113924536Y-54502841D01*
X113985044Y-54356762D01*
X113998802Y-54252254D01*
X114005682Y-54200001D01*
X114005682Y-54199998D01*
X113985044Y-54043239D01*
X113985043Y-54043237D01*
X113954790Y-53970198D01*
X113924538Y-53897163D01*
X113924537Y-53897162D01*
X113924536Y-53897159D01*
X113907904Y-53875484D01*
X113882711Y-53810319D01*
X113896748Y-53741874D01*
X113907899Y-53724521D01*
X113924536Y-53702841D01*
X113985044Y-53556762D01*
X114005682Y-53400000D01*
X113999989Y-53356760D01*
X113985044Y-53243239D01*
X113985044Y-53243238D01*
X113924536Y-53097159D01*
X113828282Y-52971718D01*
X113702841Y-52875464D01*
X113581471Y-52825191D01*
X113556762Y-52814956D01*
X113556760Y-52814955D01*
X113400001Y-52794318D01*
X113399999Y-52794318D01*
X113243239Y-52814955D01*
X113243237Y-52814956D01*
X113097160Y-52875463D01*
X112971718Y-52971718D01*
X112875463Y-53097160D01*
X112814956Y-53243237D01*
X112814955Y-53243239D01*
X112794318Y-53399998D01*
X112794318Y-53400001D01*
X112814955Y-53556760D01*
X112814956Y-53556762D01*
X112875464Y-53702841D01*
X112892095Y-53724516D01*
X112917287Y-53789686D01*
X112903247Y-53858130D01*
X112892095Y-53875484D01*
X112875464Y-53897158D01*
X112814956Y-54043237D01*
X112814955Y-54043239D01*
X112794318Y-54199998D01*
X112794318Y-54200001D01*
X101851394Y-54200001D01*
X101824536Y-54135159D01*
X101728282Y-54009718D01*
X101602841Y-53913464D01*
X101585690Y-53906360D01*
X101456762Y-53852956D01*
X101456760Y-53852955D01*
X101291943Y-53831257D01*
X101292346Y-53828191D01*
X101239359Y-53812633D01*
X101193604Y-53759829D01*
X101191837Y-53755771D01*
X101186081Y-53741874D01*
X101147511Y-53648758D01*
X101051257Y-53523317D01*
X100925816Y-53427063D01*
X100906992Y-53419266D01*
X100779737Y-53366555D01*
X100779735Y-53366554D01*
X100622976Y-53345917D01*
X100622974Y-53345917D01*
X100483371Y-53364296D01*
X100414336Y-53353530D01*
X100362080Y-53307150D01*
X100344247Y-53257539D01*
X100343245Y-53249923D01*
X100282737Y-53103844D01*
X100186483Y-52978403D01*
X100061042Y-52882149D01*
X99914963Y-52821641D01*
X99914961Y-52821640D01*
X99758202Y-52801003D01*
X99758200Y-52801003D01*
X99601440Y-52821640D01*
X99601438Y-52821641D01*
X99455361Y-52882148D01*
X99329919Y-52978403D01*
X99233664Y-53103845D01*
X99173157Y-53249922D01*
X99173156Y-53249924D01*
X99152519Y-53406683D01*
X99152519Y-53406686D01*
X93776886Y-53406686D01*
X93650226Y-53340210D01*
X93485056Y-53299500D01*
X93314944Y-53299500D01*
X93149774Y-53340209D01*
X93072512Y-53380760D01*
X93004004Y-53394484D01*
X92938950Y-53368992D01*
X92898007Y-53312376D01*
X92891792Y-53285913D01*
X92885140Y-53231128D01*
X92874069Y-53201937D01*
X92844715Y-53124535D01*
X92824818Y-53072070D01*
X92821958Y-53067927D01*
X92760164Y-52978403D01*
X92728183Y-52932071D01*
X92623669Y-52839480D01*
X92600849Y-52819263D01*
X92564148Y-52800001D01*
X103594318Y-52800001D01*
X103614955Y-52956760D01*
X103614956Y-52956762D01*
X103650775Y-53043238D01*
X103675464Y-53102841D01*
X103771718Y-53228282D01*
X103897159Y-53324536D01*
X104043238Y-53385044D01*
X104114942Y-53394484D01*
X104199999Y-53405682D01*
X104200000Y-53405682D01*
X104200001Y-53405682D01*
X104252254Y-53398802D01*
X104356762Y-53385044D01*
X104502841Y-53324536D01*
X104628282Y-53228282D01*
X104724536Y-53102841D01*
X104785044Y-52956762D01*
X104792072Y-52903376D01*
X104820338Y-52839480D01*
X104878663Y-52801009D01*
X104931192Y-52796623D01*
X105000000Y-52805682D01*
X105156762Y-52785044D01*
X105302841Y-52724536D01*
X105428282Y-52628282D01*
X105449983Y-52600001D01*
X115594318Y-52600001D01*
X115614955Y-52756760D01*
X115614956Y-52756762D01*
X115675464Y-52902841D01*
X115771718Y-53028282D01*
X115897159Y-53124536D01*
X116043238Y-53185044D01*
X116121619Y-53195363D01*
X116199999Y-53205682D01*
X116200000Y-53205682D01*
X116200001Y-53205682D01*
X116252254Y-53198802D01*
X116356762Y-53185044D01*
X116502841Y-53124536D01*
X116592016Y-53056109D01*
X116657184Y-53030915D01*
X116725629Y-53044953D01*
X116775619Y-53093767D01*
X116791283Y-53161858D01*
X116782063Y-53201937D01*
X116764957Y-53243234D01*
X116764955Y-53243239D01*
X116744318Y-53399998D01*
X116744318Y-53400001D01*
X116764955Y-53556760D01*
X116764956Y-53556762D01*
X116825464Y-53702841D01*
X116921718Y-53828282D01*
X117047159Y-53924536D01*
X117193238Y-53985044D01*
X117271619Y-53995363D01*
X117349999Y-54005682D01*
X117350000Y-54005682D01*
X117350001Y-54005682D01*
X117414602Y-53997177D01*
X117506762Y-53985044D01*
X117652841Y-53924536D01*
X117778282Y-53828282D01*
X117874536Y-53702841D01*
X117935044Y-53556762D01*
X117955682Y-53400000D01*
X117949989Y-53356760D01*
X117935044Y-53243239D01*
X117935044Y-53243238D01*
X117874536Y-53097159D01*
X117778282Y-52971718D01*
X117652841Y-52875464D01*
X117531471Y-52825191D01*
X117506762Y-52814956D01*
X117506760Y-52814955D01*
X117350001Y-52794318D01*
X117349999Y-52794318D01*
X117193239Y-52814955D01*
X117193237Y-52814956D01*
X117047157Y-52875464D01*
X116957983Y-52943890D01*
X116892814Y-52969084D01*
X116824369Y-52955045D01*
X116774379Y-52906231D01*
X116758716Y-52838140D01*
X116767935Y-52798065D01*
X116785044Y-52756762D01*
X116805682Y-52600000D01*
X116797810Y-52540209D01*
X116785044Y-52443239D01*
X116785044Y-52443238D01*
X116724536Y-52297159D01*
X116628282Y-52171718D01*
X116502841Y-52075464D01*
X116493797Y-52071718D01*
X116356762Y-52014956D01*
X116356760Y-52014955D01*
X116200001Y-51994318D01*
X116199999Y-51994318D01*
X116043239Y-52014955D01*
X116043237Y-52014956D01*
X115897160Y-52075463D01*
X115771718Y-52171718D01*
X115675463Y-52297160D01*
X115614956Y-52443237D01*
X115614955Y-52443239D01*
X115594318Y-52599998D01*
X115594318Y-52600001D01*
X105449983Y-52600001D01*
X105524536Y-52502841D01*
X105585044Y-52356762D01*
X105592072Y-52303376D01*
X105620338Y-52239480D01*
X105678663Y-52201009D01*
X105731192Y-52196623D01*
X105800000Y-52205682D01*
X105956762Y-52185044D01*
X106102841Y-52124536D01*
X106228282Y-52028282D01*
X106324536Y-51902841D01*
X106385044Y-51756762D01*
X106405613Y-51600523D01*
X106405682Y-51600001D01*
X106405682Y-51599998D01*
X106385113Y-51443761D01*
X106385044Y-51443238D01*
X106324536Y-51297159D01*
X106228282Y-51171718D01*
X106102841Y-51075464D01*
X106086226Y-51068582D01*
X105956762Y-51014956D01*
X105956760Y-51014955D01*
X105800001Y-50994318D01*
X105799999Y-50994318D01*
X105643239Y-51014955D01*
X105643237Y-51014956D01*
X105497160Y-51075463D01*
X105371718Y-51171718D01*
X105275463Y-51297160D01*
X105214956Y-51443237D01*
X105214956Y-51443238D01*
X105207927Y-51496624D01*
X105179659Y-51560520D01*
X105121334Y-51598991D01*
X105068803Y-51603376D01*
X105000001Y-51594318D01*
X104999999Y-51594318D01*
X104843239Y-51614955D01*
X104843237Y-51614956D01*
X104697160Y-51675463D01*
X104571718Y-51771718D01*
X104475463Y-51897160D01*
X104414956Y-52043237D01*
X104414956Y-52043238D01*
X104407927Y-52096624D01*
X104379659Y-52160520D01*
X104321334Y-52198991D01*
X104268803Y-52203376D01*
X104200001Y-52194318D01*
X104199999Y-52194318D01*
X104043239Y-52214955D01*
X104043237Y-52214956D01*
X103897160Y-52275463D01*
X103771718Y-52371718D01*
X103675463Y-52497160D01*
X103614956Y-52643237D01*
X103614955Y-52643239D01*
X103594318Y-52799998D01*
X103594318Y-52800001D01*
X92564148Y-52800001D01*
X92450226Y-52740210D01*
X92285056Y-52699500D01*
X92114944Y-52699500D01*
X91949774Y-52740209D01*
X91888505Y-52772366D01*
X91819996Y-52786090D01*
X91754943Y-52760597D01*
X91733211Y-52737636D01*
X91733157Y-52737685D01*
X91731686Y-52736025D01*
X91728828Y-52733005D01*
X91728184Y-52732072D01*
X91600849Y-52619263D01*
X91450226Y-52540210D01*
X91285056Y-52499500D01*
X91114944Y-52499500D01*
X90949774Y-52540209D01*
X90872512Y-52580760D01*
X90804004Y-52594484D01*
X90738950Y-52568992D01*
X90698007Y-52512376D01*
X90691792Y-52485913D01*
X90685140Y-52431128D01*
X90685138Y-52431124D01*
X90654372Y-52349998D01*
X90624818Y-52272070D01*
X90619645Y-52264576D01*
X90578993Y-52205681D01*
X90528183Y-52132071D01*
X90400852Y-52019266D01*
X90349925Y-51992537D01*
X90299715Y-51943954D01*
X90283740Y-51875935D01*
X90291612Y-51838769D01*
X90296457Y-51825992D01*
X90296458Y-51825990D01*
X90296459Y-51825988D01*
X90316964Y-51657116D01*
X90310029Y-51600001D01*
X100594318Y-51600001D01*
X100614955Y-51756760D01*
X100614956Y-51756762D01*
X100671933Y-51894318D01*
X100675464Y-51902841D01*
X100771718Y-52028282D01*
X100897159Y-52124536D01*
X101043238Y-52185044D01*
X101105478Y-52193238D01*
X101199999Y-52205682D01*
X101200000Y-52205682D01*
X101200001Y-52205682D01*
X101268810Y-52196623D01*
X101356762Y-52185044D01*
X101502841Y-52124536D01*
X101628282Y-52028282D01*
X101724536Y-51902841D01*
X101785044Y-51756762D01*
X101805613Y-51600523D01*
X101805682Y-51600001D01*
X101805682Y-51599998D01*
X101785113Y-51443761D01*
X101785044Y-51443238D01*
X101724536Y-51297159D01*
X101628282Y-51171718D01*
X101502841Y-51075464D01*
X101486226Y-51068582D01*
X101356762Y-51014956D01*
X101356760Y-51014955D01*
X101200001Y-50994318D01*
X101199999Y-50994318D01*
X101043239Y-51014955D01*
X101043237Y-51014956D01*
X100897160Y-51075463D01*
X100771718Y-51171718D01*
X100675463Y-51297160D01*
X100614956Y-51443237D01*
X100614955Y-51443239D01*
X100594318Y-51599998D01*
X100594318Y-51600001D01*
X90310029Y-51600001D01*
X90296459Y-51488244D01*
X90236137Y-51329186D01*
X90217952Y-51302841D01*
X90135241Y-51183014D01*
X90137666Y-51181339D01*
X90113729Y-51130410D01*
X90122913Y-51061147D01*
X90168085Y-51007844D01*
X90178624Y-51001628D01*
X90249274Y-50964549D01*
X90376605Y-50851744D01*
X90473240Y-50711745D01*
X90533562Y-50552687D01*
X90550942Y-50409553D01*
X90578564Y-50345375D01*
X90636498Y-50306319D01*
X90674038Y-50300500D01*
X90685056Y-50300500D01*
X90850225Y-50259790D01*
X90929692Y-50218081D01*
X91000849Y-50180736D01*
X91000850Y-50180734D01*
X91000852Y-50180734D01*
X91128183Y-50067929D01*
X91224818Y-49927930D01*
X91285140Y-49768872D01*
X91305645Y-49600000D01*
X91285140Y-49431128D01*
X91267662Y-49385043D01*
X91224817Y-49272068D01*
X91145226Y-49156762D01*
X91128183Y-49132071D01*
X91011028Y-49028281D01*
X91000849Y-49019263D01*
X90850226Y-48940210D01*
X90685056Y-48899500D01*
X90514944Y-48899500D01*
X90349773Y-48940210D01*
X90199150Y-49019263D01*
X90071816Y-49132072D01*
X89975182Y-49272068D01*
X89914860Y-49431125D01*
X89914859Y-49431131D01*
X89897480Y-49574262D01*
X89869858Y-49638440D01*
X89811924Y-49677496D01*
X89774384Y-49683315D01*
X89763366Y-49683315D01*
X89598195Y-49724025D01*
X89447572Y-49803078D01*
X89320237Y-49915887D01*
X89270310Y-49988219D01*
X89216027Y-50032209D01*
X89146579Y-50039868D01*
X89138586Y-50038175D01*
X88985056Y-50000334D01*
X88814944Y-50000334D01*
X88649773Y-50041044D01*
X88499150Y-50120097D01*
X88371816Y-50232906D01*
X88275182Y-50372902D01*
X88214860Y-50531959D01*
X88214859Y-50531964D01*
X88194355Y-50700834D01*
X85926058Y-50700834D01*
X85924536Y-50697159D01*
X85828282Y-50571718D01*
X85702841Y-50475464D01*
X85556762Y-50414956D01*
X85556760Y-50414955D01*
X85400001Y-50394318D01*
X85399999Y-50394318D01*
X85243239Y-50414955D01*
X85243237Y-50414956D01*
X85097160Y-50475463D01*
X84971718Y-50571718D01*
X84875463Y-50697160D01*
X84848800Y-50761532D01*
X84804959Y-50815935D01*
X84742381Y-50836763D01*
X84742415Y-50837018D01*
X84741092Y-50837192D01*
X84738665Y-50838000D01*
X84734374Y-50838076D01*
X84577597Y-50858716D01*
X84577595Y-50858717D01*
X84431518Y-50919224D01*
X84306076Y-51015479D01*
X84209821Y-51140921D01*
X84149314Y-51286998D01*
X84149313Y-51287000D01*
X84128676Y-51443759D01*
X84128676Y-51443762D01*
X77050500Y-51443762D01*
X77050500Y-49090788D01*
X77070185Y-49023749D01*
X77122989Y-48977994D01*
X77192147Y-48968050D01*
X77221949Y-48976226D01*
X77243238Y-48985044D01*
X77287689Y-48990896D01*
X77399999Y-49005682D01*
X77400000Y-49005682D01*
X77400001Y-49005682D01*
X77443148Y-49000001D01*
X83794318Y-49000001D01*
X83814955Y-49156760D01*
X83814956Y-49156762D01*
X83870268Y-49290298D01*
X83875464Y-49302841D01*
X83971718Y-49428282D01*
X84097159Y-49524536D01*
X84243238Y-49585044D01*
X84321619Y-49595363D01*
X84399999Y-49605682D01*
X84400000Y-49605682D01*
X84400001Y-49605682D01*
X84452254Y-49598802D01*
X84556762Y-49585044D01*
X84702841Y-49524536D01*
X84828282Y-49428282D01*
X84902546Y-49331498D01*
X84958970Y-49290298D01*
X85028716Y-49286143D01*
X85076403Y-49308609D01*
X85097159Y-49324536D01*
X85243238Y-49385044D01*
X85321619Y-49395363D01*
X85399999Y-49405682D01*
X85400000Y-49405682D01*
X85400001Y-49405682D01*
X85452254Y-49398802D01*
X85556762Y-49385044D01*
X85702841Y-49324536D01*
X85828282Y-49228282D01*
X85924536Y-49102841D01*
X85985044Y-48956762D01*
X86005682Y-48800000D01*
X85999989Y-48756760D01*
X85985044Y-48643239D01*
X85985044Y-48643238D01*
X85967135Y-48600001D01*
X87994318Y-48600001D01*
X88014955Y-48756760D01*
X88014956Y-48756762D01*
X88050775Y-48843238D01*
X88075464Y-48902841D01*
X88171718Y-49028282D01*
X88297159Y-49124536D01*
X88443238Y-49185044D01*
X88521619Y-49195363D01*
X88599999Y-49205682D01*
X88600000Y-49205682D01*
X88600001Y-49205682D01*
X88652254Y-49198802D01*
X88756762Y-49185044D01*
X88902841Y-49124536D01*
X89028282Y-49028282D01*
X89124536Y-48902841D01*
X89185044Y-48756762D01*
X89205682Y-48600000D01*
X89199989Y-48556760D01*
X89185044Y-48443239D01*
X89185044Y-48443238D01*
X89157084Y-48375736D01*
X92818583Y-48375736D01*
X92839220Y-48532495D01*
X92839221Y-48532497D01*
X92899729Y-48678576D01*
X92995983Y-48804017D01*
X93121424Y-48900271D01*
X93267503Y-48960779D01*
X93322732Y-48968050D01*
X93424264Y-48981417D01*
X93424265Y-48981417D01*
X93424266Y-48981417D01*
X93476519Y-48974537D01*
X93581027Y-48960779D01*
X93727106Y-48900271D01*
X93852547Y-48804017D01*
X93948801Y-48678576D01*
X94009309Y-48532497D01*
X94023067Y-48427989D01*
X94026752Y-48400001D01*
X107194318Y-48400001D01*
X107214955Y-48556760D01*
X107214956Y-48556762D01*
X107250775Y-48643238D01*
X107275464Y-48702841D01*
X107371718Y-48828282D01*
X107497159Y-48924536D01*
X107643238Y-48985044D01*
X107687689Y-48990896D01*
X107799999Y-49005682D01*
X107800000Y-49005682D01*
X107800001Y-49005682D01*
X107852254Y-48998802D01*
X107956762Y-48985044D01*
X108102841Y-48924536D01*
X108228282Y-48828282D01*
X108324536Y-48702841D01*
X108385044Y-48556762D01*
X108405682Y-48400000D01*
X108402487Y-48375735D01*
X108385044Y-48243239D01*
X108385044Y-48243238D01*
X108324536Y-48097159D01*
X108228282Y-47971718D01*
X108102841Y-47875464D01*
X108019420Y-47840910D01*
X107956762Y-47814956D01*
X107956760Y-47814955D01*
X107800001Y-47794318D01*
X107799999Y-47794318D01*
X107643239Y-47814955D01*
X107643237Y-47814956D01*
X107497160Y-47875463D01*
X107371718Y-47971718D01*
X107275463Y-48097160D01*
X107214956Y-48243237D01*
X107214955Y-48243239D01*
X107194318Y-48399998D01*
X107194318Y-48400001D01*
X94026752Y-48400001D01*
X94029947Y-48375736D01*
X94029947Y-48375733D01*
X94016188Y-48271227D01*
X94009309Y-48218973D01*
X93948801Y-48072894D01*
X93852547Y-47947453D01*
X93727106Y-47851199D01*
X93702266Y-47840910D01*
X93581027Y-47790691D01*
X93581025Y-47790690D01*
X93424266Y-47770053D01*
X93424264Y-47770053D01*
X93267504Y-47790690D01*
X93267502Y-47790691D01*
X93121425Y-47851198D01*
X92995983Y-47947453D01*
X92899728Y-48072895D01*
X92839221Y-48218972D01*
X92839220Y-48218974D01*
X92818583Y-48375733D01*
X92818583Y-48375736D01*
X89157084Y-48375736D01*
X89124536Y-48297159D01*
X89028282Y-48171718D01*
X88902841Y-48075464D01*
X88896636Y-48072894D01*
X88756762Y-48014956D01*
X88756760Y-48014955D01*
X88600001Y-47994318D01*
X88599999Y-47994318D01*
X88443239Y-48014955D01*
X88443237Y-48014956D01*
X88297160Y-48075463D01*
X88171718Y-48171718D01*
X88075463Y-48297160D01*
X88014956Y-48443237D01*
X88014955Y-48443239D01*
X87994318Y-48599998D01*
X87994318Y-48600001D01*
X85967135Y-48600001D01*
X85924536Y-48497159D01*
X85828282Y-48371718D01*
X85702841Y-48275464D01*
X85556762Y-48214956D01*
X85556760Y-48214955D01*
X85400001Y-48194318D01*
X85399999Y-48194318D01*
X85243239Y-48214955D01*
X85243237Y-48214956D01*
X85097160Y-48275463D01*
X85097159Y-48275464D01*
X84971718Y-48371718D01*
X84916839Y-48443239D01*
X84897456Y-48468499D01*
X84841028Y-48509701D01*
X84771282Y-48513856D01*
X84723594Y-48491388D01*
X84702842Y-48475464D01*
X84556762Y-48414956D01*
X84556760Y-48414955D01*
X84400001Y-48394318D01*
X84399999Y-48394318D01*
X84243239Y-48414955D01*
X84243237Y-48414956D01*
X84097160Y-48475463D01*
X83971718Y-48571718D01*
X83875463Y-48697160D01*
X83814956Y-48843237D01*
X83814955Y-48843239D01*
X83794318Y-48999998D01*
X83794318Y-49000001D01*
X77443148Y-49000001D01*
X77452254Y-48998802D01*
X77556762Y-48985044D01*
X77702841Y-48924536D01*
X77828282Y-48828282D01*
X77924536Y-48702841D01*
X77985044Y-48556762D01*
X77985044Y-48556754D01*
X77987149Y-48548906D01*
X77989094Y-48549427D01*
X78012963Y-48495458D01*
X78019949Y-48487863D01*
X78570995Y-47936819D01*
X78632318Y-47903334D01*
X78658676Y-47900500D01*
X86332857Y-47900500D01*
X86359215Y-47903334D01*
X86363927Y-47904359D01*
X86413461Y-47900815D01*
X86422308Y-47900500D01*
X86435799Y-47900500D01*
X86449156Y-47898579D01*
X86457951Y-47897633D01*
X86507483Y-47894091D01*
X86511992Y-47892408D01*
X86537685Y-47885850D01*
X86542457Y-47885165D01*
X86587637Y-47864530D01*
X86595801Y-47861149D01*
X86642331Y-47843796D01*
X86646189Y-47840907D01*
X86668995Y-47827375D01*
X86673373Y-47825377D01*
X86710899Y-47792859D01*
X86717778Y-47787316D01*
X86728593Y-47779221D01*
X86738155Y-47769658D01*
X86744605Y-47763653D01*
X86782143Y-47731128D01*
X86784751Y-47727068D01*
X86801381Y-47706431D01*
X87400704Y-47107108D01*
X117301425Y-47107108D01*
X117322062Y-47263867D01*
X117322063Y-47263869D01*
X117378449Y-47399998D01*
X117382571Y-47409948D01*
X117478825Y-47535389D01*
X117604266Y-47631643D01*
X117750345Y-47692151D01*
X117828726Y-47702470D01*
X117907106Y-47712789D01*
X117907107Y-47712789D01*
X117907108Y-47712789D01*
X117982670Y-47702841D01*
X118063869Y-47692151D01*
X118209948Y-47631643D01*
X118335389Y-47535389D01*
X118431643Y-47409948D01*
X118492151Y-47263869D01*
X118512789Y-47107107D01*
X118511479Y-47097159D01*
X118497940Y-46994318D01*
X118492151Y-46950345D01*
X118431643Y-46804266D01*
X118415011Y-46782591D01*
X118389818Y-46717426D01*
X118403855Y-46648981D01*
X118415006Y-46631628D01*
X118431643Y-46609948D01*
X118492151Y-46463869D01*
X118512789Y-46307107D01*
X118492151Y-46150345D01*
X118431643Y-46004266D01*
X118335389Y-45878825D01*
X118209948Y-45782571D01*
X118063869Y-45722063D01*
X118063867Y-45722062D01*
X117907108Y-45701425D01*
X117907106Y-45701425D01*
X117750346Y-45722062D01*
X117750344Y-45722063D01*
X117604267Y-45782570D01*
X117478825Y-45878825D01*
X117382570Y-46004267D01*
X117322063Y-46150344D01*
X117322062Y-46150346D01*
X117301425Y-46307105D01*
X117301425Y-46307108D01*
X117322062Y-46463867D01*
X117322063Y-46463869D01*
X117382571Y-46609948D01*
X117399202Y-46631623D01*
X117424394Y-46696793D01*
X117410354Y-46765237D01*
X117399202Y-46782591D01*
X117382571Y-46804265D01*
X117322063Y-46950344D01*
X117322062Y-46950346D01*
X117301425Y-47107105D01*
X117301425Y-47107108D01*
X87400704Y-47107108D01*
X89432078Y-45075736D01*
X109670053Y-45075736D01*
X109690690Y-45232495D01*
X109690691Y-45232497D01*
X109751199Y-45378576D01*
X109847453Y-45504017D01*
X109972894Y-45600271D01*
X110118973Y-45660779D01*
X110197354Y-45671098D01*
X110275734Y-45681417D01*
X110275735Y-45681417D01*
X110275736Y-45681417D01*
X110327989Y-45674537D01*
X110432497Y-45660779D01*
X110578576Y-45600271D01*
X110704017Y-45504017D01*
X110783831Y-45400001D01*
X111394318Y-45400001D01*
X111414955Y-45556760D01*
X111414956Y-45556762D01*
X111475464Y-45702841D01*
X111571718Y-45828282D01*
X111697159Y-45924536D01*
X111843238Y-45985044D01*
X111856721Y-45986819D01*
X111999999Y-46005682D01*
X112000000Y-46005682D01*
X112000001Y-46005682D01*
X112052254Y-45998802D01*
X112156762Y-45985044D01*
X112302841Y-45924536D01*
X112428282Y-45828282D01*
X112524536Y-45702841D01*
X112585044Y-45556762D01*
X112598802Y-45452254D01*
X112605682Y-45400001D01*
X112605682Y-45400000D01*
X112603146Y-45380736D01*
X112600951Y-45364065D01*
X112611716Y-45295030D01*
X112658096Y-45242775D01*
X112725365Y-45223889D01*
X112792166Y-45244369D01*
X112799369Y-45249499D01*
X112823385Y-45267927D01*
X112897157Y-45324535D01*
X112897158Y-45324535D01*
X112897159Y-45324536D01*
X113043238Y-45385044D01*
X113121619Y-45395363D01*
X113199999Y-45405682D01*
X113200000Y-45405682D01*
X113200001Y-45405682D01*
X113252254Y-45398802D01*
X113356762Y-45385044D01*
X113502841Y-45324536D01*
X113628282Y-45228282D01*
X113724536Y-45102841D01*
X113785044Y-44956762D01*
X113803713Y-44814955D01*
X113805682Y-44800001D01*
X113805682Y-44799998D01*
X113788840Y-44672070D01*
X113785044Y-44643238D01*
X113724536Y-44497159D01*
X113628282Y-44371718D01*
X113502841Y-44275464D01*
X113356762Y-44214956D01*
X113356760Y-44214955D01*
X113200001Y-44194318D01*
X113199999Y-44194318D01*
X113043239Y-44214955D01*
X113043237Y-44214956D01*
X112897160Y-44275463D01*
X112771718Y-44371718D01*
X112675463Y-44497160D01*
X112614956Y-44643237D01*
X112614955Y-44643239D01*
X112594318Y-44799998D01*
X112594318Y-44800004D01*
X112599048Y-44835936D01*
X112588282Y-44904971D01*
X112541901Y-44957226D01*
X112474632Y-44976110D01*
X112407831Y-44955628D01*
X112400643Y-44950510D01*
X112302841Y-44875464D01*
X112195809Y-44831130D01*
X112156762Y-44814956D01*
X112156760Y-44814955D01*
X112000001Y-44794318D01*
X111999999Y-44794318D01*
X111843239Y-44814955D01*
X111843237Y-44814956D01*
X111697160Y-44875463D01*
X111571718Y-44971718D01*
X111475463Y-45097160D01*
X111414956Y-45243237D01*
X111414955Y-45243239D01*
X111394318Y-45399998D01*
X111394318Y-45400001D01*
X110783831Y-45400001D01*
X110800271Y-45378576D01*
X110860779Y-45232497D01*
X110876487Y-45113181D01*
X110881417Y-45075736D01*
X110881417Y-45075733D01*
X110860779Y-44918974D01*
X110860779Y-44918973D01*
X110800271Y-44772894D01*
X110704017Y-44647453D01*
X110578576Y-44551199D01*
X110532399Y-44532072D01*
X110432497Y-44490691D01*
X110432495Y-44490690D01*
X110275736Y-44470053D01*
X110275734Y-44470053D01*
X110118974Y-44490690D01*
X110118972Y-44490691D01*
X109972895Y-44551198D01*
X109847453Y-44647453D01*
X109751198Y-44772895D01*
X109690691Y-44918972D01*
X109690690Y-44918974D01*
X109670053Y-45075733D01*
X109670053Y-45075736D01*
X89432078Y-45075736D01*
X89870995Y-44636819D01*
X89932318Y-44603334D01*
X89958676Y-44600500D01*
X94191408Y-44600500D01*
X94204908Y-44600500D01*
X94213754Y-44600816D01*
X94263280Y-44604358D01*
X94266509Y-44603655D01*
X94267988Y-44603334D01*
X94294345Y-44600500D01*
X94564201Y-44600500D01*
X99632857Y-44600500D01*
X99659215Y-44603334D01*
X99663927Y-44604359D01*
X99713461Y-44600815D01*
X99722308Y-44600500D01*
X99735795Y-44600500D01*
X99735799Y-44600500D01*
X99735802Y-44600499D01*
X99739327Y-44600247D01*
X99764372Y-44600990D01*
X99800000Y-44605682D01*
X99956762Y-44585044D01*
X100102841Y-44524536D01*
X100228282Y-44428282D01*
X100324536Y-44302841D01*
X100385044Y-44156762D01*
X100405682Y-44000000D01*
X100399989Y-43956760D01*
X100385044Y-43843239D01*
X100385044Y-43843238D01*
X100324536Y-43697159D01*
X100228282Y-43571718D01*
X100102841Y-43475464D01*
X100060324Y-43457853D01*
X99956762Y-43414956D01*
X99956760Y-43414955D01*
X99800001Y-43394318D01*
X99799999Y-43394318D01*
X99643239Y-43414955D01*
X99643237Y-43414956D01*
X99497160Y-43475463D01*
X99497159Y-43475464D01*
X99371718Y-43571718D01*
X99371716Y-43571720D01*
X99368907Y-43573876D01*
X99303737Y-43599070D01*
X99293420Y-43599500D01*
X94595366Y-43599500D01*
X94528327Y-43579815D01*
X94482572Y-43527011D01*
X94480805Y-43522953D01*
X94461134Y-43475464D01*
X94431644Y-43404267D01*
X94335390Y-43278826D01*
X94209949Y-43182572D01*
X94063870Y-43122064D01*
X94063868Y-43122063D01*
X93907109Y-43101426D01*
X93907107Y-43101426D01*
X93750347Y-43122063D01*
X93750345Y-43122064D01*
X93604268Y-43182571D01*
X93478826Y-43278826D01*
X93382571Y-43404268D01*
X93333411Y-43522953D01*
X93289570Y-43577356D01*
X93223276Y-43599421D01*
X93218850Y-43599500D01*
X91855579Y-43599500D01*
X91788540Y-43579815D01*
X91742785Y-43527011D01*
X91732841Y-43457853D01*
X91741018Y-43428047D01*
X91785044Y-43321760D01*
X91803368Y-43182572D01*
X91805682Y-43164999D01*
X91805682Y-43164996D01*
X91785044Y-43008237D01*
X91785044Y-43008236D01*
X91724536Y-42862157D01*
X91628282Y-42736716D01*
X91502841Y-42640462D01*
X91463740Y-42624266D01*
X91356762Y-42579954D01*
X91356760Y-42579953D01*
X91200001Y-42559316D01*
X91199999Y-42559316D01*
X91043239Y-42579953D01*
X91043237Y-42579954D01*
X90897160Y-42640461D01*
X90771718Y-42736716D01*
X90675463Y-42862158D01*
X90614956Y-43008235D01*
X90614955Y-43008237D01*
X90594318Y-43164996D01*
X90594318Y-43164999D01*
X90614955Y-43321758D01*
X90614956Y-43321760D01*
X90647363Y-43399998D01*
X90658982Y-43428047D01*
X90666451Y-43497516D01*
X90635176Y-43559996D01*
X90575087Y-43595648D01*
X90544421Y-43599500D01*
X89767143Y-43599500D01*
X89740785Y-43596666D01*
X89736074Y-43595641D01*
X89736070Y-43595641D01*
X89686539Y-43599184D01*
X89677692Y-43599500D01*
X89664200Y-43599500D01*
X89658063Y-43600382D01*
X89650840Y-43601420D01*
X89642054Y-43602365D01*
X89592516Y-43605909D01*
X89592513Y-43605910D01*
X89587986Y-43607598D01*
X89562327Y-43614146D01*
X89557550Y-43614833D01*
X89557543Y-43614835D01*
X89512365Y-43635466D01*
X89504191Y-43638851D01*
X89457675Y-43656200D01*
X89457664Y-43656206D01*
X89453799Y-43659100D01*
X89431020Y-43672615D01*
X89426636Y-43674617D01*
X89426625Y-43674624D01*
X89389108Y-43707132D01*
X89382226Y-43712678D01*
X89371403Y-43720780D01*
X89361854Y-43730329D01*
X89355384Y-43736353D01*
X89317861Y-43768867D01*
X89317854Y-43768876D01*
X89315243Y-43772938D01*
X89298616Y-43793568D01*
X86229005Y-46863181D01*
X86167682Y-46896666D01*
X86141324Y-46899500D01*
X78467143Y-46899500D01*
X78440785Y-46896666D01*
X78436074Y-46895641D01*
X78436070Y-46895641D01*
X78386539Y-46899184D01*
X78377692Y-46899500D01*
X78364200Y-46899500D01*
X78358063Y-46900382D01*
X78350840Y-46901420D01*
X78342054Y-46902365D01*
X78292516Y-46905909D01*
X78292513Y-46905910D01*
X78287986Y-46907598D01*
X78262327Y-46914146D01*
X78257550Y-46914833D01*
X78257543Y-46914835D01*
X78212365Y-46935466D01*
X78204191Y-46938851D01*
X78157675Y-46956200D01*
X78157664Y-46956206D01*
X78153799Y-46959100D01*
X78131020Y-46972615D01*
X78126636Y-46974617D01*
X78126625Y-46974624D01*
X78089108Y-47007132D01*
X78082226Y-47012678D01*
X78071403Y-47020780D01*
X78061854Y-47030329D01*
X78055384Y-47036353D01*
X78017861Y-47068867D01*
X78017854Y-47068876D01*
X78015243Y-47072938D01*
X77998616Y-47093568D01*
X77312146Y-47780038D01*
X77250823Y-47813523D01*
X77244415Y-47814640D01*
X77243238Y-47814955D01*
X77221950Y-47823773D01*
X77152480Y-47831240D01*
X77090002Y-47799964D01*
X77054351Y-47739874D01*
X77050500Y-47709211D01*
X77050500Y-45178678D01*
X78572995Y-45178678D01*
X78593632Y-45335437D01*
X78593633Y-45335439D01*
X78649652Y-45470682D01*
X78654141Y-45481518D01*
X78750395Y-45606959D01*
X78875836Y-45703213D01*
X79021915Y-45763721D01*
X79100296Y-45774040D01*
X79178676Y-45784359D01*
X79178677Y-45784359D01*
X79178678Y-45784359D01*
X79230931Y-45777479D01*
X79335439Y-45763721D01*
X79481518Y-45703213D01*
X79606959Y-45606959D01*
X79697389Y-45489106D01*
X79753814Y-45447906D01*
X79823560Y-45443751D01*
X79843214Y-45450034D01*
X79843238Y-45450044D01*
X79917259Y-45459789D01*
X79999999Y-45470682D01*
X80000000Y-45470682D01*
X80000001Y-45470682D01*
X80082733Y-45459790D01*
X80156762Y-45450044D01*
X80302841Y-45389536D01*
X80428282Y-45293282D01*
X80524536Y-45167841D01*
X80585044Y-45021762D01*
X80604255Y-44875837D01*
X80605682Y-44865001D01*
X80605682Y-44864998D01*
X80585044Y-44708239D01*
X80585044Y-44708238D01*
X80524536Y-44562159D01*
X80428282Y-44436718D01*
X80302841Y-44340464D01*
X80264392Y-44324538D01*
X80156762Y-44279956D01*
X80156760Y-44279955D01*
X80000001Y-44259318D01*
X79999999Y-44259318D01*
X79843239Y-44279955D01*
X79843237Y-44279956D01*
X79697160Y-44340463D01*
X79571718Y-44436718D01*
X79481289Y-44554568D01*
X79424861Y-44595770D01*
X79355115Y-44599925D01*
X79335461Y-44593642D01*
X79335442Y-44593634D01*
X79335437Y-44593632D01*
X79178678Y-44572995D01*
X79178676Y-44572995D01*
X79021916Y-44593632D01*
X79021914Y-44593633D01*
X78875837Y-44654140D01*
X78750395Y-44750395D01*
X78654140Y-44875837D01*
X78593633Y-45021914D01*
X78593632Y-45021916D01*
X78572995Y-45178675D01*
X78572995Y-45178678D01*
X77050500Y-45178678D01*
X77050500Y-43400001D01*
X81594318Y-43400001D01*
X81614955Y-43556760D01*
X81614956Y-43556762D01*
X81660652Y-43667083D01*
X81675464Y-43702841D01*
X81771718Y-43828282D01*
X81897159Y-43924536D01*
X82043238Y-43985044D01*
X82121619Y-43995363D01*
X82199999Y-44005682D01*
X82200000Y-44005682D01*
X82200001Y-44005682D01*
X82252254Y-43998802D01*
X82356762Y-43985044D01*
X82502841Y-43924536D01*
X82624515Y-43831171D01*
X82689683Y-43805979D01*
X82758127Y-43820017D01*
X82775478Y-43831167D01*
X82897159Y-43924536D01*
X83043238Y-43985044D01*
X83121619Y-43995363D01*
X83199999Y-44005682D01*
X83200000Y-44005682D01*
X83200001Y-44005682D01*
X83252254Y-43998802D01*
X83356762Y-43985044D01*
X83502841Y-43924536D01*
X83628282Y-43828282D01*
X83724536Y-43702841D01*
X83785044Y-43556762D01*
X83805682Y-43400001D01*
X85594318Y-43400001D01*
X85614955Y-43556760D01*
X85614956Y-43556762D01*
X85660652Y-43667083D01*
X85675464Y-43702841D01*
X85771718Y-43828282D01*
X85897159Y-43924536D01*
X86043238Y-43985044D01*
X86121619Y-43995363D01*
X86199999Y-44005682D01*
X86200000Y-44005682D01*
X86200001Y-44005682D01*
X86252254Y-43998802D01*
X86356762Y-43985044D01*
X86502841Y-43924536D01*
X86628282Y-43828282D01*
X86701625Y-43732699D01*
X86758052Y-43691497D01*
X86827798Y-43687342D01*
X86888718Y-43721554D01*
X86898372Y-43732695D01*
X86926127Y-43768867D01*
X86950016Y-43800000D01*
X86971718Y-43828282D01*
X87097159Y-43924536D01*
X87243238Y-43985044D01*
X87321619Y-43995363D01*
X87399999Y-44005682D01*
X87400000Y-44005682D01*
X87400001Y-44005682D01*
X87452254Y-43998802D01*
X87556762Y-43985044D01*
X87702841Y-43924536D01*
X87828282Y-43828282D01*
X87924536Y-43702841D01*
X87985044Y-43556762D01*
X88005682Y-43400000D01*
X87985044Y-43243238D01*
X87924536Y-43097159D01*
X87828282Y-42971718D01*
X87702841Y-42875464D01*
X87556762Y-42814956D01*
X87556760Y-42814955D01*
X87400001Y-42794318D01*
X87399999Y-42794318D01*
X87243239Y-42814955D01*
X87243237Y-42814956D01*
X87097160Y-42875463D01*
X86971718Y-42971718D01*
X86898376Y-43067300D01*
X86841948Y-43108502D01*
X86772202Y-43112657D01*
X86711281Y-43078444D01*
X86701624Y-43067300D01*
X86690303Y-43052546D01*
X86628282Y-42971718D01*
X86502841Y-42875464D01*
X86356762Y-42814956D01*
X86356760Y-42814955D01*
X86200001Y-42794318D01*
X86199999Y-42794318D01*
X86043239Y-42814955D01*
X86043237Y-42814956D01*
X85897160Y-42875463D01*
X85771718Y-42971718D01*
X85675463Y-43097160D01*
X85614956Y-43243237D01*
X85614955Y-43243239D01*
X85594318Y-43399998D01*
X85594318Y-43400001D01*
X83805682Y-43400001D01*
X83805682Y-43400000D01*
X83785044Y-43243238D01*
X83724536Y-43097159D01*
X83628282Y-42971718D01*
X83502841Y-42875464D01*
X83356762Y-42814956D01*
X83356760Y-42814955D01*
X83200001Y-42794318D01*
X83199999Y-42794318D01*
X83043239Y-42814955D01*
X83043237Y-42814956D01*
X82897157Y-42875464D01*
X82775486Y-42968826D01*
X82710317Y-42994020D01*
X82641872Y-42979981D01*
X82624514Y-42968826D01*
X82502842Y-42875464D01*
X82356762Y-42814956D01*
X82356760Y-42814955D01*
X82200001Y-42794318D01*
X82199999Y-42794318D01*
X82043239Y-42814955D01*
X82043237Y-42814956D01*
X81897160Y-42875463D01*
X81771718Y-42971718D01*
X81675463Y-43097160D01*
X81614956Y-43243237D01*
X81614955Y-43243239D01*
X81594318Y-43399998D01*
X81594318Y-43400001D01*
X77050500Y-43400001D01*
X77050500Y-42200001D01*
X88594318Y-42200001D01*
X88614955Y-42356760D01*
X88614956Y-42356762D01*
X88675464Y-42502841D01*
X88771718Y-42628282D01*
X88897159Y-42724536D01*
X89043238Y-42785044D01*
X89113681Y-42794318D01*
X89199999Y-42805682D01*
X89200000Y-42805682D01*
X89200001Y-42805682D01*
X89252254Y-42798802D01*
X89356762Y-42785044D01*
X89502841Y-42724536D01*
X89628282Y-42628282D01*
X89724536Y-42502841D01*
X89785044Y-42356762D01*
X89805682Y-42200000D01*
X89797036Y-42134330D01*
X89788824Y-42071949D01*
X89785044Y-42043238D01*
X89724536Y-41897159D01*
X89628282Y-41771718D01*
X89502841Y-41675464D01*
X89494647Y-41672070D01*
X89356762Y-41614956D01*
X89356760Y-41614955D01*
X89200001Y-41594318D01*
X89199999Y-41594318D01*
X89043239Y-41614955D01*
X89043237Y-41614956D01*
X88897160Y-41675463D01*
X88771718Y-41771718D01*
X88675463Y-41897160D01*
X88614956Y-42043237D01*
X88614955Y-42043239D01*
X88594318Y-42199998D01*
X88594318Y-42200001D01*
X77050500Y-42200001D01*
X77050500Y-41129002D01*
X84497111Y-41129002D01*
X84517748Y-41285761D01*
X84517749Y-41285763D01*
X84578257Y-41431842D01*
X84674511Y-41557283D01*
X84799952Y-41653537D01*
X84946031Y-41714045D01*
X85024412Y-41724364D01*
X85102792Y-41734683D01*
X85102793Y-41734683D01*
X85102794Y-41734683D01*
X85155047Y-41727803D01*
X85259555Y-41714045D01*
X85405634Y-41653537D01*
X85531075Y-41557283D01*
X85627329Y-41431842D01*
X85687837Y-41285763D01*
X85708475Y-41129001D01*
X85687837Y-40972239D01*
X85627329Y-40826160D01*
X85531075Y-40700719D01*
X85405634Y-40604465D01*
X85358745Y-40585043D01*
X85259555Y-40543957D01*
X85259553Y-40543956D01*
X85102794Y-40523319D01*
X85102792Y-40523319D01*
X84946032Y-40543956D01*
X84946030Y-40543957D01*
X84799953Y-40604464D01*
X84674511Y-40700719D01*
X84578256Y-40826161D01*
X84517749Y-40972238D01*
X84517748Y-40972240D01*
X84497111Y-41128999D01*
X84497111Y-41129002D01*
X77050500Y-41129002D01*
X77050500Y-40200001D01*
X87594318Y-40200001D01*
X87614955Y-40356760D01*
X87614956Y-40356762D01*
X87647055Y-40434257D01*
X87675464Y-40502841D01*
X87771718Y-40628282D01*
X87897159Y-40724536D01*
X88043238Y-40785044D01*
X88121619Y-40795363D01*
X88199999Y-40805682D01*
X88200000Y-40805682D01*
X88200001Y-40805682D01*
X88270132Y-40796449D01*
X88356762Y-40785044D01*
X88502841Y-40724536D01*
X88628282Y-40628282D01*
X88724536Y-40502841D01*
X88785044Y-40356762D01*
X88805682Y-40200000D01*
X88804218Y-40188883D01*
X88785044Y-40043239D01*
X88785044Y-40043238D01*
X88724536Y-39897159D01*
X88628282Y-39771718D01*
X88502841Y-39675464D01*
X88457690Y-39656762D01*
X88356762Y-39614956D01*
X88356760Y-39614955D01*
X88200001Y-39594318D01*
X88199999Y-39594318D01*
X88043239Y-39614955D01*
X88043237Y-39614956D01*
X87897160Y-39675463D01*
X87771718Y-39771718D01*
X87675463Y-39897160D01*
X87614956Y-40043237D01*
X87614955Y-40043239D01*
X87594318Y-40199998D01*
X87594318Y-40200001D01*
X77050500Y-40200001D01*
X77050500Y-38000001D01*
X100994318Y-38000001D01*
X101014955Y-38156760D01*
X101014956Y-38156762D01*
X101075464Y-38302841D01*
X101171718Y-38428282D01*
X101297159Y-38524536D01*
X101443238Y-38585044D01*
X101600000Y-38605682D01*
X101600001Y-38605681D01*
X101603512Y-38606144D01*
X101667409Y-38634410D01*
X101675008Y-38641401D01*
X101763181Y-38729573D01*
X101796666Y-38790896D01*
X101799500Y-38817255D01*
X101799500Y-41863429D01*
X101799501Y-41863439D01*
X101806346Y-41884507D01*
X101810887Y-41903418D01*
X101814354Y-41925304D01*
X101814355Y-41925307D01*
X101824412Y-41945045D01*
X101831857Y-41963018D01*
X101838704Y-41984091D01*
X101843135Y-41992787D01*
X101839936Y-41994416D01*
X101857363Y-42043272D01*
X101841532Y-42111324D01*
X101809053Y-42148715D01*
X101747454Y-42195982D01*
X101651198Y-42321425D01*
X101590691Y-42467502D01*
X101590690Y-42467504D01*
X101570053Y-42624263D01*
X101570053Y-42624266D01*
X101590690Y-42781025D01*
X101590691Y-42781027D01*
X101651199Y-42927106D01*
X101747453Y-43052547D01*
X101872894Y-43148801D01*
X102018973Y-43209309D01*
X102175735Y-43229947D01*
X102175736Y-43229946D01*
X102179248Y-43230409D01*
X102243145Y-43258675D01*
X102250744Y-43265667D01*
X102423420Y-43438342D01*
X102513128Y-43528050D01*
X102532865Y-43538106D01*
X102549451Y-43548269D01*
X102567380Y-43561296D01*
X102567382Y-43561296D01*
X102567383Y-43561297D01*
X102588444Y-43568140D01*
X102606423Y-43575586D01*
X102626166Y-43585646D01*
X102648055Y-43589112D01*
X102666971Y-43593653D01*
X102688037Y-43600499D01*
X102714816Y-43600499D01*
X102714840Y-43600500D01*
X102719951Y-43600500D01*
X106879188Y-43600500D01*
X106946227Y-43620185D01*
X106991982Y-43672989D01*
X107002127Y-43740686D01*
X106994318Y-43800000D01*
X106994318Y-43800001D01*
X107014955Y-43956760D01*
X107014956Y-43956762D01*
X107075464Y-44102841D01*
X107171718Y-44228282D01*
X107297159Y-44324536D01*
X107443238Y-44385044D01*
X107521619Y-44395363D01*
X107599999Y-44405682D01*
X107600000Y-44405682D01*
X107600001Y-44405682D01*
X107652254Y-44398802D01*
X107756762Y-44385044D01*
X107902841Y-44324536D01*
X107924515Y-44307904D01*
X107989681Y-44282711D01*
X108058126Y-44296748D01*
X108075478Y-44307899D01*
X108097159Y-44324536D01*
X108097162Y-44324537D01*
X108097163Y-44324538D01*
X108170198Y-44354790D01*
X108243238Y-44385044D01*
X108321619Y-44395363D01*
X108399999Y-44405682D01*
X108400000Y-44405682D01*
X108400001Y-44405682D01*
X108452254Y-44398802D01*
X108556762Y-44385044D01*
X108702841Y-44324536D01*
X108828282Y-44228282D01*
X108924536Y-44102841D01*
X108985044Y-43956762D01*
X109005682Y-43800000D01*
X108997873Y-43740685D01*
X109008638Y-43671650D01*
X109055018Y-43619394D01*
X109120812Y-43600500D01*
X117382745Y-43600500D01*
X117449784Y-43620185D01*
X117470426Y-43636819D01*
X118913181Y-45079574D01*
X118946666Y-45140897D01*
X118949500Y-45167255D01*
X118949500Y-46958580D01*
X118929815Y-47025619D01*
X118923876Y-47034066D01*
X118875464Y-47097157D01*
X118814956Y-47243237D01*
X118814955Y-47243239D01*
X118794318Y-47399998D01*
X118794318Y-47400001D01*
X118814955Y-47556760D01*
X118814956Y-47556762D01*
X118871035Y-47692150D01*
X118875464Y-47702841D01*
X118971718Y-47828282D01*
X119097159Y-47924536D01*
X119243238Y-47985044D01*
X119313681Y-47994318D01*
X119399999Y-48005682D01*
X119400000Y-48005682D01*
X119400001Y-48005682D01*
X119452254Y-47998802D01*
X119556762Y-47985044D01*
X119702841Y-47924536D01*
X119828282Y-47828282D01*
X119924536Y-47702841D01*
X119949058Y-47643638D01*
X119992895Y-47589239D01*
X120059189Y-47567173D01*
X120126889Y-47584451D01*
X120161992Y-47615607D01*
X120171718Y-47628282D01*
X120297159Y-47724536D01*
X120443238Y-47785044D01*
X120502660Y-47792867D01*
X120599999Y-47805682D01*
X120600000Y-47805682D01*
X120600001Y-47805682D01*
X120652254Y-47798802D01*
X120756762Y-47785044D01*
X120902841Y-47724536D01*
X121028282Y-47628282D01*
X121124536Y-47502841D01*
X121185044Y-47356762D01*
X121205682Y-47200000D01*
X121185044Y-47043238D01*
X121124536Y-46897159D01*
X121028282Y-46771718D01*
X120902841Y-46675464D01*
X120756762Y-46614956D01*
X120700577Y-46607559D01*
X120596485Y-46593855D01*
X120532589Y-46565588D01*
X120524990Y-46558597D01*
X120186819Y-46220426D01*
X120153334Y-46159103D01*
X120150500Y-46132745D01*
X120150500Y-45450569D01*
X120170185Y-45383530D01*
X120222989Y-45337775D01*
X120292147Y-45327831D01*
X120355703Y-45356856D01*
X120362181Y-45362888D01*
X120859098Y-45859807D01*
X120859118Y-45859825D01*
X120877341Y-45878049D01*
X120897079Y-45888106D01*
X120913667Y-45898271D01*
X120931595Y-45911296D01*
X120952664Y-45918141D01*
X120970643Y-45925588D01*
X120990381Y-45935646D01*
X121012263Y-45939111D01*
X121031176Y-45943652D01*
X121052252Y-45950500D01*
X121084166Y-45950500D01*
X123032745Y-45950500D01*
X123099784Y-45970185D01*
X123120426Y-45986819D01*
X123699195Y-46565588D01*
X124121427Y-46987819D01*
X124154912Y-47049142D01*
X124149928Y-47118834D01*
X124108056Y-47174767D01*
X124042592Y-47199184D01*
X124033746Y-47199500D01*
X122706580Y-47199500D01*
X122639541Y-47179815D01*
X122631093Y-47173876D01*
X122628283Y-47171720D01*
X122628282Y-47171718D01*
X122502841Y-47075464D01*
X122490574Y-47070383D01*
X122356762Y-47014956D01*
X122356760Y-47014955D01*
X122200001Y-46994318D01*
X122199999Y-46994318D01*
X122043239Y-47014955D01*
X122043237Y-47014956D01*
X121897160Y-47075463D01*
X121771718Y-47171718D01*
X121675463Y-47297160D01*
X121614956Y-47443237D01*
X121614955Y-47443239D01*
X121594318Y-47599998D01*
X121594318Y-47600001D01*
X121614955Y-47756760D01*
X121614956Y-47756762D01*
X121673437Y-47897949D01*
X121675464Y-47902841D01*
X121771718Y-48028282D01*
X121897159Y-48124536D01*
X122043238Y-48185044D01*
X122200000Y-48205682D01*
X122263564Y-48197313D01*
X122332595Y-48208078D01*
X122384852Y-48254457D01*
X122403738Y-48321726D01*
X122402686Y-48336437D01*
X122394318Y-48399998D01*
X122394318Y-48400001D01*
X122414955Y-48556760D01*
X122414956Y-48556762D01*
X122450775Y-48643238D01*
X122475464Y-48702841D01*
X122571718Y-48828282D01*
X122697159Y-48924536D01*
X122843238Y-48985044D01*
X122887689Y-48990896D01*
X122999999Y-49005682D01*
X123000000Y-49005682D01*
X123000001Y-49005682D01*
X123052254Y-48998802D01*
X123156762Y-48985044D01*
X123302841Y-48924536D01*
X123428282Y-48828282D01*
X123428283Y-48828279D01*
X123431093Y-48826124D01*
X123496263Y-48800930D01*
X123506580Y-48800500D01*
X123782744Y-48800500D01*
X123849783Y-48820185D01*
X123870425Y-48836818D01*
X123963181Y-48929573D01*
X123996666Y-48990896D01*
X123999500Y-49017255D01*
X123999500Y-51682743D01*
X123979815Y-51749782D01*
X123963180Y-51770425D01*
X123925006Y-51808598D01*
X123863683Y-51842083D01*
X123853512Y-51843855D01*
X123693238Y-51864956D01*
X123693237Y-51864956D01*
X123547160Y-51925463D01*
X123421714Y-52021721D01*
X123419897Y-52024090D01*
X123417852Y-52025583D01*
X123415967Y-52027468D01*
X123415673Y-52027174D01*
X123363468Y-52065291D01*
X123293722Y-52069443D01*
X123246038Y-52046976D01*
X123152842Y-51975464D01*
X123006762Y-51914956D01*
X123006760Y-51914955D01*
X122850001Y-51894318D01*
X122849999Y-51894318D01*
X122693239Y-51914955D01*
X122693237Y-51914956D01*
X122539651Y-51978574D01*
X122538449Y-51975673D01*
X122484897Y-51988626D01*
X122418886Y-51965729D01*
X122392507Y-51940257D01*
X122378283Y-51921719D01*
X122378282Y-51921718D01*
X122252841Y-51825464D01*
X122106762Y-51764956D01*
X122106760Y-51764955D01*
X121950001Y-51744318D01*
X121949999Y-51744318D01*
X121793239Y-51764955D01*
X121793237Y-51764956D01*
X121647160Y-51825463D01*
X121521718Y-51921718D01*
X121425463Y-52047160D01*
X121364956Y-52193237D01*
X121364955Y-52193239D01*
X121344318Y-52349998D01*
X121344318Y-52350001D01*
X121364955Y-52506760D01*
X121364956Y-52506762D01*
X121411555Y-52619263D01*
X121425464Y-52652841D01*
X121521718Y-52778282D01*
X121647159Y-52874536D01*
X121739435Y-52912758D01*
X121793838Y-52956597D01*
X121815903Y-53022891D01*
X121814921Y-53043503D01*
X121794318Y-53199998D01*
X121794318Y-53200001D01*
X121814955Y-53356760D01*
X121814956Y-53356762D01*
X121847388Y-53435061D01*
X121875464Y-53502841D01*
X121971718Y-53628282D01*
X122097159Y-53724536D01*
X122243238Y-53785044D01*
X122278498Y-53789686D01*
X122399999Y-53805682D01*
X122400000Y-53805682D01*
X122400001Y-53805682D01*
X122482376Y-53794837D01*
X122556762Y-53785044D01*
X122702841Y-53724536D01*
X122828282Y-53628282D01*
X122828283Y-53628279D01*
X122831093Y-53626124D01*
X122896263Y-53600930D01*
X122906580Y-53600500D01*
X124463431Y-53600500D01*
X124463433Y-53600500D01*
X124484501Y-53593654D01*
X124503417Y-53589112D01*
X124525304Y-53585646D01*
X124545044Y-53575586D01*
X124563011Y-53568144D01*
X124584090Y-53561296D01*
X124602026Y-53548263D01*
X124618623Y-53538096D01*
X124619244Y-53537780D01*
X124687914Y-53524907D01*
X124752646Y-53551204D01*
X124792885Y-53608323D01*
X124799500Y-53648284D01*
X124799500Y-58360107D01*
X124787954Y-58399424D01*
X124798019Y-58420786D01*
X124799500Y-58439892D01*
X124799500Y-61281273D01*
X124779815Y-61348312D01*
X124763181Y-61368955D01*
X124600758Y-61531377D01*
X124539435Y-61564861D01*
X124469743Y-61559877D01*
X124414702Y-61519181D01*
X124378282Y-61471718D01*
X124252841Y-61375464D01*
X124236936Y-61368876D01*
X124106762Y-61314956D01*
X124106760Y-61314955D01*
X123950001Y-61294318D01*
X123949999Y-61294318D01*
X123793239Y-61314955D01*
X123793237Y-61314956D01*
X123647160Y-61375463D01*
X123647159Y-61375464D01*
X123521718Y-61471718D01*
X123521717Y-61471719D01*
X123521716Y-61471720D01*
X123468081Y-61541618D01*
X123411653Y-61582821D01*
X123341907Y-61586975D01*
X123322254Y-61580692D01*
X123228425Y-61541827D01*
X123228420Y-61541825D01*
X123071661Y-61521188D01*
X123071659Y-61521188D01*
X122914899Y-61541825D01*
X122914897Y-61541826D01*
X122768820Y-61602333D01*
X122643378Y-61698588D01*
X122547123Y-61824030D01*
X122486616Y-61970107D01*
X122486615Y-61970109D01*
X122466285Y-62124536D01*
X122465978Y-62126870D01*
X122483414Y-62259315D01*
X122472650Y-62328350D01*
X122426270Y-62380606D01*
X122360476Y-62399500D01*
X119156580Y-62399500D01*
X119089541Y-62379815D01*
X119081093Y-62373876D01*
X119078283Y-62371720D01*
X119078282Y-62371718D01*
X118952841Y-62275464D01*
X118806762Y-62214956D01*
X118806760Y-62214955D01*
X118650001Y-62194318D01*
X118649999Y-62194318D01*
X118493239Y-62214955D01*
X118493237Y-62214956D01*
X118347160Y-62275463D01*
X118221718Y-62371718D01*
X118125463Y-62497160D01*
X118064956Y-62643237D01*
X118064955Y-62643239D01*
X118044318Y-62799998D01*
X118044318Y-62800001D01*
X118064955Y-62956760D01*
X118064956Y-62956762D01*
X118125464Y-63102841D01*
X118221718Y-63228282D01*
X118347159Y-63324536D01*
X118493238Y-63385044D01*
X118571619Y-63395363D01*
X118649999Y-63405682D01*
X118650000Y-63405682D01*
X118650001Y-63405682D01*
X118702254Y-63398802D01*
X118806762Y-63385044D01*
X118952841Y-63324536D01*
X119078282Y-63228282D01*
X119078283Y-63228279D01*
X119081093Y-63226124D01*
X119146263Y-63200930D01*
X119156580Y-63200500D01*
X123961960Y-63200500D01*
X123961962Y-63200500D01*
X123983030Y-63193654D01*
X124001946Y-63189112D01*
X124023833Y-63185646D01*
X124043573Y-63175586D01*
X124061540Y-63168144D01*
X124082619Y-63161296D01*
X124100555Y-63148263D01*
X124117117Y-63138114D01*
X124136871Y-63128050D01*
X124152363Y-63112557D01*
X124152370Y-63112552D01*
X125512552Y-61752370D01*
X125512557Y-61752363D01*
X125528050Y-61736871D01*
X125538114Y-61717117D01*
X125548263Y-61700555D01*
X125561296Y-61682619D01*
X125568144Y-61661540D01*
X125575586Y-61643573D01*
X125585646Y-61623833D01*
X125589112Y-61601946D01*
X125593655Y-61583027D01*
X125594414Y-61580692D01*
X125600500Y-61561962D01*
X125600500Y-61435096D01*
X125600500Y-47468481D01*
X125600500Y-47464080D01*
X125600499Y-47464065D01*
X125600499Y-47436568D01*
X125600499Y-47436567D01*
X125593653Y-47415501D01*
X125589111Y-47396580D01*
X125585646Y-47374696D01*
X125575586Y-47354952D01*
X125568140Y-47336974D01*
X125561297Y-47315913D01*
X125561296Y-47315912D01*
X125561296Y-47315910D01*
X125548269Y-47297981D01*
X125538104Y-47281392D01*
X125528050Y-47261658D01*
X125438342Y-47171950D01*
X124122459Y-45856066D01*
X124088974Y-45794743D01*
X124093958Y-45725051D01*
X124135830Y-45669118D01*
X124152514Y-45658589D01*
X124300849Y-45580736D01*
X124300850Y-45580734D01*
X124300852Y-45580734D01*
X124428183Y-45467929D01*
X124524818Y-45327930D01*
X124543311Y-45279166D01*
X124585488Y-45223464D01*
X124651086Y-45199406D01*
X124719276Y-45214632D01*
X124761301Y-45252694D01*
X124771817Y-45267929D01*
X124850657Y-45337775D01*
X124899150Y-45380736D01*
X125032206Y-45450569D01*
X125049775Y-45459790D01*
X125214944Y-45500500D01*
X125385056Y-45500500D01*
X125550225Y-45459790D01*
X125653318Y-45405682D01*
X125700849Y-45380736D01*
X125700850Y-45380734D01*
X125700852Y-45380734D01*
X125828183Y-45267929D01*
X125924818Y-45127930D01*
X125985140Y-44968872D01*
X126005645Y-44800000D01*
X125985140Y-44631128D01*
X125973524Y-44600500D01*
X125931880Y-44490691D01*
X125924818Y-44472070D01*
X125828183Y-44332071D01*
X125700852Y-44219266D01*
X125700849Y-44219263D01*
X125550226Y-44140210D01*
X125385056Y-44099500D01*
X125214944Y-44099500D01*
X125049773Y-44140210D01*
X124899150Y-44219263D01*
X124771816Y-44332072D01*
X124675182Y-44472068D01*
X124675181Y-44472071D01*
X124656687Y-44520835D01*
X124614509Y-44576537D01*
X124548911Y-44600593D01*
X124480721Y-44585365D01*
X124438696Y-44547302D01*
X124428183Y-44532071D01*
X124300849Y-44419263D01*
X124150226Y-44340210D01*
X123985056Y-44299500D01*
X123814944Y-44299500D01*
X123649773Y-44340210D01*
X123499150Y-44419263D01*
X123371816Y-44532072D01*
X123275182Y-44672068D01*
X123214860Y-44831125D01*
X123214859Y-44831130D01*
X123194355Y-45000000D01*
X123194355Y-45000002D01*
X123195636Y-45010550D01*
X123184178Y-45079474D01*
X123137276Y-45131261D01*
X123072541Y-45149500D01*
X121332940Y-45149500D01*
X121265901Y-45129815D01*
X121245259Y-45113181D01*
X118223499Y-42091419D01*
X118223468Y-42091390D01*
X118204028Y-42071950D01*
X118204026Y-42071949D01*
X118184286Y-42061890D01*
X118167700Y-42051726D01*
X118149776Y-42038704D01*
X118149777Y-42038704D01*
X118128704Y-42031857D01*
X118110731Y-42024412D01*
X118090993Y-42014355D01*
X118090990Y-42014354D01*
X118069104Y-42010887D01*
X118050193Y-42006346D01*
X118029125Y-41999501D01*
X118029120Y-41999500D01*
X118029119Y-41999500D01*
X118029115Y-41999500D01*
X107917254Y-41999500D01*
X107850215Y-41979815D01*
X107829573Y-41963181D01*
X107436819Y-41570426D01*
X107403334Y-41509103D01*
X107400500Y-41482745D01*
X107400500Y-40186569D01*
X107400500Y-40186567D01*
X107393653Y-40165497D01*
X107389111Y-40146577D01*
X107386158Y-40127931D01*
X107385646Y-40124696D01*
X107375584Y-40104949D01*
X107368140Y-40086976D01*
X107367512Y-40085044D01*
X107361296Y-40065911D01*
X107360872Y-40065328D01*
X107348274Y-40047987D01*
X107338108Y-40031398D01*
X107328050Y-40011658D01*
X107316393Y-40000001D01*
X112194318Y-40000001D01*
X112214955Y-40156760D01*
X112214956Y-40156762D01*
X112223130Y-40176497D01*
X112275464Y-40302841D01*
X112371718Y-40428282D01*
X112497159Y-40524536D01*
X112643238Y-40585044D01*
X112721619Y-40595363D01*
X112799999Y-40605682D01*
X112800000Y-40605682D01*
X112800001Y-40605682D01*
X112852254Y-40598802D01*
X112956762Y-40585044D01*
X113102841Y-40524536D01*
X113228282Y-40428282D01*
X113324536Y-40302841D01*
X113385044Y-40156762D01*
X113398740Y-40052722D01*
X113427006Y-39988828D01*
X113485330Y-39950356D01*
X113555195Y-39949524D01*
X113569128Y-39954346D01*
X113643238Y-39985044D01*
X113721619Y-39995363D01*
X113799999Y-40005682D01*
X113800000Y-40005682D01*
X113800001Y-40005682D01*
X113852254Y-39998802D01*
X113956762Y-39985044D01*
X114102841Y-39924536D01*
X114228282Y-39828282D01*
X114324536Y-39702841D01*
X114385044Y-39556762D01*
X114405682Y-39400000D01*
X114403755Y-39385365D01*
X114388840Y-39272070D01*
X114385044Y-39243238D01*
X114324536Y-39097159D01*
X114249984Y-39000001D01*
X116394318Y-39000001D01*
X116414955Y-39156760D01*
X116414956Y-39156762D01*
X116462718Y-39272071D01*
X116475464Y-39302841D01*
X116571718Y-39428282D01*
X116697159Y-39524536D01*
X116843238Y-39585044D01*
X116870321Y-39588609D01*
X116934217Y-39616874D01*
X116972689Y-39675198D01*
X116977076Y-39695359D01*
X116980643Y-39722449D01*
X117012766Y-39800000D01*
X117030675Y-39843238D01*
X117041151Y-39868528D01*
X117137405Y-39993969D01*
X117262846Y-40090223D01*
X117408925Y-40150731D01*
X117487306Y-40161050D01*
X117565686Y-40171369D01*
X117565687Y-40171369D01*
X117565688Y-40171369D01*
X117617941Y-40164489D01*
X117722449Y-40150731D01*
X117868528Y-40090223D01*
X117993969Y-39993969D01*
X118090223Y-39868528D01*
X118150731Y-39722449D01*
X118171369Y-39565687D01*
X118165951Y-39524536D01*
X118162721Y-39500001D01*
X119544318Y-39500001D01*
X119564955Y-39656760D01*
X119564956Y-39656762D01*
X119611393Y-39768872D01*
X119625464Y-39802841D01*
X119721718Y-39928282D01*
X119847159Y-40024536D01*
X119993238Y-40085044D01*
X120124251Y-40102292D01*
X120188148Y-40130558D01*
X120226619Y-40188883D01*
X120231005Y-40241416D01*
X120214318Y-40368166D01*
X120214318Y-40368169D01*
X120234955Y-40524928D01*
X120234956Y-40524930D01*
X120267900Y-40604465D01*
X120295464Y-40671009D01*
X120391718Y-40796450D01*
X120517159Y-40892704D01*
X120663238Y-40953212D01*
X120741619Y-40963531D01*
X120819999Y-40973850D01*
X120820000Y-40973850D01*
X120820001Y-40973850D01*
X120872254Y-40966970D01*
X120976762Y-40953212D01*
X121122841Y-40892704D01*
X121248282Y-40796450D01*
X121344536Y-40671009D01*
X121405044Y-40524930D01*
X121419399Y-40415893D01*
X121425682Y-40368169D01*
X121425682Y-40368166D01*
X121405044Y-40211407D01*
X121405044Y-40211406D01*
X121344536Y-40065327D01*
X121248282Y-39939886D01*
X121122841Y-39843632D01*
X121121892Y-39843239D01*
X121080054Y-39825909D01*
X121017504Y-39800000D01*
X123294355Y-39800000D01*
X123314859Y-39968869D01*
X123314860Y-39968874D01*
X123375182Y-40127931D01*
X123415656Y-40186566D01*
X123471817Y-40267929D01*
X123553406Y-40340210D01*
X123599150Y-40380736D01*
X123701126Y-40434257D01*
X123749775Y-40459790D01*
X123914944Y-40500500D01*
X124085056Y-40500500D01*
X124250225Y-40459790D01*
X124333863Y-40415893D01*
X124400849Y-40380736D01*
X124400850Y-40380734D01*
X124400852Y-40380734D01*
X124528183Y-40267929D01*
X124624818Y-40127930D01*
X124643311Y-40079166D01*
X124685488Y-40023464D01*
X124751086Y-39999406D01*
X124819276Y-40014632D01*
X124861301Y-40052694D01*
X124871817Y-40067929D01*
X124971473Y-40156216D01*
X124999150Y-40180736D01*
X125149773Y-40259789D01*
X125149775Y-40259790D01*
X125314944Y-40300500D01*
X125485056Y-40300500D01*
X125650225Y-40259790D01*
X125742414Y-40211405D01*
X125800849Y-40180736D01*
X125800850Y-40180734D01*
X125800852Y-40180734D01*
X125928183Y-40067929D01*
X126024818Y-39927930D01*
X126085140Y-39768872D01*
X126105645Y-39600000D01*
X126085140Y-39431128D01*
X126079006Y-39414955D01*
X126053349Y-39347302D01*
X126024818Y-39272070D01*
X126024735Y-39271950D01*
X125975354Y-39200410D01*
X125928183Y-39132071D01*
X125800852Y-39019266D01*
X125800849Y-39019263D01*
X125650226Y-38940210D01*
X125485056Y-38899500D01*
X125314944Y-38899500D01*
X125149773Y-38940210D01*
X124999150Y-39019263D01*
X124871816Y-39132072D01*
X124775182Y-39272068D01*
X124775181Y-39272071D01*
X124756687Y-39320835D01*
X124714509Y-39376537D01*
X124648911Y-39400593D01*
X124580721Y-39385365D01*
X124538696Y-39347302D01*
X124528183Y-39332071D01*
X124400849Y-39219263D01*
X124250226Y-39140210D01*
X124085056Y-39099500D01*
X123914944Y-39099500D01*
X123749773Y-39140210D01*
X123599150Y-39219263D01*
X123471816Y-39332072D01*
X123375182Y-39472068D01*
X123314860Y-39631125D01*
X123314859Y-39631130D01*
X123294355Y-39800000D01*
X121017504Y-39800000D01*
X120976762Y-39783124D01*
X120954379Y-39780177D01*
X120845747Y-39765875D01*
X120781851Y-39737608D01*
X120743380Y-39679283D01*
X120738994Y-39626755D01*
X120755682Y-39500000D01*
X120749052Y-39449643D01*
X120735579Y-39347302D01*
X120735044Y-39343238D01*
X120674536Y-39197159D01*
X120578282Y-39071718D01*
X120452841Y-38975464D01*
X120443797Y-38971718D01*
X120306762Y-38914956D01*
X120306760Y-38914955D01*
X120150001Y-38894318D01*
X120149999Y-38894318D01*
X119993239Y-38914955D01*
X119993237Y-38914956D01*
X119847160Y-38975463D01*
X119721718Y-39071718D01*
X119625463Y-39197160D01*
X119564956Y-39343237D01*
X119564955Y-39343239D01*
X119544318Y-39499998D01*
X119544318Y-39500001D01*
X118162721Y-39500001D01*
X118150731Y-39408926D01*
X118150731Y-39408925D01*
X118090223Y-39262846D01*
X117993969Y-39137405D01*
X117868528Y-39041151D01*
X117722449Y-38980643D01*
X117715276Y-38979698D01*
X117695359Y-38977076D01*
X117631463Y-38948807D01*
X117592994Y-38890482D01*
X117588609Y-38870320D01*
X117585044Y-38843240D01*
X117585044Y-38843239D01*
X117585044Y-38843238D01*
X117524536Y-38697159D01*
X117449983Y-38600000D01*
X121094355Y-38600000D01*
X121114859Y-38768869D01*
X121114860Y-38768874D01*
X121175182Y-38927931D01*
X121209105Y-38977076D01*
X121271817Y-39067929D01*
X121350968Y-39138050D01*
X121399150Y-39180736D01*
X121509599Y-39238704D01*
X121549775Y-39259790D01*
X121714944Y-39300500D01*
X121885056Y-39300500D01*
X122050225Y-39259790D01*
X122143401Y-39210887D01*
X122200849Y-39180736D01*
X122200850Y-39180734D01*
X122200852Y-39180734D01*
X122328183Y-39067929D01*
X122424818Y-38927930D01*
X122485140Y-38768872D01*
X122505645Y-38600000D01*
X122485140Y-38431128D01*
X122479006Y-38414955D01*
X122424817Y-38272068D01*
X122345226Y-38156762D01*
X122328183Y-38132071D01*
X122233316Y-38048026D01*
X122200849Y-38019263D01*
X122050226Y-37940210D01*
X121885056Y-37899500D01*
X121714944Y-37899500D01*
X121549773Y-37940210D01*
X121399150Y-38019263D01*
X121271816Y-38132072D01*
X121175182Y-38272068D01*
X121114860Y-38431125D01*
X121114859Y-38431130D01*
X121094355Y-38600000D01*
X117449983Y-38600000D01*
X117428282Y-38571718D01*
X117302841Y-38475464D01*
X117195809Y-38431130D01*
X117156762Y-38414956D01*
X117156760Y-38414955D01*
X117000001Y-38394318D01*
X116999999Y-38394318D01*
X116843239Y-38414955D01*
X116843237Y-38414956D01*
X116697160Y-38475463D01*
X116571718Y-38571718D01*
X116475463Y-38697160D01*
X116414956Y-38843237D01*
X116414955Y-38843239D01*
X116394318Y-38999998D01*
X116394318Y-39000001D01*
X114249984Y-39000001D01*
X114228282Y-38971718D01*
X114102841Y-38875464D01*
X114090422Y-38870320D01*
X113956762Y-38814956D01*
X113956760Y-38814955D01*
X113800001Y-38794318D01*
X113799999Y-38794318D01*
X113643239Y-38814955D01*
X113643237Y-38814956D01*
X113497160Y-38875463D01*
X113371718Y-38971718D01*
X113275463Y-39097160D01*
X113214956Y-39243237D01*
X113214956Y-39243238D01*
X113201259Y-39347276D01*
X113172992Y-39411172D01*
X113114668Y-39449643D01*
X113044803Y-39450474D01*
X113030868Y-39445651D01*
X112956765Y-39414957D01*
X112956760Y-39414955D01*
X112800001Y-39394318D01*
X112799999Y-39394318D01*
X112643239Y-39414955D01*
X112643237Y-39414956D01*
X112497160Y-39475463D01*
X112371718Y-39571718D01*
X112275463Y-39697160D01*
X112214956Y-39843237D01*
X112214955Y-39843239D01*
X112194318Y-39999998D01*
X112194318Y-40000001D01*
X107316393Y-40000001D01*
X107309825Y-39993433D01*
X107309807Y-39993413D01*
X106607813Y-39291419D01*
X106607782Y-39291390D01*
X106588342Y-39271950D01*
X106588340Y-39271949D01*
X106568600Y-39261890D01*
X106552014Y-39251726D01*
X106534090Y-39238704D01*
X106534091Y-39238704D01*
X106513018Y-39231857D01*
X106495045Y-39224412D01*
X106475307Y-39214355D01*
X106475304Y-39214354D01*
X106453418Y-39210887D01*
X106434507Y-39206346D01*
X106413439Y-39199501D01*
X106413434Y-39199500D01*
X106413433Y-39199500D01*
X106413429Y-39199500D01*
X103124500Y-39199500D01*
X103057461Y-39179815D01*
X103011706Y-39127011D01*
X103000500Y-39075500D01*
X103000500Y-38425936D01*
X107020631Y-38425936D01*
X107051442Y-38627063D01*
X107051445Y-38627075D01*
X107122111Y-38817881D01*
X107122113Y-38817884D01*
X107122114Y-38817887D01*
X107137916Y-38843239D01*
X107229745Y-38990567D01*
X107229749Y-38990572D01*
X107364255Y-39132072D01*
X107369941Y-39138053D01*
X107486619Y-39219263D01*
X107536949Y-39254294D01*
X107536950Y-39254294D01*
X107536951Y-39254295D01*
X107723942Y-39334540D01*
X107923259Y-39375500D01*
X108075743Y-39375500D01*
X108227439Y-39360074D01*
X108421579Y-39299162D01*
X108421580Y-39299161D01*
X108421588Y-39299159D01*
X108599502Y-39200409D01*
X108753895Y-39067866D01*
X108878448Y-38906958D01*
X108968060Y-38724271D01*
X109019063Y-38527285D01*
X109029369Y-38324064D01*
X108998556Y-38122929D01*
X108927886Y-37932113D01*
X108820252Y-37759429D01*
X108680059Y-37611947D01*
X108546073Y-37518690D01*
X108513050Y-37495705D01*
X108326056Y-37415459D01*
X108126741Y-37374500D01*
X107974258Y-37374500D01*
X107974257Y-37374500D01*
X107822560Y-37389925D01*
X107628420Y-37450837D01*
X107628405Y-37450844D01*
X107450500Y-37549589D01*
X107450495Y-37549592D01*
X107296106Y-37682132D01*
X107296104Y-37682134D01*
X107171554Y-37843037D01*
X107171553Y-37843040D01*
X107081940Y-38025728D01*
X107030937Y-38222714D01*
X107020631Y-38425936D01*
X103000500Y-38425936D01*
X103000500Y-37317254D01*
X103020185Y-37250215D01*
X103036815Y-37229577D01*
X103774991Y-36491400D01*
X103836312Y-36457917D01*
X103846485Y-36456144D01*
X103849997Y-36455681D01*
X103850000Y-36455682D01*
X104006762Y-36435044D01*
X104152841Y-36374536D01*
X104278282Y-36278282D01*
X104374536Y-36152841D01*
X104435044Y-36006762D01*
X104451111Y-35884718D01*
X104455682Y-35850001D01*
X104455682Y-35849998D01*
X104435044Y-35693239D01*
X104435044Y-35693238D01*
X104379855Y-35560001D01*
X115834318Y-35560001D01*
X115854955Y-35716760D01*
X115854956Y-35716762D01*
X115915464Y-35862841D01*
X116011718Y-35988282D01*
X116137159Y-36084536D01*
X116283238Y-36145044D01*
X116361619Y-36155363D01*
X116439999Y-36165682D01*
X116440000Y-36165682D01*
X116440001Y-36165682D01*
X116492254Y-36158802D01*
X116596762Y-36145044D01*
X116742841Y-36084536D01*
X116868282Y-35988282D01*
X116964536Y-35862841D01*
X117025044Y-35716762D01*
X117045682Y-35560000D01*
X117043991Y-35547159D01*
X117025044Y-35403239D01*
X117025044Y-35403238D01*
X117019101Y-35388890D01*
X120815059Y-35388890D01*
X120835696Y-35545649D01*
X120835697Y-35545651D01*
X120896205Y-35691730D01*
X120992459Y-35817171D01*
X121117900Y-35913425D01*
X121263979Y-35973933D01*
X121342360Y-35984252D01*
X121420740Y-35994571D01*
X121420741Y-35994571D01*
X121420742Y-35994571D01*
X121472995Y-35987691D01*
X121577503Y-35973933D01*
X121723582Y-35913425D01*
X121849023Y-35817171D01*
X121945277Y-35691730D01*
X122005785Y-35545651D01*
X122026423Y-35388889D01*
X122005785Y-35232127D01*
X121945277Y-35086048D01*
X121879251Y-35000001D01*
X125913318Y-35000001D01*
X125933955Y-35156760D01*
X125933956Y-35156762D01*
X125994464Y-35302841D01*
X126090718Y-35428282D01*
X126216159Y-35524536D01*
X126362238Y-35585044D01*
X126440619Y-35595363D01*
X126518999Y-35605682D01*
X126519000Y-35605682D01*
X126519001Y-35605682D01*
X126571254Y-35598802D01*
X126675762Y-35585044D01*
X126821841Y-35524536D01*
X126947282Y-35428282D01*
X127043536Y-35302841D01*
X127104044Y-35156762D01*
X127124682Y-35000000D01*
X127104044Y-34843238D01*
X127043536Y-34697159D01*
X126947282Y-34571718D01*
X126821841Y-34475464D01*
X126675762Y-34414956D01*
X126675760Y-34414955D01*
X126519001Y-34394318D01*
X126518999Y-34394318D01*
X126362239Y-34414955D01*
X126362237Y-34414956D01*
X126216160Y-34475463D01*
X126090718Y-34571718D01*
X125994463Y-34697160D01*
X125933956Y-34843237D01*
X125933955Y-34843239D01*
X125913318Y-34999998D01*
X125913318Y-35000001D01*
X121879251Y-35000001D01*
X121849023Y-34960607D01*
X121723582Y-34864353D01*
X121672608Y-34843239D01*
X121577503Y-34803845D01*
X121577501Y-34803844D01*
X121420742Y-34783207D01*
X121420740Y-34783207D01*
X121263980Y-34803844D01*
X121263978Y-34803845D01*
X121117901Y-34864352D01*
X120992459Y-34960607D01*
X120896204Y-35086049D01*
X120835697Y-35232126D01*
X120835696Y-35232128D01*
X120815059Y-35388887D01*
X120815059Y-35388890D01*
X117019101Y-35388890D01*
X116964536Y-35257159D01*
X116868282Y-35131718D01*
X116742841Y-35035464D01*
X116657223Y-35000000D01*
X116596762Y-34974956D01*
X116596760Y-34974955D01*
X116440001Y-34954318D01*
X116439999Y-34954318D01*
X116283239Y-34974955D01*
X116283237Y-34974956D01*
X116137160Y-35035463D01*
X116011718Y-35131718D01*
X115915463Y-35257160D01*
X115854956Y-35403237D01*
X115854955Y-35403239D01*
X115834318Y-35559998D01*
X115834318Y-35560001D01*
X104379855Y-35560001D01*
X104374536Y-35547159D01*
X104278282Y-35421718D01*
X104152841Y-35325464D01*
X104098224Y-35302841D01*
X104006762Y-35264956D01*
X104006760Y-35264955D01*
X103850001Y-35244318D01*
X103849999Y-35244318D01*
X103693239Y-35264955D01*
X103693237Y-35264956D01*
X103547160Y-35325463D01*
X103421718Y-35421718D01*
X103325463Y-35547160D01*
X103264956Y-35693237D01*
X103264956Y-35693238D01*
X103243855Y-35853513D01*
X103215588Y-35917409D01*
X103208597Y-35925008D01*
X102294516Y-36839091D01*
X102294513Y-36839093D01*
X102294513Y-36839094D01*
X102283231Y-36850376D01*
X102271948Y-36861659D01*
X102271948Y-36861660D01*
X102261891Y-36881397D01*
X102251731Y-36897977D01*
X102238706Y-36915905D01*
X102238703Y-36915910D01*
X102231854Y-36936988D01*
X102224413Y-36954952D01*
X102214354Y-36974695D01*
X102210887Y-36996582D01*
X102206347Y-37015491D01*
X102199500Y-37036567D01*
X102199500Y-37451651D01*
X102179815Y-37518690D01*
X102127011Y-37564445D01*
X102057853Y-37574389D01*
X102000014Y-37550027D01*
X101902842Y-37475464D01*
X101756762Y-37414956D01*
X101756760Y-37414955D01*
X101600001Y-37394318D01*
X101599999Y-37394318D01*
X101443239Y-37414955D01*
X101443237Y-37414956D01*
X101297160Y-37475463D01*
X101171718Y-37571718D01*
X101075463Y-37697160D01*
X101014956Y-37843237D01*
X101014955Y-37843239D01*
X100994318Y-37999998D01*
X100994318Y-38000001D01*
X77050500Y-38000001D01*
X77050500Y-34400001D01*
X105994318Y-34400001D01*
X106014955Y-34556760D01*
X106014956Y-34556762D01*
X106055881Y-34655565D01*
X106075464Y-34702841D01*
X106171718Y-34828282D01*
X106297159Y-34924536D01*
X106443238Y-34985044D01*
X106521619Y-34995363D01*
X106599999Y-35005682D01*
X106600000Y-35005682D01*
X106600001Y-35005682D01*
X106652254Y-34998802D01*
X106756762Y-34985044D01*
X106902841Y-34924536D01*
X107028282Y-34828282D01*
X107124536Y-34702841D01*
X107185044Y-34556762D01*
X107205682Y-34400000D01*
X107199989Y-34356760D01*
X107185044Y-34243239D01*
X107185044Y-34243238D01*
X107124536Y-34097159D01*
X107028282Y-33971718D01*
X106928249Y-33894960D01*
X113769500Y-33894960D01*
X113784630Y-34029249D01*
X113784631Y-34029254D01*
X113844211Y-34199523D01*
X113871680Y-34243239D01*
X113940184Y-34352262D01*
X114067738Y-34479816D01*
X114158080Y-34536582D01*
X114190193Y-34556760D01*
X114220478Y-34575789D01*
X114370492Y-34628281D01*
X114390745Y-34635368D01*
X114390750Y-34635369D01*
X114569996Y-34655565D01*
X114570000Y-34655565D01*
X114570004Y-34655565D01*
X114749249Y-34635369D01*
X114749252Y-34635368D01*
X114749255Y-34635368D01*
X114919522Y-34575789D01*
X115072262Y-34479816D01*
X115199816Y-34352262D01*
X115295789Y-34199522D01*
X115355368Y-34029255D01*
X115360350Y-33985043D01*
X115370499Y-33894960D01*
X115370500Y-33894956D01*
X115370500Y-33260272D01*
X115390185Y-33193233D01*
X115442989Y-33147478D01*
X115512147Y-33137534D01*
X115575703Y-33166559D01*
X115583582Y-33174923D01*
X115583802Y-33174704D01*
X115589544Y-33180446D01*
X115589546Y-33180448D01*
X115589549Y-33180451D01*
X115709767Y-33272698D01*
X115849764Y-33330687D01*
X115962280Y-33345500D01*
X115962287Y-33345500D01*
X116037713Y-33345500D01*
X116037720Y-33345500D01*
X116150236Y-33330687D01*
X116290233Y-33272698D01*
X116410451Y-33180451D01*
X116502698Y-33060233D01*
X116522562Y-33012277D01*
X117236732Y-33012277D01*
X117257369Y-33169036D01*
X117257370Y-33169038D01*
X117317878Y-33315117D01*
X117414132Y-33440558D01*
X117539573Y-33536812D01*
X117685652Y-33597320D01*
X117734402Y-33603738D01*
X117842413Y-33617958D01*
X117842414Y-33617958D01*
X117842415Y-33617958D01*
X117894668Y-33611078D01*
X117999176Y-33597320D01*
X118145255Y-33536812D01*
X118270696Y-33440558D01*
X118366950Y-33315117D01*
X118427458Y-33169038D01*
X118448096Y-33012276D01*
X118442756Y-32971718D01*
X118427458Y-32855515D01*
X118427458Y-32855514D01*
X118366950Y-32709435D01*
X118270696Y-32583994D01*
X118145255Y-32487740D01*
X118115823Y-32475549D01*
X117999176Y-32427232D01*
X117999174Y-32427231D01*
X117842415Y-32406594D01*
X117842413Y-32406594D01*
X117685653Y-32427231D01*
X117685651Y-32427232D01*
X117539574Y-32487739D01*
X117414132Y-32583994D01*
X117317877Y-32709436D01*
X117257370Y-32855513D01*
X117257369Y-32855515D01*
X117236732Y-33012274D01*
X117236732Y-33012277D01*
X116522562Y-33012277D01*
X116560687Y-32920236D01*
X116580466Y-32770000D01*
X116560687Y-32619764D01*
X116502698Y-32479767D01*
X116410451Y-32359549D01*
X116290233Y-32267302D01*
X116290229Y-32267300D01*
X116226801Y-32241027D01*
X116150236Y-32209313D01*
X116136171Y-32207461D01*
X116037727Y-32194500D01*
X116037720Y-32194500D01*
X115962280Y-32194500D01*
X115962272Y-32194500D01*
X115849764Y-32209313D01*
X115849763Y-32209313D01*
X115709770Y-32267300D01*
X115709767Y-32267301D01*
X115709767Y-32267302D01*
X115589549Y-32359549D01*
X115589548Y-32359550D01*
X115589547Y-32359551D01*
X115517607Y-32453304D01*
X115461179Y-32494507D01*
X115391433Y-32498661D01*
X115330513Y-32464448D01*
X115302190Y-32418770D01*
X115295790Y-32400479D01*
X115212109Y-32267302D01*
X115199816Y-32247738D01*
X115072262Y-32120184D01*
X115028528Y-32092704D01*
X114919523Y-32024211D01*
X114749254Y-31964631D01*
X114749249Y-31964630D01*
X114570004Y-31944435D01*
X114569996Y-31944435D01*
X114390750Y-31964630D01*
X114390745Y-31964631D01*
X114220476Y-32024211D01*
X114067737Y-32120184D01*
X113940184Y-32247737D01*
X113844211Y-32400476D01*
X113784631Y-32570745D01*
X113784630Y-32570750D01*
X113769500Y-32705039D01*
X113769500Y-33894960D01*
X106928249Y-33894960D01*
X106902841Y-33875464D01*
X106756762Y-33814956D01*
X106756760Y-33814955D01*
X106600001Y-33794318D01*
X106599999Y-33794318D01*
X106443239Y-33814955D01*
X106443237Y-33814956D01*
X106297160Y-33875463D01*
X106171718Y-33971718D01*
X106075463Y-34097160D01*
X106014956Y-34243237D01*
X106014955Y-34243239D01*
X105994318Y-34399998D01*
X105994318Y-34400001D01*
X77050500Y-34400001D01*
X77050500Y-30750001D01*
X98544318Y-30750001D01*
X98564955Y-30906760D01*
X98564956Y-30906762D01*
X98625464Y-31052841D01*
X98721718Y-31178282D01*
X98847159Y-31274536D01*
X98993238Y-31335044D01*
X99071619Y-31345363D01*
X99149999Y-31355682D01*
X99150000Y-31355682D01*
X99150001Y-31355682D01*
X99202254Y-31348802D01*
X99306762Y-31335044D01*
X99452841Y-31274536D01*
X99578282Y-31178282D01*
X99674536Y-31052841D01*
X99735044Y-30906762D01*
X99755682Y-30750000D01*
X99739489Y-30627001D01*
X118994318Y-30627001D01*
X119014955Y-30783760D01*
X119014956Y-30783762D01*
X119065903Y-30906760D01*
X119075464Y-30929841D01*
X119171718Y-31055282D01*
X119297159Y-31151536D01*
X119443238Y-31212044D01*
X119521619Y-31222363D01*
X119599999Y-31232682D01*
X119600000Y-31232682D01*
X119600001Y-31232682D01*
X119652254Y-31225802D01*
X119756762Y-31212044D01*
X119902841Y-31151536D01*
X120028282Y-31055282D01*
X120124536Y-30929841D01*
X120185044Y-30783762D01*
X120205682Y-30627000D01*
X120203751Y-30612335D01*
X120185044Y-30470239D01*
X120185044Y-30470238D01*
X120124536Y-30324159D01*
X120028282Y-30198718D01*
X119902841Y-30102464D01*
X119756762Y-30041956D01*
X119756760Y-30041955D01*
X119600001Y-30021318D01*
X119599999Y-30021318D01*
X119443239Y-30041955D01*
X119443237Y-30041956D01*
X119297160Y-30102463D01*
X119171718Y-30198718D01*
X119075463Y-30324160D01*
X119014956Y-30470237D01*
X119014955Y-30470239D01*
X118994318Y-30626998D01*
X118994318Y-30627001D01*
X99739489Y-30627001D01*
X99735044Y-30593238D01*
X99674536Y-30447159D01*
X99578282Y-30321718D01*
X99452841Y-30225464D01*
X99404327Y-30205369D01*
X99306762Y-30164956D01*
X99306760Y-30164955D01*
X99150001Y-30144318D01*
X99149999Y-30144318D01*
X98993239Y-30164955D01*
X98993237Y-30164956D01*
X98847160Y-30225463D01*
X98721718Y-30321718D01*
X98625463Y-30447160D01*
X98564956Y-30593237D01*
X98564955Y-30593239D01*
X98544318Y-30749998D01*
X98544318Y-30750001D01*
X77050500Y-30750001D01*
X77050500Y-28149500D01*
X77070185Y-28082461D01*
X77122989Y-28036706D01*
X77174500Y-28025500D01*
X99832468Y-28025500D01*
X99899507Y-28045185D01*
G37*
G04 #@! TD.AperFunction*
D16*
X128250000Y-80225000D02*
X128250000Y-30425000D01*
X128250000Y-30425000D02*
X124250000Y-30425000D01*
X77950000Y-88825000D02*
X77950000Y-80225000D01*
X127150000Y-88825000D02*
X127150000Y-80225000D01*
X76850000Y-80225000D02*
X76850000Y-27825000D01*
X124250000Y-27825000D02*
X124250000Y-30425000D01*
X77950000Y-88825000D02*
X127150000Y-88825000D01*
X76850000Y-27825000D02*
X124250000Y-27825000D01*
X127150000Y-80225000D02*
X128250000Y-80225000D01*
X77950000Y-80225000D02*
X76850000Y-80225000D01*
M02*
