M48
; DRILL file {KiCad 7.0.10} date Wed Apr 17 21:53:02 2024
; FORMAT={-:-/ absolute / metric / decimal}
; #@! TF.CreationDate,2024-04-17T21:53:02+03:00
; #@! TF.GenerationSoftware,Kicad,Pcbnew,7.0.10
; #@! TF.FileFunction,Plated,1,4,PTH
FMAT,2
METRIC
; #@! TA.AperFunction,Plated,PTH,ViaDrill
T1C0.300
; #@! TA.AperFunction,Plated,PTH,ViaDrill
T2C0.400
; #@! TA.AperFunction,Plated,PTH,ComponentDrill
T3C0.600
%
G90
G05
T1
X77.4Y-48.4
X77.4Y-63.0
X77.4Y-64.0
X77.4Y-66.0
X77.527Y-47.1
X78.0Y-30.5
X78.0Y-32.5
X78.0Y-35.0
X78.0Y-37.5
X78.0Y-40.5
X78.1Y-59.3
X79.179Y-45.179
X80.0Y-44.865
X80.6Y-66.6
X81.787Y-69.956
X81.8Y-70.8
X81.8Y-71.8
X81.853Y-69.159
X82.0Y-68.0
X82.0Y-73.5
X82.0Y-74.5
X82.0Y-76.0
X82.0Y-78.0
X82.2Y-30.1
X82.2Y-43.4
X82.8Y-64.6
X83.0Y-72.5
X83.0Y-74.5
X83.0Y-76.0
X83.0Y-78.0
X83.2Y-43.4
X83.2Y-59.0
X83.343Y-56.338
X83.367Y-57.933
X83.6Y-60.0
X83.6Y-60.8
X83.6Y-61.6
X83.6Y-57.095
X84.0Y-59.2
X84.147Y-58.111
X84.2Y-54.738
X84.2Y-56.0
X84.4Y-49.0
X84.4Y-53.0
X84.6Y-57.3
X84.734Y-51.444
X84.8Y-55.4
X84.956Y-54.45
X85.103Y-41.129
X85.174Y-56.178
X85.185Y-52.2
X85.4Y-48.8
X85.4Y-51.0
X85.668Y-53.863
X86.2Y-41.0
X86.2Y-43.4
X87.0Y-30.3
X87.4Y-43.4
X88.2Y-40.2
X88.4Y-41.8
X88.6Y-48.6
X88.7Y-31.8
X89.0Y-81.2
X89.1Y-35.6
X89.2Y-42.2
X89.5Y-33.0
X90.3Y-37.0
X90.5Y-31.5
X90.5Y-33.0
X90.6Y-81.1
X91.2Y-43.165
X91.6Y-70.0
X91.7Y-58.6
X92.0Y-34.5
X92.0Y-36.0
X92.0Y-37.5
X92.0Y-50.0
X92.0Y-51.0
X92.0Y-52.0
X92.0Y-71.0
X92.0Y-81.1
X92.5Y-58.0
X93.0Y-42.0
X93.0Y-70.0
X93.2Y-57.4
X93.4Y-68.34
X93.424Y-48.376
X93.5Y-80.8
X93.907Y-43.707
X94.0Y-51.0
X94.0Y-52.0
X94.0Y-58.0
X94.2Y-35.2
X94.6Y-43.2
X94.7Y-40.4
X95.0Y-50.5
X95.1Y-80.7
X95.5Y-42.5
X96.0Y-34.8
X96.0Y-62.5
X96.3Y-43.3
X96.5Y-80.7
X96.8Y-38.0
X97.0Y-39.5
X97.0Y-40.5
X97.0Y-42.5
X97.5Y-64.0
X97.681Y-62.121
X98.0Y-72.5
X98.0Y-74.5
X98.0Y-81.1
X98.247Y-61.555
X99.15Y-30.75
X99.4Y-81.3
X99.6Y-34.0
X99.758Y-53.407
X99.8Y-44.0
X99.838Y-54.335
X100.4Y-28.6
X100.4Y-51.6
X100.623Y-53.952
X100.812Y-68.4
X100.9Y-44.4
X101.2Y-51.6
X101.3Y-54.438
X101.6Y-28.6
X101.6Y-38.0
X101.8Y-67.4
X102.1Y-80.9
X102.176Y-42.624
X102.7Y-32.9
X102.7Y-34.2
X102.9Y-40.604
X103.5Y-28.5
X103.85Y-35.85
X103.9Y-32.2
X104.1Y-33.2
X104.2Y-52.8
X104.3Y-78.0
X104.6Y-55.2
X104.7Y-35.1
X105.0Y-52.2
X105.0Y-68.0
X105.4Y-54.8
X105.6Y-55.8
X105.8Y-51.6
X105.9Y-67.3
X106.0Y-28.5
X106.0Y-35.5
X106.4Y-37.8
X106.6Y-34.4
X106.6Y-77.9
X106.7Y-32.5
X106.8Y-57.2
X107.0Y-35.5
X107.0Y-68.0
X107.0Y-71.0
X107.5Y-32.0
X107.5Y-73.5
X107.5Y-76.5
X107.6Y-28.8
X107.6Y-43.8
X107.8Y-48.4
X107.8Y-77.9
X108.0Y-34.5
X108.0Y-35.5
X108.4Y-43.8
X108.6Y-61.3
X109.0Y-35.5
X109.0Y-71.0
X109.0Y-73.5
X109.0Y-76.5
X109.3Y-77.8
X110.0Y-39.8
X110.1Y-56.7
X110.1Y-57.8
X110.1Y-59.0
X110.1Y-60.3
X110.1Y-61.7
X110.276Y-45.076
X110.5Y-28.5
X110.5Y-35.0
X110.5Y-71.0
X110.5Y-73.5
X110.5Y-76.5
X111.2Y-56.7
X111.2Y-57.8
X111.2Y-58.9
X111.2Y-60.2
X111.2Y-61.7
X111.5Y-35.5
X111.5Y-36.5
X112.0Y-45.4
X112.4Y-28.8
X112.8Y-40.0
X112.824Y-64.8
X113.0Y-61.2
X113.0Y-62.4
X113.0Y-72.9
X113.0Y-74.5
X113.0Y-76.5
X113.2Y-44.8
X113.4Y-53.4
X113.4Y-54.2
X113.8Y-39.4
X114.0Y-36.5
X114.0Y-67.0
X114.3Y-62.4
X114.4Y-44.4
X114.6Y-56.4
X114.65Y-55.3
X114.8Y-53.4
X114.8Y-54.4
X114.8Y-57.4
X114.8Y-64.4
X115.8Y-29.373
X116.0Y-62.4
X116.0Y-75.0
X116.0Y-77.0
X116.2Y-52.6
X116.2Y-59.0
X116.4Y-60.3
X116.44Y-35.56
X116.6Y-45.2
X116.6Y-64.6
X116.7Y-44.3
X117.0Y-39.0
X117.0Y-68.0
X117.35Y-53.4
X117.4Y-59.5
X117.4Y-61.2
X117.4Y-62.4
X117.5Y-57.8
X117.566Y-39.566
X117.842Y-33.012
X117.907Y-46.307
X117.907Y-47.107
X118.4Y-59.5
X118.4Y-61.2
X118.65Y-45.6
X118.65Y-62.8
X118.7Y-46.7
X119.0Y-76.5
X119.0Y-78.0
X119.048Y-37.504
X119.1Y-29.3
X119.4Y-47.4
X119.5Y-68.0
X119.5Y-69.5
X119.5Y-72.0
X119.6Y-30.627
X119.6Y-55.1
X120.15Y-39.5
X120.3Y-54.4
X120.4Y-56.0
X120.6Y-47.2
X120.82Y-40.368
X120.9Y-55.0
X121.0Y-44.5
X121.0Y-46.5
X121.421Y-35.389
X121.6Y-60.2
X121.6Y-61.5
X121.95Y-52.35
X122.0Y-36.5
X122.2Y-29.2
X122.2Y-47.6
X122.4Y-53.2
X122.5Y-40.0
X122.5Y-46.5
X122.5Y-68.0
X122.707Y-57.943
X122.85Y-52.5
X123.0Y-48.4
X123.0Y-69.5
X123.0Y-72.5
X123.0Y-74.5
X123.072Y-62.127
X123.1Y-64.6
X123.85Y-52.45
X123.95Y-58.4
X123.95Y-61.9
X124.4Y-34.2
X124.7Y-64.1
X125.2Y-33.4
X125.8Y-52.7
X125.8Y-55.6
X125.8Y-58.3
X125.8Y-63.1
X125.9Y-51.7
X125.9Y-56.7
X125.9Y-59.5
X125.9Y-61.3
X126.0Y-34.0
X126.0Y-68.0
X126.0Y-70.0
X126.0Y-72.5
X126.0Y-74.5
X126.0Y-77.0
X126.0Y-78.5
X126.224Y-64.624
X126.519Y-35.0
X126.824Y-65.2
X127.4Y-65.8
T2
X77.6Y-79.2
X78.8Y-79.2
X78.8Y-80.4
X79.4Y-81.2
X80.0Y-79.2
X80.0Y-80.4
X81.4Y-80.8
X82.4Y-81.0
X83.8Y-81.2
X85.2Y-81.0
X86.255Y-79.211
X86.8Y-80.4
X88.9Y-50.701
X89.611Y-51.657
X89.848Y-50.384
X90.0Y-52.6
X90.6Y-49.6
X91.2Y-53.2
X91.7Y-63.2
X91.8Y-73.4
X91.8Y-72.203
X92.0Y-78.5
X92.079Y-42.605
X92.2Y-53.4
X92.2Y-62.2
X92.907Y-61.493
X93.4Y-54.0
X93.4Y-78.5
X93.607Y-62.4
X94.4Y-54.2
X94.4Y-78.5
X94.8Y-64.6
X95.0Y-61.8
X95.6Y-78.5
X95.8Y-64.0
X96.3Y-74.0
X96.6Y-64.8
X96.645Y-78.5
X97.0Y-68.4
X97.0Y-72.2
X97.4Y-65.4
X97.8Y-78.5
X98.3Y-57.735
X98.4Y-59.6
X98.751Y-58.664
X98.8Y-78.5
X99.079Y-61.2
X99.2Y-60.2
X99.2Y-69.0
X99.6Y-62.2
X100.0Y-58.838
X100.0Y-78.4
X101.8Y-78.5
X104.0Y-41.0
X104.0Y-42.0
X105.0Y-41.0
X105.0Y-42.0
X106.0Y-41.0
X106.0Y-42.0
X106.0Y-78.9
X107.8Y-79.2
X109.2Y-79.6
X110.6Y-79.4
X112.2Y-79.2
X113.8Y-79.8
X115.0Y-79.0
X116.6Y-79.8
X118.0Y-79.0
X119.8Y-80.2
X120.8Y-79.0
X121.8Y-38.6
X122.8Y-80.2
X123.9Y-45.0
X124.0Y-39.8
X124.2Y-79.2
X125.3Y-44.8
X125.4Y-39.6
X125.8Y-80.0
T3
G00X114.57Y-28.82
M15
G01X114.57Y-29.42
M16
G05
G00X114.57Y-32.75
M15
G01X114.57Y-33.85
M16
G05
G00X123.21Y-28.82
M15
G01X123.21Y-29.42
M16
G05
G00X123.21Y-32.75
M15
G01X123.21Y-33.85
M16
G05
M30
