G04 #@! TF.GenerationSoftware,KiCad,Pcbnew,7.0.10*
G04 #@! TF.CreationDate,2024-04-17T21:52:57+03:00*
G04 #@! TF.ProjectId,GAMEBOY_STM32_CART,47414d45-424f-4595-9f53-544d33325f43,v5.1*
G04 #@! TF.SameCoordinates,Original*
G04 #@! TF.FileFunction,Legend,Bot*
G04 #@! TF.FilePolarity,Positive*
%FSLAX46Y46*%
G04 Gerber Fmt 4.6, Leading zero omitted, Abs format (unit mm)*
G04 Created by KiCad (PCBNEW 7.0.10) date 2024-04-17 21:52:57*
%MOMM*%
%LPD*%
G01*
G04 APERTURE LIST*
%ADD10C,0.300000*%
%ADD11C,0.150000*%
%ADD12C,0.120000*%
G04 #@! TA.AperFunction,Profile*
%ADD13C,0.150000*%
G04 #@! TD*
G04 APERTURE END LIST*
D10*
X114396190Y-54994876D02*
X114586666Y-54899638D01*
X114586666Y-54899638D02*
X114872380Y-54899638D01*
X114872380Y-54899638D02*
X115158095Y-54994876D01*
X115158095Y-54994876D02*
X115348571Y-55185352D01*
X115348571Y-55185352D02*
X115443809Y-55375828D01*
X115443809Y-55375828D02*
X115539047Y-55756780D01*
X115539047Y-55756780D02*
X115539047Y-56042495D01*
X115539047Y-56042495D02*
X115443809Y-56423447D01*
X115443809Y-56423447D02*
X115348571Y-56613923D01*
X115348571Y-56613923D02*
X115158095Y-56804400D01*
X115158095Y-56804400D02*
X114872380Y-56899638D01*
X114872380Y-56899638D02*
X114681904Y-56899638D01*
X114681904Y-56899638D02*
X114396190Y-56804400D01*
X114396190Y-56804400D02*
X114300952Y-56709161D01*
X114300952Y-56709161D02*
X114300952Y-56042495D01*
X114300952Y-56042495D02*
X114681904Y-56042495D01*
X112777142Y-55852019D02*
X112491428Y-55947257D01*
X112491428Y-55947257D02*
X112396190Y-56042495D01*
X112396190Y-56042495D02*
X112300952Y-56232971D01*
X112300952Y-56232971D02*
X112300952Y-56518685D01*
X112300952Y-56518685D02*
X112396190Y-56709161D01*
X112396190Y-56709161D02*
X112491428Y-56804400D01*
X112491428Y-56804400D02*
X112681904Y-56899638D01*
X112681904Y-56899638D02*
X113443809Y-56899638D01*
X113443809Y-56899638D02*
X113443809Y-54899638D01*
X113443809Y-54899638D02*
X112777142Y-54899638D01*
X112777142Y-54899638D02*
X112586666Y-54994876D01*
X112586666Y-54994876D02*
X112491428Y-55090114D01*
X112491428Y-55090114D02*
X112396190Y-55280590D01*
X112396190Y-55280590D02*
X112396190Y-55471066D01*
X112396190Y-55471066D02*
X112491428Y-55661542D01*
X112491428Y-55661542D02*
X112586666Y-55756780D01*
X112586666Y-55756780D02*
X112777142Y-55852019D01*
X112777142Y-55852019D02*
X113443809Y-55852019D01*
X111443809Y-56137733D02*
X109920000Y-56137733D01*
X108300952Y-55852019D02*
X108015238Y-55947257D01*
X108015238Y-55947257D02*
X107920000Y-56042495D01*
X107920000Y-56042495D02*
X107824762Y-56232971D01*
X107824762Y-56232971D02*
X107824762Y-56518685D01*
X107824762Y-56518685D02*
X107920000Y-56709161D01*
X107920000Y-56709161D02*
X108015238Y-56804400D01*
X108015238Y-56804400D02*
X108205714Y-56899638D01*
X108205714Y-56899638D02*
X108967619Y-56899638D01*
X108967619Y-56899638D02*
X108967619Y-54899638D01*
X108967619Y-54899638D02*
X108300952Y-54899638D01*
X108300952Y-54899638D02*
X108110476Y-54994876D01*
X108110476Y-54994876D02*
X108015238Y-55090114D01*
X108015238Y-55090114D02*
X107920000Y-55280590D01*
X107920000Y-55280590D02*
X107920000Y-55471066D01*
X107920000Y-55471066D02*
X108015238Y-55661542D01*
X108015238Y-55661542D02*
X108110476Y-55756780D01*
X108110476Y-55756780D02*
X108300952Y-55852019D01*
X108300952Y-55852019D02*
X108967619Y-55852019D01*
X105824762Y-56899638D02*
X106491429Y-55947257D01*
X106967619Y-56899638D02*
X106967619Y-54899638D01*
X106967619Y-54899638D02*
X106205714Y-54899638D01*
X106205714Y-54899638D02*
X106015238Y-54994876D01*
X106015238Y-54994876D02*
X105920000Y-55090114D01*
X105920000Y-55090114D02*
X105824762Y-55280590D01*
X105824762Y-55280590D02*
X105824762Y-55566304D01*
X105824762Y-55566304D02*
X105920000Y-55756780D01*
X105920000Y-55756780D02*
X106015238Y-55852019D01*
X106015238Y-55852019D02*
X106205714Y-55947257D01*
X106205714Y-55947257D02*
X106967619Y-55947257D01*
X104967619Y-56899638D02*
X104967619Y-54899638D01*
X103824762Y-56899638D02*
X104681905Y-55756780D01*
X103824762Y-54899638D02*
X104967619Y-56042495D01*
X102967619Y-56137733D02*
X101443810Y-56137733D01*
X99348572Y-56709161D02*
X99443810Y-56804400D01*
X99443810Y-56804400D02*
X99729524Y-56899638D01*
X99729524Y-56899638D02*
X99920000Y-56899638D01*
X99920000Y-56899638D02*
X100205715Y-56804400D01*
X100205715Y-56804400D02*
X100396191Y-56613923D01*
X100396191Y-56613923D02*
X100491429Y-56423447D01*
X100491429Y-56423447D02*
X100586667Y-56042495D01*
X100586667Y-56042495D02*
X100586667Y-55756780D01*
X100586667Y-55756780D02*
X100491429Y-55375828D01*
X100491429Y-55375828D02*
X100396191Y-55185352D01*
X100396191Y-55185352D02*
X100205715Y-54994876D01*
X100205715Y-54994876D02*
X99920000Y-54899638D01*
X99920000Y-54899638D02*
X99729524Y-54899638D01*
X99729524Y-54899638D02*
X99443810Y-54994876D01*
X99443810Y-54994876D02*
X99348572Y-55090114D01*
X98586667Y-56328209D02*
X97634286Y-56328209D01*
X98777143Y-56899638D02*
X98110477Y-54899638D01*
X98110477Y-54899638D02*
X97443810Y-56899638D01*
X95634286Y-56899638D02*
X96300953Y-55947257D01*
X96777143Y-56899638D02*
X96777143Y-54899638D01*
X96777143Y-54899638D02*
X96015238Y-54899638D01*
X96015238Y-54899638D02*
X95824762Y-54994876D01*
X95824762Y-54994876D02*
X95729524Y-55090114D01*
X95729524Y-55090114D02*
X95634286Y-55280590D01*
X95634286Y-55280590D02*
X95634286Y-55566304D01*
X95634286Y-55566304D02*
X95729524Y-55756780D01*
X95729524Y-55756780D02*
X95824762Y-55852019D01*
X95824762Y-55852019D02*
X96015238Y-55947257D01*
X96015238Y-55947257D02*
X96777143Y-55947257D01*
X95062857Y-54899638D02*
X93920000Y-54899638D01*
X94491429Y-56899638D02*
X94491429Y-54899638D01*
X91919999Y-55566304D02*
X91443809Y-56899638D01*
X91443809Y-56899638D02*
X90967618Y-55566304D01*
X89348570Y-55566304D02*
X89348570Y-56899638D01*
X89824761Y-54804400D02*
X90300951Y-56232971D01*
X90300951Y-56232971D02*
X89062856Y-56232971D01*
X88300951Y-56709161D02*
X88205713Y-56804400D01*
X88205713Y-56804400D02*
X88300951Y-56899638D01*
X88300951Y-56899638D02*
X88396189Y-56804400D01*
X88396189Y-56804400D02*
X88300951Y-56709161D01*
X88300951Y-56709161D02*
X88300951Y-56899638D01*
X86967618Y-54899638D02*
X86777141Y-54899638D01*
X86777141Y-54899638D02*
X86586665Y-54994876D01*
X86586665Y-54994876D02*
X86491427Y-55090114D01*
X86491427Y-55090114D02*
X86396189Y-55280590D01*
X86396189Y-55280590D02*
X86300951Y-55661542D01*
X86300951Y-55661542D02*
X86300951Y-56137733D01*
X86300951Y-56137733D02*
X86396189Y-56518685D01*
X86396189Y-56518685D02*
X86491427Y-56709161D01*
X86491427Y-56709161D02*
X86586665Y-56804400D01*
X86586665Y-56804400D02*
X86777141Y-56899638D01*
X86777141Y-56899638D02*
X86967618Y-56899638D01*
X86967618Y-56899638D02*
X87158094Y-56804400D01*
X87158094Y-56804400D02*
X87253332Y-56709161D01*
X87253332Y-56709161D02*
X87348570Y-56518685D01*
X87348570Y-56518685D02*
X87443808Y-56137733D01*
X87443808Y-56137733D02*
X87443808Y-55661542D01*
X87443808Y-55661542D02*
X87348570Y-55280590D01*
X87348570Y-55280590D02*
X87253332Y-55090114D01*
X87253332Y-55090114D02*
X87158094Y-54994876D01*
X87158094Y-54994876D02*
X86967618Y-54899638D01*
X113062857Y-60119638D02*
X113062857Y-58119638D01*
X112205714Y-60119638D02*
X112205714Y-59072019D01*
X112205714Y-59072019D02*
X112300952Y-58881542D01*
X112300952Y-58881542D02*
X112491428Y-58786304D01*
X112491428Y-58786304D02*
X112777143Y-58786304D01*
X112777143Y-58786304D02*
X112967619Y-58881542D01*
X112967619Y-58881542D02*
X113062857Y-58976780D01*
X111539047Y-58786304D02*
X110777143Y-58786304D01*
X111253333Y-58119638D02*
X111253333Y-59833923D01*
X111253333Y-59833923D02*
X111158095Y-60024400D01*
X111158095Y-60024400D02*
X110967619Y-60119638D01*
X110967619Y-60119638D02*
X110777143Y-60119638D01*
X110396190Y-58786304D02*
X109634286Y-58786304D01*
X110110476Y-58119638D02*
X110110476Y-59833923D01*
X110110476Y-59833923D02*
X110015238Y-60024400D01*
X110015238Y-60024400D02*
X109824762Y-60119638D01*
X109824762Y-60119638D02*
X109634286Y-60119638D01*
X108967619Y-58786304D02*
X108967619Y-60786304D01*
X108967619Y-58881542D02*
X108777143Y-58786304D01*
X108777143Y-58786304D02*
X108396190Y-58786304D01*
X108396190Y-58786304D02*
X108205714Y-58881542D01*
X108205714Y-58881542D02*
X108110476Y-58976780D01*
X108110476Y-58976780D02*
X108015238Y-59167257D01*
X108015238Y-59167257D02*
X108015238Y-59738685D01*
X108015238Y-59738685D02*
X108110476Y-59929161D01*
X108110476Y-59929161D02*
X108205714Y-60024400D01*
X108205714Y-60024400D02*
X108396190Y-60119638D01*
X108396190Y-60119638D02*
X108777143Y-60119638D01*
X108777143Y-60119638D02*
X108967619Y-60024400D01*
X107253333Y-60024400D02*
X107062857Y-60119638D01*
X107062857Y-60119638D02*
X106681905Y-60119638D01*
X106681905Y-60119638D02*
X106491428Y-60024400D01*
X106491428Y-60024400D02*
X106396190Y-59833923D01*
X106396190Y-59833923D02*
X106396190Y-59738685D01*
X106396190Y-59738685D02*
X106491428Y-59548209D01*
X106491428Y-59548209D02*
X106681905Y-59452971D01*
X106681905Y-59452971D02*
X106967619Y-59452971D01*
X106967619Y-59452971D02*
X107158095Y-59357733D01*
X107158095Y-59357733D02*
X107253333Y-59167257D01*
X107253333Y-59167257D02*
X107253333Y-59072019D01*
X107253333Y-59072019D02*
X107158095Y-58881542D01*
X107158095Y-58881542D02*
X106967619Y-58786304D01*
X106967619Y-58786304D02*
X106681905Y-58786304D01*
X106681905Y-58786304D02*
X106491428Y-58881542D01*
X105539047Y-59929161D02*
X105443809Y-60024400D01*
X105443809Y-60024400D02*
X105539047Y-60119638D01*
X105539047Y-60119638D02*
X105634285Y-60024400D01*
X105634285Y-60024400D02*
X105539047Y-59929161D01*
X105539047Y-59929161D02*
X105539047Y-60119638D01*
X105539047Y-58881542D02*
X105443809Y-58976780D01*
X105443809Y-58976780D02*
X105539047Y-59072019D01*
X105539047Y-59072019D02*
X105634285Y-58976780D01*
X105634285Y-58976780D02*
X105539047Y-58881542D01*
X105539047Y-58881542D02*
X105539047Y-59072019D01*
X103158095Y-58024400D02*
X104872380Y-60595828D01*
X101062857Y-58024400D02*
X102777142Y-60595828D01*
X99539047Y-58786304D02*
X99539047Y-60405352D01*
X99539047Y-60405352D02*
X99634285Y-60595828D01*
X99634285Y-60595828D02*
X99729523Y-60691066D01*
X99729523Y-60691066D02*
X99920000Y-60786304D01*
X99920000Y-60786304D02*
X100205714Y-60786304D01*
X100205714Y-60786304D02*
X100396190Y-60691066D01*
X99539047Y-60024400D02*
X99729523Y-60119638D01*
X99729523Y-60119638D02*
X100110476Y-60119638D01*
X100110476Y-60119638D02*
X100300952Y-60024400D01*
X100300952Y-60024400D02*
X100396190Y-59929161D01*
X100396190Y-59929161D02*
X100491428Y-59738685D01*
X100491428Y-59738685D02*
X100491428Y-59167257D01*
X100491428Y-59167257D02*
X100396190Y-58976780D01*
X100396190Y-58976780D02*
X100300952Y-58881542D01*
X100300952Y-58881542D02*
X100110476Y-58786304D01*
X100110476Y-58786304D02*
X99729523Y-58786304D01*
X99729523Y-58786304D02*
X99539047Y-58881542D01*
X97824761Y-60024400D02*
X98015237Y-60119638D01*
X98015237Y-60119638D02*
X98396190Y-60119638D01*
X98396190Y-60119638D02*
X98586666Y-60024400D01*
X98586666Y-60024400D02*
X98681904Y-59833923D01*
X98681904Y-59833923D02*
X98681904Y-59072019D01*
X98681904Y-59072019D02*
X98586666Y-58881542D01*
X98586666Y-58881542D02*
X98396190Y-58786304D01*
X98396190Y-58786304D02*
X98015237Y-58786304D01*
X98015237Y-58786304D02*
X97824761Y-58881542D01*
X97824761Y-58881542D02*
X97729523Y-59072019D01*
X97729523Y-59072019D02*
X97729523Y-59262495D01*
X97729523Y-59262495D02*
X98681904Y-59452971D01*
X96872380Y-60119638D02*
X96872380Y-58119638D01*
X96681904Y-59357733D02*
X96110475Y-60119638D01*
X96110475Y-58786304D02*
X96872380Y-59548209D01*
X95253332Y-60119638D02*
X95253332Y-58119638D01*
X95062856Y-59357733D02*
X94491427Y-60119638D01*
X94491427Y-58786304D02*
X95253332Y-59548209D01*
X93634284Y-60119638D02*
X93634284Y-58786304D01*
X93634284Y-58119638D02*
X93729522Y-58214876D01*
X93729522Y-58214876D02*
X93634284Y-58310114D01*
X93634284Y-58310114D02*
X93539046Y-58214876D01*
X93539046Y-58214876D02*
X93634284Y-58119638D01*
X93634284Y-58119638D02*
X93634284Y-58310114D01*
X92396189Y-60119638D02*
X92586665Y-60024400D01*
X92586665Y-60024400D02*
X92681903Y-59929161D01*
X92681903Y-59929161D02*
X92777141Y-59738685D01*
X92777141Y-59738685D02*
X92777141Y-59167257D01*
X92777141Y-59167257D02*
X92681903Y-58976780D01*
X92681903Y-58976780D02*
X92586665Y-58881542D01*
X92586665Y-58881542D02*
X92396189Y-58786304D01*
X92396189Y-58786304D02*
X92110474Y-58786304D01*
X92110474Y-58786304D02*
X91919998Y-58881542D01*
X91919998Y-58881542D02*
X91824760Y-58976780D01*
X91824760Y-58976780D02*
X91729522Y-59167257D01*
X91729522Y-59167257D02*
X91729522Y-59738685D01*
X91729522Y-59738685D02*
X91824760Y-59929161D01*
X91824760Y-59929161D02*
X91919998Y-60024400D01*
X91919998Y-60024400D02*
X92110474Y-60119638D01*
X92110474Y-60119638D02*
X92396189Y-60119638D01*
X90872379Y-59929161D02*
X90777141Y-60024400D01*
X90777141Y-60024400D02*
X90872379Y-60119638D01*
X90872379Y-60119638D02*
X90967617Y-60024400D01*
X90967617Y-60024400D02*
X90872379Y-59929161D01*
X90872379Y-59929161D02*
X90872379Y-60119638D01*
X90205712Y-58786304D02*
X89443808Y-58786304D01*
X89919998Y-60119638D02*
X89919998Y-58405352D01*
X89919998Y-58405352D02*
X89824760Y-58214876D01*
X89824760Y-58214876D02*
X89634284Y-58119638D01*
X89634284Y-58119638D02*
X89443808Y-58119638D01*
X88777141Y-60119638D02*
X88777141Y-58786304D01*
X88777141Y-58119638D02*
X88872379Y-58214876D01*
X88872379Y-58214876D02*
X88777141Y-58310114D01*
X88777141Y-58310114D02*
X88681903Y-58214876D01*
X88681903Y-58214876D02*
X88777141Y-58119638D01*
X88777141Y-58119638D02*
X88777141Y-58310114D01*
D11*
X113266666Y-28262295D02*
X113266666Y-28833723D01*
X113266666Y-28833723D02*
X113304761Y-28948009D01*
X113304761Y-28948009D02*
X113380952Y-29024200D01*
X113380952Y-29024200D02*
X113495237Y-29062295D01*
X113495237Y-29062295D02*
X113571428Y-29062295D01*
X112923809Y-28338485D02*
X112885713Y-28300390D01*
X112885713Y-28300390D02*
X112809523Y-28262295D01*
X112809523Y-28262295D02*
X112619047Y-28262295D01*
X112619047Y-28262295D02*
X112542856Y-28300390D01*
X112542856Y-28300390D02*
X112504761Y-28338485D01*
X112504761Y-28338485D02*
X112466666Y-28414676D01*
X112466666Y-28414676D02*
X112466666Y-28490866D01*
X112466666Y-28490866D02*
X112504761Y-28605152D01*
X112504761Y-28605152D02*
X112961904Y-29062295D01*
X112961904Y-29062295D02*
X112466666Y-29062295D01*
X96794285Y-38086104D02*
X96832381Y-38124200D01*
X96832381Y-38124200D02*
X96946666Y-38162295D01*
X96946666Y-38162295D02*
X97022857Y-38162295D01*
X97022857Y-38162295D02*
X97137143Y-38124200D01*
X97137143Y-38124200D02*
X97213333Y-38048009D01*
X97213333Y-38048009D02*
X97251428Y-37971819D01*
X97251428Y-37971819D02*
X97289524Y-37819438D01*
X97289524Y-37819438D02*
X97289524Y-37705152D01*
X97289524Y-37705152D02*
X97251428Y-37552771D01*
X97251428Y-37552771D02*
X97213333Y-37476580D01*
X97213333Y-37476580D02*
X97137143Y-37400390D01*
X97137143Y-37400390D02*
X97022857Y-37362295D01*
X97022857Y-37362295D02*
X96946666Y-37362295D01*
X96946666Y-37362295D02*
X96832381Y-37400390D01*
X96832381Y-37400390D02*
X96794285Y-37438485D01*
X96032381Y-38162295D02*
X96489524Y-38162295D01*
X96260952Y-38162295D02*
X96260952Y-37362295D01*
X96260952Y-37362295D02*
X96337143Y-37476580D01*
X96337143Y-37476580D02*
X96413333Y-37552771D01*
X96413333Y-37552771D02*
X96489524Y-37590866D01*
X95308571Y-37362295D02*
X95689523Y-37362295D01*
X95689523Y-37362295D02*
X95727619Y-37743247D01*
X95727619Y-37743247D02*
X95689523Y-37705152D01*
X95689523Y-37705152D02*
X95613333Y-37667057D01*
X95613333Y-37667057D02*
X95422857Y-37667057D01*
X95422857Y-37667057D02*
X95346666Y-37705152D01*
X95346666Y-37705152D02*
X95308571Y-37743247D01*
X95308571Y-37743247D02*
X95270476Y-37819438D01*
X95270476Y-37819438D02*
X95270476Y-38009914D01*
X95270476Y-38009914D02*
X95308571Y-38086104D01*
X95308571Y-38086104D02*
X95346666Y-38124200D01*
X95346666Y-38124200D02*
X95422857Y-38162295D01*
X95422857Y-38162295D02*
X95613333Y-38162295D01*
X95613333Y-38162295D02*
X95689523Y-38124200D01*
X95689523Y-38124200D02*
X95727619Y-38086104D01*
X96914285Y-44186104D02*
X96952381Y-44224200D01*
X96952381Y-44224200D02*
X97066666Y-44262295D01*
X97066666Y-44262295D02*
X97142857Y-44262295D01*
X97142857Y-44262295D02*
X97257143Y-44224200D01*
X97257143Y-44224200D02*
X97333333Y-44148009D01*
X97333333Y-44148009D02*
X97371428Y-44071819D01*
X97371428Y-44071819D02*
X97409524Y-43919438D01*
X97409524Y-43919438D02*
X97409524Y-43805152D01*
X97409524Y-43805152D02*
X97371428Y-43652771D01*
X97371428Y-43652771D02*
X97333333Y-43576580D01*
X97333333Y-43576580D02*
X97257143Y-43500390D01*
X97257143Y-43500390D02*
X97142857Y-43462295D01*
X97142857Y-43462295D02*
X97066666Y-43462295D01*
X97066666Y-43462295D02*
X96952381Y-43500390D01*
X96952381Y-43500390D02*
X96914285Y-43538485D01*
X96152381Y-44262295D02*
X96609524Y-44262295D01*
X96380952Y-44262295D02*
X96380952Y-43462295D01*
X96380952Y-43462295D02*
X96457143Y-43576580D01*
X96457143Y-43576580D02*
X96533333Y-43652771D01*
X96533333Y-43652771D02*
X96609524Y-43690866D01*
X95466666Y-43728961D02*
X95466666Y-44262295D01*
X95657142Y-43424200D02*
X95847619Y-43995628D01*
X95847619Y-43995628D02*
X95352380Y-43995628D01*
X100876190Y-33438485D02*
X100952380Y-33400390D01*
X100952380Y-33400390D02*
X101028571Y-33324200D01*
X101028571Y-33324200D02*
X101142857Y-33209914D01*
X101142857Y-33209914D02*
X101219047Y-33171819D01*
X101219047Y-33171819D02*
X101295238Y-33171819D01*
X101257142Y-33362295D02*
X101333333Y-33324200D01*
X101333333Y-33324200D02*
X101409523Y-33248009D01*
X101409523Y-33248009D02*
X101447619Y-33095628D01*
X101447619Y-33095628D02*
X101447619Y-32828961D01*
X101447619Y-32828961D02*
X101409523Y-32676580D01*
X101409523Y-32676580D02*
X101333333Y-32600390D01*
X101333333Y-32600390D02*
X101257142Y-32562295D01*
X101257142Y-32562295D02*
X101104761Y-32562295D01*
X101104761Y-32562295D02*
X101028571Y-32600390D01*
X101028571Y-32600390D02*
X100952380Y-32676580D01*
X100952380Y-32676580D02*
X100914285Y-32828961D01*
X100914285Y-32828961D02*
X100914285Y-33095628D01*
X100914285Y-33095628D02*
X100952380Y-33248009D01*
X100952380Y-33248009D02*
X101028571Y-33324200D01*
X101028571Y-33324200D02*
X101104761Y-33362295D01*
X101104761Y-33362295D02*
X101257142Y-33362295D01*
X100647619Y-32562295D02*
X100152381Y-32562295D01*
X100152381Y-32562295D02*
X100419047Y-32867057D01*
X100419047Y-32867057D02*
X100304762Y-32867057D01*
X100304762Y-32867057D02*
X100228571Y-32905152D01*
X100228571Y-32905152D02*
X100190476Y-32943247D01*
X100190476Y-32943247D02*
X100152381Y-33019438D01*
X100152381Y-33019438D02*
X100152381Y-33209914D01*
X100152381Y-33209914D02*
X100190476Y-33286104D01*
X100190476Y-33286104D02*
X100228571Y-33324200D01*
X100228571Y-33324200D02*
X100304762Y-33362295D01*
X100304762Y-33362295D02*
X100533333Y-33362295D01*
X100533333Y-33362295D02*
X100609524Y-33324200D01*
X100609524Y-33324200D02*
X100647619Y-33286104D01*
X96964285Y-29512295D02*
X97230952Y-29131342D01*
X97421428Y-29512295D02*
X97421428Y-28712295D01*
X97421428Y-28712295D02*
X97116666Y-28712295D01*
X97116666Y-28712295D02*
X97040476Y-28750390D01*
X97040476Y-28750390D02*
X97002381Y-28788485D01*
X97002381Y-28788485D02*
X96964285Y-28864676D01*
X96964285Y-28864676D02*
X96964285Y-28978961D01*
X96964285Y-28978961D02*
X97002381Y-29055152D01*
X97002381Y-29055152D02*
X97040476Y-29093247D01*
X97040476Y-29093247D02*
X97116666Y-29131342D01*
X97116666Y-29131342D02*
X97421428Y-29131342D01*
X96202381Y-29512295D02*
X96659524Y-29512295D01*
X96430952Y-29512295D02*
X96430952Y-28712295D01*
X96430952Y-28712295D02*
X96507143Y-28826580D01*
X96507143Y-28826580D02*
X96583333Y-28902771D01*
X96583333Y-28902771D02*
X96659524Y-28940866D01*
X95935714Y-28712295D02*
X95402380Y-28712295D01*
X95402380Y-28712295D02*
X95745238Y-29512295D01*
X121562295Y-40666667D02*
X121181342Y-40400000D01*
X121562295Y-40209524D02*
X120762295Y-40209524D01*
X120762295Y-40209524D02*
X120762295Y-40514286D01*
X120762295Y-40514286D02*
X120800390Y-40590476D01*
X120800390Y-40590476D02*
X120838485Y-40628571D01*
X120838485Y-40628571D02*
X120914676Y-40666667D01*
X120914676Y-40666667D02*
X121028961Y-40666667D01*
X121028961Y-40666667D02*
X121105152Y-40628571D01*
X121105152Y-40628571D02*
X121143247Y-40590476D01*
X121143247Y-40590476D02*
X121181342Y-40514286D01*
X121181342Y-40514286D02*
X121181342Y-40209524D01*
X120762295Y-40933333D02*
X120762295Y-41428571D01*
X120762295Y-41428571D02*
X121067057Y-41161905D01*
X121067057Y-41161905D02*
X121067057Y-41276190D01*
X121067057Y-41276190D02*
X121105152Y-41352381D01*
X121105152Y-41352381D02*
X121143247Y-41390476D01*
X121143247Y-41390476D02*
X121219438Y-41428571D01*
X121219438Y-41428571D02*
X121409914Y-41428571D01*
X121409914Y-41428571D02*
X121486104Y-41390476D01*
X121486104Y-41390476D02*
X121524200Y-41352381D01*
X121524200Y-41352381D02*
X121562295Y-41276190D01*
X121562295Y-41276190D02*
X121562295Y-41047619D01*
X121562295Y-41047619D02*
X121524200Y-40971428D01*
X121524200Y-40971428D02*
X121486104Y-40933333D01*
X96813332Y-41086104D02*
X96851428Y-41124200D01*
X96851428Y-41124200D02*
X96965713Y-41162295D01*
X96965713Y-41162295D02*
X97041904Y-41162295D01*
X97041904Y-41162295D02*
X97156190Y-41124200D01*
X97156190Y-41124200D02*
X97232380Y-41048009D01*
X97232380Y-41048009D02*
X97270475Y-40971819D01*
X97270475Y-40971819D02*
X97308571Y-40819438D01*
X97308571Y-40819438D02*
X97308571Y-40705152D01*
X97308571Y-40705152D02*
X97270475Y-40552771D01*
X97270475Y-40552771D02*
X97232380Y-40476580D01*
X97232380Y-40476580D02*
X97156190Y-40400390D01*
X97156190Y-40400390D02*
X97041904Y-40362295D01*
X97041904Y-40362295D02*
X96965713Y-40362295D01*
X96965713Y-40362295D02*
X96851428Y-40400390D01*
X96851428Y-40400390D02*
X96813332Y-40438485D01*
X96546666Y-40362295D02*
X96013332Y-40362295D01*
X96013332Y-40362295D02*
X96356190Y-41162295D01*
X96914285Y-34886104D02*
X96952381Y-34924200D01*
X96952381Y-34924200D02*
X97066666Y-34962295D01*
X97066666Y-34962295D02*
X97142857Y-34962295D01*
X97142857Y-34962295D02*
X97257143Y-34924200D01*
X97257143Y-34924200D02*
X97333333Y-34848009D01*
X97333333Y-34848009D02*
X97371428Y-34771819D01*
X97371428Y-34771819D02*
X97409524Y-34619438D01*
X97409524Y-34619438D02*
X97409524Y-34505152D01*
X97409524Y-34505152D02*
X97371428Y-34352771D01*
X97371428Y-34352771D02*
X97333333Y-34276580D01*
X97333333Y-34276580D02*
X97257143Y-34200390D01*
X97257143Y-34200390D02*
X97142857Y-34162295D01*
X97142857Y-34162295D02*
X97066666Y-34162295D01*
X97066666Y-34162295D02*
X96952381Y-34200390D01*
X96952381Y-34200390D02*
X96914285Y-34238485D01*
X96152381Y-34962295D02*
X96609524Y-34962295D01*
X96380952Y-34962295D02*
X96380952Y-34162295D01*
X96380952Y-34162295D02*
X96457143Y-34276580D01*
X96457143Y-34276580D02*
X96533333Y-34352771D01*
X96533333Y-34352771D02*
X96609524Y-34390866D01*
X95885714Y-34162295D02*
X95352380Y-34162295D01*
X95352380Y-34162295D02*
X95695238Y-34962295D01*
X96813332Y-39086104D02*
X96851428Y-39124200D01*
X96851428Y-39124200D02*
X96965713Y-39162295D01*
X96965713Y-39162295D02*
X97041904Y-39162295D01*
X97041904Y-39162295D02*
X97156190Y-39124200D01*
X97156190Y-39124200D02*
X97232380Y-39048009D01*
X97232380Y-39048009D02*
X97270475Y-38971819D01*
X97270475Y-38971819D02*
X97308571Y-38819438D01*
X97308571Y-38819438D02*
X97308571Y-38705152D01*
X97308571Y-38705152D02*
X97270475Y-38552771D01*
X97270475Y-38552771D02*
X97232380Y-38476580D01*
X97232380Y-38476580D02*
X97156190Y-38400390D01*
X97156190Y-38400390D02*
X97041904Y-38362295D01*
X97041904Y-38362295D02*
X96965713Y-38362295D01*
X96965713Y-38362295D02*
X96851428Y-38400390D01*
X96851428Y-38400390D02*
X96813332Y-38438485D01*
X96127618Y-38362295D02*
X96279999Y-38362295D01*
X96279999Y-38362295D02*
X96356190Y-38400390D01*
X96356190Y-38400390D02*
X96394285Y-38438485D01*
X96394285Y-38438485D02*
X96470475Y-38552771D01*
X96470475Y-38552771D02*
X96508571Y-38705152D01*
X96508571Y-38705152D02*
X96508571Y-39009914D01*
X96508571Y-39009914D02*
X96470475Y-39086104D01*
X96470475Y-39086104D02*
X96432380Y-39124200D01*
X96432380Y-39124200D02*
X96356190Y-39162295D01*
X96356190Y-39162295D02*
X96203809Y-39162295D01*
X96203809Y-39162295D02*
X96127618Y-39124200D01*
X96127618Y-39124200D02*
X96089523Y-39086104D01*
X96089523Y-39086104D02*
X96051428Y-39009914D01*
X96051428Y-39009914D02*
X96051428Y-38819438D01*
X96051428Y-38819438D02*
X96089523Y-38743247D01*
X96089523Y-38743247D02*
X96127618Y-38705152D01*
X96127618Y-38705152D02*
X96203809Y-38667057D01*
X96203809Y-38667057D02*
X96356190Y-38667057D01*
X96356190Y-38667057D02*
X96432380Y-38705152D01*
X96432380Y-38705152D02*
X96470475Y-38743247D01*
X96470475Y-38743247D02*
X96508571Y-38819438D01*
X100362295Y-34485714D02*
X99981342Y-34219047D01*
X100362295Y-34028571D02*
X99562295Y-34028571D01*
X99562295Y-34028571D02*
X99562295Y-34333333D01*
X99562295Y-34333333D02*
X99600390Y-34409523D01*
X99600390Y-34409523D02*
X99638485Y-34447618D01*
X99638485Y-34447618D02*
X99714676Y-34485714D01*
X99714676Y-34485714D02*
X99828961Y-34485714D01*
X99828961Y-34485714D02*
X99905152Y-34447618D01*
X99905152Y-34447618D02*
X99943247Y-34409523D01*
X99943247Y-34409523D02*
X99981342Y-34333333D01*
X99981342Y-34333333D02*
X99981342Y-34028571D01*
X100362295Y-35247618D02*
X100362295Y-34790475D01*
X100362295Y-35019047D02*
X99562295Y-35019047D01*
X99562295Y-35019047D02*
X99676580Y-34942856D01*
X99676580Y-34942856D02*
X99752771Y-34866666D01*
X99752771Y-34866666D02*
X99790866Y-34790475D01*
X99562295Y-35933333D02*
X99562295Y-35780952D01*
X99562295Y-35780952D02*
X99600390Y-35704761D01*
X99600390Y-35704761D02*
X99638485Y-35666666D01*
X99638485Y-35666666D02*
X99752771Y-35590476D01*
X99752771Y-35590476D02*
X99905152Y-35552380D01*
X99905152Y-35552380D02*
X100209914Y-35552380D01*
X100209914Y-35552380D02*
X100286104Y-35590476D01*
X100286104Y-35590476D02*
X100324200Y-35628571D01*
X100324200Y-35628571D02*
X100362295Y-35704761D01*
X100362295Y-35704761D02*
X100362295Y-35857142D01*
X100362295Y-35857142D02*
X100324200Y-35933333D01*
X100324200Y-35933333D02*
X100286104Y-35971428D01*
X100286104Y-35971428D02*
X100209914Y-36009523D01*
X100209914Y-36009523D02*
X100019438Y-36009523D01*
X100019438Y-36009523D02*
X99943247Y-35971428D01*
X99943247Y-35971428D02*
X99905152Y-35933333D01*
X99905152Y-35933333D02*
X99867057Y-35857142D01*
X99867057Y-35857142D02*
X99867057Y-35704761D01*
X99867057Y-35704761D02*
X99905152Y-35628571D01*
X99905152Y-35628571D02*
X99943247Y-35590476D01*
X99943247Y-35590476D02*
X100019438Y-35552380D01*
X117562295Y-40666667D02*
X117181342Y-40400000D01*
X117562295Y-40209524D02*
X116762295Y-40209524D01*
X116762295Y-40209524D02*
X116762295Y-40514286D01*
X116762295Y-40514286D02*
X116800390Y-40590476D01*
X116800390Y-40590476D02*
X116838485Y-40628571D01*
X116838485Y-40628571D02*
X116914676Y-40666667D01*
X116914676Y-40666667D02*
X117028961Y-40666667D01*
X117028961Y-40666667D02*
X117105152Y-40628571D01*
X117105152Y-40628571D02*
X117143247Y-40590476D01*
X117143247Y-40590476D02*
X117181342Y-40514286D01*
X117181342Y-40514286D02*
X117181342Y-40209524D01*
X117028961Y-41352381D02*
X117562295Y-41352381D01*
X116724200Y-41161905D02*
X117295628Y-40971428D01*
X117295628Y-40971428D02*
X117295628Y-41466667D01*
X87101666Y-45627295D02*
X87101666Y-46198723D01*
X87101666Y-46198723D02*
X87139761Y-46313009D01*
X87139761Y-46313009D02*
X87215952Y-46389200D01*
X87215952Y-46389200D02*
X87330237Y-46427295D01*
X87330237Y-46427295D02*
X87406428Y-46427295D01*
X86339761Y-45627295D02*
X86720713Y-45627295D01*
X86720713Y-45627295D02*
X86758809Y-46008247D01*
X86758809Y-46008247D02*
X86720713Y-45970152D01*
X86720713Y-45970152D02*
X86644523Y-45932057D01*
X86644523Y-45932057D02*
X86454047Y-45932057D01*
X86454047Y-45932057D02*
X86377856Y-45970152D01*
X86377856Y-45970152D02*
X86339761Y-46008247D01*
X86339761Y-46008247D02*
X86301666Y-46084438D01*
X86301666Y-46084438D02*
X86301666Y-46274914D01*
X86301666Y-46274914D02*
X86339761Y-46351104D01*
X86339761Y-46351104D02*
X86377856Y-46389200D01*
X86377856Y-46389200D02*
X86454047Y-46427295D01*
X86454047Y-46427295D02*
X86644523Y-46427295D01*
X86644523Y-46427295D02*
X86720713Y-46389200D01*
X86720713Y-46389200D02*
X86758809Y-46351104D01*
X102886104Y-36485714D02*
X102924200Y-36447618D01*
X102924200Y-36447618D02*
X102962295Y-36333333D01*
X102962295Y-36333333D02*
X102962295Y-36257142D01*
X102962295Y-36257142D02*
X102924200Y-36142856D01*
X102924200Y-36142856D02*
X102848009Y-36066666D01*
X102848009Y-36066666D02*
X102771819Y-36028571D01*
X102771819Y-36028571D02*
X102619438Y-35990475D01*
X102619438Y-35990475D02*
X102505152Y-35990475D01*
X102505152Y-35990475D02*
X102352771Y-36028571D01*
X102352771Y-36028571D02*
X102276580Y-36066666D01*
X102276580Y-36066666D02*
X102200390Y-36142856D01*
X102200390Y-36142856D02*
X102162295Y-36257142D01*
X102162295Y-36257142D02*
X102162295Y-36333333D01*
X102162295Y-36333333D02*
X102200390Y-36447618D01*
X102200390Y-36447618D02*
X102238485Y-36485714D01*
X102238485Y-36790475D02*
X102200390Y-36828571D01*
X102200390Y-36828571D02*
X102162295Y-36904761D01*
X102162295Y-36904761D02*
X102162295Y-37095237D01*
X102162295Y-37095237D02*
X102200390Y-37171428D01*
X102200390Y-37171428D02*
X102238485Y-37209523D01*
X102238485Y-37209523D02*
X102314676Y-37247618D01*
X102314676Y-37247618D02*
X102390866Y-37247618D01*
X102390866Y-37247618D02*
X102505152Y-37209523D01*
X102505152Y-37209523D02*
X102962295Y-36752380D01*
X102962295Y-36752380D02*
X102962295Y-37247618D01*
X102428961Y-37933333D02*
X102962295Y-37933333D01*
X102124200Y-37742857D02*
X102695628Y-37552380D01*
X102695628Y-37552380D02*
X102695628Y-38047619D01*
X96166104Y-35685714D02*
X96204200Y-35647618D01*
X96204200Y-35647618D02*
X96242295Y-35533333D01*
X96242295Y-35533333D02*
X96242295Y-35457142D01*
X96242295Y-35457142D02*
X96204200Y-35342856D01*
X96204200Y-35342856D02*
X96128009Y-35266666D01*
X96128009Y-35266666D02*
X96051819Y-35228571D01*
X96051819Y-35228571D02*
X95899438Y-35190475D01*
X95899438Y-35190475D02*
X95785152Y-35190475D01*
X95785152Y-35190475D02*
X95632771Y-35228571D01*
X95632771Y-35228571D02*
X95556580Y-35266666D01*
X95556580Y-35266666D02*
X95480390Y-35342856D01*
X95480390Y-35342856D02*
X95442295Y-35457142D01*
X95442295Y-35457142D02*
X95442295Y-35533333D01*
X95442295Y-35533333D02*
X95480390Y-35647618D01*
X95480390Y-35647618D02*
X95518485Y-35685714D01*
X96242295Y-36447618D02*
X96242295Y-35990475D01*
X96242295Y-36219047D02*
X95442295Y-36219047D01*
X95442295Y-36219047D02*
X95556580Y-36142856D01*
X95556580Y-36142856D02*
X95632771Y-36066666D01*
X95632771Y-36066666D02*
X95670866Y-35990475D01*
X95442295Y-37133333D02*
X95442295Y-36980952D01*
X95442295Y-36980952D02*
X95480390Y-36904761D01*
X95480390Y-36904761D02*
X95518485Y-36866666D01*
X95518485Y-36866666D02*
X95632771Y-36790476D01*
X95632771Y-36790476D02*
X95785152Y-36752380D01*
X95785152Y-36752380D02*
X96089914Y-36752380D01*
X96089914Y-36752380D02*
X96166104Y-36790476D01*
X96166104Y-36790476D02*
X96204200Y-36828571D01*
X96204200Y-36828571D02*
X96242295Y-36904761D01*
X96242295Y-36904761D02*
X96242295Y-37057142D01*
X96242295Y-37057142D02*
X96204200Y-37133333D01*
X96204200Y-37133333D02*
X96166104Y-37171428D01*
X96166104Y-37171428D02*
X96089914Y-37209523D01*
X96089914Y-37209523D02*
X95899438Y-37209523D01*
X95899438Y-37209523D02*
X95823247Y-37171428D01*
X95823247Y-37171428D02*
X95785152Y-37133333D01*
X95785152Y-37133333D02*
X95747057Y-37057142D01*
X95747057Y-37057142D02*
X95747057Y-36904761D01*
X95747057Y-36904761D02*
X95785152Y-36828571D01*
X95785152Y-36828571D02*
X95823247Y-36790476D01*
X95823247Y-36790476D02*
X95899438Y-36752380D01*
X96794285Y-40086104D02*
X96832381Y-40124200D01*
X96832381Y-40124200D02*
X96946666Y-40162295D01*
X96946666Y-40162295D02*
X97022857Y-40162295D01*
X97022857Y-40162295D02*
X97137143Y-40124200D01*
X97137143Y-40124200D02*
X97213333Y-40048009D01*
X97213333Y-40048009D02*
X97251428Y-39971819D01*
X97251428Y-39971819D02*
X97289524Y-39819438D01*
X97289524Y-39819438D02*
X97289524Y-39705152D01*
X97289524Y-39705152D02*
X97251428Y-39552771D01*
X97251428Y-39552771D02*
X97213333Y-39476580D01*
X97213333Y-39476580D02*
X97137143Y-39400390D01*
X97137143Y-39400390D02*
X97022857Y-39362295D01*
X97022857Y-39362295D02*
X96946666Y-39362295D01*
X96946666Y-39362295D02*
X96832381Y-39400390D01*
X96832381Y-39400390D02*
X96794285Y-39438485D01*
X96032381Y-40162295D02*
X96489524Y-40162295D01*
X96260952Y-40162295D02*
X96260952Y-39362295D01*
X96260952Y-39362295D02*
X96337143Y-39476580D01*
X96337143Y-39476580D02*
X96413333Y-39552771D01*
X96413333Y-39552771D02*
X96489524Y-39590866D01*
X95765714Y-39362295D02*
X95270476Y-39362295D01*
X95270476Y-39362295D02*
X95537142Y-39667057D01*
X95537142Y-39667057D02*
X95422857Y-39667057D01*
X95422857Y-39667057D02*
X95346666Y-39705152D01*
X95346666Y-39705152D02*
X95308571Y-39743247D01*
X95308571Y-39743247D02*
X95270476Y-39819438D01*
X95270476Y-39819438D02*
X95270476Y-40009914D01*
X95270476Y-40009914D02*
X95308571Y-40086104D01*
X95308571Y-40086104D02*
X95346666Y-40124200D01*
X95346666Y-40124200D02*
X95422857Y-40162295D01*
X95422857Y-40162295D02*
X95651428Y-40162295D01*
X95651428Y-40162295D02*
X95727619Y-40124200D01*
X95727619Y-40124200D02*
X95765714Y-40086104D01*
X102962295Y-34085714D02*
X102581342Y-33819047D01*
X102962295Y-33628571D02*
X102162295Y-33628571D01*
X102162295Y-33628571D02*
X102162295Y-33933333D01*
X102162295Y-33933333D02*
X102200390Y-34009523D01*
X102200390Y-34009523D02*
X102238485Y-34047618D01*
X102238485Y-34047618D02*
X102314676Y-34085714D01*
X102314676Y-34085714D02*
X102428961Y-34085714D01*
X102428961Y-34085714D02*
X102505152Y-34047618D01*
X102505152Y-34047618D02*
X102543247Y-34009523D01*
X102543247Y-34009523D02*
X102581342Y-33933333D01*
X102581342Y-33933333D02*
X102581342Y-33628571D01*
X102238485Y-34390475D02*
X102200390Y-34428571D01*
X102200390Y-34428571D02*
X102162295Y-34504761D01*
X102162295Y-34504761D02*
X102162295Y-34695237D01*
X102162295Y-34695237D02*
X102200390Y-34771428D01*
X102200390Y-34771428D02*
X102238485Y-34809523D01*
X102238485Y-34809523D02*
X102314676Y-34847618D01*
X102314676Y-34847618D02*
X102390866Y-34847618D01*
X102390866Y-34847618D02*
X102505152Y-34809523D01*
X102505152Y-34809523D02*
X102962295Y-34352380D01*
X102962295Y-34352380D02*
X102962295Y-34847618D01*
X102962295Y-35609523D02*
X102962295Y-35152380D01*
X102962295Y-35380952D02*
X102162295Y-35380952D01*
X102162295Y-35380952D02*
X102276580Y-35304761D01*
X102276580Y-35304761D02*
X102352771Y-35228571D01*
X102352771Y-35228571D02*
X102390866Y-35152380D01*
X104466666Y-28462295D02*
X104466666Y-29033723D01*
X104466666Y-29033723D02*
X104504761Y-29148009D01*
X104504761Y-29148009D02*
X104580952Y-29224200D01*
X104580952Y-29224200D02*
X104695237Y-29262295D01*
X104695237Y-29262295D02*
X104771428Y-29262295D01*
X103971428Y-28805152D02*
X104047618Y-28767057D01*
X104047618Y-28767057D02*
X104085713Y-28728961D01*
X104085713Y-28728961D02*
X104123809Y-28652771D01*
X104123809Y-28652771D02*
X104123809Y-28614676D01*
X104123809Y-28614676D02*
X104085713Y-28538485D01*
X104085713Y-28538485D02*
X104047618Y-28500390D01*
X104047618Y-28500390D02*
X103971428Y-28462295D01*
X103971428Y-28462295D02*
X103819047Y-28462295D01*
X103819047Y-28462295D02*
X103742856Y-28500390D01*
X103742856Y-28500390D02*
X103704761Y-28538485D01*
X103704761Y-28538485D02*
X103666666Y-28614676D01*
X103666666Y-28614676D02*
X103666666Y-28652771D01*
X103666666Y-28652771D02*
X103704761Y-28728961D01*
X103704761Y-28728961D02*
X103742856Y-28767057D01*
X103742856Y-28767057D02*
X103819047Y-28805152D01*
X103819047Y-28805152D02*
X103971428Y-28805152D01*
X103971428Y-28805152D02*
X104047618Y-28843247D01*
X104047618Y-28843247D02*
X104085713Y-28881342D01*
X104085713Y-28881342D02*
X104123809Y-28957533D01*
X104123809Y-28957533D02*
X104123809Y-29109914D01*
X104123809Y-29109914D02*
X104085713Y-29186104D01*
X104085713Y-29186104D02*
X104047618Y-29224200D01*
X104047618Y-29224200D02*
X103971428Y-29262295D01*
X103971428Y-29262295D02*
X103819047Y-29262295D01*
X103819047Y-29262295D02*
X103742856Y-29224200D01*
X103742856Y-29224200D02*
X103704761Y-29186104D01*
X103704761Y-29186104D02*
X103666666Y-29109914D01*
X103666666Y-29109914D02*
X103666666Y-28957533D01*
X103666666Y-28957533D02*
X103704761Y-28881342D01*
X103704761Y-28881342D02*
X103742856Y-28843247D01*
X103742856Y-28843247D02*
X103819047Y-28805152D01*
X95412295Y-31359524D02*
X94612295Y-31359524D01*
X94612295Y-31359524D02*
X94612295Y-31550000D01*
X94612295Y-31550000D02*
X94650390Y-31664286D01*
X94650390Y-31664286D02*
X94726580Y-31740476D01*
X94726580Y-31740476D02*
X94802771Y-31778571D01*
X94802771Y-31778571D02*
X94955152Y-31816667D01*
X94955152Y-31816667D02*
X95069438Y-31816667D01*
X95069438Y-31816667D02*
X95221819Y-31778571D01*
X95221819Y-31778571D02*
X95298009Y-31740476D01*
X95298009Y-31740476D02*
X95374200Y-31664286D01*
X95374200Y-31664286D02*
X95412295Y-31550000D01*
X95412295Y-31550000D02*
X95412295Y-31359524D01*
X94688485Y-32121428D02*
X94650390Y-32159524D01*
X94650390Y-32159524D02*
X94612295Y-32235714D01*
X94612295Y-32235714D02*
X94612295Y-32426190D01*
X94612295Y-32426190D02*
X94650390Y-32502381D01*
X94650390Y-32502381D02*
X94688485Y-32540476D01*
X94688485Y-32540476D02*
X94764676Y-32578571D01*
X94764676Y-32578571D02*
X94840866Y-32578571D01*
X94840866Y-32578571D02*
X94955152Y-32540476D01*
X94955152Y-32540476D02*
X95412295Y-32083333D01*
X95412295Y-32083333D02*
X95412295Y-32578571D01*
X100762295Y-38885714D02*
X100381342Y-38619047D01*
X100762295Y-38428571D02*
X99962295Y-38428571D01*
X99962295Y-38428571D02*
X99962295Y-38733333D01*
X99962295Y-38733333D02*
X100000390Y-38809523D01*
X100000390Y-38809523D02*
X100038485Y-38847618D01*
X100038485Y-38847618D02*
X100114676Y-38885714D01*
X100114676Y-38885714D02*
X100228961Y-38885714D01*
X100228961Y-38885714D02*
X100305152Y-38847618D01*
X100305152Y-38847618D02*
X100343247Y-38809523D01*
X100343247Y-38809523D02*
X100381342Y-38733333D01*
X100381342Y-38733333D02*
X100381342Y-38428571D01*
X100038485Y-39190475D02*
X100000390Y-39228571D01*
X100000390Y-39228571D02*
X99962295Y-39304761D01*
X99962295Y-39304761D02*
X99962295Y-39495237D01*
X99962295Y-39495237D02*
X100000390Y-39571428D01*
X100000390Y-39571428D02*
X100038485Y-39609523D01*
X100038485Y-39609523D02*
X100114676Y-39647618D01*
X100114676Y-39647618D02*
X100190866Y-39647618D01*
X100190866Y-39647618D02*
X100305152Y-39609523D01*
X100305152Y-39609523D02*
X100762295Y-39152380D01*
X100762295Y-39152380D02*
X100762295Y-39647618D01*
X100228961Y-40333333D02*
X100762295Y-40333333D01*
X99924200Y-40142857D02*
X100495628Y-39952380D01*
X100495628Y-39952380D02*
X100495628Y-40447619D01*
X100333332Y-37086104D02*
X100371428Y-37124200D01*
X100371428Y-37124200D02*
X100485713Y-37162295D01*
X100485713Y-37162295D02*
X100561904Y-37162295D01*
X100561904Y-37162295D02*
X100676190Y-37124200D01*
X100676190Y-37124200D02*
X100752380Y-37048009D01*
X100752380Y-37048009D02*
X100790475Y-36971819D01*
X100790475Y-36971819D02*
X100828571Y-36819438D01*
X100828571Y-36819438D02*
X100828571Y-36705152D01*
X100828571Y-36705152D02*
X100790475Y-36552771D01*
X100790475Y-36552771D02*
X100752380Y-36476580D01*
X100752380Y-36476580D02*
X100676190Y-36400390D01*
X100676190Y-36400390D02*
X100561904Y-36362295D01*
X100561904Y-36362295D02*
X100485713Y-36362295D01*
X100485713Y-36362295D02*
X100371428Y-36400390D01*
X100371428Y-36400390D02*
X100333332Y-36438485D01*
X99876190Y-36705152D02*
X99952380Y-36667057D01*
X99952380Y-36667057D02*
X99990475Y-36628961D01*
X99990475Y-36628961D02*
X100028571Y-36552771D01*
X100028571Y-36552771D02*
X100028571Y-36514676D01*
X100028571Y-36514676D02*
X99990475Y-36438485D01*
X99990475Y-36438485D02*
X99952380Y-36400390D01*
X99952380Y-36400390D02*
X99876190Y-36362295D01*
X99876190Y-36362295D02*
X99723809Y-36362295D01*
X99723809Y-36362295D02*
X99647618Y-36400390D01*
X99647618Y-36400390D02*
X99609523Y-36438485D01*
X99609523Y-36438485D02*
X99571428Y-36514676D01*
X99571428Y-36514676D02*
X99571428Y-36552771D01*
X99571428Y-36552771D02*
X99609523Y-36628961D01*
X99609523Y-36628961D02*
X99647618Y-36667057D01*
X99647618Y-36667057D02*
X99723809Y-36705152D01*
X99723809Y-36705152D02*
X99876190Y-36705152D01*
X99876190Y-36705152D02*
X99952380Y-36743247D01*
X99952380Y-36743247D02*
X99990475Y-36781342D01*
X99990475Y-36781342D02*
X100028571Y-36857533D01*
X100028571Y-36857533D02*
X100028571Y-37009914D01*
X100028571Y-37009914D02*
X99990475Y-37086104D01*
X99990475Y-37086104D02*
X99952380Y-37124200D01*
X99952380Y-37124200D02*
X99876190Y-37162295D01*
X99876190Y-37162295D02*
X99723809Y-37162295D01*
X99723809Y-37162295D02*
X99647618Y-37124200D01*
X99647618Y-37124200D02*
X99609523Y-37086104D01*
X99609523Y-37086104D02*
X99571428Y-37009914D01*
X99571428Y-37009914D02*
X99571428Y-36857533D01*
X99571428Y-36857533D02*
X99609523Y-36781342D01*
X99609523Y-36781342D02*
X99647618Y-36743247D01*
X99647618Y-36743247D02*
X99723809Y-36705152D01*
X100886104Y-41485714D02*
X100924200Y-41447618D01*
X100924200Y-41447618D02*
X100962295Y-41333333D01*
X100962295Y-41333333D02*
X100962295Y-41257142D01*
X100962295Y-41257142D02*
X100924200Y-41142856D01*
X100924200Y-41142856D02*
X100848009Y-41066666D01*
X100848009Y-41066666D02*
X100771819Y-41028571D01*
X100771819Y-41028571D02*
X100619438Y-40990475D01*
X100619438Y-40990475D02*
X100505152Y-40990475D01*
X100505152Y-40990475D02*
X100352771Y-41028571D01*
X100352771Y-41028571D02*
X100276580Y-41066666D01*
X100276580Y-41066666D02*
X100200390Y-41142856D01*
X100200390Y-41142856D02*
X100162295Y-41257142D01*
X100162295Y-41257142D02*
X100162295Y-41333333D01*
X100162295Y-41333333D02*
X100200390Y-41447618D01*
X100200390Y-41447618D02*
X100238485Y-41485714D01*
X100238485Y-41790475D02*
X100200390Y-41828571D01*
X100200390Y-41828571D02*
X100162295Y-41904761D01*
X100162295Y-41904761D02*
X100162295Y-42095237D01*
X100162295Y-42095237D02*
X100200390Y-42171428D01*
X100200390Y-42171428D02*
X100238485Y-42209523D01*
X100238485Y-42209523D02*
X100314676Y-42247618D01*
X100314676Y-42247618D02*
X100390866Y-42247618D01*
X100390866Y-42247618D02*
X100505152Y-42209523D01*
X100505152Y-42209523D02*
X100962295Y-41752380D01*
X100962295Y-41752380D02*
X100962295Y-42247618D01*
X100162295Y-42514285D02*
X100162295Y-43047619D01*
X100162295Y-43047619D02*
X100962295Y-42704761D01*
X125052975Y-40162295D02*
X125052975Y-39362295D01*
X125052975Y-39362295D02*
X124862499Y-39362295D01*
X124862499Y-39362295D02*
X124748213Y-39400390D01*
X124748213Y-39400390D02*
X124672023Y-39476580D01*
X124672023Y-39476580D02*
X124633928Y-39552771D01*
X124633928Y-39552771D02*
X124595832Y-39705152D01*
X124595832Y-39705152D02*
X124595832Y-39819438D01*
X124595832Y-39819438D02*
X124633928Y-39971819D01*
X124633928Y-39971819D02*
X124672023Y-40048009D01*
X124672023Y-40048009D02*
X124748213Y-40124200D01*
X124748213Y-40124200D02*
X124862499Y-40162295D01*
X124862499Y-40162295D02*
X125052975Y-40162295D01*
X124329166Y-39362295D02*
X123833928Y-39362295D01*
X123833928Y-39362295D02*
X124100594Y-39667057D01*
X124100594Y-39667057D02*
X123986309Y-39667057D01*
X123986309Y-39667057D02*
X123910118Y-39705152D01*
X123910118Y-39705152D02*
X123872023Y-39743247D01*
X123872023Y-39743247D02*
X123833928Y-39819438D01*
X123833928Y-39819438D02*
X123833928Y-40009914D01*
X123833928Y-40009914D02*
X123872023Y-40086104D01*
X123872023Y-40086104D02*
X123910118Y-40124200D01*
X123910118Y-40124200D02*
X123986309Y-40162295D01*
X123986309Y-40162295D02*
X124214880Y-40162295D01*
X124214880Y-40162295D02*
X124291071Y-40124200D01*
X124291071Y-40124200D02*
X124329166Y-40086104D01*
X96914285Y-43186104D02*
X96952381Y-43224200D01*
X96952381Y-43224200D02*
X97066666Y-43262295D01*
X97066666Y-43262295D02*
X97142857Y-43262295D01*
X97142857Y-43262295D02*
X97257143Y-43224200D01*
X97257143Y-43224200D02*
X97333333Y-43148009D01*
X97333333Y-43148009D02*
X97371428Y-43071819D01*
X97371428Y-43071819D02*
X97409524Y-42919438D01*
X97409524Y-42919438D02*
X97409524Y-42805152D01*
X97409524Y-42805152D02*
X97371428Y-42652771D01*
X97371428Y-42652771D02*
X97333333Y-42576580D01*
X97333333Y-42576580D02*
X97257143Y-42500390D01*
X97257143Y-42500390D02*
X97142857Y-42462295D01*
X97142857Y-42462295D02*
X97066666Y-42462295D01*
X97066666Y-42462295D02*
X96952381Y-42500390D01*
X96952381Y-42500390D02*
X96914285Y-42538485D01*
X96152381Y-43262295D02*
X96609524Y-43262295D01*
X96380952Y-43262295D02*
X96380952Y-42462295D01*
X96380952Y-42462295D02*
X96457143Y-42576580D01*
X96457143Y-42576580D02*
X96533333Y-42652771D01*
X96533333Y-42652771D02*
X96609524Y-42690866D01*
X95657142Y-42462295D02*
X95580952Y-42462295D01*
X95580952Y-42462295D02*
X95504761Y-42500390D01*
X95504761Y-42500390D02*
X95466666Y-42538485D01*
X95466666Y-42538485D02*
X95428571Y-42614676D01*
X95428571Y-42614676D02*
X95390476Y-42767057D01*
X95390476Y-42767057D02*
X95390476Y-42957533D01*
X95390476Y-42957533D02*
X95428571Y-43109914D01*
X95428571Y-43109914D02*
X95466666Y-43186104D01*
X95466666Y-43186104D02*
X95504761Y-43224200D01*
X95504761Y-43224200D02*
X95580952Y-43262295D01*
X95580952Y-43262295D02*
X95657142Y-43262295D01*
X95657142Y-43262295D02*
X95733333Y-43224200D01*
X95733333Y-43224200D02*
X95771428Y-43186104D01*
X95771428Y-43186104D02*
X95809523Y-43109914D01*
X95809523Y-43109914D02*
X95847619Y-42957533D01*
X95847619Y-42957533D02*
X95847619Y-42767057D01*
X95847619Y-42767057D02*
X95809523Y-42614676D01*
X95809523Y-42614676D02*
X95771428Y-42538485D01*
X95771428Y-42538485D02*
X95733333Y-42500390D01*
X95733333Y-42500390D02*
X95657142Y-42462295D01*
X117162295Y-37209524D02*
X116362295Y-37209524D01*
X116362295Y-37209524D02*
X116362295Y-37400000D01*
X116362295Y-37400000D02*
X116400390Y-37514286D01*
X116400390Y-37514286D02*
X116476580Y-37590476D01*
X116476580Y-37590476D02*
X116552771Y-37628571D01*
X116552771Y-37628571D02*
X116705152Y-37666667D01*
X116705152Y-37666667D02*
X116819438Y-37666667D01*
X116819438Y-37666667D02*
X116971819Y-37628571D01*
X116971819Y-37628571D02*
X117048009Y-37590476D01*
X117048009Y-37590476D02*
X117124200Y-37514286D01*
X117124200Y-37514286D02*
X117162295Y-37400000D01*
X117162295Y-37400000D02*
X117162295Y-37209524D01*
X117162295Y-38428571D02*
X117162295Y-37971428D01*
X117162295Y-38200000D02*
X116362295Y-38200000D01*
X116362295Y-38200000D02*
X116476580Y-38123809D01*
X116476580Y-38123809D02*
X116552771Y-38047619D01*
X116552771Y-38047619D02*
X116590866Y-37971428D01*
X96914285Y-42136104D02*
X96952381Y-42174200D01*
X96952381Y-42174200D02*
X97066666Y-42212295D01*
X97066666Y-42212295D02*
X97142857Y-42212295D01*
X97142857Y-42212295D02*
X97257143Y-42174200D01*
X97257143Y-42174200D02*
X97333333Y-42098009D01*
X97333333Y-42098009D02*
X97371428Y-42021819D01*
X97371428Y-42021819D02*
X97409524Y-41869438D01*
X97409524Y-41869438D02*
X97409524Y-41755152D01*
X97409524Y-41755152D02*
X97371428Y-41602771D01*
X97371428Y-41602771D02*
X97333333Y-41526580D01*
X97333333Y-41526580D02*
X97257143Y-41450390D01*
X97257143Y-41450390D02*
X97142857Y-41412295D01*
X97142857Y-41412295D02*
X97066666Y-41412295D01*
X97066666Y-41412295D02*
X96952381Y-41450390D01*
X96952381Y-41450390D02*
X96914285Y-41488485D01*
X96152381Y-42212295D02*
X96609524Y-42212295D01*
X96380952Y-42212295D02*
X96380952Y-41412295D01*
X96380952Y-41412295D02*
X96457143Y-41526580D01*
X96457143Y-41526580D02*
X96533333Y-41602771D01*
X96533333Y-41602771D02*
X96609524Y-41640866D01*
X95847619Y-41488485D02*
X95809523Y-41450390D01*
X95809523Y-41450390D02*
X95733333Y-41412295D01*
X95733333Y-41412295D02*
X95542857Y-41412295D01*
X95542857Y-41412295D02*
X95466666Y-41450390D01*
X95466666Y-41450390D02*
X95428571Y-41488485D01*
X95428571Y-41488485D02*
X95390476Y-41564676D01*
X95390476Y-41564676D02*
X95390476Y-41640866D01*
X95390476Y-41640866D02*
X95428571Y-41755152D01*
X95428571Y-41755152D02*
X95885714Y-42212295D01*
X95885714Y-42212295D02*
X95390476Y-42212295D01*
D12*
X114190000Y-26270000D02*
X123590000Y-26270000D01*
X114190000Y-28170000D02*
X114190000Y-26270000D01*
X114190000Y-32070000D02*
X114190000Y-30070000D01*
X123590000Y-28170000D02*
X123590000Y-26270000D01*
X123590000Y-32070000D02*
X123590000Y-30070000D01*
X98587836Y-38160000D02*
X98372164Y-38160000D01*
X98587836Y-37440000D02*
X98372164Y-37440000D01*
X98587836Y-44160000D02*
X98372164Y-44160000D01*
X98587836Y-43440000D02*
X98372164Y-43440000D01*
X100860000Y-31687500D02*
X100860000Y-31037500D01*
X100860000Y-31687500D02*
X100860000Y-32337500D01*
X97740000Y-31687500D02*
X97740000Y-30012500D01*
X97740000Y-31687500D02*
X97740000Y-32337500D01*
X98496359Y-28770000D02*
X98803641Y-28770000D01*
X98496359Y-29530000D02*
X98803641Y-29530000D01*
X120380000Y-40646359D02*
X120380000Y-40953641D01*
X119620000Y-40646359D02*
X119620000Y-40953641D01*
X98587836Y-41160000D02*
X98372164Y-41160000D01*
X98587836Y-40440000D02*
X98372164Y-40440000D01*
X98292164Y-34240000D02*
X98507836Y-34240000D01*
X98292164Y-34960000D02*
X98507836Y-34960000D01*
X98587836Y-39160000D02*
X98372164Y-39160000D01*
X98587836Y-38440000D02*
X98372164Y-38440000D01*
X98523641Y-36180000D02*
X98216359Y-36180000D01*
X98523641Y-35420000D02*
X98216359Y-35420000D01*
X118680000Y-40646359D02*
X118680000Y-40953641D01*
X117920000Y-40646359D02*
X117920000Y-40953641D01*
X79935000Y-33115000D02*
X79935000Y-31315000D01*
X79935000Y-39115000D02*
X79935000Y-34415000D01*
X79935000Y-44425000D02*
X79935000Y-40815000D01*
X80385000Y-44425000D02*
X79935000Y-44425000D01*
X80965000Y-28155000D02*
X80765000Y-28355000D01*
X80965000Y-28155000D02*
X82825000Y-28155000D01*
X82825000Y-28155000D02*
X83035000Y-28355000D01*
X83035000Y-28505000D02*
X83035000Y-28355000D01*
X83035000Y-28505000D02*
X89405000Y-28505000D01*
X89915000Y-28155000D02*
X89405000Y-28505000D01*
X91985000Y-44425000D02*
X93905000Y-44425000D01*
X92225000Y-28155000D02*
X89915000Y-28155000D01*
X92225000Y-28155000D02*
X92425000Y-28355000D01*
X92425000Y-28355000D02*
X92685000Y-28355000D01*
X93905000Y-44425000D02*
X93905000Y-30415000D01*
X101240000Y-36787836D02*
X101240000Y-36572164D01*
X101960000Y-36787836D02*
X101960000Y-36572164D01*
X97240000Y-36292164D02*
X97240000Y-36507836D01*
X96520000Y-36292164D02*
X96520000Y-36507836D01*
X98587836Y-40160000D02*
X98372164Y-40160000D01*
X98587836Y-39440000D02*
X98372164Y-39440000D01*
X101220000Y-34863641D02*
X101220000Y-34556359D01*
X101980000Y-34863641D02*
X101980000Y-34556359D01*
X112925000Y-31625000D02*
X111225000Y-31625000D01*
X111225000Y-40025000D02*
X111225000Y-39425000D01*
X111225000Y-37525000D02*
X111225000Y-34325000D01*
X111225000Y-32475000D02*
X111225000Y-31625000D01*
X111225000Y-29725000D02*
X112925000Y-29725000D01*
X111225000Y-29725000D02*
X111225000Y-27825000D01*
X111225000Y-27825000D02*
X110625000Y-27825000D01*
X110625000Y-27825000D02*
X110625000Y-25825000D01*
X110625000Y-25825000D02*
X105425000Y-25825000D01*
X106725000Y-40025000D02*
X111225000Y-40025000D01*
X105425000Y-27825000D02*
X104825000Y-27825000D01*
X105425000Y-25825000D02*
X105425000Y-27825000D01*
X104825000Y-38125000D02*
X104825000Y-38475000D01*
X104825000Y-31675000D02*
X104825000Y-36125000D01*
X104825000Y-27825000D02*
X104825000Y-29675000D01*
X95600000Y-33560000D02*
X95600000Y-30900000D01*
X97300000Y-33560000D02*
X95600000Y-33560000D01*
X97300000Y-33560000D02*
X97300000Y-30900000D01*
X101220000Y-39553641D02*
X101220000Y-39246359D01*
X101980000Y-39553641D02*
X101980000Y-39246359D01*
X98587836Y-37160000D02*
X98372164Y-37160000D01*
X98587836Y-36440000D02*
X98372164Y-36440000D01*
X101240000Y-42107836D02*
X101240000Y-41892164D01*
X101960000Y-42107836D02*
X101960000Y-41892164D01*
X124462500Y-35840000D02*
X123812500Y-35840000D01*
X124462500Y-35840000D02*
X125112500Y-35840000D01*
X124462500Y-38960000D02*
X122787500Y-38960000D01*
X124462500Y-38960000D02*
X125112500Y-38960000D01*
X98587836Y-43160000D02*
X98372164Y-43160000D01*
X98587836Y-42440000D02*
X98372164Y-42440000D01*
X120760000Y-37800000D02*
X120760000Y-37150000D01*
X120760000Y-37800000D02*
X120760000Y-38450000D01*
X117640000Y-37800000D02*
X117640000Y-36125000D01*
X117640000Y-37800000D02*
X117640000Y-38450000D01*
X98587836Y-42160000D02*
X98372164Y-42160000D01*
X98587836Y-41440000D02*
X98372164Y-41440000D01*
D13*
X128250000Y-80225000D02*
X128250000Y-30425000D01*
X128250000Y-30425000D02*
X124250000Y-30425000D01*
X77950000Y-88825000D02*
X77950000Y-80225000D01*
X127150000Y-88825000D02*
X127150000Y-80225000D01*
X76850000Y-80225000D02*
X76850000Y-27825000D01*
X124250000Y-27825000D02*
X124250000Y-30425000D01*
X77950000Y-88825000D02*
X127150000Y-88825000D01*
X76850000Y-27825000D02*
X124250000Y-27825000D01*
X127150000Y-80225000D02*
X128250000Y-80225000D01*
X77950000Y-80225000D02*
X76850000Y-80225000D01*
M02*
