G04 #@! TF.GenerationSoftware,KiCad,Pcbnew,7.0.10*
G04 #@! TF.CreationDate,2024-04-17T21:52:57+03:00*
G04 #@! TF.ProjectId,GAMEBOY_STM32_CART,47414d45-424f-4595-9f53-544d33325f43,v5.1*
G04 #@! TF.SameCoordinates,Original*
G04 #@! TF.FileFunction,Soldermask,Top*
G04 #@! TF.FilePolarity,Negative*
%FSLAX46Y46*%
G04 Gerber Fmt 4.6, Leading zero omitted, Abs format (unit mm)*
G04 Created by KiCad (PCBNEW 7.0.10) date 2024-04-17 21:52:57*
%MOMM*%
%LPD*%
G01*
G04 APERTURE LIST*
G04 Aperture macros list*
%AMRoundRect*
0 Rectangle with rounded corners*
0 $1 Rounding radius*
0 $2 $3 $4 $5 $6 $7 $8 $9 X,Y pos of 4 corners*
0 Add a 4 corners polygon primitive as box body*
4,1,4,$2,$3,$4,$5,$6,$7,$8,$9,$2,$3,0*
0 Add four circle primitives for the rounded corners*
1,1,$1+$1,$2,$3*
1,1,$1+$1,$4,$5*
1,1,$1+$1,$6,$7*
1,1,$1+$1,$8,$9*
0 Add four rect primitives between the rounded corners*
20,1,$1+$1,$2,$3,$4,$5,0*
20,1,$1+$1,$4,$5,$6,$7,0*
20,1,$1+$1,$6,$7,$8,$9,0*
20,1,$1+$1,$8,$9,$2,$3,0*%
%AMRotRect*
0 Rectangle, with rotation*
0 The origin of the aperture is its center*
0 $1 length*
0 $2 width*
0 $3 Rotation angle, in degrees counterclockwise*
0 Add horizontal line*
21,1,$1,$2,0,0,$3*%
%AMFreePoly0*
4,1,14,0.318306,0.106694,0.381694,0.043306,0.400000,-0.000888,0.400000,-0.062500,0.381694,-0.106694,0.337500,-0.125000,-0.337500,-0.125000,-0.381694,-0.106694,-0.400000,-0.062500,-0.400000,0.062500,-0.381694,0.106694,-0.337500,0.125000,0.274112,0.125000,0.318306,0.106694,0.318306,0.106694,$1*%
%AMFreePoly1*
4,1,14,0.381694,0.106694,0.400000,0.062500,0.400000,0.000888,0.381694,-0.043306,0.318306,-0.106694,0.274112,-0.125000,-0.337500,-0.125000,-0.381694,-0.106694,-0.400000,-0.062500,-0.400000,0.062500,-0.381694,0.106694,-0.337500,0.125000,0.337500,0.125000,0.381694,0.106694,0.381694,0.106694,$1*%
%AMFreePoly2*
4,1,14,0.106694,0.381694,0.125000,0.337500,0.125000,-0.337500,0.106694,-0.381694,0.062500,-0.400000,-0.062500,-0.400000,-0.106694,-0.381694,-0.125000,-0.337500,-0.125000,0.274112,-0.106694,0.318306,-0.043306,0.381694,0.000888,0.400000,0.062500,0.400000,0.106694,0.381694,0.106694,0.381694,$1*%
%AMFreePoly3*
4,1,14,0.043306,0.381694,0.106694,0.318306,0.125000,0.274112,0.125000,-0.337500,0.106694,-0.381694,0.062500,-0.400000,-0.062500,-0.400000,-0.106694,-0.381694,-0.125000,-0.337500,-0.125000,0.337500,-0.106694,0.381694,-0.062500,0.400000,-0.000888,0.400000,0.043306,0.381694,0.043306,0.381694,$1*%
%AMFreePoly4*
4,1,14,0.381694,0.106694,0.400000,0.062500,0.400000,-0.062500,0.381694,-0.106694,0.337500,-0.125000,-0.274112,-0.125000,-0.318306,-0.106694,-0.381694,-0.043306,-0.400000,0.000888,-0.400000,0.062500,-0.381694,0.106694,-0.337500,0.125000,0.337500,0.125000,0.381694,0.106694,0.381694,0.106694,$1*%
%AMFreePoly5*
4,1,14,0.381694,0.106694,0.400000,0.062500,0.400000,-0.062500,0.381694,-0.106694,0.337500,-0.125000,-0.337500,-0.125000,-0.381694,-0.106694,-0.400000,-0.062500,-0.400000,-0.000888,-0.381694,0.043306,-0.318306,0.106694,-0.274112,0.125000,0.337500,0.125000,0.381694,0.106694,0.381694,0.106694,$1*%
%AMFreePoly6*
4,1,14,0.106694,0.381694,0.125000,0.337500,0.125000,-0.274112,0.106694,-0.318306,0.043306,-0.381694,-0.000888,-0.400000,-0.062500,-0.400000,-0.106694,-0.381694,-0.125000,-0.337500,-0.125000,0.337500,-0.106694,0.381694,-0.062500,0.400000,0.062500,0.400000,0.106694,0.381694,0.106694,0.381694,$1*%
%AMFreePoly7*
4,1,14,0.106694,0.381694,0.125000,0.337500,0.125000,-0.337500,0.106694,-0.381694,0.062500,-0.400000,0.000888,-0.400000,-0.043306,-0.381694,-0.106694,-0.318306,-0.125000,-0.274112,-0.125000,0.337500,-0.106694,0.381694,-0.062500,0.400000,0.062500,0.400000,0.106694,0.381694,0.106694,0.381694,$1*%
%AMFreePoly8*
4,1,9,3.862500,-0.866500,0.737500,-0.866500,0.737500,-0.450000,-0.737500,-0.450000,-0.737500,0.450000,0.737500,0.450000,0.737500,0.866500,3.862500,0.866500,3.862500,-0.866500,3.862500,-0.866500,$1*%
G04 Aperture macros list end*
%ADD10C,0.900000*%
%ADD11RoundRect,0.075000X0.662500X0.075000X-0.662500X0.075000X-0.662500X-0.075000X0.662500X-0.075000X0*%
%ADD12RoundRect,0.075000X0.075000X0.662500X-0.075000X0.662500X-0.075000X-0.662500X0.075000X-0.662500X0*%
%ADD13C,7.200000*%
%ADD14RoundRect,0.135000X-0.185000X0.135000X-0.185000X-0.135000X0.185000X-0.135000X0.185000X0.135000X0*%
%ADD15RoundRect,0.135000X0.185000X-0.135000X0.185000X0.135000X-0.185000X0.135000X-0.185000X-0.135000X0*%
%ADD16RoundRect,0.140000X-0.140000X-0.170000X0.140000X-0.170000X0.140000X0.170000X-0.140000X0.170000X0*%
%ADD17RoundRect,0.218750X-0.256250X0.218750X-0.256250X-0.218750X0.256250X-0.218750X0.256250X0.218750X0*%
%ADD18RoundRect,0.140000X-0.170000X0.140000X-0.170000X-0.140000X0.170000X-0.140000X0.170000X0.140000X0*%
%ADD19R,0.900000X1.700000*%
%ADD20RoundRect,0.140000X0.140000X0.170000X-0.140000X0.170000X-0.140000X-0.170000X0.140000X-0.170000X0*%
%ADD21RoundRect,0.155000X0.212500X0.155000X-0.212500X0.155000X-0.212500X-0.155000X0.212500X-0.155000X0*%
%ADD22R,1.300000X6.000000*%
%ADD23R,1.000000X5.500000*%
%ADD24RoundRect,0.135000X0.135000X0.185000X-0.135000X0.185000X-0.135000X-0.185000X0.135000X-0.185000X0*%
%ADD25RoundRect,0.135000X-0.135000X-0.185000X0.135000X-0.185000X0.135000X0.185000X-0.135000X0.185000X0*%
%ADD26RoundRect,0.218750X0.218750X0.256250X-0.218750X0.256250X-0.218750X-0.256250X0.218750X-0.256250X0*%
%ADD27RoundRect,0.140000X0.170000X-0.140000X0.170000X0.140000X-0.170000X0.140000X-0.170000X-0.140000X0*%
%ADD28RoundRect,0.150000X-0.587500X-0.150000X0.587500X-0.150000X0.587500X0.150000X-0.587500X0.150000X0*%
%ADD29FreePoly0,180.000000*%
%ADD30RoundRect,0.062500X0.337500X0.062500X-0.337500X0.062500X-0.337500X-0.062500X0.337500X-0.062500X0*%
%ADD31R,2.400000X2.400000*%
%ADD32FreePoly1,180.000000*%
%ADD33FreePoly2,180.000000*%
%ADD34RoundRect,0.062500X0.062500X0.337500X-0.062500X0.337500X-0.062500X-0.337500X0.062500X-0.337500X0*%
%ADD35FreePoly3,180.000000*%
%ADD36FreePoly4,180.000000*%
%ADD37FreePoly5,180.000000*%
%ADD38FreePoly6,180.000000*%
%ADD39FreePoly7,180.000000*%
%ADD40RoundRect,0.218750X0.256250X-0.218750X0.256250X0.218750X-0.256250X0.218750X-0.256250X-0.218750X0*%
%ADD41R,1.000000X3.150000*%
%ADD42C,8.500000*%
%ADD43RotRect,2.000000X2.000000X45.000000*%
%ADD44R,1.200000X1.400000*%
%ADD45R,1.525000X0.650000*%
%ADD46R,1.000000X1.800000*%
%ADD47R,0.900000X1.300000*%
%ADD48FreePoly8,90.000000*%
%ADD49C,0.650000*%
%ADD50O,1.000000X1.600000*%
%ADD51O,1.000000X2.100000*%
%ADD52C,1.500000*%
G04 #@! TA.AperFunction,Profile*
%ADD53C,0.150000*%
G04 #@! TD*
G04 APERTURE END LIST*
D10*
X115200000Y-63300000D03*
X78600000Y-74400000D03*
X124300000Y-71200000D03*
X108600000Y-72200000D03*
X91700000Y-30800000D03*
X115600000Y-67900000D03*
D11*
X102725000Y-65138000D03*
X102725000Y-64638000D03*
X102725000Y-64138000D03*
X102725000Y-63638000D03*
X102725000Y-63138000D03*
X102725000Y-62638000D03*
X102725000Y-62138000D03*
X102725000Y-61638000D03*
X102725000Y-61138000D03*
X102725000Y-60638000D03*
X102725000Y-60138000D03*
X102725000Y-59638000D03*
X102725000Y-59138000D03*
X102725000Y-58638000D03*
X102725000Y-58138000D03*
X102725000Y-57638000D03*
X102725000Y-57138000D03*
X102725000Y-56638000D03*
X102725000Y-56138000D03*
X102725000Y-55638000D03*
X102725000Y-55138000D03*
X102725000Y-54638000D03*
X102725000Y-54138000D03*
X102725000Y-53638000D03*
X102725000Y-53138000D03*
X102725000Y-52638000D03*
X102725000Y-52138000D03*
X102725000Y-51638000D03*
X102725000Y-51138000D03*
X102725000Y-50638000D03*
X102725000Y-50138000D03*
X102725000Y-49638000D03*
X102725000Y-49138000D03*
X102725000Y-48638000D03*
X102725000Y-48138000D03*
X102725000Y-47638000D03*
D12*
X100812500Y-45725500D03*
X100312500Y-45725500D03*
X99812500Y-45725500D03*
X99312500Y-45725500D03*
X98812500Y-45725500D03*
X98312500Y-45725500D03*
X97812500Y-45725500D03*
X97312500Y-45725500D03*
X96812500Y-45725500D03*
X96312500Y-45725500D03*
X95812500Y-45725500D03*
X95312500Y-45725500D03*
X94812500Y-45725500D03*
X94312500Y-45725500D03*
X93812500Y-45725500D03*
X93312500Y-45725500D03*
X92812500Y-45725500D03*
X92312500Y-45725500D03*
X91812500Y-45725500D03*
X91312500Y-45725500D03*
X90812500Y-45725500D03*
X90312500Y-45725500D03*
X89812500Y-45725500D03*
X89312500Y-45725500D03*
X88812500Y-45725500D03*
X88312500Y-45725500D03*
X87812500Y-45725500D03*
X87312500Y-45725500D03*
X86812500Y-45725500D03*
X86312500Y-45725500D03*
X85812500Y-45725500D03*
X85312500Y-45725500D03*
X84812500Y-45725500D03*
X84312500Y-45725500D03*
X83812500Y-45725500D03*
X83312500Y-45725500D03*
D11*
X81400000Y-47638000D03*
X81400000Y-48138000D03*
X81400000Y-48638000D03*
X81400000Y-49138000D03*
X81400000Y-49638000D03*
X81400000Y-50138000D03*
X81400000Y-50638000D03*
X81400000Y-51138000D03*
X81400000Y-51638000D03*
X81400000Y-52138000D03*
X81400000Y-52638000D03*
X81400000Y-53138000D03*
X81400000Y-53638000D03*
X81400000Y-54138000D03*
X81400000Y-54638000D03*
X81400000Y-55138000D03*
X81400000Y-55638000D03*
X81400000Y-56138000D03*
X81400000Y-56638000D03*
X81400000Y-57138000D03*
X81400000Y-57638000D03*
X81400000Y-58138000D03*
X81400000Y-58638000D03*
X81400000Y-59138000D03*
X81400000Y-59638000D03*
X81400000Y-60138000D03*
X81400000Y-60638000D03*
X81400000Y-61138000D03*
X81400000Y-61638000D03*
X81400000Y-62138000D03*
X81400000Y-62638000D03*
X81400000Y-63138000D03*
X81400000Y-63638000D03*
X81400000Y-64138000D03*
X81400000Y-64638000D03*
X81400000Y-65138000D03*
D12*
X83312500Y-67050500D03*
X83812500Y-67050500D03*
X84312500Y-67050500D03*
X84812500Y-67050500D03*
X85312500Y-67050500D03*
X85812500Y-67050500D03*
X86312500Y-67050500D03*
X86812500Y-67050500D03*
X87312500Y-67050500D03*
X87812500Y-67050500D03*
X88312500Y-67050500D03*
X88812500Y-67050500D03*
X89312500Y-67050500D03*
X89812500Y-67050500D03*
X90312500Y-67050500D03*
X90812500Y-67050500D03*
X91312500Y-67050500D03*
X91812500Y-67050500D03*
X92312500Y-67050500D03*
X92812500Y-67050500D03*
X93312500Y-67050500D03*
X93812500Y-67050500D03*
X94312500Y-67050500D03*
X94812500Y-67050500D03*
X95312500Y-67050500D03*
X95812500Y-67050500D03*
X96312500Y-67050500D03*
X96812500Y-67050500D03*
X97312500Y-67050500D03*
X97812500Y-67050500D03*
X98312500Y-67050500D03*
X98812500Y-67050500D03*
X99312500Y-67050500D03*
X99812500Y-67050500D03*
X100312500Y-67050500D03*
X100812500Y-67050500D03*
D13*
X102540000Y-73474000D03*
D14*
X91200000Y-41200000D03*
X91200000Y-42220000D03*
D15*
X120570000Y-49410000D03*
X120570000Y-48390000D03*
D16*
X104520000Y-49800000D03*
X105480000Y-49800000D03*
D14*
X118400000Y-30600000D03*
X118400000Y-31620000D03*
D15*
X119370000Y-49410000D03*
X119370000Y-48390000D03*
D17*
X105800000Y-29812500D03*
X105800000Y-31387500D03*
X120800000Y-29412500D03*
X120800000Y-30987500D03*
D16*
X124120000Y-53800000D03*
X125080000Y-53800000D03*
D14*
X87400000Y-41690000D03*
X87400000Y-42710000D03*
D16*
X104520000Y-56800000D03*
X105480000Y-56800000D03*
D18*
X94400000Y-69040000D03*
X94400000Y-70000000D03*
D19*
X109300000Y-65600000D03*
X105900000Y-65600000D03*
D20*
X79680000Y-64000000D03*
X78720000Y-64000000D03*
D21*
X104367500Y-39000000D03*
X103232500Y-39000000D03*
D20*
X79680000Y-65200000D03*
X78720000Y-65200000D03*
D22*
X79150000Y-84825000D03*
D23*
X80800000Y-84575000D03*
X82300000Y-84575000D03*
X83800000Y-84575000D03*
X85300000Y-84575000D03*
X86800000Y-84575000D03*
X88300000Y-84575000D03*
X89800000Y-84575000D03*
X91300000Y-84575000D03*
X92800000Y-84575000D03*
X94300000Y-84575000D03*
X95800000Y-84575000D03*
X97300000Y-84575000D03*
X98800000Y-84575000D03*
X100300000Y-84575000D03*
X101800000Y-84575000D03*
X103300000Y-84575000D03*
X104800000Y-84575000D03*
X106300000Y-84575000D03*
X107800000Y-84575000D03*
X109300000Y-84575000D03*
X110800000Y-84575000D03*
X112300000Y-84575000D03*
X113800000Y-84575000D03*
X115300000Y-84575000D03*
X116800000Y-84575000D03*
X118300000Y-84575000D03*
X119800000Y-84575000D03*
X121300000Y-84575000D03*
X122800000Y-84575000D03*
X124300000Y-84575000D03*
D22*
X125950000Y-84825000D03*
D24*
X103710000Y-68000000D03*
X102690000Y-68000000D03*
D25*
X123660000Y-57300000D03*
X124680000Y-57300000D03*
D26*
X106387500Y-47600000D03*
X104812500Y-47600000D03*
D16*
X124120000Y-54800000D03*
X125080000Y-54800000D03*
D20*
X79800000Y-58600000D03*
X78840000Y-58600000D03*
D16*
X89144000Y-77425000D03*
X90104000Y-77425000D03*
X105520000Y-39000000D03*
X106480000Y-39000000D03*
D27*
X88400000Y-43880000D03*
X88400000Y-42920000D03*
D28*
X78800000Y-42050000D03*
X78800000Y-43950000D03*
X80675000Y-43000000D03*
D16*
X104520000Y-48800000D03*
X105480000Y-48800000D03*
D15*
X98400000Y-70110000D03*
X98400000Y-69090000D03*
D29*
X122270000Y-56550000D03*
D30*
X122270000Y-56100000D03*
X122270000Y-55650000D03*
X122270000Y-55200000D03*
D31*
X120320000Y-55200000D03*
D30*
X122270000Y-54750000D03*
X122270000Y-54300000D03*
D32*
X122270000Y-53850000D03*
D33*
X121670000Y-53250000D03*
D34*
X121220000Y-53250000D03*
X120770000Y-53250000D03*
X120320000Y-53250000D03*
X119870000Y-53250000D03*
X119420000Y-53250000D03*
D35*
X118970000Y-53250000D03*
D36*
X118370000Y-53850000D03*
D30*
X118370000Y-54300000D03*
X118370000Y-54750000D03*
X118370000Y-55200000D03*
X118370000Y-55650000D03*
X118370000Y-56100000D03*
D37*
X118370000Y-56550000D03*
D38*
X118970000Y-57150000D03*
D34*
X119420000Y-57150000D03*
X119870000Y-57150000D03*
X120320000Y-57150000D03*
X120770000Y-57150000D03*
X121220000Y-57150000D03*
D39*
X121670000Y-57150000D03*
D24*
X116310000Y-51600000D03*
X115290000Y-51600000D03*
D27*
X119520000Y-59760000D03*
X119520000Y-58800000D03*
D19*
X112000000Y-49400000D03*
X115400000Y-49400000D03*
D18*
X107400000Y-45320000D03*
X107400000Y-46280000D03*
X86200000Y-41720000D03*
X86200000Y-42680000D03*
D40*
X115120000Y-60587500D03*
X115120000Y-59012500D03*
D17*
X117000000Y-29800000D03*
X117000000Y-31375000D03*
D18*
X89400000Y-68920000D03*
X89400000Y-69880000D03*
D20*
X116600000Y-54400000D03*
X115640000Y-54400000D03*
D27*
X120570000Y-51380000D03*
X120570000Y-50420000D03*
D16*
X105120000Y-57800000D03*
X106080000Y-57800000D03*
D14*
X120770000Y-58390000D03*
X120770000Y-59410000D03*
X82200000Y-41690000D03*
X82200000Y-42710000D03*
D24*
X110320000Y-32900000D03*
X109300000Y-32900000D03*
D15*
X97000000Y-70110000D03*
X97000000Y-69090000D03*
D20*
X116600000Y-53400000D03*
X115640000Y-53400000D03*
D25*
X125290000Y-31400000D03*
X126310000Y-31400000D03*
D16*
X119520000Y-62000000D03*
X120480000Y-62000000D03*
X104520000Y-50800000D03*
X105480000Y-50800000D03*
D24*
X122830000Y-63000000D03*
X121810000Y-63000000D03*
D41*
X110320000Y-42250000D03*
X110320000Y-37200000D03*
X112860000Y-42250000D03*
X112860000Y-37200000D03*
X115400000Y-42250000D03*
X115400000Y-37200000D03*
X117940000Y-42250000D03*
X117940000Y-37200000D03*
X120480000Y-42250000D03*
X120480000Y-37200000D03*
X123020000Y-42250000D03*
X123020000Y-37200000D03*
X125560000Y-42250000D03*
X125560000Y-37200000D03*
D27*
X119370000Y-51380000D03*
X119370000Y-50420000D03*
D42*
X84408339Y-34404420D03*
D43*
X89004533Y-29808226D03*
X79812145Y-39000614D03*
D16*
X123920000Y-55900000D03*
X124880000Y-55900000D03*
X107120000Y-51000000D03*
X108080000Y-51000000D03*
D20*
X87480000Y-75800000D03*
X86520000Y-75800000D03*
D24*
X104510000Y-66800000D03*
X103490000Y-66800000D03*
D44*
X107200000Y-52600000D03*
X107200000Y-54800000D03*
X108900000Y-54800000D03*
X108900000Y-52600000D03*
D16*
X123640000Y-51600000D03*
X124600000Y-51600000D03*
D17*
X109400000Y-29812500D03*
X109400000Y-31387500D03*
D43*
X92835355Y-39835355D03*
X102027743Y-30642967D03*
D42*
X97431549Y-35239161D03*
D20*
X79680000Y-53200000D03*
X78720000Y-53200000D03*
D27*
X84400000Y-44080000D03*
X84400000Y-43120000D03*
D16*
X119520000Y-60800000D03*
X120480000Y-60800000D03*
D18*
X113720000Y-58840000D03*
X113720000Y-59800000D03*
D20*
X116600000Y-56400000D03*
X115640000Y-56400000D03*
D21*
X106167500Y-45600000D03*
X105032500Y-45600000D03*
D15*
X105800000Y-34310000D03*
X105800000Y-33290000D03*
D14*
X122300000Y-30225000D03*
X122300000Y-31245000D03*
D20*
X108160000Y-57800000D03*
X107200000Y-57800000D03*
D24*
X120540000Y-63000000D03*
X119520000Y-63000000D03*
D25*
X125290000Y-32600000D03*
X126310000Y-32600000D03*
D45*
X94624000Y-75870000D03*
X94624000Y-74600000D03*
X94624000Y-73330000D03*
X94624000Y-72060000D03*
X89200000Y-72060000D03*
X89200000Y-73330000D03*
X89200000Y-74600000D03*
X89200000Y-75870000D03*
D46*
X107850000Y-59600000D03*
X105350000Y-59600000D03*
D47*
X103700000Y-43850000D03*
D48*
X105200000Y-43762500D03*
D47*
X106700000Y-43850000D03*
D16*
X104320000Y-62600000D03*
X105280000Y-62600000D03*
D20*
X82280000Y-45600000D03*
X81320000Y-45600000D03*
D14*
X89800000Y-41090000D03*
X89800000Y-42110000D03*
D25*
X115610000Y-55400000D03*
X116630000Y-55400000D03*
D27*
X110400000Y-55400000D03*
X110400000Y-54440000D03*
D14*
X83400000Y-41690000D03*
X83400000Y-42710000D03*
D20*
X116600000Y-57400000D03*
X115640000Y-57400000D03*
D49*
X116000000Y-32770000D03*
X121780000Y-32770000D03*
D50*
X114570000Y-29120000D03*
D51*
X114570000Y-33300000D03*
D50*
X123210000Y-29120000D03*
D51*
X123210000Y-33300000D03*
D52*
X108025000Y-38375000D03*
D53*
X128250000Y-80225000D02*
X128250000Y-30425000D01*
X128250000Y-30425000D02*
X124250000Y-30425000D01*
X77950000Y-88825000D02*
X77950000Y-80225000D01*
X127150000Y-88825000D02*
X127150000Y-80225000D01*
X76850000Y-80225000D02*
X76850000Y-27825000D01*
X124250000Y-27825000D02*
X124250000Y-30425000D01*
X77950000Y-88825000D02*
X127150000Y-88825000D01*
X76850000Y-27825000D02*
X124250000Y-27825000D01*
X127150000Y-80225000D02*
X128250000Y-80225000D01*
X77950000Y-80225000D02*
X76850000Y-80225000D01*
M02*
