G04 #@! TF.GenerationSoftware,KiCad,Pcbnew,7.0.10*
G04 #@! TF.CreationDate,2024-04-17T21:52:57+03:00*
G04 #@! TF.ProjectId,GAMEBOY_STM32_CART,47414d45-424f-4595-9f53-544d33325f43,v5.1*
G04 #@! TF.SameCoordinates,Original*
G04 #@! TF.FileFunction,Paste,Bot*
G04 #@! TF.FilePolarity,Positive*
%FSLAX46Y46*%
G04 Gerber Fmt 4.6, Leading zero omitted, Abs format (unit mm)*
G04 Created by KiCad (PCBNEW 7.0.10) date 2024-04-17 21:52:57*
%MOMM*%
%LPD*%
G01*
G04 APERTURE LIST*
G04 Aperture macros list*
%AMRoundRect*
0 Rectangle with rounded corners*
0 $1 Rounding radius*
0 $2 $3 $4 $5 $6 $7 $8 $9 X,Y pos of 4 corners*
0 Add a 4 corners polygon primitive as box body*
4,1,4,$2,$3,$4,$5,$6,$7,$8,$9,$2,$3,0*
0 Add four circle primitives for the rounded corners*
1,1,$1+$1,$2,$3*
1,1,$1+$1,$4,$5*
1,1,$1+$1,$6,$7*
1,1,$1+$1,$8,$9*
0 Add four rect primitives between the rounded corners*
20,1,$1+$1,$2,$3,$4,$5,0*
20,1,$1+$1,$4,$5,$6,$7,0*
20,1,$1+$1,$6,$7,$8,$9,0*
20,1,$1+$1,$8,$9,$2,$3,0*%
G04 Aperture macros list end*
%ADD10R,0.600000X1.450000*%
%ADD11R,0.300000X1.450000*%
%ADD12RoundRect,0.140000X0.140000X0.170000X-0.140000X0.170000X-0.140000X-0.170000X0.140000X-0.170000X0*%
%ADD13RoundRect,0.150000X-0.150000X0.587500X-0.150000X-0.587500X0.150000X-0.587500X0.150000X0.587500X0*%
%ADD14RoundRect,0.135000X-0.135000X-0.185000X0.135000X-0.185000X0.135000X0.185000X-0.135000X0.185000X0*%
%ADD15RoundRect,0.135000X-0.185000X0.135000X-0.185000X-0.135000X0.185000X-0.135000X0.185000X0.135000X0*%
%ADD16RoundRect,0.140000X-0.140000X-0.170000X0.140000X-0.170000X0.140000X0.170000X-0.140000X0.170000X0*%
%ADD17RoundRect,0.135000X0.135000X0.185000X-0.135000X0.185000X-0.135000X-0.185000X0.135000X-0.185000X0*%
%ADD18R,0.700000X1.200000*%
%ADD19R,1.000000X0.800000*%
%ADD20R,1.000000X2.800000*%
%ADD21R,1.000000X1.200000*%
%ADD22R,1.300000X1.900000*%
%ADD23RoundRect,0.140000X0.170000X-0.140000X0.170000X0.140000X-0.170000X0.140000X-0.170000X-0.140000X0*%
%ADD24RoundRect,0.140000X-0.170000X0.140000X-0.170000X-0.140000X0.170000X-0.140000X0.170000X0.140000X0*%
%ADD25RoundRect,0.135000X0.185000X-0.135000X0.185000X0.135000X-0.185000X0.135000X-0.185000X-0.135000X0*%
%ADD26R,2.500000X1.500000*%
%ADD27R,3.400000X1.500000*%
%ADD28RoundRect,0.112500X0.112500X-0.187500X0.112500X0.187500X-0.112500X0.187500X-0.112500X-0.187500X0*%
%ADD29RoundRect,0.150000X-0.587500X-0.150000X0.587500X-0.150000X0.587500X0.150000X-0.587500X0.150000X0*%
G04 #@! TA.AperFunction,Profile*
%ADD30C,0.150000*%
G04 #@! TD*
G04 APERTURE END LIST*
D10*
X115640000Y-34215000D03*
X116440000Y-34215000D03*
D11*
X117640000Y-34215000D03*
X118640000Y-34215000D03*
X119140000Y-34215000D03*
X120140000Y-34215000D03*
D10*
X121340000Y-34215000D03*
X122140000Y-34215000D03*
X122140000Y-34215000D03*
X121340000Y-34215000D03*
D11*
X120640000Y-34215000D03*
X119640000Y-34215000D03*
X118140000Y-34215000D03*
X117140000Y-34215000D03*
D10*
X116440000Y-34215000D03*
X115640000Y-34215000D03*
D12*
X98960000Y-37800000D03*
X98000000Y-37800000D03*
X98960000Y-43800000D03*
X98000000Y-43800000D03*
D13*
X98350000Y-30750000D03*
X100250000Y-30750000D03*
X99300000Y-32625000D03*
D14*
X98140000Y-29150000D03*
X99160000Y-29150000D03*
D15*
X120000000Y-40290000D03*
X120000000Y-41310000D03*
D12*
X98960000Y-40800000D03*
X98000000Y-40800000D03*
D16*
X97920000Y-34600000D03*
X98880000Y-34600000D03*
D12*
X98960000Y-38800000D03*
X98000000Y-38800000D03*
D17*
X98880000Y-35800000D03*
X97860000Y-35800000D03*
D15*
X118300000Y-40290000D03*
X118300000Y-41310000D03*
D18*
X89685000Y-44265000D03*
X88585000Y-44265000D03*
X87485000Y-44265000D03*
X86385000Y-44265000D03*
X85285000Y-44265000D03*
X84185000Y-44265000D03*
X83085000Y-44265000D03*
X81985000Y-44265000D03*
X81035000Y-44265000D03*
D19*
X80085000Y-33765000D03*
D20*
X80085000Y-29615000D03*
D21*
X80085000Y-39965000D03*
X91235000Y-44265000D03*
D22*
X93585000Y-29165000D03*
D23*
X101600000Y-37160000D03*
X101600000Y-36200000D03*
D24*
X96880000Y-35920000D03*
X96880000Y-36880000D03*
D12*
X98960000Y-39800000D03*
X98000000Y-39800000D03*
D25*
X101600000Y-35220000D03*
X101600000Y-34200000D03*
D26*
X111675000Y-33375000D03*
D27*
X105025000Y-30675000D03*
D26*
X111675000Y-38475000D03*
X104375000Y-37175000D03*
X111675000Y-30675000D03*
D27*
X104825000Y-39375000D03*
D28*
X96450000Y-33000000D03*
X96450000Y-30900000D03*
D25*
X101600000Y-39910000D03*
X101600000Y-38890000D03*
D12*
X98960000Y-36800000D03*
X98000000Y-36800000D03*
D23*
X101600000Y-42480000D03*
X101600000Y-41520000D03*
D29*
X123525000Y-38350000D03*
X123525000Y-36450000D03*
X125400000Y-37400000D03*
D12*
X98960000Y-42800000D03*
X98000000Y-42800000D03*
D13*
X118250000Y-36862500D03*
X120150000Y-36862500D03*
X119200000Y-38737500D03*
D12*
X98960000Y-41800000D03*
X98000000Y-41800000D03*
D30*
X128250000Y-80225000D02*
X128250000Y-30425000D01*
X128250000Y-30425000D02*
X124250000Y-30425000D01*
X77950000Y-88825000D02*
X77950000Y-80225000D01*
X127150000Y-88825000D02*
X127150000Y-80225000D01*
X76850000Y-80225000D02*
X76850000Y-27825000D01*
X124250000Y-27825000D02*
X124250000Y-30425000D01*
X77950000Y-88825000D02*
X127150000Y-88825000D01*
X76850000Y-27825000D02*
X124250000Y-27825000D01*
X127150000Y-80225000D02*
X128250000Y-80225000D01*
X77950000Y-80225000D02*
X76850000Y-80225000D01*
M02*
