G04 #@! TF.GenerationSoftware,KiCad,Pcbnew,7.0.10*
G04 #@! TF.CreationDate,2024-04-17T21:52:57+03:00*
G04 #@! TF.ProjectId,GAMEBOY_STM32_CART,47414d45-424f-4595-9f53-544d33325f43,v5.1*
G04 #@! TF.SameCoordinates,Original*
G04 #@! TF.FileFunction,Copper,L2,Inr*
G04 #@! TF.FilePolarity,Positive*
%FSLAX46Y46*%
G04 Gerber Fmt 4.6, Leading zero omitted, Abs format (unit mm)*
G04 Created by KiCad (PCBNEW 7.0.10) date 2024-04-17 21:52:57*
%MOMM*%
%LPD*%
G01*
G04 APERTURE LIST*
G04 #@! TA.AperFunction,ComponentPad*
%ADD10O,1.000000X1.600000*%
G04 #@! TD*
G04 #@! TA.AperFunction,ComponentPad*
%ADD11O,1.000000X2.100000*%
G04 #@! TD*
G04 #@! TA.AperFunction,ViaPad*
%ADD12C,0.600000*%
G04 #@! TD*
G04 #@! TA.AperFunction,ViaPad*
%ADD13C,0.800000*%
G04 #@! TD*
G04 #@! TA.AperFunction,Conductor*
%ADD14C,0.200000*%
G04 #@! TD*
G04 #@! TA.AperFunction,Conductor*
%ADD15C,0.800000*%
G04 #@! TD*
G04 #@! TA.AperFunction,Conductor*
%ADD16C,0.400000*%
G04 #@! TD*
G04 #@! TA.AperFunction,Conductor*
%ADD17C,0.254000*%
G04 #@! TD*
G04 #@! TA.AperFunction,Profile*
%ADD18C,0.150000*%
G04 #@! TD*
G04 APERTURE END LIST*
D10*
X114570000Y-29120000D03*
D11*
X114570000Y-33300000D03*
D10*
X123210000Y-29120000D03*
D11*
X123210000Y-33300000D03*
D12*
X112400000Y-28800000D03*
X119100000Y-29300000D03*
X115800000Y-29373000D03*
X91700000Y-58600000D03*
X93200000Y-57400000D03*
X101800000Y-67400000D03*
X105900000Y-67300000D03*
X105000000Y-68000000D03*
X107000000Y-68000000D03*
X105400000Y-54800000D03*
X116400000Y-60300000D03*
X118400000Y-61200000D03*
X118400000Y-59500000D03*
X117500000Y-57800000D03*
X117400000Y-59500000D03*
X117400000Y-61200000D03*
X117400000Y-62400000D03*
X116000000Y-62400000D03*
X114300000Y-62400000D03*
X113000000Y-62400000D03*
X113000000Y-61200000D03*
X108600000Y-61300000D03*
X111200000Y-61700000D03*
X111200000Y-60200000D03*
X111200000Y-58900000D03*
X111200000Y-57800000D03*
X111200000Y-56700000D03*
X110100000Y-56700000D03*
X110100000Y-57800000D03*
X110100000Y-59000000D03*
X110100000Y-60300000D03*
X110100000Y-61700000D03*
X77527207Y-47100000D03*
X78100000Y-59300000D03*
X106400000Y-37800000D03*
X110000000Y-39800000D03*
X102900000Y-40603990D03*
X100900000Y-44400000D03*
X94700000Y-40400000D03*
X87000000Y-30300000D03*
X82200000Y-30100000D03*
X90300000Y-37000000D03*
X89100000Y-35600000D03*
X88700000Y-31800000D03*
X101600000Y-28600000D03*
X102700000Y-34200000D03*
X102700000Y-32900000D03*
X106700000Y-32500000D03*
X104100000Y-33200000D03*
X103900000Y-32200000D03*
X104700000Y-35100000D03*
X88200000Y-40200000D03*
X92000000Y-81100000D03*
X90600000Y-81100000D03*
X89000000Y-81200000D03*
X110500000Y-71000000D03*
X107500000Y-73500000D03*
X107800000Y-77900000D03*
X109300000Y-77800000D03*
X106600000Y-77900000D03*
X104300000Y-78000000D03*
X102100000Y-80900000D03*
X99400000Y-81300000D03*
X98000000Y-81100000D03*
X96500000Y-80700000D03*
X95100000Y-80700000D03*
X93500000Y-80800000D03*
X125900000Y-51700000D03*
X125800000Y-52700000D03*
X125800000Y-55600000D03*
X125900000Y-56700000D03*
X125800000Y-58300000D03*
X116600000Y-64600000D03*
X123100000Y-64600000D03*
X124700000Y-64100000D03*
X125800000Y-63100000D03*
X125900000Y-61300000D03*
X125900000Y-59500000D03*
X121600000Y-61500000D03*
X121600000Y-60200000D03*
X120400000Y-56000000D03*
X120300000Y-54400000D03*
X119600000Y-55100000D03*
X120900000Y-55000000D03*
X118700000Y-46700000D03*
X114400000Y-44400000D03*
X116600000Y-45200000D03*
X116700000Y-44300000D03*
X118650000Y-45600000D03*
X122500000Y-46500000D03*
X121000000Y-46500000D03*
X121000000Y-44500000D03*
X122500000Y-40000000D03*
X120150000Y-39500000D03*
X117565687Y-39565687D03*
X119048476Y-37503795D03*
X126000000Y-34000000D03*
X122000000Y-36500000D03*
X114000000Y-36500000D03*
X111500000Y-36500000D03*
X111500000Y-35500000D03*
X110500000Y-35000000D03*
X108000000Y-34500000D03*
X108000000Y-35500000D03*
X109000000Y-35500000D03*
X107000000Y-35500000D03*
X106000000Y-35500000D03*
X107500000Y-32000000D03*
X110500000Y-28500000D03*
X106000000Y-28500000D03*
X103500000Y-28500000D03*
X78000000Y-40500000D03*
X78000000Y-37500000D03*
X78000000Y-35000000D03*
X78000000Y-32500000D03*
X78000000Y-30500000D03*
X89500000Y-33000000D03*
X90500000Y-33000000D03*
X90500000Y-31500000D03*
X92000000Y-37500000D03*
X92000000Y-36000000D03*
X92000000Y-34500000D03*
X97000000Y-39500000D03*
X97000000Y-40500000D03*
X96300000Y-43300000D03*
X97000000Y-42500000D03*
X95500000Y-42500000D03*
X93000000Y-42000000D03*
X97500000Y-64000000D03*
X96000000Y-62500000D03*
X94000000Y-58000000D03*
X92500000Y-58000000D03*
X95000000Y-50500000D03*
X92000000Y-50000000D03*
X94000000Y-52000000D03*
X92000000Y-52000000D03*
X94000000Y-51000000D03*
X92000000Y-51000000D03*
X82000000Y-78000000D03*
X82000000Y-76000000D03*
X82000000Y-74500000D03*
X82000000Y-73500000D03*
X83000000Y-78000000D03*
X83000000Y-76000000D03*
X83000000Y-74500000D03*
X83000000Y-72500000D03*
X92000000Y-71000000D03*
X93000000Y-70000000D03*
X98000000Y-74500000D03*
X98000000Y-72500000D03*
X107000000Y-71000000D03*
X110500000Y-73500000D03*
X110500000Y-76500000D03*
X107500000Y-76500000D03*
X126000000Y-78500000D03*
X123000000Y-74500000D03*
X126000000Y-77000000D03*
X126000000Y-74500000D03*
X119500000Y-72000000D03*
X123000000Y-72500000D03*
X126000000Y-72500000D03*
X126000000Y-70000000D03*
X123000000Y-69500000D03*
X119500000Y-69500000D03*
X126000000Y-68000000D03*
X122500000Y-68000000D03*
X119500000Y-68000000D03*
X117000000Y-68000000D03*
X113000000Y-72900000D03*
X119000000Y-78000000D03*
X119000000Y-76500000D03*
X116000000Y-77000000D03*
X116000000Y-75000000D03*
X113000000Y-76500000D03*
X113000000Y-74500000D03*
X109000000Y-76500000D03*
X109000000Y-73500000D03*
X109000000Y-71000000D03*
X96800000Y-38000000D03*
X99600000Y-34000000D03*
X96000000Y-34800000D03*
X94200000Y-35200000D03*
X107600000Y-28800000D03*
X122400000Y-53200000D03*
X114800000Y-57400000D03*
X114600000Y-56400000D03*
X114800000Y-53400000D03*
X114800000Y-54400000D03*
X116200000Y-59000000D03*
X123950000Y-58400000D03*
X100812500Y-68400000D03*
X114800000Y-64400000D03*
X104600000Y-55200000D03*
X106800000Y-57200000D03*
X114000000Y-67000000D03*
X112824265Y-64800000D03*
X126519000Y-35000000D03*
X125200000Y-33400000D03*
X124400000Y-34200000D03*
X117842414Y-33012276D03*
X116440000Y-35560000D03*
X121420741Y-35388889D03*
X106600000Y-34400000D03*
X119600000Y-30627000D03*
X122200000Y-29200000D03*
X77400000Y-48400000D03*
X84400000Y-53000000D03*
X77400000Y-66000000D03*
X77400000Y-63000000D03*
X91600000Y-70000000D03*
X107800000Y-48400000D03*
X101200000Y-51600000D03*
X116200000Y-52600000D03*
X117907107Y-47107107D03*
X117907107Y-46307107D03*
X113400000Y-54200000D03*
X113400000Y-53400000D03*
X100622975Y-53951599D03*
X99758201Y-53406685D03*
X99837628Y-54334642D03*
X101300000Y-54438000D03*
X97681072Y-62120537D03*
X98246758Y-61554851D03*
X99150000Y-30750000D03*
X108400000Y-43800000D03*
X107600000Y-43800000D03*
X100400000Y-28600000D03*
X82000000Y-68000000D03*
X80000000Y-44865000D03*
X86200000Y-43400000D03*
X93907108Y-43707108D03*
X88600000Y-48600000D03*
X93424265Y-48375735D03*
X99800000Y-44000000D03*
X117350000Y-53400000D03*
X114650000Y-55300000D03*
X101600000Y-38000000D03*
X120600000Y-47200000D03*
X119400000Y-47400000D03*
X102175735Y-42624265D03*
X118650000Y-62800000D03*
X103850000Y-35850000D03*
D13*
X124200000Y-79200000D03*
X122800000Y-80200000D03*
X120800000Y-79000000D03*
X119800000Y-80200000D03*
X118000000Y-79000000D03*
X98751124Y-58663669D03*
X100000000Y-58838000D03*
X116600000Y-79800000D03*
X115000000Y-79000000D03*
X98400000Y-59600000D03*
X113800000Y-79800000D03*
X99200000Y-60200000D03*
X112200000Y-79200000D03*
X99078698Y-61200000D03*
X110600000Y-79400000D03*
X99600000Y-62200000D03*
D12*
X85184886Y-52200000D03*
D13*
X109200000Y-79600000D03*
D12*
X84734358Y-51443761D03*
D13*
X107800000Y-79200000D03*
D12*
X85400000Y-51000000D03*
D13*
X106000000Y-78900000D03*
X101800000Y-78500000D03*
X94400000Y-54200000D03*
X100000000Y-78400000D03*
X93400000Y-54000000D03*
X92200000Y-53400000D03*
X98800000Y-78500000D03*
X104000000Y-41000000D03*
X105000000Y-41000000D03*
X79400000Y-81200000D03*
X105000000Y-42000000D03*
X104000000Y-42000000D03*
X80000000Y-79200000D03*
X106000000Y-41000000D03*
X106000000Y-42000000D03*
X78800000Y-79200000D03*
X80000000Y-80400000D03*
X77600000Y-79200000D03*
X78800000Y-80400000D03*
X91200000Y-53200000D03*
X97800000Y-78500000D03*
X96644975Y-78500000D03*
X90000000Y-52600000D03*
X89611319Y-51657116D03*
X95600000Y-78500000D03*
X94400000Y-78500000D03*
X88900000Y-50700834D03*
X93400000Y-78500000D03*
X89848422Y-50383815D03*
X90600000Y-49600000D03*
X92000000Y-78500000D03*
D12*
X84955690Y-54450188D03*
D13*
X86255025Y-79210660D03*
X86800000Y-80400000D03*
D12*
X85668328Y-53863343D03*
X85173718Y-56177752D03*
D13*
X85200000Y-81000000D03*
D12*
X84600000Y-57300000D03*
D13*
X83800000Y-81200000D03*
D12*
X84147128Y-58110750D03*
D13*
X82400000Y-81000000D03*
X81400000Y-80800000D03*
D12*
X84000000Y-59200000D03*
D13*
X95000000Y-61800000D03*
X125400000Y-39600000D03*
X125300000Y-44800000D03*
X93607109Y-62400000D03*
X124000000Y-39800000D03*
X92907109Y-61492891D03*
X123900000Y-45000000D03*
X92200000Y-62200000D03*
X91700000Y-63200000D03*
X121800000Y-38600000D03*
D12*
X127400000Y-65800000D03*
X126824265Y-65200000D03*
X126224265Y-64624265D03*
X83200000Y-59000000D03*
X120820000Y-40368168D03*
X83367158Y-57932842D03*
X117000000Y-39000000D03*
X110275735Y-45075735D03*
X83600456Y-57095407D03*
X83342892Y-56338000D03*
X113800000Y-39400000D03*
X84200000Y-56000000D03*
X112000000Y-45400000D03*
X112800000Y-40000000D03*
X84800000Y-55400000D03*
X84200000Y-54738000D03*
X113200000Y-44800000D03*
X79178677Y-45178677D03*
X81852983Y-69158949D03*
X83600000Y-61600000D03*
X82200000Y-43400000D03*
X83600000Y-60800000D03*
X83200000Y-43400000D03*
X85102793Y-41129001D03*
X81800000Y-71800000D03*
X87400000Y-43400000D03*
X80600000Y-66600000D03*
X81800000Y-70800000D03*
X89200000Y-42200000D03*
X81787087Y-69956233D03*
X91200000Y-43164998D03*
X104200000Y-52800000D03*
X123071660Y-62126870D03*
D13*
X97000000Y-68400000D03*
X99200000Y-69000000D03*
D12*
X123950000Y-61900000D03*
X105000000Y-52200000D03*
X121950000Y-52350000D03*
X105800000Y-51600000D03*
X122850000Y-52500000D03*
D13*
X94800000Y-64600000D03*
X91800000Y-73400000D03*
X95800000Y-64000000D03*
X96300000Y-74000000D03*
X96600000Y-64800000D03*
X91800030Y-72203500D03*
X97400000Y-65400000D03*
X97000000Y-72200000D03*
D12*
X123000000Y-48400000D03*
X85400000Y-48800000D03*
X123850000Y-52450000D03*
X84400000Y-49000000D03*
X122200000Y-47600000D03*
X83600000Y-60000000D03*
X122707108Y-57942892D03*
X100400000Y-51600000D03*
X88400000Y-41800000D03*
X86200000Y-41000000D03*
D13*
X98300000Y-57734579D03*
X125800000Y-80000000D03*
D12*
X82800000Y-64600000D03*
X77400000Y-64000000D03*
X93400000Y-68340000D03*
X105600000Y-55800000D03*
D13*
X92078772Y-42605056D03*
D12*
X94600000Y-43200000D03*
D14*
X116800000Y-38800000D02*
X117000000Y-39000000D01*
X111800000Y-39434314D02*
X112434314Y-38800000D01*
X111800000Y-43834314D02*
X111800000Y-39434314D01*
X110200000Y-44200000D02*
X111434314Y-44200000D01*
X109000000Y-45400000D02*
X110200000Y-44200000D01*
X82331370Y-46200000D02*
X82771572Y-46200000D01*
X81800000Y-45668630D02*
X82331370Y-46200000D01*
X83571574Y-45400000D02*
X109000000Y-45400000D01*
X112434314Y-38800000D02*
X116800000Y-38800000D01*
X81800000Y-56648529D02*
X81800000Y-45668630D01*
X83084313Y-57932842D02*
X81800000Y-56648529D01*
X83367158Y-57932842D02*
X83084313Y-57932842D01*
X111434314Y-44200000D02*
X111800000Y-43834314D01*
X82771572Y-46200000D02*
X83571574Y-45400000D01*
X109551470Y-45800000D02*
X110275735Y-45075735D01*
X82200000Y-47337257D02*
X83737259Y-45800000D01*
X83443049Y-56938000D02*
X83094363Y-56938000D01*
X83600456Y-57095407D02*
X83443049Y-56938000D01*
X82200000Y-56043637D02*
X82200000Y-47337257D01*
X83737259Y-45800000D02*
X109551470Y-45800000D01*
X83094363Y-56938000D02*
X82200000Y-56043637D01*
X112400000Y-39400000D02*
X113800000Y-39400000D01*
X112200000Y-39600000D02*
X112400000Y-39400000D01*
X82600000Y-47502942D02*
X83902944Y-46200000D01*
X82600000Y-55595108D02*
X82600000Y-47502942D01*
X83342892Y-56338000D02*
X82600000Y-55595108D01*
X83902944Y-46200000D02*
X110000000Y-46200000D01*
X110000000Y-46200000D02*
X112200000Y-44000000D01*
X112200000Y-44000000D02*
X112200000Y-39600000D01*
X112000000Y-46034314D02*
X112000000Y-45400000D01*
X111434314Y-46600000D02*
X112000000Y-46034314D01*
X83000000Y-47668628D02*
X84068629Y-46600000D01*
X83000000Y-54965686D02*
X83000000Y-47668628D01*
X84200000Y-56000000D02*
X84034314Y-56000000D01*
X84034314Y-56000000D02*
X83000000Y-54965686D01*
X84068629Y-46600000D02*
X111434314Y-46600000D01*
X80200000Y-71800000D02*
X81800000Y-71800000D01*
X79200000Y-59525485D02*
X79200000Y-70800000D01*
X77378677Y-45924261D02*
X78127207Y-46672793D01*
X78127207Y-58452692D02*
X79200000Y-59525485D01*
X77378677Y-44055637D02*
X77378677Y-45924261D01*
X80305313Y-41129001D02*
X77378677Y-44055637D01*
X78127207Y-46672793D02*
X78127207Y-58452692D01*
X85102793Y-41129001D02*
X80305313Y-41129001D01*
X79200000Y-70800000D02*
X80200000Y-71800000D01*
X89200000Y-41400000D02*
X89200000Y-42200000D01*
X89000000Y-41200000D02*
X89200000Y-41400000D01*
X88151471Y-41200000D02*
X89000000Y-41200000D01*
X87351471Y-42000000D02*
X88151471Y-41200000D01*
X80000000Y-42000000D02*
X87351471Y-42000000D01*
X77778677Y-44221323D02*
X80000000Y-42000000D01*
X78600000Y-46579901D02*
X77778677Y-45758576D01*
X77778677Y-45758576D02*
X77778677Y-44221323D01*
X79600000Y-70000000D02*
X79600000Y-59359800D01*
X80400000Y-70800000D02*
X79600000Y-70000000D01*
X79600000Y-59359800D02*
X78600000Y-58359798D01*
X81800000Y-70800000D02*
X80400000Y-70800000D01*
X78600000Y-58359798D02*
X78600000Y-46579901D01*
X90835002Y-42800000D02*
X91200000Y-43164998D01*
X88951471Y-42800000D02*
X90835002Y-42800000D01*
X88551471Y-42400000D02*
X88951471Y-42800000D01*
X80165686Y-42400000D02*
X88551471Y-42400000D01*
X78178677Y-44387009D02*
X80165686Y-42400000D01*
X79000000Y-46414215D02*
X78178677Y-45592891D01*
X78178677Y-45592891D02*
X78178677Y-44387009D01*
X79000000Y-58194113D02*
X79000000Y-46414215D01*
X80000000Y-59194115D02*
X79000000Y-58194113D01*
X80000000Y-69400000D02*
X80000000Y-59194115D01*
X80556233Y-69956233D02*
X80000000Y-69400000D01*
X81787087Y-69956233D02*
X80556233Y-69956233D01*
X86800000Y-42800000D02*
X87400000Y-43400000D01*
X78578677Y-44930148D02*
X80708825Y-42800000D01*
X79400000Y-46248529D02*
X78578677Y-45427206D01*
X78578677Y-45427206D02*
X78578677Y-44930148D01*
X80708825Y-42800000D02*
X86800000Y-42800000D01*
X80400000Y-66400000D02*
X80400000Y-59028430D01*
X80400000Y-59028430D02*
X79400000Y-58028428D01*
X79400000Y-58028428D02*
X79400000Y-46248529D01*
X80600000Y-66600000D02*
X80400000Y-66400000D01*
X81510420Y-69158949D02*
X81852983Y-69158949D01*
X79800000Y-57862743D02*
X81200000Y-59262744D01*
X81200000Y-68848529D02*
X81510420Y-69158949D01*
X79178677Y-45178677D02*
X79800000Y-45800000D01*
X79800000Y-45800000D02*
X79800000Y-57862743D01*
X81200000Y-59262744D02*
X81200000Y-68848529D01*
X80200000Y-45065000D02*
X80000000Y-44865000D01*
X80200000Y-57697057D02*
X80200000Y-45065000D01*
X81600000Y-67600000D02*
X81600000Y-59097058D01*
X81600000Y-59097058D02*
X80200000Y-57697057D01*
X82000000Y-68000000D02*
X81600000Y-67600000D01*
X82200000Y-60248529D02*
X83551471Y-61600000D01*
X82200000Y-59131372D02*
X82200000Y-60248529D01*
X80600000Y-57531372D02*
X82200000Y-59131372D01*
X80600000Y-45171572D02*
X80600000Y-57531372D01*
X81800000Y-43971571D02*
X80600000Y-45171572D01*
X81800000Y-43800000D02*
X81800000Y-43971571D01*
X83551471Y-61600000D02*
X83600000Y-61600000D01*
X82200000Y-43400000D02*
X81800000Y-43800000D01*
D15*
X102078677Y-43800000D02*
X108400000Y-43800000D01*
X100600000Y-42321323D02*
X102078677Y-43800000D01*
X100600000Y-39500000D02*
X100600000Y-42321323D01*
D16*
X90500000Y-40200000D02*
X88200000Y-40200000D01*
X91900000Y-38800000D02*
X90500000Y-40200000D01*
X99900000Y-38800000D02*
X91900000Y-38800000D01*
X100600000Y-39500000D02*
X99900000Y-38800000D01*
D15*
X100600000Y-31200000D02*
X100600000Y-39500000D01*
D14*
X83200000Y-58614214D02*
X83200000Y-59000000D01*
X81400000Y-45502944D02*
X81400000Y-56814214D01*
X81902945Y-45000000D02*
X81400000Y-45502944D01*
X108834315Y-45000000D02*
X81902945Y-45000000D01*
X81400000Y-56814214D02*
X83200000Y-58614214D01*
X111400000Y-39268628D02*
X111400000Y-42434315D01*
X118048529Y-38400000D02*
X112268628Y-38400000D01*
X118400000Y-38751471D02*
X118048529Y-38400000D01*
X112268628Y-38400000D02*
X111400000Y-39268628D01*
X111400000Y-42434315D02*
X108834315Y-45000000D01*
X119368168Y-40368168D02*
X118400000Y-39400000D01*
X120820000Y-40368168D02*
X119368168Y-40368168D01*
X118400000Y-39400000D02*
X118400000Y-38751471D01*
D15*
X99400000Y-31000000D02*
X100400000Y-31000000D01*
X99150000Y-30750000D02*
X99400000Y-31000000D01*
X100400000Y-31000000D02*
X100600000Y-31200000D01*
D14*
X121800000Y-48000000D02*
X122200000Y-47600000D01*
X116000000Y-48000000D02*
X121800000Y-48000000D01*
X115800000Y-47800000D02*
X116000000Y-48000000D01*
X94800000Y-49000000D02*
X96000000Y-47800000D01*
X96000000Y-47800000D02*
X115800000Y-47800000D01*
X90410050Y-48800000D02*
X93000001Y-48800000D01*
X93000001Y-48800000D02*
X93200001Y-49000000D01*
X93200001Y-49000000D02*
X94800000Y-49000000D01*
X84800000Y-49400000D02*
X89810050Y-49400000D01*
X89810050Y-49400000D02*
X90410050Y-48800000D01*
X84400000Y-49000000D02*
X84800000Y-49400000D01*
X101000000Y-68212500D02*
X101000000Y-64800000D01*
X100812500Y-68400000D02*
X101000000Y-68212500D01*
X101000000Y-64800000D02*
X101600000Y-64200000D01*
X101600000Y-64200000D02*
X114600000Y-64200000D01*
X114600000Y-64200000D02*
X114800000Y-64400000D01*
X101200000Y-53000000D02*
X102200000Y-54000000D01*
D17*
X101200000Y-51200000D02*
X101200000Y-49000000D01*
D14*
X102200000Y-54000000D02*
X102200000Y-54400000D01*
D17*
X101200000Y-51600000D02*
X101200000Y-51200000D01*
D14*
X101200000Y-51200000D02*
X101200000Y-53000000D01*
X102200000Y-54400000D02*
X103000000Y-55200000D01*
X103000000Y-55200000D02*
X104600000Y-55200000D01*
X98800000Y-64034314D02*
X98800000Y-66600000D01*
X99434314Y-63400000D02*
X98800000Y-64034314D01*
X117835784Y-63400000D02*
X99434314Y-63400000D01*
X118235785Y-63800000D02*
X117835784Y-63400000D01*
X121398530Y-63800000D02*
X118235785Y-63800000D01*
X98800000Y-66600000D02*
X97000000Y-68400000D01*
X123071660Y-62126870D02*
X121398530Y-63800000D01*
X99600000Y-63800000D02*
X99200000Y-64200000D01*
X117670099Y-63800000D02*
X99600000Y-63800000D01*
X118070099Y-64200000D02*
X117670099Y-63800000D01*
X122150000Y-64200000D02*
X118070099Y-64200000D01*
X123950000Y-61900000D02*
X123950000Y-62400000D01*
X123950000Y-62400000D02*
X122150000Y-64200000D01*
X99200000Y-64200000D02*
X99200000Y-69000000D01*
X94400000Y-60000000D02*
X83600000Y-60000000D01*
X97400000Y-63000000D02*
X94400000Y-60000000D01*
X118001471Y-63000000D02*
X97400000Y-63000000D01*
X118401471Y-63400000D02*
X118001471Y-63000000D01*
X120950000Y-63400000D02*
X118401471Y-63400000D01*
X122707108Y-61642892D02*
X120950000Y-63400000D01*
X122707108Y-57942892D02*
X122707108Y-61642892D01*
D17*
X101800000Y-48400000D02*
X107800000Y-48400000D01*
X101200000Y-49000000D02*
X101800000Y-48400000D01*
D16*
X77400000Y-66000000D02*
X78100000Y-65300000D01*
X78100000Y-65300000D02*
X78100000Y-63700000D01*
X78100000Y-63700000D02*
X77400000Y-63000000D01*
D14*
X89000000Y-47800000D02*
X92800000Y-47800000D01*
X92800000Y-47800000D02*
X93375735Y-48375735D01*
X93375735Y-48375735D02*
X93424265Y-48375735D01*
X88600000Y-48200000D02*
X89000000Y-47800000D01*
X88600000Y-48600000D02*
X88600000Y-48200000D01*
X112600000Y-46000000D02*
X112600000Y-40200000D01*
X112600000Y-40200000D02*
X112800000Y-40000000D01*
X84800000Y-55400000D02*
X84000000Y-55400000D01*
X84234315Y-47000000D02*
X111600000Y-47000000D01*
X84000000Y-55400000D02*
X83400000Y-54800000D01*
X111600000Y-47000000D02*
X112600000Y-46000000D01*
X83400000Y-47834314D02*
X84234315Y-47000000D01*
X83400000Y-54800000D02*
X83400000Y-47834314D01*
X113200000Y-44800000D02*
X113200000Y-46400000D01*
X113200000Y-46400000D02*
X112200000Y-47400000D01*
X83800000Y-48000000D02*
X83800000Y-54338000D01*
X84400000Y-47400000D02*
X83800000Y-48000000D01*
X112200000Y-47400000D02*
X84400000Y-47400000D01*
X83800000Y-54338000D02*
X84200000Y-54738000D01*
X81000000Y-57365686D02*
X81000000Y-45337258D01*
X82600000Y-59848529D02*
X82600000Y-58965686D01*
X83551471Y-60800000D02*
X82600000Y-59848529D01*
X82600000Y-58965686D02*
X81000000Y-57365686D01*
X81000000Y-45337258D02*
X82137258Y-44200000D01*
X83600000Y-60800000D02*
X83551471Y-60800000D01*
X83200000Y-43800000D02*
X83200000Y-43400000D01*
X82800000Y-44200000D02*
X83200000Y-43800000D01*
X82137258Y-44200000D02*
X82800000Y-44200000D01*
G04 #@! TA.AperFunction,Conductor*
G36*
X99899507Y-28045185D02*
G01*
X99945262Y-28097989D01*
X99955206Y-28167147D01*
X99930844Y-28224986D01*
X99875464Y-28297157D01*
X99814956Y-28443237D01*
X99814955Y-28443239D01*
X99794318Y-28599998D01*
X99794318Y-28600001D01*
X99814955Y-28756760D01*
X99814956Y-28756762D01*
X99875464Y-28902841D01*
X99971718Y-29028282D01*
X100097159Y-29124536D01*
X100243238Y-29185044D01*
X100321619Y-29195363D01*
X100399999Y-29205682D01*
X100400000Y-29205682D01*
X100400001Y-29205682D01*
X100452254Y-29198802D01*
X100556762Y-29185044D01*
X100702841Y-29124536D01*
X100828282Y-29028282D01*
X100924536Y-28902841D01*
X100985044Y-28756762D01*
X101005682Y-28600000D01*
X101003874Y-28586269D01*
X100985044Y-28443239D01*
X100985044Y-28443238D01*
X100924536Y-28297159D01*
X100924535Y-28297158D01*
X100924535Y-28297157D01*
X100869156Y-28224986D01*
X100843962Y-28159817D01*
X100858000Y-28091372D01*
X100906814Y-28041383D01*
X100967532Y-28025500D01*
X113933060Y-28025500D01*
X114000099Y-28045185D01*
X114045854Y-28097989D01*
X114055798Y-28167147D01*
X114026773Y-28230703D01*
X114020741Y-28237181D01*
X113940184Y-28317737D01*
X113844211Y-28470476D01*
X113784631Y-28640745D01*
X113784630Y-28640750D01*
X113769500Y-28775039D01*
X113769500Y-29464960D01*
X113784630Y-29599249D01*
X113784631Y-29599254D01*
X113844211Y-29769523D01*
X113881337Y-29828608D01*
X113940184Y-29922262D01*
X114067738Y-30049816D01*
X114220478Y-30145789D01*
X114359766Y-30194528D01*
X114390745Y-30205368D01*
X114390750Y-30205369D01*
X114569996Y-30225565D01*
X114570000Y-30225565D01*
X114570004Y-30225565D01*
X114749249Y-30205369D01*
X114749252Y-30205368D01*
X114749255Y-30205368D01*
X114919522Y-30145789D01*
X115072262Y-30049816D01*
X115199816Y-29922262D01*
X115295789Y-29769522D01*
X115355368Y-29599255D01*
X115370500Y-29464954D01*
X115370500Y-28775046D01*
X115359280Y-28675463D01*
X115355369Y-28640750D01*
X115355368Y-28640745D01*
X115295788Y-28470476D01*
X115199815Y-28317737D01*
X115119259Y-28237181D01*
X115085774Y-28175858D01*
X115090758Y-28106166D01*
X115132630Y-28050233D01*
X115198094Y-28025816D01*
X115206940Y-28025500D01*
X122573060Y-28025500D01*
X122640099Y-28045185D01*
X122685854Y-28097989D01*
X122695798Y-28167147D01*
X122666773Y-28230703D01*
X122660741Y-28237181D01*
X122580184Y-28317737D01*
X122484209Y-28470479D01*
X122463559Y-28529493D01*
X122422836Y-28586269D01*
X122357883Y-28612015D01*
X122330333Y-28611476D01*
X122200001Y-28594318D01*
X122199999Y-28594318D01*
X122043239Y-28614955D01*
X122043237Y-28614956D01*
X121897160Y-28675463D01*
X121771718Y-28771718D01*
X121675463Y-28897160D01*
X121614956Y-29043237D01*
X121614955Y-29043239D01*
X121594318Y-29199998D01*
X121594318Y-29200001D01*
X121614955Y-29356760D01*
X121614956Y-29356762D01*
X121675464Y-29502841D01*
X121771718Y-29628282D01*
X121897159Y-29724536D01*
X122043238Y-29785044D01*
X122121619Y-29795363D01*
X122199999Y-29805682D01*
X122200000Y-29805682D01*
X122200001Y-29805682D01*
X122216337Y-29803531D01*
X122356762Y-29785044D01*
X122368889Y-29780020D01*
X122438355Y-29772549D01*
X122500836Y-29803821D01*
X122521334Y-29828604D01*
X122580184Y-29922262D01*
X122707738Y-30049816D01*
X122860478Y-30145789D01*
X122999766Y-30194528D01*
X123030745Y-30205368D01*
X123030750Y-30205369D01*
X123209996Y-30225565D01*
X123210000Y-30225565D01*
X123210004Y-30225565D01*
X123389249Y-30205369D01*
X123389252Y-30205368D01*
X123389255Y-30205368D01*
X123559522Y-30145789D01*
X123712262Y-30049816D01*
X123837819Y-29924259D01*
X123899142Y-29890774D01*
X123968834Y-29895758D01*
X124024767Y-29937630D01*
X124049184Y-30003094D01*
X124049500Y-30011940D01*
X124049500Y-30379237D01*
X124049500Y-30470763D01*
X124050008Y-30471817D01*
X124053493Y-30479054D01*
X124062660Y-30505253D01*
X124064710Y-30514231D01*
X124064711Y-30514233D01*
X124064712Y-30514234D01*
X124070449Y-30521428D01*
X124085218Y-30544931D01*
X124089211Y-30553223D01*
X124089212Y-30553224D01*
X124096406Y-30558961D01*
X124116038Y-30578593D01*
X124121776Y-30585788D01*
X124130065Y-30589779D01*
X124153570Y-30604549D01*
X124160769Y-30610290D01*
X124169743Y-30612338D01*
X124195944Y-30621506D01*
X124204237Y-30625500D01*
X124227410Y-30625500D01*
X127925500Y-30625500D01*
X127992539Y-30645185D01*
X128038294Y-30697989D01*
X128049500Y-30749500D01*
X128049500Y-65294723D01*
X128029815Y-65361762D01*
X127977011Y-65407517D01*
X127907853Y-65417461D01*
X127844297Y-65388436D01*
X127832833Y-65376269D01*
X127828286Y-65371722D01*
X127828283Y-65371720D01*
X127828282Y-65371718D01*
X127702841Y-65275464D01*
X127556762Y-65214956D01*
X127548924Y-65213924D01*
X127524044Y-65210648D01*
X127460149Y-65182379D01*
X127421679Y-65124054D01*
X127417294Y-65103894D01*
X127409309Y-65043238D01*
X127348801Y-64897159D01*
X127252547Y-64771718D01*
X127127106Y-64675464D01*
X127125249Y-64674695D01*
X127056604Y-64646261D01*
X126981027Y-64614956D01*
X126949787Y-64610843D01*
X126920368Y-64606970D01*
X126856472Y-64578703D01*
X126818001Y-64520379D01*
X126813615Y-64500214D01*
X126809309Y-64467505D01*
X126809309Y-64467504D01*
X126809309Y-64467503D01*
X126748801Y-64321424D01*
X126652547Y-64195983D01*
X126527106Y-64099729D01*
X126526553Y-64099500D01*
X126381027Y-64039221D01*
X126381025Y-64039220D01*
X126224266Y-64018583D01*
X126224264Y-64018583D01*
X126067504Y-64039220D01*
X126067502Y-64039221D01*
X125921425Y-64099728D01*
X125795983Y-64195983D01*
X125699728Y-64321425D01*
X125639221Y-64467502D01*
X125639220Y-64467504D01*
X125618583Y-64624263D01*
X125618583Y-64624266D01*
X125639220Y-64781025D01*
X125639221Y-64781027D01*
X125687324Y-64897159D01*
X125699729Y-64927106D01*
X125795983Y-65052547D01*
X125921424Y-65148801D01*
X126067503Y-65209309D01*
X126128159Y-65217294D01*
X126192055Y-65245560D01*
X126230527Y-65303884D01*
X126234913Y-65324044D01*
X126238189Y-65348924D01*
X126239221Y-65356762D01*
X126299729Y-65502841D01*
X126395983Y-65628282D01*
X126521424Y-65724536D01*
X126667503Y-65785044D01*
X126700215Y-65789350D01*
X126764111Y-65817615D01*
X126802583Y-65875939D01*
X126806970Y-65896103D01*
X126814956Y-65956761D01*
X126814956Y-65956762D01*
X126869254Y-66087850D01*
X126875464Y-66102841D01*
X126971718Y-66228282D01*
X127097159Y-66324536D01*
X127243238Y-66385044D01*
X127313681Y-66394318D01*
X127399999Y-66405682D01*
X127400000Y-66405682D01*
X127400001Y-66405682D01*
X127452254Y-66398802D01*
X127556762Y-66385044D01*
X127702841Y-66324536D01*
X127828282Y-66228282D01*
X127828286Y-66228277D01*
X127834029Y-66222535D01*
X127835309Y-66223815D01*
X127883543Y-66188590D01*
X127953289Y-66184430D01*
X128014212Y-66218638D01*
X128046969Y-66280352D01*
X128049500Y-66305276D01*
X128049500Y-79900500D01*
X128029815Y-79967539D01*
X127977011Y-80013294D01*
X127925500Y-80024500D01*
X127195763Y-80024500D01*
X127104237Y-80024500D01*
X127104235Y-80024500D01*
X127104233Y-80024501D01*
X127095939Y-80028495D01*
X127069745Y-80037660D01*
X127060769Y-80039709D01*
X127053566Y-80045453D01*
X127030070Y-80060217D01*
X127021776Y-80064211D01*
X127021775Y-80064213D01*
X127016036Y-80071409D01*
X126996409Y-80091036D01*
X126989213Y-80096775D01*
X126989211Y-80096776D01*
X126985217Y-80105070D01*
X126970453Y-80128566D01*
X126964709Y-80135769D01*
X126962660Y-80144745D01*
X126953495Y-80170939D01*
X126949501Y-80179233D01*
X126949500Y-80179238D01*
X126949500Y-88500500D01*
X126929815Y-88567539D01*
X126877011Y-88613294D01*
X126825500Y-88624500D01*
X78274500Y-88624500D01*
X78207461Y-88604815D01*
X78161706Y-88552011D01*
X78150500Y-88500500D01*
X78150500Y-81035967D01*
X78170185Y-80968928D01*
X78222989Y-80923173D01*
X78292147Y-80913229D01*
X78355703Y-80942254D01*
X78356595Y-80943036D01*
X78385755Y-80968869D01*
X78399150Y-80980736D01*
X78549774Y-81059790D01*
X78581788Y-81067680D01*
X78600028Y-81072176D01*
X78660410Y-81107331D01*
X78692199Y-81169550D01*
X78694355Y-81192573D01*
X78694355Y-81199999D01*
X78714859Y-81368869D01*
X78714860Y-81368874D01*
X78775182Y-81527931D01*
X78837475Y-81618177D01*
X78871817Y-81667929D01*
X78977505Y-81761560D01*
X78999150Y-81780736D01*
X79149773Y-81859789D01*
X79149775Y-81859790D01*
X79314944Y-81900500D01*
X79485056Y-81900500D01*
X79650225Y-81859790D01*
X79729692Y-81818081D01*
X79800849Y-81780736D01*
X79800850Y-81780734D01*
X79800852Y-81780734D01*
X79928183Y-81667929D01*
X80024818Y-81527930D01*
X80085140Y-81368872D01*
X80105645Y-81200000D01*
X80105645Y-81199999D01*
X80105645Y-81192573D01*
X80125330Y-81125534D01*
X80178134Y-81079779D01*
X80199972Y-81072176D01*
X80250222Y-81059791D01*
X80250223Y-81059790D01*
X80250225Y-81059790D01*
X80400852Y-80980734D01*
X80508818Y-80885085D01*
X80572051Y-80855363D01*
X80641314Y-80864547D01*
X80694618Y-80909719D01*
X80714141Y-80962951D01*
X80714859Y-80968869D01*
X80714860Y-80968874D01*
X80775182Y-81127931D01*
X80803910Y-81169550D01*
X80871817Y-81267929D01*
X80939546Y-81327931D01*
X80999150Y-81380736D01*
X81136266Y-81452700D01*
X81149775Y-81459790D01*
X81314944Y-81500500D01*
X81485056Y-81500500D01*
X81650225Y-81459790D01*
X81711493Y-81427633D01*
X81779999Y-81413908D01*
X81845053Y-81439400D01*
X81866789Y-81462362D01*
X81866843Y-81462315D01*
X81868272Y-81463928D01*
X81871162Y-81466981D01*
X81871814Y-81467926D01*
X81999150Y-81580736D01*
X82149773Y-81659789D01*
X82149775Y-81659790D01*
X82314944Y-81700500D01*
X82485056Y-81700500D01*
X82650225Y-81659790D01*
X82729692Y-81618081D01*
X82800849Y-81580736D01*
X82800850Y-81580734D01*
X82800852Y-81580734D01*
X82928183Y-81467929D01*
X82938696Y-81452698D01*
X82992976Y-81408708D01*
X83062424Y-81401047D01*
X83124990Y-81432148D01*
X83156688Y-81479165D01*
X83175182Y-81527930D01*
X83271817Y-81667929D01*
X83377505Y-81761560D01*
X83399150Y-81780736D01*
X83549773Y-81859789D01*
X83549775Y-81859790D01*
X83714944Y-81900500D01*
X83885056Y-81900500D01*
X84050225Y-81859790D01*
X84129692Y-81818081D01*
X84200849Y-81780736D01*
X84200850Y-81780734D01*
X84200852Y-81780734D01*
X84328183Y-81667929D01*
X84424818Y-81527930D01*
X84443311Y-81479166D01*
X84485488Y-81423464D01*
X84551086Y-81399406D01*
X84619276Y-81414632D01*
X84661301Y-81452694D01*
X84671817Y-81467929D01*
X84739546Y-81527931D01*
X84799150Y-81580736D01*
X84949773Y-81659789D01*
X84949775Y-81659790D01*
X85114944Y-81700500D01*
X85285056Y-81700500D01*
X85450225Y-81659790D01*
X85529692Y-81618081D01*
X85600849Y-81580736D01*
X85600850Y-81580734D01*
X85600852Y-81580734D01*
X85728183Y-81467929D01*
X85824818Y-81327930D01*
X85885140Y-81168872D01*
X85905645Y-81000000D01*
X85885140Y-80831128D01*
X85824818Y-80672070D01*
X85821958Y-80667927D01*
X85753583Y-80568869D01*
X85728183Y-80532071D01*
X85600852Y-80419266D01*
X85600849Y-80419263D01*
X85450226Y-80340210D01*
X85285056Y-80299500D01*
X85114944Y-80299500D01*
X84949773Y-80340210D01*
X84799150Y-80419263D01*
X84671816Y-80532072D01*
X84575182Y-80672068D01*
X84575181Y-80672071D01*
X84556687Y-80720835D01*
X84514509Y-80776537D01*
X84448911Y-80800593D01*
X84380721Y-80785365D01*
X84338696Y-80747302D01*
X84328183Y-80732071D01*
X84200849Y-80619263D01*
X84050226Y-80540210D01*
X83885056Y-80499500D01*
X83714944Y-80499500D01*
X83549773Y-80540210D01*
X83399150Y-80619263D01*
X83271815Y-80732072D01*
X83261301Y-80747305D01*
X83207017Y-80791294D01*
X83137568Y-80798951D01*
X83075004Y-80767846D01*
X83043311Y-80720833D01*
X83024818Y-80672071D01*
X83024818Y-80672070D01*
X83021958Y-80667927D01*
X82953583Y-80568869D01*
X82928183Y-80532071D01*
X82800852Y-80419266D01*
X82800849Y-80419263D01*
X82650226Y-80340210D01*
X82485056Y-80299500D01*
X82314944Y-80299500D01*
X82149774Y-80340209D01*
X82088505Y-80372366D01*
X82019996Y-80386090D01*
X81954943Y-80360597D01*
X81933211Y-80337636D01*
X81933157Y-80337685D01*
X81931686Y-80336025D01*
X81928828Y-80333005D01*
X81928184Y-80332072D01*
X81800849Y-80219263D01*
X81650226Y-80140210D01*
X81485056Y-80099500D01*
X81314944Y-80099500D01*
X81149773Y-80140210D01*
X80999149Y-80219264D01*
X80999147Y-80219266D01*
X80891180Y-80314915D01*
X80827947Y-80344636D01*
X80758684Y-80335452D01*
X80705381Y-80290279D01*
X80685858Y-80237043D01*
X80685140Y-80231128D01*
X80680641Y-80219266D01*
X80650660Y-80140210D01*
X80624818Y-80072070D01*
X80621959Y-80067927D01*
X80528182Y-79932069D01*
X80483873Y-79892816D01*
X80446746Y-79833627D01*
X80447513Y-79763761D01*
X80483873Y-79707184D01*
X80528182Y-79667930D01*
X80533802Y-79659789D01*
X80624818Y-79527930D01*
X80685140Y-79368872D01*
X80704351Y-79210660D01*
X85549380Y-79210660D01*
X85569884Y-79379529D01*
X85569885Y-79379534D01*
X85630207Y-79538591D01*
X85677209Y-79606684D01*
X85726842Y-79678589D01*
X85796398Y-79740210D01*
X85854175Y-79791396D01*
X86004799Y-79870450D01*
X86040167Y-79879167D01*
X86095688Y-79892851D01*
X86156068Y-79928007D01*
X86187857Y-79990226D01*
X86180962Y-80059754D01*
X86175814Y-80070866D01*
X86175182Y-80072069D01*
X86114860Y-80231125D01*
X86114859Y-80231130D01*
X86094355Y-80400000D01*
X86114859Y-80568869D01*
X86114860Y-80568874D01*
X86175182Y-80727931D01*
X86224929Y-80800000D01*
X86271817Y-80867929D01*
X86334175Y-80923173D01*
X86399150Y-80980736D01*
X86549773Y-81059789D01*
X86549775Y-81059790D01*
X86714944Y-81100500D01*
X86885056Y-81100500D01*
X87050225Y-81059790D01*
X87164144Y-81000000D01*
X87200849Y-80980736D01*
X87200850Y-80980734D01*
X87200852Y-80980734D01*
X87328183Y-80867929D01*
X87424818Y-80727930D01*
X87485140Y-80568872D01*
X87505645Y-80400000D01*
X87485140Y-80231128D01*
X87480641Y-80219266D01*
X87450660Y-80140210D01*
X87424818Y-80072070D01*
X87421958Y-80067927D01*
X87352665Y-79967539D01*
X87328183Y-79932071D01*
X87200852Y-79819266D01*
X87200849Y-79819263D01*
X87050226Y-79740210D01*
X86959336Y-79717808D01*
X86898955Y-79682652D01*
X86867167Y-79620432D01*
X86874063Y-79550904D01*
X86879219Y-79539776D01*
X86879835Y-79538600D01*
X86879843Y-79538590D01*
X86940165Y-79379532D01*
X86960670Y-79210660D01*
X86940165Y-79041788D01*
X86936121Y-79031126D01*
X86893874Y-78919728D01*
X86879843Y-78882730D01*
X86866834Y-78863884D01*
X86836037Y-78819266D01*
X86783208Y-78742731D01*
X86655877Y-78629926D01*
X86655874Y-78629923D01*
X86505251Y-78550870D01*
X86340081Y-78510160D01*
X86169969Y-78510160D01*
X86004798Y-78550870D01*
X85854175Y-78629923D01*
X85726841Y-78742732D01*
X85630207Y-78882728D01*
X85569885Y-79041785D01*
X85569884Y-79041790D01*
X85549380Y-79210660D01*
X80704351Y-79210660D01*
X80705645Y-79200000D01*
X80685140Y-79031128D01*
X80680641Y-79019266D01*
X80660953Y-78967352D01*
X80624818Y-78872070D01*
X80621958Y-78867927D01*
X80549499Y-78762953D01*
X80528183Y-78732071D01*
X80412885Y-78629926D01*
X80400849Y-78619263D01*
X80250226Y-78540210D01*
X80087085Y-78500000D01*
X91294355Y-78500000D01*
X91314859Y-78668869D01*
X91314860Y-78668874D01*
X91375182Y-78827931D01*
X91424929Y-78900000D01*
X91471817Y-78967929D01*
X91566787Y-79052065D01*
X91599150Y-79080736D01*
X91725981Y-79147302D01*
X91749775Y-79159790D01*
X91914944Y-79200500D01*
X92085056Y-79200500D01*
X92250225Y-79159790D01*
X92335726Y-79114915D01*
X92400849Y-79080736D01*
X92400850Y-79080734D01*
X92400852Y-79080734D01*
X92528183Y-78967929D01*
X92597951Y-78866853D01*
X92652233Y-78822864D01*
X92721681Y-78815204D01*
X92784246Y-78846307D01*
X92802047Y-78866851D01*
X92823626Y-78898113D01*
X92871816Y-78967928D01*
X92999150Y-79080736D01*
X93125981Y-79147302D01*
X93149775Y-79159790D01*
X93314944Y-79200500D01*
X93485056Y-79200500D01*
X93650225Y-79159790D01*
X93739547Y-79112909D01*
X93800845Y-79080738D01*
X93800846Y-79080736D01*
X93800852Y-79080734D01*
X93817773Y-79065742D01*
X93881004Y-79036022D01*
X93950267Y-79045204D01*
X93982224Y-79065741D01*
X93999148Y-79080734D01*
X93999150Y-79080735D01*
X93999154Y-79080738D01*
X94125981Y-79147302D01*
X94149775Y-79159790D01*
X94314944Y-79200500D01*
X94485056Y-79200500D01*
X94650225Y-79159790D01*
X94800852Y-79080734D01*
X94917774Y-78977150D01*
X94981006Y-78947429D01*
X95050269Y-78956613D01*
X95082225Y-78977149D01*
X95199146Y-79080732D01*
X95199147Y-79080733D01*
X95199149Y-79080735D01*
X95296961Y-79132071D01*
X95349775Y-79159790D01*
X95514944Y-79200500D01*
X95685056Y-79200500D01*
X95850225Y-79159790D01*
X95939547Y-79112909D01*
X96000845Y-79080738D01*
X96000847Y-79080736D01*
X96000852Y-79080734D01*
X96040259Y-79045821D01*
X96103491Y-79016100D01*
X96172755Y-79025282D01*
X96204714Y-79045821D01*
X96244122Y-79080733D01*
X96244124Y-79080735D01*
X96341936Y-79132071D01*
X96394750Y-79159790D01*
X96559919Y-79200500D01*
X96730031Y-79200500D01*
X96895200Y-79159790D01*
X97045827Y-79080734D01*
X97140260Y-78997074D01*
X97203493Y-78967352D01*
X97272756Y-78976536D01*
X97304713Y-78997072D01*
X97399148Y-79080734D01*
X97549775Y-79159790D01*
X97714944Y-79200500D01*
X97885056Y-79200500D01*
X98050225Y-79159790D01*
X98139547Y-79112909D01*
X98200845Y-79080738D01*
X98200846Y-79080736D01*
X98200852Y-79080734D01*
X98217773Y-79065742D01*
X98281004Y-79036022D01*
X98350267Y-79045204D01*
X98382224Y-79065741D01*
X98399148Y-79080734D01*
X98399150Y-79080735D01*
X98399154Y-79080738D01*
X98525981Y-79147302D01*
X98549775Y-79159790D01*
X98714944Y-79200500D01*
X98885056Y-79200500D01*
X99050225Y-79159790D01*
X99135726Y-79114915D01*
X99200849Y-79080736D01*
X99200850Y-79080734D01*
X99200852Y-79080734D01*
X99328183Y-78967929D01*
X99346009Y-78942104D01*
X99400291Y-78898113D01*
X99469740Y-78890453D01*
X99530286Y-78919728D01*
X99561554Y-78947429D01*
X99594409Y-78976536D01*
X99599147Y-78980733D01*
X99599149Y-78980735D01*
X99723161Y-79045822D01*
X99749775Y-79059790D01*
X99914944Y-79100500D01*
X100085056Y-79100500D01*
X100250225Y-79059790D01*
X100333468Y-79016100D01*
X100400849Y-78980736D01*
X100400850Y-78980734D01*
X100400852Y-78980734D01*
X100528183Y-78867929D01*
X100624818Y-78727930D01*
X100685140Y-78568872D01*
X100693503Y-78500000D01*
X101094355Y-78500000D01*
X101114859Y-78668869D01*
X101114860Y-78668874D01*
X101175182Y-78827931D01*
X101224929Y-78900000D01*
X101271817Y-78967929D01*
X101366787Y-79052065D01*
X101399150Y-79080736D01*
X101525981Y-79147302D01*
X101549775Y-79159790D01*
X101714944Y-79200500D01*
X101885056Y-79200500D01*
X102050225Y-79159790D01*
X102135726Y-79114915D01*
X102200849Y-79080736D01*
X102200850Y-79080734D01*
X102200852Y-79080734D01*
X102328183Y-78967929D01*
X102375071Y-78900000D01*
X105294355Y-78900000D01*
X105314859Y-79068869D01*
X105314860Y-79068874D01*
X105375182Y-79227931D01*
X105437475Y-79318177D01*
X105471817Y-79367929D01*
X105555080Y-79441693D01*
X105599150Y-79480736D01*
X105732844Y-79550904D01*
X105749775Y-79559790D01*
X105914944Y-79600500D01*
X106085056Y-79600500D01*
X106250225Y-79559790D01*
X106365097Y-79499500D01*
X106400849Y-79480736D01*
X106400850Y-79480734D01*
X106400852Y-79480734D01*
X106528183Y-79367929D01*
X106624818Y-79227930D01*
X106635410Y-79200000D01*
X107094355Y-79200000D01*
X107114859Y-79368869D01*
X107114860Y-79368874D01*
X107175182Y-79527931D01*
X107224929Y-79600000D01*
X107271817Y-79667929D01*
X107339546Y-79727931D01*
X107399150Y-79780736D01*
X107549773Y-79859789D01*
X107549775Y-79859790D01*
X107714944Y-79900500D01*
X107885056Y-79900500D01*
X108050225Y-79859790D01*
X108200852Y-79780734D01*
X108308818Y-79685085D01*
X108372051Y-79655363D01*
X108441314Y-79664547D01*
X108494618Y-79709719D01*
X108514141Y-79762951D01*
X108514859Y-79768869D01*
X108514860Y-79768874D01*
X108575182Y-79927931D01*
X108633056Y-80011774D01*
X108671817Y-80067929D01*
X108748393Y-80135769D01*
X108799150Y-80180736D01*
X108949773Y-80259789D01*
X108949775Y-80259790D01*
X109114944Y-80300500D01*
X109285056Y-80300500D01*
X109450225Y-80259790D01*
X109529692Y-80218081D01*
X109600849Y-80180736D01*
X109600850Y-80180734D01*
X109600852Y-80180734D01*
X109728183Y-80067929D01*
X109824818Y-79927930D01*
X109843311Y-79879166D01*
X109885488Y-79823464D01*
X109951086Y-79799406D01*
X110019276Y-79814632D01*
X110061301Y-79852694D01*
X110071817Y-79867929D01*
X110144219Y-79932071D01*
X110199150Y-79980736D01*
X110311514Y-80039709D01*
X110349775Y-80059790D01*
X110514944Y-80100500D01*
X110685056Y-80100500D01*
X110850225Y-80059790D01*
X110982767Y-79990226D01*
X111000849Y-79980736D01*
X111000850Y-79980734D01*
X111000852Y-79980734D01*
X111128183Y-79867929D01*
X111224818Y-79727930D01*
X111285140Y-79568872D01*
X111298606Y-79457970D01*
X111326226Y-79393795D01*
X111384160Y-79354738D01*
X111454013Y-79353203D01*
X111513607Y-79389677D01*
X111537643Y-79428948D01*
X111575182Y-79527930D01*
X111575182Y-79527931D01*
X111624929Y-79600000D01*
X111671817Y-79667929D01*
X111739546Y-79727931D01*
X111799150Y-79780736D01*
X111949773Y-79859789D01*
X111949775Y-79859790D01*
X112114944Y-79900500D01*
X112285056Y-79900500D01*
X112450225Y-79859790D01*
X112529692Y-79818081D01*
X112564143Y-79800000D01*
X113094355Y-79800000D01*
X113114859Y-79968869D01*
X113114860Y-79968874D01*
X113175182Y-80127931D01*
X113224929Y-80200000D01*
X113271817Y-80267929D01*
X113350556Y-80337685D01*
X113399150Y-80380736D01*
X113549773Y-80459789D01*
X113549775Y-80459790D01*
X113714944Y-80500500D01*
X113885056Y-80500500D01*
X114050225Y-80459790D01*
X114134715Y-80415446D01*
X114200849Y-80380736D01*
X114200850Y-80380734D01*
X114200852Y-80380734D01*
X114328183Y-80267929D01*
X114424818Y-80127930D01*
X114485140Y-79968872D01*
X114505645Y-79800000D01*
X115894355Y-79800000D01*
X115914859Y-79968869D01*
X115914860Y-79968874D01*
X115975182Y-80127931D01*
X116024929Y-80200000D01*
X116071817Y-80267929D01*
X116150556Y-80337685D01*
X116199150Y-80380736D01*
X116349773Y-80459789D01*
X116349775Y-80459790D01*
X116514944Y-80500500D01*
X116685056Y-80500500D01*
X116850225Y-80459790D01*
X116934715Y-80415446D01*
X117000849Y-80380736D01*
X117000850Y-80380734D01*
X117000852Y-80380734D01*
X117128183Y-80267929D01*
X117175071Y-80200000D01*
X119094355Y-80200000D01*
X119114859Y-80368869D01*
X119114860Y-80368874D01*
X119175182Y-80527931D01*
X119237475Y-80618177D01*
X119271817Y-80667929D01*
X119377505Y-80761560D01*
X119399150Y-80780736D01*
X119541340Y-80855363D01*
X119549775Y-80859790D01*
X119714944Y-80900500D01*
X119885056Y-80900500D01*
X120050225Y-80859790D01*
X120129692Y-80818081D01*
X120200849Y-80780736D01*
X120200850Y-80780734D01*
X120200852Y-80780734D01*
X120328183Y-80667929D01*
X120424818Y-80527930D01*
X120485140Y-80368872D01*
X120505645Y-80200000D01*
X122094355Y-80200000D01*
X122114859Y-80368869D01*
X122114860Y-80368874D01*
X122175182Y-80527931D01*
X122237475Y-80618177D01*
X122271817Y-80667929D01*
X122377505Y-80761560D01*
X122399150Y-80780736D01*
X122541340Y-80855363D01*
X122549775Y-80859790D01*
X122714944Y-80900500D01*
X122885056Y-80900500D01*
X123050225Y-80859790D01*
X123129692Y-80818081D01*
X123200849Y-80780736D01*
X123200850Y-80780734D01*
X123200852Y-80780734D01*
X123328183Y-80667929D01*
X123424818Y-80527930D01*
X123485140Y-80368872D01*
X123505645Y-80200000D01*
X123485140Y-80031128D01*
X123484141Y-80028495D01*
X123432685Y-79892815D01*
X123424818Y-79872070D01*
X123421958Y-79867927D01*
X123361774Y-79780736D01*
X123328183Y-79732071D01*
X123214244Y-79631130D01*
X123200849Y-79619263D01*
X123050226Y-79540210D01*
X122885056Y-79499500D01*
X122714944Y-79499500D01*
X122549773Y-79540210D01*
X122399150Y-79619263D01*
X122271816Y-79732072D01*
X122175182Y-79872068D01*
X122114860Y-80031125D01*
X122114859Y-80031130D01*
X122094355Y-80200000D01*
X120505645Y-80200000D01*
X120485140Y-80031128D01*
X120484141Y-80028495D01*
X120432685Y-79892815D01*
X120424818Y-79872070D01*
X120408072Y-79847810D01*
X120386189Y-79781457D01*
X120403654Y-79713805D01*
X120454921Y-79666335D01*
X120523714Y-79654117D01*
X120542342Y-79658600D01*
X120542492Y-79657995D01*
X120620212Y-79677151D01*
X120714944Y-79700500D01*
X120885056Y-79700500D01*
X121050225Y-79659790D01*
X121151409Y-79606684D01*
X121200849Y-79580736D01*
X121200850Y-79580734D01*
X121200852Y-79580734D01*
X121328183Y-79467929D01*
X121424818Y-79327930D01*
X121473335Y-79200000D01*
X123494355Y-79200000D01*
X123514859Y-79368869D01*
X123514860Y-79368874D01*
X123575182Y-79527931D01*
X123624929Y-79600000D01*
X123671817Y-79667929D01*
X123739546Y-79727931D01*
X123799150Y-79780736D01*
X123949773Y-79859789D01*
X123949775Y-79859790D01*
X124114944Y-79900500D01*
X124285056Y-79900500D01*
X124450225Y-79859790D01*
X124529692Y-79818081D01*
X124600849Y-79780736D01*
X124600850Y-79780734D01*
X124600852Y-79780734D01*
X124728183Y-79667929D01*
X124824818Y-79527930D01*
X124885140Y-79368872D01*
X124905645Y-79200000D01*
X124885140Y-79031128D01*
X124880641Y-79019266D01*
X124860953Y-78967352D01*
X124824818Y-78872070D01*
X124821958Y-78867927D01*
X124749499Y-78762953D01*
X124728183Y-78732071D01*
X124612885Y-78629926D01*
X124600849Y-78619263D01*
X124450226Y-78540210D01*
X124285056Y-78499500D01*
X124114944Y-78499500D01*
X123949773Y-78540210D01*
X123799150Y-78619263D01*
X123739544Y-78672070D01*
X123672882Y-78731128D01*
X123671816Y-78732072D01*
X123575182Y-78872068D01*
X123514860Y-79031125D01*
X123514859Y-79031130D01*
X123494355Y-79200000D01*
X121473335Y-79200000D01*
X121485140Y-79168872D01*
X121505645Y-79000000D01*
X121485140Y-78831128D01*
X121480641Y-78819266D01*
X121424817Y-78672068D01*
X121376422Y-78601957D01*
X121328183Y-78532071D01*
X121200852Y-78419266D01*
X121200849Y-78419263D01*
X121050226Y-78340210D01*
X120885056Y-78299500D01*
X120714944Y-78299500D01*
X120549773Y-78340210D01*
X120399150Y-78419263D01*
X120271816Y-78532072D01*
X120175182Y-78672068D01*
X120114860Y-78831125D01*
X120114859Y-78831130D01*
X120094355Y-79000000D01*
X120114859Y-79168869D01*
X120114860Y-79168874D01*
X120138470Y-79231128D01*
X120175182Y-79327930D01*
X120191927Y-79352190D01*
X120213810Y-79418543D01*
X120196345Y-79486194D01*
X120145078Y-79533665D01*
X120076284Y-79545882D01*
X120057656Y-79541401D01*
X120057508Y-79542005D01*
X119885056Y-79499500D01*
X119714944Y-79499500D01*
X119549773Y-79540210D01*
X119399150Y-79619263D01*
X119271816Y-79732072D01*
X119175182Y-79872068D01*
X119114860Y-80031125D01*
X119114859Y-80031130D01*
X119094355Y-80200000D01*
X117175071Y-80200000D01*
X117224818Y-80127930D01*
X117285140Y-79968872D01*
X117305645Y-79800000D01*
X117285140Y-79631128D01*
X117275868Y-79606681D01*
X117270502Y-79537020D01*
X117303649Y-79475514D01*
X117364787Y-79441693D01*
X117434505Y-79446294D01*
X117474038Y-79469897D01*
X117599147Y-79580733D01*
X117599149Y-79580735D01*
X117706440Y-79637046D01*
X117749775Y-79659790D01*
X117914944Y-79700500D01*
X118085056Y-79700500D01*
X118250225Y-79659790D01*
X118351409Y-79606684D01*
X118400849Y-79580736D01*
X118400850Y-79580734D01*
X118400852Y-79580734D01*
X118528183Y-79467929D01*
X118624818Y-79327930D01*
X118685140Y-79168872D01*
X118705645Y-79000000D01*
X118685140Y-78831128D01*
X118680641Y-78819266D01*
X118624817Y-78672068D01*
X118576422Y-78601957D01*
X118528183Y-78532071D01*
X118400852Y-78419266D01*
X118400849Y-78419263D01*
X118250226Y-78340210D01*
X118085056Y-78299500D01*
X117914944Y-78299500D01*
X117749773Y-78340210D01*
X117599150Y-78419263D01*
X117471816Y-78532072D01*
X117375182Y-78672068D01*
X117314860Y-78831125D01*
X117314859Y-78831130D01*
X117294355Y-79000000D01*
X117314859Y-79168869D01*
X117314859Y-79168870D01*
X117314860Y-79168872D01*
X117323244Y-79190980D01*
X117324131Y-79193317D01*
X117329497Y-79262981D01*
X117296348Y-79324486D01*
X117235210Y-79358307D01*
X117165492Y-79353704D01*
X117125961Y-79330102D01*
X117000852Y-79219266D01*
X117000850Y-79219264D01*
X116850226Y-79140210D01*
X116685056Y-79099500D01*
X116514944Y-79099500D01*
X116349773Y-79140210D01*
X116199150Y-79219263D01*
X116139544Y-79272070D01*
X116076494Y-79327928D01*
X116071816Y-79332072D01*
X115975182Y-79472068D01*
X115914860Y-79631125D01*
X115914859Y-79631130D01*
X115894355Y-79800000D01*
X114505645Y-79800000D01*
X114499323Y-79747935D01*
X114510783Y-79679012D01*
X114557687Y-79627226D01*
X114625143Y-79609019D01*
X114680045Y-79623193D01*
X114706440Y-79637046D01*
X114749775Y-79659790D01*
X114914944Y-79700500D01*
X115085056Y-79700500D01*
X115250225Y-79659790D01*
X115351409Y-79606684D01*
X115400849Y-79580736D01*
X115400850Y-79580734D01*
X115400852Y-79580734D01*
X115528183Y-79467929D01*
X115624818Y-79327930D01*
X115685140Y-79168872D01*
X115705645Y-79000000D01*
X115685140Y-78831128D01*
X115680641Y-78819266D01*
X115624817Y-78672068D01*
X115576422Y-78601957D01*
X115528183Y-78532071D01*
X115400852Y-78419266D01*
X115400849Y-78419263D01*
X115250226Y-78340210D01*
X115085056Y-78299500D01*
X114914944Y-78299500D01*
X114749773Y-78340210D01*
X114599150Y-78419263D01*
X114471816Y-78532072D01*
X114375182Y-78672068D01*
X114314860Y-78831125D01*
X114314859Y-78831130D01*
X114294355Y-79000000D01*
X114294355Y-79000001D01*
X114300676Y-79052065D01*
X114289215Y-79120988D01*
X114242311Y-79172774D01*
X114174855Y-79190980D01*
X114119954Y-79176807D01*
X114087529Y-79159789D01*
X114050225Y-79140210D01*
X114050224Y-79140209D01*
X114050223Y-79140209D01*
X113885056Y-79099500D01*
X113714944Y-79099500D01*
X113549773Y-79140210D01*
X113399150Y-79219263D01*
X113339544Y-79272070D01*
X113276494Y-79327928D01*
X113271816Y-79332072D01*
X113175182Y-79472068D01*
X113114860Y-79631125D01*
X113114859Y-79631130D01*
X113094355Y-79800000D01*
X112564143Y-79800000D01*
X112600849Y-79780736D01*
X112600850Y-79780734D01*
X112600852Y-79780734D01*
X112728183Y-79667929D01*
X112824818Y-79527930D01*
X112885140Y-79368872D01*
X112905645Y-79200000D01*
X112885140Y-79031128D01*
X112880641Y-79019266D01*
X112860953Y-78967352D01*
X112824818Y-78872070D01*
X112821958Y-78867927D01*
X112749499Y-78762953D01*
X112728183Y-78732071D01*
X112612885Y-78629926D01*
X112600849Y-78619263D01*
X112450226Y-78540210D01*
X112285056Y-78499500D01*
X112114944Y-78499500D01*
X111949773Y-78540210D01*
X111799150Y-78619263D01*
X111739544Y-78672070D01*
X111672882Y-78731128D01*
X111671816Y-78732072D01*
X111575182Y-78872068D01*
X111514860Y-79031125D01*
X111514859Y-79031131D01*
X111501394Y-79142027D01*
X111473772Y-79206205D01*
X111415838Y-79245261D01*
X111345985Y-79246796D01*
X111286391Y-79210321D01*
X111262356Y-79171051D01*
X111261529Y-79168870D01*
X111224818Y-79072070D01*
X111222608Y-79068869D01*
X111175071Y-79000000D01*
X111128183Y-78932071D01*
X111014244Y-78831130D01*
X111000849Y-78819263D01*
X110850226Y-78740210D01*
X110685056Y-78699500D01*
X110514944Y-78699500D01*
X110349773Y-78740210D01*
X110199150Y-78819263D01*
X110071816Y-78932072D01*
X109975182Y-79072068D01*
X109975181Y-79072071D01*
X109956687Y-79120835D01*
X109914509Y-79176537D01*
X109848911Y-79200593D01*
X109780721Y-79185365D01*
X109738696Y-79147302D01*
X109728183Y-79132071D01*
X109600849Y-79019263D01*
X109450226Y-78940210D01*
X109285056Y-78899500D01*
X109114944Y-78899500D01*
X108949773Y-78940210D01*
X108799149Y-79019264D01*
X108799147Y-79019266D01*
X108691180Y-79114915D01*
X108627947Y-79144636D01*
X108558684Y-79135452D01*
X108505381Y-79090279D01*
X108485858Y-79037043D01*
X108485140Y-79031128D01*
X108480641Y-79019266D01*
X108460953Y-78967352D01*
X108424818Y-78872070D01*
X108421958Y-78867927D01*
X108349499Y-78762953D01*
X108328183Y-78732071D01*
X108212885Y-78629926D01*
X108200849Y-78619263D01*
X108050226Y-78540210D01*
X107885056Y-78499500D01*
X107714944Y-78499500D01*
X107549773Y-78540210D01*
X107399150Y-78619263D01*
X107339544Y-78672070D01*
X107272882Y-78731128D01*
X107271816Y-78732072D01*
X107175182Y-78872068D01*
X107114860Y-79031125D01*
X107114859Y-79031130D01*
X107094355Y-79200000D01*
X106635410Y-79200000D01*
X106685140Y-79068872D01*
X106705645Y-78900000D01*
X106685140Y-78731128D01*
X106624818Y-78572070D01*
X106622608Y-78568869D01*
X106569660Y-78492161D01*
X106528183Y-78432071D01*
X106414244Y-78331130D01*
X106400849Y-78319263D01*
X106250226Y-78240210D01*
X106085056Y-78199500D01*
X105914944Y-78199500D01*
X105749773Y-78240210D01*
X105599150Y-78319263D01*
X105471816Y-78432072D01*
X105375182Y-78572068D01*
X105314860Y-78731125D01*
X105314859Y-78731130D01*
X105294355Y-78900000D01*
X102375071Y-78900000D01*
X102424818Y-78827930D01*
X102485140Y-78668872D01*
X102505645Y-78500000D01*
X102485140Y-78331128D01*
X102480641Y-78319266D01*
X102424817Y-78172068D01*
X102368306Y-78090199D01*
X102328183Y-78032071D01*
X102233316Y-77948026D01*
X102200849Y-77919263D01*
X102050226Y-77840210D01*
X101885056Y-77799500D01*
X101714944Y-77799500D01*
X101549773Y-77840210D01*
X101399150Y-77919263D01*
X101271816Y-78032072D01*
X101175182Y-78172068D01*
X101114860Y-78331125D01*
X101114859Y-78331130D01*
X101094355Y-78500000D01*
X100693503Y-78500000D01*
X100705645Y-78400000D01*
X100685140Y-78231128D01*
X100624818Y-78072070D01*
X100597208Y-78032071D01*
X100577091Y-78002926D01*
X100528183Y-77932071D01*
X100400852Y-77819266D01*
X100400849Y-77819263D01*
X100250226Y-77740210D01*
X100085056Y-77699500D01*
X99914944Y-77699500D01*
X99749773Y-77740210D01*
X99599150Y-77819263D01*
X99471815Y-77932072D01*
X99453988Y-77957899D01*
X99399704Y-78001888D01*
X99330255Y-78009545D01*
X99269713Y-77980271D01*
X99200852Y-77919266D01*
X99200850Y-77919264D01*
X99050226Y-77840210D01*
X98885056Y-77799500D01*
X98714944Y-77799500D01*
X98549773Y-77840210D01*
X98399150Y-77919264D01*
X98382227Y-77934257D01*
X98318993Y-77963978D01*
X98249730Y-77954794D01*
X98217773Y-77934257D01*
X98215307Y-77932072D01*
X98200852Y-77919266D01*
X98200850Y-77919265D01*
X98200849Y-77919264D01*
X98050226Y-77840210D01*
X97885056Y-77799500D01*
X97714944Y-77799500D01*
X97549773Y-77840210D01*
X97399149Y-77919264D01*
X97399147Y-77919266D01*
X97304713Y-78002926D01*
X97241480Y-78032647D01*
X97172216Y-78023463D01*
X97140260Y-78002926D01*
X97118784Y-77983900D01*
X97045827Y-77919266D01*
X97045825Y-77919265D01*
X97045824Y-77919264D01*
X96895201Y-77840210D01*
X96730031Y-77799500D01*
X96559919Y-77799500D01*
X96394748Y-77840210D01*
X96244124Y-77919264D01*
X96244122Y-77919266D01*
X96204713Y-77954179D01*
X96141480Y-77983900D01*
X96072216Y-77974716D01*
X96040260Y-77954178D01*
X96000852Y-77919266D01*
X96000850Y-77919264D01*
X95850226Y-77840210D01*
X95685056Y-77799500D01*
X95514944Y-77799500D01*
X95349773Y-77840210D01*
X95199150Y-77919263D01*
X95082227Y-78022849D01*
X95018994Y-78052570D01*
X94949730Y-78043386D01*
X94917773Y-78022849D01*
X94800849Y-77919263D01*
X94650226Y-77840210D01*
X94485056Y-77799500D01*
X94314944Y-77799500D01*
X94149773Y-77840210D01*
X93999150Y-77919264D01*
X93982227Y-77934257D01*
X93918993Y-77963978D01*
X93849730Y-77954794D01*
X93817773Y-77934257D01*
X93815307Y-77932072D01*
X93800852Y-77919266D01*
X93800850Y-77919265D01*
X93800849Y-77919264D01*
X93650226Y-77840210D01*
X93485056Y-77799500D01*
X93314944Y-77799500D01*
X93149773Y-77840210D01*
X92999150Y-77919263D01*
X92881533Y-78023463D01*
X92871817Y-78032071D01*
X92802048Y-78133146D01*
X92747767Y-78177136D01*
X92678318Y-78184795D01*
X92615753Y-78153691D01*
X92597952Y-78133148D01*
X92528183Y-78032071D01*
X92439964Y-77953916D01*
X92400849Y-77919263D01*
X92250226Y-77840210D01*
X92085056Y-77799500D01*
X91914944Y-77799500D01*
X91749773Y-77840210D01*
X91599150Y-77919263D01*
X91471816Y-78032072D01*
X91375182Y-78172068D01*
X91314860Y-78331125D01*
X91314859Y-78331130D01*
X91294355Y-78500000D01*
X80087085Y-78500000D01*
X80085056Y-78499500D01*
X79914944Y-78499500D01*
X79749773Y-78540210D01*
X79599150Y-78619263D01*
X79482227Y-78722849D01*
X79418994Y-78752570D01*
X79349730Y-78743386D01*
X79317773Y-78722849D01*
X79200849Y-78619263D01*
X79050226Y-78540210D01*
X78885056Y-78499500D01*
X78714944Y-78499500D01*
X78549773Y-78540210D01*
X78399150Y-78619263D01*
X78282227Y-78722849D01*
X78218994Y-78752570D01*
X78149730Y-78743386D01*
X78117773Y-78722849D01*
X78000849Y-78619263D01*
X77850226Y-78540210D01*
X77685056Y-78499500D01*
X77514944Y-78499500D01*
X77349773Y-78540210D01*
X77232126Y-78601957D01*
X77163618Y-78615683D01*
X77098564Y-78590191D01*
X77057620Y-78533575D01*
X77050500Y-78492161D01*
X77050500Y-73400000D01*
X91094355Y-73400000D01*
X91114859Y-73568869D01*
X91114860Y-73568874D01*
X91175182Y-73727931D01*
X91237475Y-73818177D01*
X91271817Y-73867929D01*
X91377505Y-73961560D01*
X91399150Y-73980736D01*
X91546016Y-74057817D01*
X91549775Y-74059790D01*
X91714944Y-74100500D01*
X91885056Y-74100500D01*
X92050225Y-74059790D01*
X92164144Y-74000000D01*
X95594355Y-74000000D01*
X95614859Y-74168869D01*
X95614860Y-74168874D01*
X95675182Y-74327931D01*
X95737475Y-74418177D01*
X95771817Y-74467929D01*
X95877505Y-74561560D01*
X95899150Y-74580736D01*
X96049773Y-74659789D01*
X96049775Y-74659790D01*
X96214944Y-74700500D01*
X96385056Y-74700500D01*
X96550225Y-74659790D01*
X96629692Y-74618081D01*
X96700849Y-74580736D01*
X96700850Y-74580734D01*
X96700852Y-74580734D01*
X96828183Y-74467929D01*
X96924818Y-74327930D01*
X96985140Y-74168872D01*
X97005645Y-74000000D01*
X96985140Y-73831128D01*
X96924818Y-73672070D01*
X96922889Y-73669276D01*
X98689500Y-73669276D01*
X98721172Y-73980734D01*
X98729012Y-74057822D01*
X98784520Y-74327930D01*
X98807630Y-74440382D01*
X98807631Y-74440388D01*
X98924541Y-74813008D01*
X99078558Y-75171912D01*
X99268097Y-75513394D01*
X99491206Y-75833945D01*
X99745598Y-76130275D01*
X99745599Y-76130276D01*
X100028667Y-76399352D01*
X100337505Y-76638411D01*
X100464071Y-76717300D01*
X100668935Y-76844993D01*
X100668944Y-76844998D01*
X101019582Y-77016994D01*
X101019589Y-77016996D01*
X101019590Y-77016997D01*
X101385812Y-77152631D01*
X101385814Y-77152631D01*
X101385821Y-77152634D01*
X101763904Y-77250527D01*
X102149951Y-77309667D01*
X102442434Y-77324500D01*
X102442450Y-77324500D01*
X102637550Y-77324500D01*
X102637566Y-77324500D01*
X102930049Y-77309667D01*
X103316096Y-77250527D01*
X103694179Y-77152634D01*
X104060418Y-77016994D01*
X104411056Y-76844998D01*
X104742495Y-76638411D01*
X105051333Y-76399352D01*
X105334401Y-76130276D01*
X105588795Y-75833943D01*
X105811904Y-75513393D01*
X106001439Y-75171917D01*
X106155455Y-74813017D01*
X106190758Y-74700500D01*
X106272368Y-74440388D01*
X106272368Y-74440387D01*
X106272371Y-74440378D01*
X106350988Y-74057822D01*
X106390500Y-73669275D01*
X106390500Y-73278725D01*
X106385659Y-73231125D01*
X106355248Y-72932069D01*
X106350988Y-72890178D01*
X106272371Y-72507622D01*
X106272368Y-72507611D01*
X106155458Y-72134991D01*
X106152479Y-72128050D01*
X106001439Y-71776083D01*
X105811904Y-71434607D01*
X105588795Y-71114057D01*
X105588793Y-71114054D01*
X105334401Y-70817724D01*
X105249024Y-70736567D01*
X105051333Y-70548648D01*
X104984812Y-70497157D01*
X104742495Y-70309589D01*
X104411064Y-70103006D01*
X104411055Y-70103001D01*
X104060422Y-69931008D01*
X104060409Y-69931002D01*
X103694187Y-69795368D01*
X103620464Y-69776279D01*
X103316096Y-69697473D01*
X103316093Y-69697472D01*
X103316091Y-69697472D01*
X102930048Y-69638332D01*
X102699219Y-69626626D01*
X102637566Y-69623500D01*
X102442434Y-69623500D01*
X102393111Y-69626001D01*
X102149951Y-69638332D01*
X101763908Y-69697472D01*
X101385813Y-69795368D01*
X101385812Y-69795368D01*
X101019590Y-69931002D01*
X101019577Y-69931008D01*
X100668944Y-70103001D01*
X100668935Y-70103006D01*
X100337504Y-70309589D01*
X100028672Y-70548643D01*
X99745598Y-70817724D01*
X99491206Y-71114054D01*
X99268097Y-71434605D01*
X99078558Y-71776087D01*
X98924541Y-72134991D01*
X98807631Y-72507611D01*
X98807630Y-72507617D01*
X98729011Y-72890182D01*
X98689500Y-73278723D01*
X98689500Y-73669276D01*
X96922889Y-73669276D01*
X96853583Y-73568869D01*
X96828183Y-73532071D01*
X96700852Y-73419266D01*
X96700849Y-73419263D01*
X96550226Y-73340210D01*
X96385056Y-73299500D01*
X96214944Y-73299500D01*
X96049773Y-73340210D01*
X95899150Y-73419263D01*
X95771816Y-73532072D01*
X95675182Y-73672068D01*
X95614860Y-73831125D01*
X95614859Y-73831130D01*
X95594355Y-74000000D01*
X92164144Y-74000000D01*
X92200849Y-73980736D01*
X92200850Y-73980734D01*
X92200852Y-73980734D01*
X92328183Y-73867929D01*
X92424818Y-73727930D01*
X92485140Y-73568872D01*
X92505645Y-73400000D01*
X92485140Y-73231128D01*
X92424818Y-73072070D01*
X92328183Y-72932071D01*
X92328182Y-72932069D01*
X92285863Y-72894579D01*
X92248736Y-72835390D01*
X92249502Y-72765524D01*
X92285860Y-72708949D01*
X92328213Y-72671429D01*
X92424848Y-72531430D01*
X92485170Y-72372372D01*
X92505675Y-72203500D01*
X92505250Y-72200000D01*
X96294355Y-72200000D01*
X96314859Y-72368869D01*
X96314860Y-72368874D01*
X96375182Y-72527931D01*
X96437475Y-72618177D01*
X96471817Y-72667929D01*
X96577505Y-72761560D01*
X96599150Y-72780736D01*
X96749773Y-72859789D01*
X96749775Y-72859790D01*
X96914944Y-72900500D01*
X97085056Y-72900500D01*
X97250225Y-72859790D01*
X97329692Y-72818081D01*
X97400849Y-72780736D01*
X97400850Y-72780734D01*
X97400852Y-72780734D01*
X97528183Y-72667929D01*
X97624818Y-72527930D01*
X97685140Y-72368872D01*
X97705645Y-72200000D01*
X97685140Y-72031128D01*
X97624818Y-71872070D01*
X97528183Y-71732071D01*
X97404803Y-71622766D01*
X97400849Y-71619263D01*
X97250226Y-71540210D01*
X97085056Y-71499500D01*
X96914944Y-71499500D01*
X96749773Y-71540210D01*
X96599150Y-71619263D01*
X96471816Y-71732072D01*
X96375182Y-71872068D01*
X96314860Y-72031125D01*
X96314859Y-72031130D01*
X96294355Y-72200000D01*
X92505250Y-72200000D01*
X92485170Y-72034628D01*
X92483843Y-72031130D01*
X92424847Y-71875568D01*
X92356179Y-71776087D01*
X92328213Y-71735571D01*
X92200882Y-71622766D01*
X92200879Y-71622763D01*
X92050256Y-71543710D01*
X91885086Y-71503000D01*
X91714974Y-71503000D01*
X91549803Y-71543710D01*
X91399180Y-71622763D01*
X91271846Y-71735572D01*
X91175212Y-71875568D01*
X91114890Y-72034625D01*
X91114889Y-72034630D01*
X91094385Y-72203500D01*
X91114889Y-72372369D01*
X91114890Y-72372374D01*
X91175212Y-72531431D01*
X91271847Y-72671430D01*
X91314166Y-72708920D01*
X91351293Y-72768109D01*
X91350527Y-72837974D01*
X91314168Y-72894551D01*
X91271816Y-72932071D01*
X91175182Y-73072068D01*
X91114860Y-73231125D01*
X91114859Y-73231130D01*
X91094355Y-73400000D01*
X77050500Y-73400000D01*
X77050500Y-66690788D01*
X77070185Y-66623749D01*
X77122989Y-66577994D01*
X77192147Y-66568050D01*
X77221949Y-66576226D01*
X77243238Y-66585044D01*
X77321619Y-66595363D01*
X77399999Y-66605682D01*
X77400000Y-66605682D01*
X77400001Y-66605682D01*
X77452254Y-66598802D01*
X77556762Y-66585044D01*
X77702841Y-66524536D01*
X77828282Y-66428282D01*
X77924536Y-66302841D01*
X77985044Y-66156762D01*
X77985044Y-66156754D01*
X77987149Y-66148906D01*
X77989094Y-66149427D01*
X78012963Y-66095458D01*
X78019950Y-66087862D01*
X78406431Y-65701381D01*
X78427068Y-65684751D01*
X78431128Y-65682143D01*
X78463640Y-65644620D01*
X78469674Y-65638139D01*
X78479220Y-65628594D01*
X78487314Y-65617780D01*
X78492852Y-65610906D01*
X78525377Y-65573373D01*
X78527377Y-65568992D01*
X78540911Y-65546183D01*
X78543795Y-65542331D01*
X78559318Y-65500710D01*
X78601189Y-65444777D01*
X78666653Y-65420360D01*
X78734926Y-65435211D01*
X78784332Y-65484617D01*
X78799500Y-65544044D01*
X78799500Y-70863429D01*
X78799501Y-70863439D01*
X78806346Y-70884507D01*
X78810887Y-70903418D01*
X78814354Y-70925304D01*
X78814355Y-70925307D01*
X78824412Y-70945045D01*
X78831857Y-70963018D01*
X78838704Y-70984090D01*
X78851726Y-71002014D01*
X78861890Y-71018600D01*
X78871949Y-71038340D01*
X78871950Y-71038342D01*
X78891390Y-71057782D01*
X78891419Y-71057813D01*
X79943410Y-72109804D01*
X79943432Y-72109824D01*
X79961658Y-72128050D01*
X79975281Y-72134991D01*
X79981389Y-72138103D01*
X79997976Y-72148266D01*
X80015911Y-72161297D01*
X80036985Y-72168144D01*
X80054953Y-72175586D01*
X80074696Y-72185646D01*
X80096582Y-72189112D01*
X80115489Y-72193651D01*
X80136567Y-72200500D01*
X80168481Y-72200500D01*
X81293420Y-72200500D01*
X81360459Y-72220185D01*
X81368907Y-72226124D01*
X81371716Y-72228279D01*
X81371718Y-72228282D01*
X81497159Y-72324536D01*
X81643238Y-72385044D01*
X81721619Y-72395363D01*
X81799999Y-72405682D01*
X81800000Y-72405682D01*
X81800001Y-72405682D01*
X81852254Y-72398802D01*
X81956762Y-72385044D01*
X82102841Y-72324536D01*
X82228282Y-72228282D01*
X82324536Y-72102841D01*
X82385044Y-71956762D01*
X82405682Y-71800000D01*
X82385044Y-71643238D01*
X82324536Y-71497159D01*
X82231171Y-71375484D01*
X82205979Y-71310317D01*
X82220017Y-71241873D01*
X82231167Y-71224521D01*
X82324536Y-71102841D01*
X82385044Y-70956762D01*
X82405682Y-70800000D01*
X82385044Y-70643238D01*
X82324536Y-70497159D01*
X82324535Y-70497158D01*
X82324535Y-70497157D01*
X82284657Y-70445187D01*
X82259463Y-70380018D01*
X82273502Y-70311573D01*
X82284652Y-70294221D01*
X82311623Y-70259074D01*
X82372131Y-70112995D01*
X82392769Y-69956233D01*
X82372131Y-69799471D01*
X82311623Y-69653392D01*
X82311621Y-69653390D01*
X82310579Y-69650873D01*
X82303110Y-69581404D01*
X82326763Y-69527935D01*
X82377519Y-69461790D01*
X82438027Y-69315711D01*
X82458665Y-69158949D01*
X82438027Y-69002187D01*
X82377519Y-68856108D01*
X82281265Y-68730667D01*
X82281262Y-68730664D01*
X82281260Y-68730662D01*
X82275518Y-68724920D01*
X82277226Y-68723211D01*
X82243261Y-68676695D01*
X82239106Y-68606949D01*
X82273318Y-68546028D01*
X82297958Y-68527354D01*
X82302832Y-68524539D01*
X82302841Y-68524536D01*
X82428282Y-68428282D01*
X82524536Y-68302841D01*
X82585044Y-68156762D01*
X82605682Y-68000000D01*
X82601958Y-67971716D01*
X82585044Y-67843239D01*
X82585044Y-67843238D01*
X82524536Y-67697159D01*
X82428282Y-67571718D01*
X82302841Y-67475464D01*
X82156762Y-67414956D01*
X82143399Y-67413196D01*
X82108313Y-67408577D01*
X82044417Y-67380309D01*
X82005946Y-67321984D01*
X82000500Y-67285638D01*
X82000500Y-64600000D01*
X94094355Y-64600000D01*
X94114859Y-64768869D01*
X94114860Y-64768874D01*
X94175182Y-64927931D01*
X94214605Y-64985044D01*
X94271817Y-65067929D01*
X94339546Y-65127931D01*
X94399150Y-65180736D01*
X94522662Y-65245560D01*
X94549775Y-65259790D01*
X94714944Y-65300500D01*
X94885056Y-65300500D01*
X95050225Y-65259790D01*
X95129692Y-65218081D01*
X95200849Y-65180736D01*
X95200850Y-65180734D01*
X95200852Y-65180734D01*
X95328183Y-65067929D01*
X95424818Y-64927930D01*
X95485140Y-64768872D01*
X95485140Y-64768871D01*
X95487800Y-64761858D01*
X95489669Y-64762567D01*
X95519649Y-64711052D01*
X95581862Y-64679251D01*
X95634582Y-64680692D01*
X95714944Y-64700500D01*
X95772419Y-64700500D01*
X95839458Y-64720185D01*
X95885213Y-64772989D01*
X95895515Y-64809553D01*
X95914859Y-64968869D01*
X95914860Y-64968874D01*
X95975182Y-65127931D01*
X96035252Y-65214956D01*
X96071817Y-65267929D01*
X96168457Y-65353544D01*
X96199150Y-65380736D01*
X96302944Y-65435211D01*
X96349775Y-65459790D01*
X96514944Y-65500500D01*
X96603339Y-65500500D01*
X96670378Y-65520185D01*
X96716133Y-65572989D01*
X96719279Y-65580525D01*
X96733416Y-65617800D01*
X96775182Y-65727931D01*
X96814605Y-65785044D01*
X96871817Y-65867929D01*
X96972088Y-65956761D01*
X96999150Y-65980736D01*
X97149773Y-66059789D01*
X97149775Y-66059790D01*
X97314944Y-66100500D01*
X97485056Y-66100500D01*
X97650225Y-66059790D01*
X97729692Y-66018081D01*
X97800849Y-65980736D01*
X97800850Y-65980734D01*
X97800852Y-65980734D01*
X97928183Y-65867929D01*
X98024818Y-65727930D01*
X98085140Y-65568872D01*
X98105645Y-65400000D01*
X98085140Y-65231128D01*
X98084603Y-65229713D01*
X98044533Y-65124054D01*
X98024818Y-65072070D01*
X98021958Y-65067927D01*
X97945226Y-64956762D01*
X97928183Y-64932071D01*
X97800852Y-64819266D01*
X97800849Y-64819263D01*
X97650226Y-64740210D01*
X97485056Y-64699500D01*
X97396661Y-64699500D01*
X97329622Y-64679815D01*
X97283867Y-64627011D01*
X97280719Y-64619471D01*
X97273335Y-64600000D01*
X97224818Y-64472070D01*
X97221666Y-64467504D01*
X97151528Y-64365892D01*
X97128183Y-64332071D01*
X97020665Y-64236819D01*
X97000849Y-64219263D01*
X96850226Y-64140210D01*
X96685056Y-64099500D01*
X96627581Y-64099500D01*
X96560542Y-64079815D01*
X96514787Y-64027011D01*
X96504485Y-63990447D01*
X96494597Y-63909010D01*
X96485140Y-63831128D01*
X96424818Y-63672070D01*
X96421958Y-63667927D01*
X96368305Y-63590197D01*
X96328183Y-63532071D01*
X96209160Y-63426626D01*
X96200849Y-63419263D01*
X96050226Y-63340210D01*
X95885056Y-63299500D01*
X95714944Y-63299500D01*
X95549773Y-63340210D01*
X95399150Y-63419263D01*
X95271816Y-63532072D01*
X95175182Y-63672068D01*
X95175182Y-63672069D01*
X95112200Y-63838141D01*
X95110337Y-63837434D01*
X95080313Y-63888981D01*
X95018087Y-63920758D01*
X94965415Y-63919306D01*
X94885057Y-63899500D01*
X94885056Y-63899500D01*
X94714944Y-63899500D01*
X94549773Y-63940210D01*
X94399150Y-64019263D01*
X94271816Y-64132072D01*
X94175182Y-64272068D01*
X94114860Y-64431125D01*
X94114859Y-64431130D01*
X94094355Y-64600000D01*
X82000500Y-64600000D01*
X82000500Y-60914784D01*
X82020185Y-60847745D01*
X82072989Y-60801990D01*
X82142147Y-60792046D01*
X82205703Y-60821071D01*
X82212181Y-60827103D01*
X82965954Y-61580876D01*
X82999439Y-61642199D01*
X83001212Y-61652371D01*
X83014955Y-61756761D01*
X83075463Y-61902839D01*
X83075464Y-61902841D01*
X83171718Y-62028282D01*
X83297159Y-62124536D01*
X83443238Y-62185044D01*
X83506640Y-62193391D01*
X83599999Y-62205682D01*
X83600000Y-62205682D01*
X83600001Y-62205682D01*
X83652254Y-62198802D01*
X83756762Y-62185044D01*
X83902841Y-62124536D01*
X84028282Y-62028282D01*
X84124536Y-61902841D01*
X84185044Y-61756762D01*
X84204281Y-61610640D01*
X84205682Y-61600001D01*
X84205682Y-61599998D01*
X84188840Y-61472070D01*
X84185044Y-61443238D01*
X84154240Y-61368870D01*
X84124538Y-61297163D01*
X84124537Y-61297162D01*
X84124536Y-61297159D01*
X84107904Y-61275484D01*
X84082711Y-61210319D01*
X84096748Y-61141874D01*
X84107899Y-61124521D01*
X84124536Y-61102841D01*
X84185044Y-60956762D01*
X84205682Y-60800000D01*
X84204680Y-60792391D01*
X84185044Y-60643239D01*
X84185042Y-60643234D01*
X84155517Y-60571952D01*
X84148048Y-60502483D01*
X84179324Y-60440004D01*
X84239413Y-60404352D01*
X84270078Y-60400500D01*
X94182745Y-60400500D01*
X94249784Y-60420185D01*
X94270426Y-60436819D01*
X94777540Y-60943933D01*
X94811025Y-61005256D01*
X94806041Y-61074948D01*
X94764169Y-61130881D01*
X94747486Y-61141410D01*
X94599149Y-61219265D01*
X94562186Y-61252011D01*
X94514432Y-61294318D01*
X94471816Y-61332072D01*
X94375182Y-61472068D01*
X94314860Y-61631125D01*
X94314859Y-61631130D01*
X94293451Y-61807446D01*
X94291495Y-61807208D01*
X94274670Y-61864510D01*
X94221866Y-61910265D01*
X94152708Y-61920209D01*
X94089152Y-61891184D01*
X94088129Y-61890287D01*
X94007961Y-61819266D01*
X94007959Y-61819264D01*
X93857335Y-61740210D01*
X93697366Y-61700782D01*
X93636986Y-61665626D01*
X93605197Y-61603407D01*
X93603945Y-61565438D01*
X93607331Y-61537549D01*
X93612754Y-61492891D01*
X93592249Y-61324019D01*
X93582062Y-61297159D01*
X93552522Y-61219266D01*
X93531927Y-61164961D01*
X93435292Y-61024962D01*
X93334197Y-60935400D01*
X93307958Y-60912154D01*
X93157335Y-60833101D01*
X92992165Y-60792391D01*
X92822053Y-60792391D01*
X92656882Y-60833101D01*
X92506259Y-60912154D01*
X92378925Y-61024963D01*
X92282291Y-61164959D01*
X92221969Y-61324016D01*
X92221968Y-61324021D01*
X92213622Y-61392755D01*
X92185999Y-61456933D01*
X92128064Y-61495989D01*
X92120201Y-61498204D01*
X91949773Y-61540210D01*
X91799150Y-61619263D01*
X91671816Y-61732072D01*
X91575182Y-61872068D01*
X91514860Y-62031125D01*
X91514859Y-62031130D01*
X91494355Y-62200000D01*
X91514859Y-62368869D01*
X91514860Y-62368872D01*
X91519515Y-62381147D01*
X91524879Y-62450811D01*
X91491729Y-62512316D01*
X91455854Y-62535653D01*
X91456416Y-62536724D01*
X91299150Y-62619263D01*
X91171816Y-62732072D01*
X91075182Y-62872068D01*
X91014860Y-63031125D01*
X91014859Y-63031130D01*
X90994355Y-63200000D01*
X91014859Y-63368869D01*
X91014860Y-63368874D01*
X91075182Y-63527931D01*
X91114605Y-63585044D01*
X91171817Y-63667929D01*
X91248736Y-63736073D01*
X91299150Y-63780736D01*
X91449773Y-63859789D01*
X91449775Y-63859790D01*
X91614944Y-63900500D01*
X91785056Y-63900500D01*
X91950225Y-63859790D01*
X92071819Y-63795972D01*
X92100849Y-63780736D01*
X92100850Y-63780734D01*
X92100852Y-63780734D01*
X92228183Y-63667929D01*
X92324818Y-63527930D01*
X92385140Y-63368872D01*
X92405645Y-63200000D01*
X92385140Y-63031128D01*
X92380485Y-63018856D01*
X92375119Y-62949194D01*
X92408266Y-62887687D01*
X92444146Y-62864349D01*
X92443583Y-62863276D01*
X92481762Y-62843238D01*
X92600852Y-62780734D01*
X92728183Y-62667929D01*
X92743285Y-62646048D01*
X92797564Y-62602061D01*
X92867013Y-62594400D01*
X92929578Y-62625502D01*
X92961276Y-62672518D01*
X92982291Y-62727930D01*
X93078926Y-62867929D01*
X93170656Y-62949194D01*
X93206259Y-62980736D01*
X93356882Y-63059789D01*
X93356884Y-63059790D01*
X93522053Y-63100500D01*
X93692165Y-63100500D01*
X93857334Y-63059790D01*
X93972206Y-62999500D01*
X94007958Y-62980736D01*
X94007959Y-62980734D01*
X94007961Y-62980734D01*
X94135292Y-62867929D01*
X94231927Y-62727930D01*
X94292249Y-62568872D01*
X94312754Y-62400000D01*
X94312753Y-62399999D01*
X94313658Y-62392554D01*
X94315613Y-62392791D01*
X94332439Y-62335489D01*
X94385243Y-62289734D01*
X94454401Y-62279790D01*
X94517957Y-62308815D01*
X94518930Y-62309667D01*
X94564004Y-62349599D01*
X94599150Y-62380736D01*
X94732667Y-62450811D01*
X94749775Y-62459790D01*
X94914944Y-62500500D01*
X95085056Y-62500500D01*
X95250225Y-62459790D01*
X95364213Y-62399964D01*
X95400849Y-62380736D01*
X95400850Y-62380734D01*
X95400852Y-62380734D01*
X95528183Y-62267929D01*
X95624818Y-62127930D01*
X95649396Y-62063120D01*
X95691572Y-62007420D01*
X95757169Y-61983362D01*
X95825359Y-61998588D01*
X95853018Y-62019412D01*
X97143413Y-63309807D01*
X97143433Y-63309825D01*
X97161658Y-63328050D01*
X97181398Y-63338108D01*
X97197987Y-63348274D01*
X97215909Y-63361295D01*
X97215910Y-63361295D01*
X97215911Y-63361296D01*
X97236980Y-63368142D01*
X97254949Y-63375584D01*
X97274696Y-63385646D01*
X97296582Y-63389112D01*
X97315497Y-63393653D01*
X97336567Y-63400500D01*
X97368481Y-63400500D01*
X98568059Y-63400500D01*
X98635098Y-63420185D01*
X98680853Y-63472989D01*
X98690797Y-63542147D01*
X98661772Y-63605703D01*
X98655740Y-63612181D01*
X98494513Y-63773407D01*
X98494513Y-63773408D01*
X98483231Y-63784690D01*
X98471948Y-63795973D01*
X98471948Y-63795974D01*
X98461891Y-63815711D01*
X98451731Y-63832291D01*
X98438706Y-63850219D01*
X98438703Y-63850224D01*
X98431854Y-63871302D01*
X98424413Y-63889266D01*
X98414354Y-63909009D01*
X98410887Y-63930896D01*
X98406347Y-63949805D01*
X98399500Y-63970881D01*
X98399500Y-66382744D01*
X98379815Y-66449783D01*
X98363181Y-66470425D01*
X97170425Y-67663181D01*
X97109102Y-67696666D01*
X97082744Y-67699500D01*
X96914944Y-67699500D01*
X96749773Y-67740210D01*
X96599150Y-67819263D01*
X96471816Y-67932072D01*
X96375182Y-68072068D01*
X96314860Y-68231125D01*
X96314859Y-68231130D01*
X96294355Y-68400000D01*
X96314859Y-68568869D01*
X96314860Y-68568874D01*
X96375182Y-68727931D01*
X96377071Y-68730667D01*
X96471817Y-68867929D01*
X96566654Y-68951947D01*
X96599150Y-68980736D01*
X96747199Y-69058438D01*
X96749775Y-69059790D01*
X96914944Y-69100500D01*
X97085056Y-69100500D01*
X97250225Y-69059790D01*
X97329692Y-69018081D01*
X97400849Y-68980736D01*
X97400850Y-68980734D01*
X97400852Y-68980734D01*
X97528183Y-68867929D01*
X97624818Y-68727930D01*
X97685140Y-68568872D01*
X97705645Y-68400000D01*
X97697844Y-68335758D01*
X97709304Y-68266837D01*
X97733256Y-68233135D01*
X98587819Y-67378573D01*
X98649142Y-67345088D01*
X98718834Y-67350072D01*
X98774767Y-67391944D01*
X98799184Y-67457408D01*
X98799500Y-67466254D01*
X98799500Y-68363146D01*
X98779815Y-68430185D01*
X98757727Y-68455961D01*
X98671818Y-68532069D01*
X98575182Y-68672068D01*
X98514860Y-68831125D01*
X98514859Y-68831130D01*
X98494355Y-69000000D01*
X98514859Y-69168869D01*
X98514860Y-69168874D01*
X98575182Y-69327931D01*
X98623059Y-69397291D01*
X98671817Y-69467929D01*
X98729932Y-69519414D01*
X98799150Y-69580736D01*
X98932785Y-69650873D01*
X98949775Y-69659790D01*
X99114944Y-69700500D01*
X99285056Y-69700500D01*
X99450225Y-69659790D01*
X99529692Y-69618081D01*
X99600849Y-69580736D01*
X99600850Y-69580734D01*
X99600852Y-69580734D01*
X99728183Y-69467929D01*
X99824818Y-69327930D01*
X99885140Y-69168872D01*
X99905645Y-69000000D01*
X99885140Y-68831128D01*
X99824818Y-68672070D01*
X99728183Y-68532071D01*
X99719678Y-68524536D01*
X99642273Y-68455961D01*
X99605146Y-68396772D01*
X99600500Y-68363146D01*
X99600500Y-64417254D01*
X99620185Y-64350215D01*
X99636819Y-64329573D01*
X99729573Y-64236819D01*
X99790896Y-64203334D01*
X99817254Y-64200500D01*
X100733745Y-64200500D01*
X100800784Y-64220185D01*
X100846539Y-64272989D01*
X100856483Y-64342147D01*
X100827458Y-64405703D01*
X100821426Y-64412181D01*
X100694513Y-64539093D01*
X100694513Y-64539094D01*
X100683231Y-64550376D01*
X100671948Y-64561659D01*
X100671948Y-64561660D01*
X100661891Y-64581397D01*
X100651731Y-64597977D01*
X100638706Y-64615905D01*
X100638703Y-64615910D01*
X100631854Y-64636988D01*
X100624413Y-64654952D01*
X100614354Y-64674695D01*
X100610887Y-64696582D01*
X100606347Y-64715491D01*
X100599500Y-64736567D01*
X100599500Y-67755396D01*
X100579815Y-67822435D01*
X100527011Y-67868190D01*
X100522953Y-67869957D01*
X100509661Y-67875462D01*
X100509658Y-67875464D01*
X100384219Y-67971716D01*
X100287963Y-68097160D01*
X100227456Y-68243237D01*
X100227455Y-68243239D01*
X100206818Y-68399998D01*
X100206818Y-68400001D01*
X100227455Y-68556760D01*
X100227456Y-68556762D01*
X100287964Y-68702841D01*
X100384218Y-68828282D01*
X100509659Y-68924536D01*
X100655738Y-68985044D01*
X100720530Y-68993574D01*
X100812499Y-69005682D01*
X100812500Y-69005682D01*
X100812501Y-69005682D01*
X100864754Y-68998802D01*
X100969262Y-68985044D01*
X101115341Y-68924536D01*
X101240782Y-68828282D01*
X101337036Y-68702841D01*
X101397544Y-68556762D01*
X101418182Y-68400000D01*
X101401561Y-68273750D01*
X101400500Y-68257565D01*
X101400500Y-67000001D01*
X113394318Y-67000001D01*
X113414955Y-67156760D01*
X113414956Y-67156762D01*
X113475464Y-67302841D01*
X113571718Y-67428282D01*
X113697159Y-67524536D01*
X113843238Y-67585044D01*
X113921619Y-67595363D01*
X113999999Y-67605682D01*
X114000000Y-67605682D01*
X114000001Y-67605682D01*
X114052254Y-67598802D01*
X114156762Y-67585044D01*
X114302841Y-67524536D01*
X114428282Y-67428282D01*
X114524536Y-67302841D01*
X114585044Y-67156762D01*
X114605682Y-67000000D01*
X114585044Y-66843238D01*
X114524536Y-66697159D01*
X114428282Y-66571718D01*
X114302841Y-66475464D01*
X114156762Y-66414956D01*
X114156760Y-66414955D01*
X114000001Y-66394318D01*
X113999999Y-66394318D01*
X113843239Y-66414955D01*
X113843237Y-66414956D01*
X113697160Y-66475463D01*
X113571718Y-66571718D01*
X113475463Y-66697160D01*
X113414956Y-66843237D01*
X113414955Y-66843239D01*
X113394318Y-66999998D01*
X113394318Y-67000001D01*
X101400500Y-67000001D01*
X101400500Y-65017254D01*
X101420185Y-64950215D01*
X101436819Y-64929573D01*
X101729573Y-64636819D01*
X101790896Y-64603334D01*
X101817254Y-64600500D01*
X112103453Y-64600500D01*
X112170492Y-64620185D01*
X112216247Y-64672989D01*
X112226391Y-64740685D01*
X112222681Y-64768872D01*
X112218583Y-64800000D01*
X112218583Y-64800001D01*
X112239220Y-64956760D01*
X112239221Y-64956762D01*
X112295522Y-65092686D01*
X112299729Y-65102841D01*
X112395983Y-65228282D01*
X112521424Y-65324536D01*
X112667503Y-65385044D01*
X112745884Y-65395363D01*
X112824264Y-65405682D01*
X112824265Y-65405682D01*
X112824266Y-65405682D01*
X112876519Y-65398802D01*
X112981027Y-65385044D01*
X113127106Y-65324536D01*
X113252547Y-65228282D01*
X113348801Y-65102841D01*
X113409309Y-64956762D01*
X113429947Y-64800000D01*
X113422138Y-64740685D01*
X113432903Y-64671650D01*
X113479283Y-64619394D01*
X113545077Y-64600500D01*
X114150219Y-64600500D01*
X114217258Y-64620185D01*
X114263013Y-64672989D01*
X114264780Y-64677048D01*
X114275462Y-64702838D01*
X114275463Y-64702839D01*
X114275464Y-64702841D01*
X114371718Y-64828282D01*
X114497159Y-64924536D01*
X114643238Y-64985044D01*
X114721619Y-64995363D01*
X114799999Y-65005682D01*
X114800000Y-65005682D01*
X114800001Y-65005682D01*
X114852254Y-64998802D01*
X114956762Y-64985044D01*
X115102841Y-64924536D01*
X115228282Y-64828282D01*
X115324536Y-64702841D01*
X115385044Y-64556762D01*
X115401584Y-64431125D01*
X115405682Y-64400001D01*
X115405682Y-64400000D01*
X115399128Y-64350215D01*
X115397873Y-64340685D01*
X115408638Y-64271650D01*
X115455018Y-64219394D01*
X115520812Y-64200500D01*
X117452844Y-64200500D01*
X117519883Y-64220185D01*
X117540525Y-64236819D01*
X117644393Y-64340686D01*
X117742049Y-64438342D01*
X117831757Y-64528050D01*
X117851494Y-64538106D01*
X117868080Y-64548269D01*
X117886009Y-64561296D01*
X117886011Y-64561296D01*
X117886012Y-64561297D01*
X117907073Y-64568140D01*
X117925051Y-64575586D01*
X117936456Y-64581397D01*
X117944795Y-64585646D01*
X117966684Y-64589112D01*
X117985600Y-64593653D01*
X118006666Y-64600499D01*
X118033445Y-64600499D01*
X118033469Y-64600500D01*
X118038580Y-64600500D01*
X122213431Y-64600500D01*
X122213433Y-64600500D01*
X122234501Y-64593654D01*
X122253417Y-64589112D01*
X122275304Y-64585646D01*
X122295044Y-64575586D01*
X122313011Y-64568144D01*
X122334090Y-64561296D01*
X122352026Y-64548263D01*
X122368588Y-64538114D01*
X122388342Y-64528050D01*
X122403834Y-64512557D01*
X122403841Y-64512552D01*
X123331349Y-63585044D01*
X124255483Y-62660909D01*
X124278050Y-62638342D01*
X124288109Y-62618597D01*
X124298271Y-62602014D01*
X124311296Y-62584090D01*
X124318141Y-62563022D01*
X124325586Y-62545045D01*
X124335646Y-62525304D01*
X124339112Y-62503415D01*
X124343652Y-62484501D01*
X124350499Y-62463433D01*
X124350499Y-62436654D01*
X124350500Y-62436629D01*
X124350500Y-62406580D01*
X124370185Y-62339541D01*
X124376124Y-62331093D01*
X124378279Y-62328283D01*
X124378282Y-62328282D01*
X124474536Y-62202841D01*
X124535044Y-62056762D01*
X124552851Y-61921501D01*
X124555682Y-61900001D01*
X124555682Y-61899998D01*
X124535044Y-61743239D01*
X124535044Y-61743238D01*
X124474536Y-61597159D01*
X124378282Y-61471718D01*
X124252841Y-61375464D01*
X124236936Y-61368876D01*
X124106762Y-61314956D01*
X124106760Y-61314955D01*
X123950001Y-61294318D01*
X123949999Y-61294318D01*
X123793239Y-61314955D01*
X123793237Y-61314956D01*
X123647160Y-61375463D01*
X123647159Y-61375464D01*
X123521718Y-61471718D01*
X123521717Y-61471719D01*
X123521716Y-61471720D01*
X123468081Y-61541618D01*
X123411653Y-61582821D01*
X123341907Y-61586975D01*
X123322254Y-61580692D01*
X123228423Y-61541826D01*
X123215419Y-61540114D01*
X123151523Y-61511845D01*
X123113054Y-61453519D01*
X123107608Y-61417175D01*
X123107608Y-58493882D01*
X123127293Y-58426843D01*
X123180097Y-58381088D01*
X123249255Y-58371144D01*
X123312811Y-58400169D01*
X123350585Y-58458947D01*
X123354547Y-58477697D01*
X123364955Y-58556760D01*
X123364956Y-58556762D01*
X123420572Y-58691032D01*
X123425464Y-58702841D01*
X123521718Y-58828282D01*
X123647159Y-58924536D01*
X123793238Y-58985044D01*
X123871619Y-58995363D01*
X123949999Y-59005682D01*
X123950000Y-59005682D01*
X123950001Y-59005682D01*
X124002254Y-58998802D01*
X124106762Y-58985044D01*
X124252841Y-58924536D01*
X124378282Y-58828282D01*
X124474536Y-58702841D01*
X124535044Y-58556762D01*
X124555682Y-58400000D01*
X124554693Y-58392491D01*
X124541923Y-58295492D01*
X124535044Y-58243238D01*
X124474536Y-58097159D01*
X124378282Y-57971718D01*
X124252841Y-57875464D01*
X124242817Y-57871312D01*
X124106762Y-57814956D01*
X124106760Y-57814955D01*
X123950001Y-57794318D01*
X123949999Y-57794318D01*
X123793239Y-57814955D01*
X123793237Y-57814956D01*
X123647160Y-57875463D01*
X123521710Y-57971724D01*
X123518244Y-57975191D01*
X123456920Y-58008673D01*
X123387228Y-58003684D01*
X123331297Y-57961810D01*
X123307629Y-57903690D01*
X123292152Y-57786131D01*
X123292152Y-57786130D01*
X123231644Y-57640051D01*
X123135390Y-57514610D01*
X123009949Y-57418356D01*
X122863870Y-57357848D01*
X122863868Y-57357847D01*
X122707109Y-57337210D01*
X122707107Y-57337210D01*
X122550347Y-57357847D01*
X122550345Y-57357848D01*
X122404268Y-57418355D01*
X122278826Y-57514610D01*
X122182571Y-57640052D01*
X122122064Y-57786129D01*
X122122063Y-57786131D01*
X122101426Y-57942890D01*
X122101426Y-57942893D01*
X122122063Y-58099652D01*
X122122064Y-58099654D01*
X122181538Y-58243238D01*
X122182572Y-58245733D01*
X122278826Y-58371174D01*
X122278828Y-58371175D01*
X122280984Y-58373985D01*
X122306178Y-58439155D01*
X122306608Y-58449472D01*
X122306608Y-61425637D01*
X122286923Y-61492676D01*
X122270289Y-61513318D01*
X120820426Y-62963181D01*
X120759103Y-62996666D01*
X120732745Y-62999500D01*
X119370812Y-62999500D01*
X119303773Y-62979815D01*
X119258018Y-62927011D01*
X119247873Y-62859314D01*
X119249834Y-62844423D01*
X119255682Y-62800000D01*
X119235044Y-62643238D01*
X119174536Y-62497159D01*
X119078282Y-62371718D01*
X118952841Y-62275464D01*
X118806762Y-62214956D01*
X118806760Y-62214955D01*
X118650001Y-62194318D01*
X118649999Y-62194318D01*
X118493239Y-62214955D01*
X118493237Y-62214956D01*
X118347160Y-62275463D01*
X118221716Y-62371719D01*
X118125464Y-62497158D01*
X118125463Y-62497159D01*
X118114779Y-62522954D01*
X118070937Y-62577357D01*
X118004642Y-62599421D01*
X118000218Y-62599500D01*
X100377319Y-62599500D01*
X100310280Y-62579815D01*
X100264525Y-62527011D01*
X100254581Y-62457853D01*
X100261375Y-62431534D01*
X100285140Y-62368872D01*
X100305645Y-62200000D01*
X100285140Y-62031128D01*
X100224818Y-61872070D01*
X100128183Y-61732071D01*
X100014244Y-61631130D01*
X100000849Y-61619263D01*
X99850227Y-61540210D01*
X99847697Y-61539587D01*
X99846040Y-61538622D01*
X99843210Y-61537549D01*
X99843388Y-61537078D01*
X99787317Y-61504430D01*
X99755529Y-61442211D01*
X99761432Y-61375217D01*
X99763836Y-61368876D01*
X99763838Y-61368872D01*
X99784343Y-61200000D01*
X99763838Y-61031128D01*
X99703516Y-60872070D01*
X99687841Y-60849362D01*
X99665958Y-60783009D01*
X99683422Y-60715357D01*
X99707660Y-60686110D01*
X99728183Y-60667929D01*
X99824818Y-60527930D01*
X99885140Y-60368872D01*
X99905645Y-60200000D01*
X99885140Y-60031128D01*
X99824818Y-59872070D01*
X99753586Y-59768874D01*
X99728181Y-59732068D01*
X99723209Y-59726456D01*
X99724674Y-59725157D01*
X99692918Y-59674531D01*
X99693686Y-59604665D01*
X99732104Y-59546306D01*
X99795975Y-59517981D01*
X99841946Y-59520507D01*
X99914944Y-59538500D01*
X100085056Y-59538500D01*
X100250225Y-59497790D01*
X100329692Y-59456081D01*
X100400849Y-59418736D01*
X100400850Y-59418734D01*
X100400852Y-59418734D01*
X100528183Y-59305929D01*
X100624818Y-59165930D01*
X100685140Y-59006872D01*
X100685974Y-59000001D01*
X115594318Y-59000001D01*
X115614955Y-59156760D01*
X115614956Y-59156762D01*
X115664428Y-59276199D01*
X115675464Y-59302841D01*
X115771718Y-59428282D01*
X115897159Y-59524536D01*
X116043238Y-59585044D01*
X116121619Y-59595363D01*
X116199999Y-59605682D01*
X116200000Y-59605682D01*
X116200001Y-59605682D01*
X116252254Y-59598802D01*
X116356762Y-59585044D01*
X116502841Y-59524536D01*
X116628282Y-59428282D01*
X116724536Y-59302841D01*
X116785044Y-59156762D01*
X116799990Y-59043237D01*
X116805682Y-59000001D01*
X116805682Y-58999998D01*
X116785044Y-58843239D01*
X116785044Y-58843238D01*
X116724536Y-58697159D01*
X116628282Y-58571718D01*
X116502841Y-58475464D01*
X116469655Y-58461718D01*
X116356762Y-58414956D01*
X116356760Y-58414955D01*
X116200001Y-58394318D01*
X116199999Y-58394318D01*
X116043239Y-58414955D01*
X116043237Y-58414956D01*
X115897160Y-58475463D01*
X115771718Y-58571718D01*
X115675463Y-58697160D01*
X115614956Y-58843237D01*
X115614955Y-58843239D01*
X115594318Y-58999998D01*
X115594318Y-59000001D01*
X100685974Y-59000001D01*
X100705645Y-58838000D01*
X100685140Y-58669128D01*
X100624818Y-58510070D01*
X100602472Y-58477697D01*
X100581657Y-58447541D01*
X100528183Y-58370071D01*
X100433316Y-58286026D01*
X100400849Y-58257263D01*
X100250226Y-58178210D01*
X100085056Y-58137500D01*
X99914944Y-58137500D01*
X99749773Y-58178210D01*
X99599150Y-58257263D01*
X99531793Y-58316936D01*
X99468559Y-58346656D01*
X99399296Y-58337472D01*
X99347517Y-58294559D01*
X99328848Y-58267512D01*
X99279307Y-58195740D01*
X99151976Y-58082935D01*
X99151973Y-58082932D01*
X99001350Y-58003879D01*
X98836180Y-57963169D01*
X98666068Y-57963169D01*
X98500897Y-58003879D01*
X98350274Y-58082932D01*
X98222940Y-58195741D01*
X98126306Y-58335737D01*
X98065984Y-58494794D01*
X98065983Y-58494799D01*
X98045479Y-58663669D01*
X98065984Y-58832541D01*
X98074994Y-58856300D01*
X98080360Y-58925963D01*
X98047211Y-58987469D01*
X98016682Y-59010063D01*
X97999148Y-59019266D01*
X97999147Y-59019267D01*
X97871816Y-59132072D01*
X97775182Y-59272068D01*
X97714860Y-59431125D01*
X97714859Y-59431130D01*
X97694355Y-59600000D01*
X97714859Y-59768869D01*
X97714860Y-59768874D01*
X97775182Y-59927931D01*
X97837475Y-60018177D01*
X97871817Y-60067929D01*
X97977505Y-60161560D01*
X97999150Y-60180736D01*
X98149773Y-60259789D01*
X98149775Y-60259790D01*
X98314944Y-60300500D01*
X98403339Y-60300500D01*
X98470378Y-60320185D01*
X98516133Y-60372989D01*
X98519281Y-60380529D01*
X98575182Y-60527931D01*
X98575183Y-60527932D01*
X98590855Y-60550636D01*
X98612739Y-60616990D01*
X98595274Y-60684642D01*
X98571035Y-60713890D01*
X98550518Y-60732066D01*
X98453879Y-60872070D01*
X98450986Y-60879699D01*
X98408805Y-60935400D01*
X98343206Y-60959453D01*
X98318861Y-60958661D01*
X98246759Y-60949169D01*
X98246757Y-60949169D01*
X98089997Y-60969806D01*
X98089995Y-60969807D01*
X97943918Y-61030314D01*
X97818476Y-61126569D01*
X97722221Y-61252011D01*
X97661713Y-61398089D01*
X97658148Y-61425174D01*
X97629881Y-61489071D01*
X97571556Y-61527541D01*
X97551395Y-61531927D01*
X97524310Y-61535492D01*
X97378232Y-61596000D01*
X97252790Y-61692255D01*
X97156536Y-61817696D01*
X97118466Y-61909604D01*
X97074624Y-61964007D01*
X97008330Y-61986071D01*
X96940631Y-61968791D01*
X96916224Y-61949831D01*
X94657813Y-59691419D01*
X94657782Y-59691390D01*
X94638342Y-59671950D01*
X94638340Y-59671949D01*
X94618600Y-59661890D01*
X94602014Y-59651726D01*
X94584090Y-59638704D01*
X94584091Y-59638704D01*
X94563018Y-59631857D01*
X94545045Y-59624412D01*
X94525307Y-59614355D01*
X94525304Y-59614354D01*
X94503418Y-59610887D01*
X94484507Y-59606346D01*
X94463439Y-59599501D01*
X94463434Y-59599500D01*
X94463433Y-59599500D01*
X94463429Y-59599500D01*
X84670078Y-59599500D01*
X84603039Y-59579815D01*
X84557284Y-59527011D01*
X84547340Y-59457853D01*
X84555517Y-59428048D01*
X84569434Y-59394446D01*
X84585044Y-59356762D01*
X84605682Y-59200000D01*
X84600968Y-59164196D01*
X84591923Y-59095492D01*
X84585044Y-59043238D01*
X84524536Y-58897159D01*
X84445911Y-58794693D01*
X84420719Y-58729528D01*
X84434757Y-58661083D01*
X84468803Y-58620834D01*
X84524627Y-58577999D01*
X84575410Y-58539032D01*
X84671664Y-58413591D01*
X84732172Y-58267512D01*
X84752810Y-58110750D01*
X84737255Y-57992600D01*
X84748020Y-57923568D01*
X84794400Y-57871312D01*
X84812739Y-57861857D01*
X84902841Y-57824536D01*
X85028282Y-57728282D01*
X85124536Y-57602841D01*
X85185044Y-57456762D01*
X85205682Y-57300000D01*
X85185044Y-57143238D01*
X85124536Y-56997159D01*
X85110843Y-56979314D01*
X85085650Y-56914147D01*
X85099688Y-56845702D01*
X85148502Y-56795712D01*
X85193030Y-56780891D01*
X85330480Y-56762796D01*
X85476559Y-56702288D01*
X85602000Y-56606034D01*
X85698254Y-56480593D01*
X85758762Y-56334514D01*
X85779400Y-56177752D01*
X85758762Y-56020990D01*
X85698254Y-55874911D01*
X85602000Y-55749470D01*
X85476559Y-55653216D01*
X85476558Y-55653215D01*
X85476556Y-55653214D01*
X85465640Y-55648693D01*
X85411236Y-55604853D01*
X85389171Y-55538559D01*
X85390152Y-55517960D01*
X85405682Y-55400000D01*
X85399989Y-55356760D01*
X85385044Y-55243239D01*
X85385042Y-55243234D01*
X85367134Y-55200001D01*
X85324536Y-55097159D01*
X85324535Y-55097157D01*
X85316430Y-55086595D01*
X85291235Y-55021426D01*
X85305273Y-54952981D01*
X85339316Y-54912735D01*
X85383972Y-54878470D01*
X85480226Y-54753029D01*
X85540734Y-54606950D01*
X85544698Y-54576838D01*
X85572965Y-54512943D01*
X85631289Y-54474472D01*
X85660275Y-54470128D01*
X85660270Y-54470086D01*
X85662631Y-54469775D01*
X85667637Y-54469025D01*
X85668329Y-54469025D01*
X85720582Y-54462145D01*
X85825090Y-54448387D01*
X85971169Y-54387879D01*
X86096610Y-54291625D01*
X86192864Y-54166184D01*
X86253372Y-54020105D01*
X86268366Y-53906214D01*
X86274010Y-53863344D01*
X86274010Y-53863341D01*
X86260251Y-53758835D01*
X86253372Y-53706581D01*
X86192864Y-53560502D01*
X86096610Y-53435061D01*
X85971169Y-53338807D01*
X85894742Y-53307150D01*
X85825090Y-53278299D01*
X85825088Y-53278298D01*
X85668329Y-53257661D01*
X85668327Y-53257661D01*
X85511567Y-53278298D01*
X85511565Y-53278299D01*
X85365488Y-53338806D01*
X85240046Y-53435061D01*
X85143791Y-53560503D01*
X85083284Y-53706580D01*
X85083284Y-53706581D01*
X85079320Y-53736692D01*
X85051053Y-53800588D01*
X84992729Y-53839059D01*
X84963741Y-53843402D01*
X84963747Y-53843445D01*
X84961393Y-53843754D01*
X84956381Y-53844506D01*
X84955688Y-53844506D01*
X84798929Y-53865143D01*
X84798927Y-53865144D01*
X84652850Y-53925651D01*
X84611035Y-53957736D01*
X84527408Y-54021906D01*
X84527407Y-54021907D01*
X84527406Y-54021908D01*
X84464000Y-54104540D01*
X84407572Y-54145742D01*
X84349438Y-54151991D01*
X84322929Y-54148501D01*
X84308312Y-54146577D01*
X84244416Y-54118309D01*
X84205946Y-54059984D01*
X84200500Y-54023638D01*
X84200500Y-52042478D01*
X84220185Y-51975439D01*
X84272989Y-51929684D01*
X84342147Y-51919740D01*
X84399985Y-51944101D01*
X84431517Y-51968297D01*
X84512587Y-52001877D01*
X84566990Y-52045718D01*
X84589055Y-52112012D01*
X84588073Y-52132621D01*
X84579204Y-52199995D01*
X84579204Y-52200001D01*
X84599841Y-52356760D01*
X84599842Y-52356762D01*
X84638462Y-52450000D01*
X84660350Y-52502841D01*
X84756604Y-52628282D01*
X84882045Y-52724536D01*
X85028124Y-52785044D01*
X85098567Y-52794318D01*
X85184885Y-52805682D01*
X85184886Y-52805682D01*
X85184887Y-52805682D01*
X85253696Y-52796623D01*
X85341648Y-52785044D01*
X85487727Y-52724536D01*
X85613168Y-52628282D01*
X85709422Y-52502841D01*
X85769930Y-52356762D01*
X85790568Y-52200000D01*
X85790567Y-52199995D01*
X85769930Y-52043239D01*
X85769930Y-52043238D01*
X85709422Y-51897159D01*
X85613168Y-51771718D01*
X85613166Y-51771716D01*
X85613165Y-51771715D01*
X85605792Y-51766058D01*
X85564589Y-51709630D01*
X85560435Y-51639884D01*
X85594648Y-51578964D01*
X85633820Y-51553125D01*
X85702841Y-51524536D01*
X85828282Y-51428282D01*
X85924536Y-51302841D01*
X85985044Y-51156762D01*
X86005682Y-51000000D01*
X85985044Y-50843238D01*
X85924536Y-50697159D01*
X85828282Y-50571718D01*
X85702841Y-50475464D01*
X85556762Y-50414956D01*
X85556760Y-50414955D01*
X85400001Y-50394318D01*
X85399999Y-50394318D01*
X85243239Y-50414955D01*
X85243237Y-50414956D01*
X85097160Y-50475463D01*
X84971718Y-50571718D01*
X84875463Y-50697160D01*
X84848800Y-50761532D01*
X84804959Y-50815935D01*
X84742381Y-50836763D01*
X84742415Y-50837018D01*
X84741092Y-50837192D01*
X84738665Y-50838000D01*
X84734374Y-50838076D01*
X84577597Y-50858716D01*
X84577595Y-50858717D01*
X84431515Y-50919225D01*
X84399986Y-50943419D01*
X84334817Y-50968613D01*
X84266372Y-50954574D01*
X84216382Y-50905760D01*
X84200500Y-50845043D01*
X84200500Y-49720812D01*
X84220185Y-49653773D01*
X84272989Y-49608018D01*
X84340684Y-49597873D01*
X84400000Y-49605682D01*
X84400001Y-49605681D01*
X84403513Y-49606144D01*
X84467410Y-49634410D01*
X84475010Y-49641402D01*
X84561658Y-49728050D01*
X84581395Y-49738106D01*
X84597981Y-49748269D01*
X84615910Y-49761296D01*
X84615912Y-49761296D01*
X84615913Y-49761297D01*
X84636974Y-49768140D01*
X84654953Y-49775586D01*
X84674696Y-49785646D01*
X84696585Y-49789112D01*
X84715501Y-49793653D01*
X84736567Y-49800499D01*
X84763346Y-49800499D01*
X84763370Y-49800500D01*
X84768481Y-49800500D01*
X88607391Y-49800500D01*
X88674430Y-49820185D01*
X88720185Y-49872989D01*
X88730129Y-49942147D01*
X88701104Y-50005703D01*
X88656168Y-50037086D01*
X88656416Y-50037558D01*
X88652699Y-50039508D01*
X88651363Y-50040442D01*
X88649769Y-50041046D01*
X88499150Y-50120097D01*
X88371816Y-50232906D01*
X88275182Y-50372902D01*
X88214860Y-50531959D01*
X88214859Y-50531964D01*
X88194355Y-50700834D01*
X88214859Y-50869703D01*
X88214860Y-50869708D01*
X88275182Y-51028765D01*
X88337475Y-51119011D01*
X88371817Y-51168763D01*
X88477505Y-51262394D01*
X88499150Y-51281570D01*
X88649773Y-51360623D01*
X88649775Y-51360624D01*
X88814944Y-51401334D01*
X88822227Y-51403129D01*
X88821716Y-51405200D01*
X88876038Y-51428577D01*
X88915098Y-51486509D01*
X88920015Y-51539002D01*
X88905674Y-51657115D01*
X88926178Y-51825985D01*
X88926179Y-51825990D01*
X88986501Y-51985047D01*
X89044756Y-52069443D01*
X89083136Y-52125045D01*
X89210467Y-52237850D01*
X89261391Y-52264577D01*
X89311603Y-52313160D01*
X89327578Y-52381179D01*
X89319710Y-52418337D01*
X89314861Y-52431124D01*
X89314859Y-52431130D01*
X89294355Y-52600000D01*
X89314859Y-52768869D01*
X89314860Y-52768874D01*
X89375182Y-52927931D01*
X89405407Y-52971718D01*
X89471817Y-53067929D01*
X89568676Y-53153738D01*
X89599150Y-53180736D01*
X89749773Y-53259789D01*
X89749775Y-53259790D01*
X89914944Y-53300500D01*
X90085056Y-53300500D01*
X90250225Y-53259790D01*
X90327486Y-53219239D01*
X90395994Y-53205514D01*
X90461047Y-53231006D01*
X90501992Y-53287622D01*
X90508208Y-53314089D01*
X90514859Y-53368869D01*
X90514860Y-53368874D01*
X90575182Y-53527931D01*
X90605854Y-53572366D01*
X90671817Y-53667929D01*
X90744219Y-53732071D01*
X90799150Y-53780736D01*
X90946612Y-53858130D01*
X90949775Y-53859790D01*
X91114944Y-53900500D01*
X91285056Y-53900500D01*
X91450225Y-53859790D01*
X91511493Y-53827633D01*
X91579999Y-53813908D01*
X91645053Y-53839400D01*
X91666789Y-53862362D01*
X91666843Y-53862315D01*
X91668272Y-53863928D01*
X91671162Y-53866981D01*
X91671814Y-53867926D01*
X91671816Y-53867928D01*
X91671817Y-53867929D01*
X91708582Y-53900500D01*
X91799150Y-53980736D01*
X91918236Y-54043237D01*
X91949775Y-54059790D01*
X92114944Y-54100500D01*
X92285056Y-54100500D01*
X92450225Y-54059790D01*
X92527486Y-54019239D01*
X92595994Y-54005514D01*
X92661047Y-54031006D01*
X92701992Y-54087622D01*
X92708208Y-54114089D01*
X92714859Y-54168869D01*
X92714860Y-54168874D01*
X92775182Y-54327931D01*
X92816562Y-54387879D01*
X92871817Y-54467929D01*
X92972675Y-54557281D01*
X92999150Y-54580736D01*
X93149773Y-54659789D01*
X93149775Y-54659790D01*
X93314944Y-54700500D01*
X93485056Y-54700500D01*
X93650225Y-54659790D01*
X93711493Y-54627633D01*
X93779999Y-54613908D01*
X93845053Y-54639400D01*
X93866789Y-54662362D01*
X93866843Y-54662315D01*
X93868272Y-54663928D01*
X93871162Y-54666981D01*
X93871814Y-54667926D01*
X93871816Y-54667928D01*
X93871817Y-54667929D01*
X93901604Y-54694318D01*
X93999150Y-54780736D01*
X94148609Y-54859178D01*
X94149775Y-54859790D01*
X94314944Y-54900500D01*
X94485056Y-54900500D01*
X94650225Y-54859790D01*
X94765916Y-54799070D01*
X94800849Y-54780736D01*
X94800850Y-54780734D01*
X94800852Y-54780734D01*
X94928183Y-54667929D01*
X95024818Y-54527930D01*
X95085140Y-54368872D01*
X95105645Y-54200000D01*
X95085140Y-54031128D01*
X95082299Y-54023638D01*
X95034333Y-53897159D01*
X95024818Y-53872070D01*
X95021305Y-53866981D01*
X94973678Y-53797982D01*
X94928183Y-53732071D01*
X94800852Y-53619266D01*
X94800849Y-53619263D01*
X94650226Y-53540210D01*
X94485056Y-53499500D01*
X94314944Y-53499500D01*
X94149774Y-53540209D01*
X94088505Y-53572366D01*
X94019996Y-53586090D01*
X93954943Y-53560597D01*
X93933211Y-53537636D01*
X93933157Y-53537685D01*
X93931686Y-53536025D01*
X93928828Y-53533005D01*
X93928184Y-53532072D01*
X93800849Y-53419263D01*
X93650226Y-53340210D01*
X93485056Y-53299500D01*
X93314944Y-53299500D01*
X93149774Y-53340209D01*
X93072512Y-53380760D01*
X93004004Y-53394484D01*
X92938950Y-53368992D01*
X92898007Y-53312376D01*
X92891792Y-53285913D01*
X92885140Y-53231128D01*
X92874069Y-53201937D01*
X92841749Y-53116714D01*
X92824818Y-53072070D01*
X92821958Y-53067927D01*
X92760164Y-52978403D01*
X92728183Y-52932071D01*
X92623669Y-52839480D01*
X92600849Y-52819263D01*
X92450226Y-52740210D01*
X92285056Y-52699500D01*
X92114944Y-52699500D01*
X91949774Y-52740209D01*
X91888505Y-52772366D01*
X91819996Y-52786090D01*
X91754943Y-52760597D01*
X91733211Y-52737636D01*
X91733157Y-52737685D01*
X91731686Y-52736025D01*
X91728828Y-52733005D01*
X91728184Y-52732072D01*
X91600849Y-52619263D01*
X91450226Y-52540210D01*
X91285056Y-52499500D01*
X91114944Y-52499500D01*
X90949774Y-52540209D01*
X90872512Y-52580760D01*
X90804004Y-52594484D01*
X90738950Y-52568992D01*
X90698007Y-52512376D01*
X90691792Y-52485913D01*
X90685140Y-52431128D01*
X90685138Y-52431124D01*
X90654372Y-52349998D01*
X90624818Y-52272070D01*
X90619645Y-52264576D01*
X90578993Y-52205681D01*
X90528183Y-52132071D01*
X90400852Y-52019266D01*
X90349925Y-51992537D01*
X90299715Y-51943954D01*
X90283740Y-51875935D01*
X90291612Y-51838769D01*
X90296457Y-51825992D01*
X90296458Y-51825990D01*
X90296459Y-51825988D01*
X90316964Y-51657116D01*
X90296459Y-51488244D01*
X90236137Y-51329186D01*
X90217952Y-51302841D01*
X90135241Y-51183014D01*
X90137666Y-51181339D01*
X90113729Y-51130410D01*
X90122913Y-51061147D01*
X90168085Y-51007844D01*
X90178624Y-51001628D01*
X90249274Y-50964549D01*
X90376605Y-50851744D01*
X90473240Y-50711745D01*
X90533562Y-50552687D01*
X90550942Y-50409553D01*
X90578564Y-50345375D01*
X90636498Y-50306319D01*
X90674038Y-50300500D01*
X90685056Y-50300500D01*
X90850225Y-50259790D01*
X90929692Y-50218081D01*
X91000849Y-50180736D01*
X91000850Y-50180734D01*
X91000852Y-50180734D01*
X91128183Y-50067929D01*
X91224818Y-49927930D01*
X91285140Y-49768872D01*
X91305645Y-49600000D01*
X91285140Y-49431128D01*
X91261376Y-49368468D01*
X91256010Y-49298808D01*
X91289157Y-49237302D01*
X91350295Y-49203480D01*
X91377319Y-49200500D01*
X92782746Y-49200500D01*
X92849785Y-49220185D01*
X92870422Y-49236814D01*
X92932416Y-49298808D01*
X92943423Y-49309815D01*
X92943434Y-49309825D01*
X92961659Y-49328050D01*
X92981391Y-49338104D01*
X92981399Y-49338108D01*
X92997988Y-49348274D01*
X93015910Y-49361295D01*
X93015911Y-49361295D01*
X93015912Y-49361296D01*
X93036981Y-49368142D01*
X93054950Y-49375584D01*
X93074697Y-49385646D01*
X93096583Y-49389112D01*
X93115498Y-49393653D01*
X93136568Y-49400500D01*
X93136570Y-49400500D01*
X94863431Y-49400500D01*
X94863433Y-49400500D01*
X94884501Y-49393654D01*
X94903417Y-49389112D01*
X94925304Y-49385646D01*
X94945044Y-49375586D01*
X94963011Y-49368144D01*
X94984090Y-49361296D01*
X95002026Y-49348263D01*
X95018588Y-49338114D01*
X95038342Y-49328050D01*
X95053834Y-49312557D01*
X95053841Y-49312552D01*
X95568409Y-48797984D01*
X96129573Y-48236818D01*
X96190896Y-48203334D01*
X96217254Y-48200500D01*
X101095562Y-48200500D01*
X101162601Y-48220185D01*
X101208356Y-48272989D01*
X101218300Y-48342147D01*
X101189275Y-48405703D01*
X101183262Y-48412161D01*
X100952186Y-48643237D01*
X100919615Y-48675808D01*
X100909249Y-48685072D01*
X100883079Y-48705942D01*
X100852585Y-48750667D01*
X100849904Y-48754445D01*
X100817771Y-48797984D01*
X100813994Y-48805129D01*
X100810483Y-48812420D01*
X100794525Y-48864153D01*
X100793078Y-48868551D01*
X100775207Y-48919627D01*
X100773710Y-48927538D01*
X100772500Y-48935568D01*
X100772500Y-48989678D01*
X100772413Y-48994316D01*
X100770388Y-49048406D01*
X100771429Y-49057640D01*
X100770540Y-49057740D01*
X100772500Y-49072609D01*
X100772500Y-51128606D01*
X100752815Y-51195645D01*
X100746876Y-51204092D01*
X100675464Y-51297157D01*
X100614956Y-51443237D01*
X100614955Y-51443239D01*
X100594318Y-51599998D01*
X100594318Y-51600001D01*
X100614955Y-51756760D01*
X100614956Y-51756762D01*
X100671933Y-51894318D01*
X100675464Y-51902841D01*
X100771718Y-52028282D01*
X100771720Y-52028283D01*
X100773876Y-52031093D01*
X100799070Y-52096263D01*
X100799500Y-52106580D01*
X100799500Y-53063429D01*
X100799501Y-53063439D01*
X100806346Y-53084507D01*
X100810887Y-53103418D01*
X100814354Y-53125304D01*
X100814355Y-53125307D01*
X100824412Y-53145045D01*
X100831857Y-53163018D01*
X100841719Y-53193368D01*
X100838674Y-53194357D01*
X100848496Y-53246680D01*
X100822213Y-53311418D01*
X100765103Y-53351670D01*
X100708931Y-53357233D01*
X100622976Y-53345917D01*
X100622974Y-53345917D01*
X100483371Y-53364296D01*
X100414336Y-53353530D01*
X100362080Y-53307150D01*
X100344247Y-53257539D01*
X100343245Y-53249923D01*
X100282737Y-53103844D01*
X100186483Y-52978403D01*
X100061042Y-52882149D01*
X100057191Y-52880554D01*
X99914963Y-52821641D01*
X99914961Y-52821640D01*
X99758202Y-52801003D01*
X99758200Y-52801003D01*
X99601440Y-52821640D01*
X99601438Y-52821641D01*
X99455361Y-52882148D01*
X99329919Y-52978403D01*
X99233664Y-53103845D01*
X99173157Y-53249922D01*
X99173156Y-53249924D01*
X99152519Y-53406683D01*
X99152519Y-53406686D01*
X99173156Y-53563445D01*
X99173157Y-53563447D01*
X99232445Y-53706582D01*
X99233665Y-53709526D01*
X99329919Y-53834967D01*
X99329921Y-53834968D01*
X99334867Y-53841414D01*
X99333555Y-53842420D01*
X99362448Y-53895334D01*
X99357464Y-53965026D01*
X99339659Y-53997177D01*
X99313092Y-54031800D01*
X99252584Y-54177879D01*
X99252583Y-54177881D01*
X99231946Y-54334640D01*
X99231946Y-54334643D01*
X99252583Y-54491402D01*
X99252584Y-54491404D01*
X99303760Y-54614955D01*
X99313092Y-54637483D01*
X99409346Y-54762924D01*
X99534787Y-54859178D01*
X99680866Y-54919686D01*
X99759247Y-54930005D01*
X99837627Y-54940324D01*
X99837628Y-54940324D01*
X99837629Y-54940324D01*
X99889882Y-54933444D01*
X99994390Y-54919686D01*
X100140469Y-54859178D01*
X100265910Y-54762924D01*
X100362164Y-54637483D01*
X100370742Y-54616773D01*
X100414581Y-54562370D01*
X100480875Y-54540304D01*
X100501475Y-54541285D01*
X100622975Y-54557281D01*
X100631034Y-54558342D01*
X100630630Y-54561407D01*
X100683616Y-54576966D01*
X100729371Y-54629770D01*
X100731131Y-54633813D01*
X100775464Y-54740841D01*
X100871718Y-54866282D01*
X100997159Y-54962536D01*
X101143238Y-55023044D01*
X101221619Y-55033363D01*
X101299999Y-55043682D01*
X101300000Y-55043682D01*
X101300001Y-55043682D01*
X101352254Y-55036802D01*
X101456762Y-55023044D01*
X101602841Y-54962536D01*
X101728282Y-54866282D01*
X101803549Y-54768191D01*
X101859974Y-54726990D01*
X101929720Y-54722835D01*
X101989604Y-54755998D01*
X102743413Y-55509807D01*
X102743433Y-55509825D01*
X102761658Y-55528050D01*
X102781398Y-55538108D01*
X102797987Y-55548274D01*
X102815909Y-55561295D01*
X102815910Y-55561295D01*
X102815911Y-55561296D01*
X102836980Y-55568142D01*
X102854949Y-55575584D01*
X102874696Y-55585646D01*
X102896582Y-55589112D01*
X102915497Y-55593653D01*
X102936567Y-55600500D01*
X102968481Y-55600500D01*
X104093420Y-55600500D01*
X104160459Y-55620185D01*
X104168907Y-55626124D01*
X104171716Y-55628279D01*
X104171718Y-55628282D01*
X104297159Y-55724536D01*
X104443238Y-55785044D01*
X104521619Y-55795363D01*
X104599999Y-55805682D01*
X104600000Y-55805682D01*
X104600001Y-55805682D01*
X104652254Y-55798802D01*
X104756762Y-55785044D01*
X104902841Y-55724536D01*
X105028282Y-55628282D01*
X105124536Y-55502841D01*
X105185044Y-55356762D01*
X105192517Y-55300001D01*
X114044318Y-55300001D01*
X114064955Y-55456760D01*
X114064956Y-55456762D01*
X114121658Y-55593654D01*
X114125464Y-55602841D01*
X114221718Y-55728282D01*
X114347159Y-55824536D01*
X114493238Y-55885044D01*
X114571619Y-55895363D01*
X114649999Y-55905682D01*
X114650000Y-55905682D01*
X114650001Y-55905682D01*
X114702254Y-55898802D01*
X114806762Y-55885044D01*
X114952841Y-55824536D01*
X115078282Y-55728282D01*
X115174536Y-55602841D01*
X115235044Y-55456762D01*
X115255682Y-55300000D01*
X115235044Y-55143238D01*
X115174536Y-54997159D01*
X115078282Y-54871718D01*
X114952841Y-54775464D01*
X114949007Y-54773876D01*
X114806762Y-54714956D01*
X114806760Y-54714955D01*
X114650001Y-54694318D01*
X114649999Y-54694318D01*
X114493239Y-54714955D01*
X114493237Y-54714956D01*
X114347160Y-54775463D01*
X114221718Y-54871718D01*
X114125463Y-54997160D01*
X114064956Y-55143237D01*
X114064955Y-55143239D01*
X114044318Y-55299998D01*
X114044318Y-55300001D01*
X105192517Y-55300001D01*
X105205682Y-55200000D01*
X105185044Y-55043238D01*
X105124536Y-54897159D01*
X105028282Y-54771718D01*
X104902841Y-54675464D01*
X104882361Y-54666981D01*
X104756762Y-54614956D01*
X104756760Y-54614955D01*
X104600001Y-54594318D01*
X104599999Y-54594318D01*
X104443239Y-54614955D01*
X104443237Y-54614956D01*
X104297160Y-54675463D01*
X104297159Y-54675464D01*
X104171718Y-54771718D01*
X104171716Y-54771720D01*
X104168907Y-54773876D01*
X104103737Y-54799070D01*
X104093420Y-54799500D01*
X103217255Y-54799500D01*
X103150216Y-54779815D01*
X103129574Y-54763181D01*
X102636819Y-54270426D01*
X102603334Y-54209103D01*
X102602355Y-54200001D01*
X112794318Y-54200001D01*
X112814955Y-54356760D01*
X112814956Y-54356762D01*
X112870726Y-54491404D01*
X112875464Y-54502841D01*
X112971718Y-54628282D01*
X113097159Y-54724536D01*
X113243238Y-54785044D01*
X113321619Y-54795363D01*
X113399999Y-54805682D01*
X113400000Y-54805682D01*
X113400001Y-54805682D01*
X113452254Y-54798802D01*
X113556762Y-54785044D01*
X113702841Y-54724536D01*
X113828282Y-54628282D01*
X113924536Y-54502841D01*
X113985044Y-54356762D01*
X114005682Y-54200000D01*
X114003410Y-54182745D01*
X113985044Y-54043239D01*
X113985043Y-54043237D01*
X113954079Y-53968481D01*
X113924538Y-53897163D01*
X113924537Y-53897162D01*
X113924536Y-53897159D01*
X113907904Y-53875484D01*
X113882711Y-53810319D01*
X113896748Y-53741874D01*
X113907899Y-53724521D01*
X113924536Y-53702841D01*
X113985044Y-53556762D01*
X114005682Y-53400000D01*
X113999989Y-53356760D01*
X113985044Y-53243239D01*
X113985044Y-53243238D01*
X113924536Y-53097159D01*
X113828282Y-52971718D01*
X113702841Y-52875464D01*
X113581471Y-52825191D01*
X113556762Y-52814956D01*
X113556760Y-52814955D01*
X113400001Y-52794318D01*
X113399999Y-52794318D01*
X113243239Y-52814955D01*
X113243237Y-52814956D01*
X113097160Y-52875463D01*
X112971718Y-52971718D01*
X112875463Y-53097160D01*
X112814956Y-53243237D01*
X112814955Y-53243239D01*
X112794318Y-53399998D01*
X112794318Y-53400001D01*
X112814955Y-53556760D01*
X112814956Y-53556762D01*
X112875464Y-53702841D01*
X112892095Y-53724516D01*
X112917287Y-53789686D01*
X112903247Y-53858130D01*
X112892095Y-53875484D01*
X112875464Y-53897158D01*
X112814956Y-54043237D01*
X112814955Y-54043239D01*
X112794318Y-54199998D01*
X112794318Y-54200001D01*
X102602355Y-54200001D01*
X102600500Y-54182745D01*
X102600500Y-53936569D01*
X102600499Y-53936565D01*
X102593651Y-53915489D01*
X102589112Y-53896582D01*
X102585646Y-53874696D01*
X102575586Y-53854953D01*
X102568144Y-53836985D01*
X102561297Y-53815911D01*
X102548266Y-53797976D01*
X102538103Y-53781389D01*
X102528050Y-53761658D01*
X102509824Y-53743432D01*
X102509804Y-53743410D01*
X101636819Y-52870425D01*
X101603334Y-52809102D01*
X101602355Y-52800001D01*
X103594318Y-52800001D01*
X103614955Y-52956760D01*
X103614956Y-52956762D01*
X103650775Y-53043238D01*
X103675464Y-53102841D01*
X103771718Y-53228282D01*
X103897159Y-53324536D01*
X104043238Y-53385044D01*
X104114942Y-53394484D01*
X104199999Y-53405682D01*
X104200000Y-53405682D01*
X104200001Y-53405682D01*
X104252254Y-53398802D01*
X104356762Y-53385044D01*
X104502841Y-53324536D01*
X104628282Y-53228282D01*
X104724536Y-53102841D01*
X104785044Y-52956762D01*
X104792072Y-52903376D01*
X104820338Y-52839480D01*
X104878663Y-52801009D01*
X104931192Y-52796623D01*
X105000000Y-52805682D01*
X105156762Y-52785044D01*
X105302841Y-52724536D01*
X105428282Y-52628282D01*
X105449983Y-52600001D01*
X115594318Y-52600001D01*
X115614955Y-52756760D01*
X115614956Y-52756762D01*
X115675464Y-52902841D01*
X115771718Y-53028282D01*
X115897159Y-53124536D01*
X116043238Y-53185044D01*
X116113978Y-53194357D01*
X116199999Y-53205682D01*
X116200000Y-53205682D01*
X116200001Y-53205682D01*
X116286022Y-53194357D01*
X116356762Y-53185044D01*
X116502841Y-53124536D01*
X116592016Y-53056109D01*
X116657184Y-53030915D01*
X116725629Y-53044953D01*
X116775619Y-53093767D01*
X116791283Y-53161858D01*
X116782063Y-53201937D01*
X116764957Y-53243234D01*
X116764955Y-53243239D01*
X116744318Y-53399998D01*
X116744318Y-53400001D01*
X116764955Y-53556760D01*
X116764956Y-53556762D01*
X116825464Y-53702841D01*
X116921718Y-53828282D01*
X117047159Y-53924536D01*
X117193238Y-53985044D01*
X117271619Y-53995363D01*
X117349999Y-54005682D01*
X117350000Y-54005682D01*
X117350001Y-54005682D01*
X117414602Y-53997177D01*
X117506762Y-53985044D01*
X117652841Y-53924536D01*
X117778282Y-53828282D01*
X117874536Y-53702841D01*
X117935044Y-53556762D01*
X117955682Y-53400000D01*
X117949989Y-53356760D01*
X117935044Y-53243239D01*
X117935044Y-53243238D01*
X117874536Y-53097159D01*
X117778282Y-52971718D01*
X117652841Y-52875464D01*
X117531471Y-52825191D01*
X117506762Y-52814956D01*
X117506760Y-52814955D01*
X117350001Y-52794318D01*
X117349999Y-52794318D01*
X117193239Y-52814955D01*
X117193237Y-52814956D01*
X117047157Y-52875464D01*
X116957983Y-52943890D01*
X116892814Y-52969084D01*
X116824369Y-52955045D01*
X116774379Y-52906231D01*
X116758716Y-52838140D01*
X116767935Y-52798065D01*
X116785044Y-52756762D01*
X116805682Y-52600000D01*
X116797810Y-52540209D01*
X116785044Y-52443239D01*
X116785044Y-52443238D01*
X116746424Y-52350001D01*
X121344318Y-52350001D01*
X121364955Y-52506760D01*
X121364956Y-52506762D01*
X121411555Y-52619263D01*
X121425464Y-52652841D01*
X121521718Y-52778282D01*
X121647159Y-52874536D01*
X121647160Y-52874536D01*
X121647161Y-52874537D01*
X121661688Y-52880554D01*
X121739435Y-52912758D01*
X121793838Y-52956597D01*
X121815903Y-53022891D01*
X121814921Y-53043503D01*
X121794318Y-53199998D01*
X121794318Y-53200001D01*
X121814955Y-53356760D01*
X121814956Y-53356762D01*
X121847388Y-53435061D01*
X121875464Y-53502841D01*
X121971718Y-53628282D01*
X122097159Y-53724536D01*
X122243238Y-53785044D01*
X122278498Y-53789686D01*
X122399999Y-53805682D01*
X122400000Y-53805682D01*
X122400001Y-53805682D01*
X122452254Y-53798802D01*
X122556762Y-53785044D01*
X122702841Y-53724536D01*
X122828282Y-53628282D01*
X122924536Y-53502841D01*
X122985044Y-53356762D01*
X123005682Y-53200000D01*
X123003805Y-53185746D01*
X123014569Y-53116714D01*
X123060948Y-53064457D01*
X123079276Y-53055007D01*
X123152841Y-53024536D01*
X123278282Y-52928282D01*
X123280099Y-52925913D01*
X123282142Y-52924421D01*
X123284029Y-52922535D01*
X123284323Y-52922829D01*
X123336523Y-52884711D01*
X123406269Y-52880554D01*
X123453961Y-52903023D01*
X123547157Y-52974535D01*
X123547158Y-52974535D01*
X123547159Y-52974536D01*
X123693238Y-53035044D01*
X123755478Y-53043238D01*
X123849999Y-53055682D01*
X123850000Y-53055682D01*
X123850001Y-53055682D01*
X123931495Y-53044953D01*
X124006762Y-53035044D01*
X124152841Y-52974536D01*
X124278282Y-52878282D01*
X124374536Y-52752841D01*
X124435044Y-52606762D01*
X124455682Y-52450000D01*
X124453197Y-52431128D01*
X124435044Y-52293239D01*
X124435044Y-52293238D01*
X124374536Y-52147159D01*
X124278282Y-52021718D01*
X124152841Y-51925464D01*
X124143797Y-51921718D01*
X124006762Y-51864956D01*
X124006760Y-51864955D01*
X123850001Y-51844318D01*
X123849999Y-51844318D01*
X123693239Y-51864955D01*
X123693237Y-51864956D01*
X123547160Y-51925463D01*
X123421714Y-52021721D01*
X123419897Y-52024090D01*
X123417852Y-52025583D01*
X123415967Y-52027468D01*
X123415673Y-52027174D01*
X123363468Y-52065291D01*
X123293722Y-52069443D01*
X123246038Y-52046976D01*
X123152842Y-51975464D01*
X123006762Y-51914956D01*
X123006760Y-51914955D01*
X122850001Y-51894318D01*
X122849999Y-51894318D01*
X122693239Y-51914955D01*
X122693237Y-51914956D01*
X122539651Y-51978574D01*
X122538449Y-51975673D01*
X122484897Y-51988626D01*
X122418886Y-51965729D01*
X122392507Y-51940257D01*
X122384394Y-51929684D01*
X122378282Y-51921718D01*
X122252841Y-51825464D01*
X122106762Y-51764956D01*
X122106760Y-51764955D01*
X121950001Y-51744318D01*
X121949999Y-51744318D01*
X121793239Y-51764955D01*
X121793237Y-51764956D01*
X121647160Y-51825463D01*
X121521718Y-51921718D01*
X121425463Y-52047160D01*
X121364956Y-52193237D01*
X121364955Y-52193239D01*
X121344318Y-52349998D01*
X121344318Y-52350001D01*
X116746424Y-52350001D01*
X116724536Y-52297159D01*
X116628282Y-52171718D01*
X116502841Y-52075464D01*
X116493797Y-52071718D01*
X116356762Y-52014956D01*
X116356760Y-52014955D01*
X116200001Y-51994318D01*
X116199999Y-51994318D01*
X116043239Y-52014955D01*
X116043237Y-52014956D01*
X115897160Y-52075463D01*
X115771718Y-52171718D01*
X115675463Y-52297160D01*
X115614956Y-52443237D01*
X115614955Y-52443239D01*
X115594318Y-52599998D01*
X115594318Y-52600001D01*
X105449983Y-52600001D01*
X105524536Y-52502841D01*
X105585044Y-52356762D01*
X105592072Y-52303376D01*
X105620338Y-52239480D01*
X105678663Y-52201009D01*
X105731192Y-52196623D01*
X105800000Y-52205682D01*
X105956762Y-52185044D01*
X106102841Y-52124536D01*
X106228282Y-52028282D01*
X106324536Y-51902841D01*
X106385044Y-51756762D01*
X106405682Y-51600000D01*
X106405045Y-51595164D01*
X106385044Y-51443239D01*
X106385044Y-51443238D01*
X106324536Y-51297159D01*
X106228282Y-51171718D01*
X106102841Y-51075464D01*
X106086226Y-51068582D01*
X105956762Y-51014956D01*
X105956760Y-51014955D01*
X105800001Y-50994318D01*
X105799999Y-50994318D01*
X105643239Y-51014955D01*
X105643237Y-51014956D01*
X105497160Y-51075463D01*
X105371718Y-51171718D01*
X105275463Y-51297160D01*
X105214956Y-51443237D01*
X105214956Y-51443238D01*
X105207927Y-51496624D01*
X105179659Y-51560520D01*
X105121334Y-51598991D01*
X105068803Y-51603376D01*
X105000001Y-51594318D01*
X104999999Y-51594318D01*
X104843239Y-51614955D01*
X104843237Y-51614956D01*
X104697160Y-51675463D01*
X104571718Y-51771718D01*
X104475463Y-51897160D01*
X104414956Y-52043237D01*
X104414956Y-52043238D01*
X104407927Y-52096624D01*
X104379659Y-52160520D01*
X104321334Y-52198991D01*
X104268803Y-52203376D01*
X104200001Y-52194318D01*
X104199999Y-52194318D01*
X104043239Y-52214955D01*
X104043237Y-52214956D01*
X103897160Y-52275463D01*
X103771718Y-52371718D01*
X103675463Y-52497160D01*
X103614956Y-52643237D01*
X103614955Y-52643239D01*
X103594318Y-52799998D01*
X103594318Y-52800001D01*
X101602355Y-52800001D01*
X101600500Y-52782744D01*
X101600500Y-52106580D01*
X101620185Y-52039541D01*
X101626124Y-52031093D01*
X101628279Y-52028283D01*
X101628282Y-52028282D01*
X101724536Y-51902841D01*
X101785044Y-51756762D01*
X101805682Y-51600000D01*
X101805045Y-51595164D01*
X101785044Y-51443239D01*
X101785044Y-51443238D01*
X101724536Y-51297159D01*
X101724535Y-51297158D01*
X101724535Y-51297157D01*
X101653124Y-51204092D01*
X101627930Y-51138923D01*
X101627500Y-51128606D01*
X101627500Y-49228438D01*
X101647185Y-49161399D01*
X101663819Y-49140757D01*
X101940757Y-48863819D01*
X102002080Y-48830334D01*
X102028438Y-48827500D01*
X107328607Y-48827500D01*
X107395646Y-48847185D01*
X107404079Y-48853114D01*
X107497159Y-48924536D01*
X107643238Y-48985044D01*
X107678437Y-48989678D01*
X107799999Y-49005682D01*
X107800000Y-49005682D01*
X107800001Y-49005682D01*
X107852254Y-48998802D01*
X107956762Y-48985044D01*
X108102841Y-48924536D01*
X108228282Y-48828282D01*
X108324536Y-48702841D01*
X108385044Y-48556762D01*
X108405682Y-48400000D01*
X108397873Y-48340685D01*
X108408638Y-48271650D01*
X108455018Y-48219394D01*
X108520812Y-48200500D01*
X115582745Y-48200500D01*
X115649784Y-48220185D01*
X115670421Y-48236814D01*
X115709070Y-48275463D01*
X115743422Y-48309815D01*
X115743433Y-48309825D01*
X115761658Y-48328050D01*
X115781390Y-48338104D01*
X115781398Y-48338108D01*
X115797987Y-48348274D01*
X115815909Y-48361295D01*
X115815910Y-48361295D01*
X115815911Y-48361296D01*
X115836980Y-48368142D01*
X115854949Y-48375584D01*
X115874696Y-48385646D01*
X115896582Y-48389112D01*
X115915497Y-48393653D01*
X115936567Y-48400500D01*
X115936569Y-48400500D01*
X121863431Y-48400500D01*
X121863433Y-48400500D01*
X121884501Y-48393654D01*
X121903417Y-48389112D01*
X121925304Y-48385646D01*
X121945044Y-48375586D01*
X121963011Y-48368144D01*
X121984090Y-48361296D01*
X122002026Y-48348263D01*
X122018588Y-48338114D01*
X122038342Y-48328050D01*
X122053836Y-48312555D01*
X122053840Y-48312552D01*
X122060906Y-48305485D01*
X122060909Y-48305484D01*
X122124992Y-48241400D01*
X122186312Y-48207917D01*
X122196485Y-48206144D01*
X122199997Y-48205681D01*
X122200000Y-48205682D01*
X122263564Y-48197313D01*
X122332597Y-48208078D01*
X122384853Y-48254458D01*
X122403738Y-48321727D01*
X122402686Y-48336437D01*
X122394318Y-48399998D01*
X122394318Y-48400001D01*
X122414955Y-48556760D01*
X122414956Y-48556762D01*
X122466306Y-48680733D01*
X122475464Y-48702841D01*
X122571718Y-48828282D01*
X122697159Y-48924536D01*
X122843238Y-48985044D01*
X122878437Y-48989678D01*
X122999999Y-49005682D01*
X123000000Y-49005682D01*
X123000001Y-49005682D01*
X123052254Y-48998802D01*
X123156762Y-48985044D01*
X123302841Y-48924536D01*
X123428282Y-48828282D01*
X123524536Y-48702841D01*
X123585044Y-48556762D01*
X123605682Y-48400000D01*
X123604449Y-48390638D01*
X123585044Y-48243239D01*
X123585044Y-48243238D01*
X123524536Y-48097159D01*
X123428282Y-47971718D01*
X123302841Y-47875464D01*
X123256104Y-47856105D01*
X123156762Y-47814956D01*
X123156760Y-47814955D01*
X123000001Y-47794318D01*
X122999999Y-47794318D01*
X122936437Y-47802686D01*
X122867402Y-47791920D01*
X122815146Y-47745540D01*
X122796261Y-47678271D01*
X122797311Y-47663580D01*
X122805682Y-47600000D01*
X122785044Y-47443238D01*
X122724536Y-47297159D01*
X122628282Y-47171718D01*
X122502841Y-47075464D01*
X122356762Y-47014956D01*
X122356760Y-47014955D01*
X122200001Y-46994318D01*
X122199999Y-46994318D01*
X122043239Y-47014955D01*
X122043237Y-47014956D01*
X121897160Y-47075463D01*
X121771718Y-47171718D01*
X121675463Y-47297160D01*
X121614956Y-47443237D01*
X121614955Y-47443239D01*
X121608578Y-47491685D01*
X121580312Y-47555582D01*
X121521987Y-47594053D01*
X121485639Y-47599500D01*
X121270078Y-47599500D01*
X121203039Y-47579815D01*
X121157284Y-47527011D01*
X121147340Y-47457853D01*
X121155517Y-47428048D01*
X121175495Y-47379815D01*
X121185044Y-47356762D01*
X121205682Y-47200000D01*
X121204078Y-47187819D01*
X121185044Y-47043239D01*
X121185044Y-47043238D01*
X121124536Y-46897159D01*
X121028282Y-46771718D01*
X120902841Y-46675464D01*
X120838905Y-46648981D01*
X120756762Y-46614956D01*
X120756760Y-46614955D01*
X120600001Y-46594318D01*
X120599999Y-46594318D01*
X120443239Y-46614955D01*
X120443237Y-46614956D01*
X120297160Y-46675463D01*
X120171718Y-46771718D01*
X120075463Y-46897160D01*
X120050943Y-46956358D01*
X120007102Y-47010761D01*
X119940808Y-47032826D01*
X119873108Y-47015547D01*
X119838006Y-46984391D01*
X119828283Y-46971719D01*
X119800428Y-46950345D01*
X119702841Y-46875464D01*
X119674411Y-46863688D01*
X119556762Y-46814956D01*
X119556760Y-46814955D01*
X119400001Y-46794318D01*
X119399999Y-46794318D01*
X119243239Y-46814955D01*
X119243237Y-46814956D01*
X119097160Y-46875463D01*
X118971718Y-46971718D01*
X118875463Y-47097160D01*
X118814956Y-47243237D01*
X118814955Y-47243239D01*
X118794318Y-47399998D01*
X118794318Y-47400000D01*
X118801934Y-47457853D01*
X118802127Y-47459314D01*
X118791362Y-47528350D01*
X118744982Y-47580606D01*
X118679188Y-47599500D01*
X118536980Y-47599500D01*
X118469941Y-47579815D01*
X118424186Y-47527011D01*
X118414242Y-47457853D01*
X118429590Y-47413505D01*
X118431641Y-47409950D01*
X118431643Y-47409948D01*
X118492151Y-47263869D01*
X118512789Y-47107107D01*
X118511479Y-47097160D01*
X118492151Y-46950346D01*
X118492150Y-46950344D01*
X118461134Y-46875463D01*
X118431645Y-46804270D01*
X118431644Y-46804269D01*
X118431643Y-46804266D01*
X118415011Y-46782591D01*
X118389818Y-46717426D01*
X118403855Y-46648981D01*
X118415006Y-46631628D01*
X118431643Y-46609948D01*
X118492151Y-46463869D01*
X118512789Y-46307107D01*
X118492151Y-46150345D01*
X118431643Y-46004266D01*
X118335389Y-45878825D01*
X118209948Y-45782571D01*
X118203294Y-45779815D01*
X118063869Y-45722063D01*
X118063867Y-45722062D01*
X117907108Y-45701425D01*
X117907106Y-45701425D01*
X117750346Y-45722062D01*
X117750344Y-45722063D01*
X117604267Y-45782570D01*
X117478825Y-45878825D01*
X117382570Y-46004267D01*
X117322063Y-46150344D01*
X117322062Y-46150346D01*
X117301425Y-46307105D01*
X117301425Y-46307108D01*
X117322062Y-46463867D01*
X117322063Y-46463869D01*
X117382571Y-46609948D01*
X117399202Y-46631623D01*
X117424394Y-46696793D01*
X117410354Y-46765237D01*
X117399202Y-46782591D01*
X117382571Y-46804265D01*
X117322063Y-46950344D01*
X117322062Y-46950346D01*
X117301425Y-47107105D01*
X117301425Y-47107108D01*
X117322062Y-47263867D01*
X117322063Y-47263869D01*
X117378450Y-47400000D01*
X117382572Y-47409950D01*
X117384624Y-47413505D01*
X117385442Y-47416881D01*
X117385681Y-47417456D01*
X117385591Y-47417493D01*
X117401093Y-47481406D01*
X117378238Y-47547432D01*
X117323314Y-47590620D01*
X117277234Y-47599500D01*
X116217255Y-47599500D01*
X116150216Y-47579815D01*
X116129578Y-47563185D01*
X116060909Y-47494516D01*
X116060908Y-47494515D01*
X116057797Y-47491404D01*
X116057782Y-47491390D01*
X116038342Y-47471950D01*
X116038340Y-47471949D01*
X116018600Y-47461890D01*
X116002014Y-47451726D01*
X115984090Y-47438704D01*
X115984091Y-47438704D01*
X115963018Y-47431857D01*
X115945045Y-47424412D01*
X115925307Y-47414355D01*
X115925304Y-47414354D01*
X115903418Y-47410887D01*
X115884507Y-47406346D01*
X115863439Y-47399501D01*
X115863434Y-47399500D01*
X115863433Y-47399500D01*
X115863429Y-47399500D01*
X113066255Y-47399500D01*
X112999216Y-47379815D01*
X112953461Y-47327011D01*
X112943517Y-47257853D01*
X112972542Y-47194297D01*
X112978574Y-47187819D01*
X113512552Y-46653841D01*
X113512557Y-46653834D01*
X113528050Y-46638342D01*
X113538109Y-46618598D01*
X113548272Y-46602015D01*
X113561297Y-46584089D01*
X113568144Y-46563014D01*
X113575589Y-46545040D01*
X113585646Y-46525304D01*
X113589111Y-46503421D01*
X113593654Y-46484502D01*
X113600499Y-46463435D01*
X113600500Y-46463433D01*
X113600500Y-46336567D01*
X113600500Y-45306580D01*
X113620185Y-45239541D01*
X113626124Y-45231093D01*
X113628279Y-45228283D01*
X113628282Y-45228282D01*
X113724536Y-45102841D01*
X113767134Y-45000000D01*
X123194355Y-45000000D01*
X123214859Y-45168869D01*
X123214860Y-45168874D01*
X123275182Y-45327931D01*
X123324929Y-45400000D01*
X123371817Y-45467929D01*
X123424156Y-45514297D01*
X123499150Y-45580736D01*
X123649773Y-45659789D01*
X123649775Y-45659790D01*
X123814944Y-45700500D01*
X123985056Y-45700500D01*
X124150225Y-45659790D01*
X124229692Y-45618081D01*
X124300849Y-45580736D01*
X124300850Y-45580734D01*
X124300852Y-45580734D01*
X124428183Y-45467929D01*
X124524818Y-45327930D01*
X124543311Y-45279166D01*
X124585488Y-45223464D01*
X124651086Y-45199406D01*
X124719276Y-45214632D01*
X124761301Y-45252694D01*
X124771817Y-45267929D01*
X124839546Y-45327931D01*
X124899150Y-45380736D01*
X125049773Y-45459789D01*
X125049775Y-45459790D01*
X125214944Y-45500500D01*
X125385056Y-45500500D01*
X125550225Y-45459790D01*
X125629692Y-45418081D01*
X125700849Y-45380736D01*
X125700850Y-45380734D01*
X125700852Y-45380734D01*
X125828183Y-45267929D01*
X125924818Y-45127930D01*
X125985140Y-44968872D01*
X126005645Y-44800000D01*
X125985140Y-44631128D01*
X125973524Y-44600500D01*
X125951542Y-44542537D01*
X125924818Y-44472070D01*
X125920064Y-44465183D01*
X125866663Y-44387819D01*
X125828183Y-44332071D01*
X125727025Y-44242453D01*
X125700849Y-44219263D01*
X125550226Y-44140210D01*
X125385056Y-44099500D01*
X125214944Y-44099500D01*
X125049773Y-44140210D01*
X124899150Y-44219263D01*
X124771816Y-44332072D01*
X124675182Y-44472068D01*
X124675181Y-44472071D01*
X124656687Y-44520835D01*
X124614509Y-44576537D01*
X124548911Y-44600593D01*
X124480721Y-44585365D01*
X124438696Y-44547302D01*
X124428183Y-44532071D01*
X124300849Y-44419263D01*
X124150226Y-44340210D01*
X123985056Y-44299500D01*
X123814944Y-44299500D01*
X123649773Y-44340210D01*
X123499150Y-44419263D01*
X123371816Y-44532072D01*
X123275182Y-44672068D01*
X123214860Y-44831125D01*
X123214859Y-44831130D01*
X123194355Y-45000000D01*
X113767134Y-45000000D01*
X113785044Y-44956762D01*
X113805682Y-44800000D01*
X113802113Y-44772894D01*
X113788840Y-44672070D01*
X113785044Y-44643238D01*
X113724536Y-44497159D01*
X113628282Y-44371718D01*
X113502841Y-44275464D01*
X113356762Y-44214956D01*
X113356760Y-44214955D01*
X113200001Y-44194318D01*
X113199997Y-44194318D01*
X113140684Y-44202126D01*
X113071649Y-44191360D01*
X113019393Y-44144979D01*
X113000500Y-44079187D01*
X113000500Y-40649781D01*
X113020185Y-40582742D01*
X113072989Y-40536987D01*
X113077048Y-40535220D01*
X113096716Y-40527073D01*
X113102841Y-40524536D01*
X113228282Y-40428282D01*
X113324536Y-40302841D01*
X113385044Y-40156762D01*
X113398740Y-40052722D01*
X113427006Y-39988828D01*
X113485330Y-39950356D01*
X113555195Y-39949524D01*
X113569128Y-39954346D01*
X113643238Y-39985044D01*
X113721619Y-39995363D01*
X113799999Y-40005682D01*
X113800000Y-40005682D01*
X113800001Y-40005682D01*
X113852254Y-39998802D01*
X113956762Y-39985044D01*
X114102841Y-39924536D01*
X114228282Y-39828282D01*
X114324536Y-39702841D01*
X114385044Y-39556762D01*
X114405682Y-39400000D01*
X114397873Y-39340685D01*
X114408638Y-39271650D01*
X114455018Y-39219394D01*
X114520812Y-39200500D01*
X116350219Y-39200500D01*
X116417258Y-39220185D01*
X116463013Y-39272989D01*
X116464780Y-39277048D01*
X116475462Y-39302838D01*
X116475463Y-39302840D01*
X116475464Y-39302841D01*
X116571718Y-39428282D01*
X116697159Y-39524536D01*
X116843238Y-39585044D01*
X116870321Y-39588609D01*
X116934217Y-39616874D01*
X116972689Y-39675198D01*
X116977076Y-39695359D01*
X116978061Y-39702839D01*
X116980643Y-39722449D01*
X117011218Y-39796264D01*
X117030675Y-39843238D01*
X117041151Y-39868528D01*
X117137405Y-39993969D01*
X117262846Y-40090223D01*
X117408925Y-40150731D01*
X117487306Y-40161050D01*
X117565686Y-40171369D01*
X117565687Y-40171369D01*
X117565688Y-40171369D01*
X117617941Y-40164489D01*
X117722449Y-40150731D01*
X117868528Y-40090223D01*
X117993969Y-39993969D01*
X118090223Y-39868528D01*
X118090223Y-39868526D01*
X118095171Y-39862079D01*
X118097648Y-39863980D01*
X118137493Y-39825946D01*
X118206093Y-39812685D01*
X118270972Y-39838616D01*
X118282056Y-39848449D01*
X118693397Y-40259789D01*
X119040118Y-40606510D01*
X119129826Y-40696218D01*
X119149563Y-40706274D01*
X119166149Y-40716437D01*
X119184078Y-40729464D01*
X119184080Y-40729464D01*
X119184081Y-40729465D01*
X119205142Y-40736308D01*
X119223121Y-40743754D01*
X119242864Y-40753814D01*
X119264753Y-40757280D01*
X119283669Y-40761821D01*
X119304735Y-40768667D01*
X119331514Y-40768667D01*
X119331538Y-40768668D01*
X119336649Y-40768668D01*
X120313420Y-40768668D01*
X120380459Y-40788353D01*
X120388907Y-40794292D01*
X120391716Y-40796447D01*
X120391718Y-40796450D01*
X120517159Y-40892704D01*
X120663238Y-40953212D01*
X120741619Y-40963531D01*
X120819999Y-40973850D01*
X120820000Y-40973850D01*
X120820001Y-40973850D01*
X120872254Y-40966970D01*
X120976762Y-40953212D01*
X121122841Y-40892704D01*
X121248282Y-40796450D01*
X121344536Y-40671009D01*
X121405044Y-40524930D01*
X121418955Y-40419263D01*
X121425682Y-40368169D01*
X121425682Y-40368166D01*
X121405044Y-40211407D01*
X121405044Y-40211406D01*
X121344536Y-40065327D01*
X121248282Y-39939886D01*
X121122841Y-39843632D01*
X121110731Y-39838616D01*
X121048128Y-39812685D01*
X121017504Y-39800000D01*
X123294355Y-39800000D01*
X123314859Y-39968869D01*
X123314860Y-39968874D01*
X123375182Y-40127931D01*
X123424927Y-40199998D01*
X123471817Y-40267929D01*
X123511225Y-40302841D01*
X123599150Y-40380736D01*
X123701126Y-40434257D01*
X123749775Y-40459790D01*
X123914944Y-40500500D01*
X124085056Y-40500500D01*
X124250225Y-40459790D01*
X124329692Y-40418081D01*
X124400849Y-40380736D01*
X124400850Y-40380734D01*
X124400852Y-40380734D01*
X124528183Y-40267929D01*
X124624818Y-40127930D01*
X124643311Y-40079166D01*
X124685488Y-40023464D01*
X124751086Y-39999406D01*
X124819276Y-40014632D01*
X124861301Y-40052694D01*
X124871817Y-40067929D01*
X124972086Y-40156759D01*
X124999150Y-40180736D01*
X125149773Y-40259789D01*
X125149775Y-40259790D01*
X125314944Y-40300500D01*
X125485056Y-40300500D01*
X125650225Y-40259790D01*
X125742414Y-40211405D01*
X125800849Y-40180736D01*
X125800850Y-40180734D01*
X125800852Y-40180734D01*
X125928183Y-40067929D01*
X126024818Y-39927930D01*
X126085140Y-39768872D01*
X126105645Y-39600000D01*
X126085140Y-39431128D01*
X126024818Y-39272070D01*
X126023683Y-39270426D01*
X125975354Y-39200410D01*
X125928183Y-39132071D01*
X125825555Y-39041151D01*
X125800849Y-39019263D01*
X125650226Y-38940210D01*
X125485056Y-38899500D01*
X125314944Y-38899500D01*
X125149773Y-38940210D01*
X124999150Y-39019263D01*
X124871816Y-39132072D01*
X124775182Y-39272068D01*
X124775181Y-39272071D01*
X124756687Y-39320835D01*
X124714509Y-39376537D01*
X124648911Y-39400593D01*
X124580721Y-39385365D01*
X124538696Y-39347302D01*
X124534129Y-39340686D01*
X124528183Y-39332071D01*
X124460456Y-39272070D01*
X124400849Y-39219263D01*
X124250226Y-39140210D01*
X124085056Y-39099500D01*
X123914944Y-39099500D01*
X123749773Y-39140210D01*
X123599150Y-39219263D01*
X123471816Y-39332072D01*
X123375182Y-39472068D01*
X123314860Y-39631125D01*
X123314859Y-39631130D01*
X123294355Y-39800000D01*
X121017504Y-39800000D01*
X120976762Y-39783124D01*
X120954379Y-39780177D01*
X120845747Y-39765875D01*
X120781851Y-39737608D01*
X120743380Y-39679283D01*
X120738994Y-39626755D01*
X120755682Y-39500000D01*
X120751863Y-39470995D01*
X120735044Y-39343239D01*
X120735044Y-39343238D01*
X120674536Y-39197159D01*
X120578282Y-39071718D01*
X120452841Y-38975464D01*
X120367730Y-38940210D01*
X120306762Y-38914956D01*
X120306760Y-38914955D01*
X120150001Y-38894318D01*
X120149999Y-38894318D01*
X119993239Y-38914955D01*
X119993237Y-38914956D01*
X119847160Y-38975463D01*
X119721718Y-39071718D01*
X119625463Y-39197160D01*
X119564956Y-39343237D01*
X119564955Y-39343239D01*
X119544318Y-39499998D01*
X119544318Y-39500001D01*
X119564955Y-39656760D01*
X119564956Y-39656762D01*
X119568085Y-39664315D01*
X119575555Y-39733785D01*
X119544281Y-39796264D01*
X119484193Y-39831918D01*
X119414368Y-39829425D01*
X119365844Y-39799451D01*
X118836819Y-39270426D01*
X118803334Y-39209103D01*
X118800500Y-39182745D01*
X118800500Y-38688039D01*
X118800500Y-38688038D01*
X118793652Y-38666962D01*
X118789111Y-38648049D01*
X118785646Y-38626167D01*
X118775588Y-38606429D01*
X118772925Y-38600000D01*
X121094355Y-38600000D01*
X121114859Y-38768869D01*
X121114860Y-38768874D01*
X121175182Y-38927931D01*
X121211567Y-38980643D01*
X121271817Y-39067929D01*
X121350968Y-39138050D01*
X121399150Y-39180736D01*
X121506560Y-39237109D01*
X121549775Y-39259790D01*
X121714944Y-39300500D01*
X121885056Y-39300500D01*
X122050225Y-39259790D01*
X122154246Y-39205195D01*
X122200849Y-39180736D01*
X122200850Y-39180734D01*
X122200852Y-39180734D01*
X122328183Y-39067929D01*
X122424818Y-38927930D01*
X122485140Y-38768872D01*
X122505645Y-38600000D01*
X122485140Y-38431128D01*
X122424818Y-38272070D01*
X122328183Y-38132071D01*
X122222793Y-38038704D01*
X122200849Y-38019263D01*
X122050226Y-37940210D01*
X121885056Y-37899500D01*
X121714944Y-37899500D01*
X121549773Y-37940210D01*
X121399150Y-38019263D01*
X121271816Y-38132072D01*
X121175182Y-38272068D01*
X121114860Y-38431125D01*
X121114859Y-38431130D01*
X121094355Y-38600000D01*
X118772925Y-38600000D01*
X118768140Y-38588447D01*
X118761296Y-38567381D01*
X118748271Y-38549453D01*
X118738106Y-38532865D01*
X118728049Y-38513127D01*
X118709825Y-38494904D01*
X118709807Y-38494884D01*
X118306342Y-38091419D01*
X118306311Y-38091390D01*
X118286871Y-38071950D01*
X118286869Y-38071949D01*
X118267129Y-38061890D01*
X118250543Y-38051726D01*
X118232619Y-38038704D01*
X118232620Y-38038704D01*
X118211547Y-38031857D01*
X118193574Y-38024412D01*
X118173836Y-38014355D01*
X118173833Y-38014354D01*
X118151947Y-38010887D01*
X118133036Y-38006346D01*
X118111968Y-37999501D01*
X118111963Y-37999500D01*
X118111962Y-37999500D01*
X118080048Y-37999500D01*
X112237109Y-37999500D01*
X112231998Y-37999500D01*
X112231974Y-37999501D01*
X112205192Y-37999501D01*
X112184127Y-38006346D01*
X112165210Y-38010887D01*
X112143328Y-38014352D01*
X112143323Y-38014354D01*
X112123578Y-38024414D01*
X112105614Y-38031855D01*
X112084535Y-38038705D01*
X112066612Y-38051727D01*
X112050027Y-38061890D01*
X112030287Y-38071948D01*
X112019004Y-38083231D01*
X112007720Y-38094516D01*
X112007719Y-38094517D01*
X111094516Y-39007719D01*
X111094513Y-39007721D01*
X111094513Y-39007722D01*
X111083231Y-39019004D01*
X111071948Y-39030287D01*
X111071948Y-39030288D01*
X111061891Y-39050025D01*
X111051731Y-39066605D01*
X111038706Y-39084533D01*
X111038703Y-39084538D01*
X111031854Y-39105616D01*
X111024413Y-39123580D01*
X111014354Y-39143323D01*
X111010887Y-39165210D01*
X111006347Y-39184119D01*
X110999500Y-39205195D01*
X110999500Y-42217060D01*
X110979815Y-42284099D01*
X110963181Y-42304741D01*
X109312181Y-43955741D01*
X109250858Y-43989226D01*
X109181166Y-43984242D01*
X109125233Y-43942370D01*
X109100816Y-43876906D01*
X109100500Y-43868060D01*
X109100500Y-43714944D01*
X109098568Y-43707106D01*
X109059790Y-43549775D01*
X109043144Y-43518059D01*
X108980736Y-43399150D01*
X108912174Y-43321760D01*
X108867929Y-43271817D01*
X108768715Y-43203334D01*
X108727931Y-43175182D01*
X108568874Y-43114860D01*
X108568868Y-43114859D01*
X108442374Y-43099500D01*
X108442372Y-43099500D01*
X102814442Y-43099500D01*
X102747403Y-43079815D01*
X102701648Y-43027011D01*
X102691704Y-42957853D01*
X102699881Y-42928047D01*
X102700271Y-42927106D01*
X102760779Y-42781027D01*
X102781417Y-42624265D01*
X102775583Y-42579954D01*
X102760779Y-42467504D01*
X102760779Y-42467503D01*
X102700271Y-42321424D01*
X102604017Y-42195983D01*
X102478576Y-42099729D01*
X102332497Y-42039221D01*
X102332495Y-42039220D01*
X102175736Y-42018583D01*
X102175734Y-42018583D01*
X102018974Y-42039220D01*
X102018972Y-42039221D01*
X101872895Y-42099728D01*
X101872894Y-42099729D01*
X101747453Y-42195983D01*
X101747451Y-42195984D01*
X101747450Y-42195986D01*
X101711030Y-42243448D01*
X101654602Y-42284650D01*
X101584856Y-42288803D01*
X101524975Y-42255641D01*
X101336819Y-42067485D01*
X101303334Y-42006162D01*
X101302671Y-42000000D01*
X103294355Y-42000000D01*
X103314859Y-42168869D01*
X103314860Y-42168874D01*
X103375182Y-42327931D01*
X103424584Y-42399501D01*
X103471817Y-42467929D01*
X103559043Y-42545204D01*
X103599150Y-42580736D01*
X103745581Y-42657589D01*
X103749775Y-42659790D01*
X103914944Y-42700500D01*
X104085056Y-42700500D01*
X104250225Y-42659790D01*
X104377436Y-42593024D01*
X104400845Y-42580738D01*
X104400846Y-42580736D01*
X104400852Y-42580734D01*
X104417773Y-42565742D01*
X104481004Y-42536022D01*
X104550267Y-42545204D01*
X104582224Y-42565741D01*
X104599148Y-42580734D01*
X104599150Y-42580735D01*
X104599154Y-42580738D01*
X104745581Y-42657589D01*
X104749775Y-42659790D01*
X104914944Y-42700500D01*
X105085056Y-42700500D01*
X105250225Y-42659790D01*
X105377436Y-42593024D01*
X105400845Y-42580738D01*
X105400846Y-42580736D01*
X105400852Y-42580734D01*
X105417773Y-42565742D01*
X105481004Y-42536022D01*
X105550267Y-42545204D01*
X105582224Y-42565741D01*
X105599148Y-42580734D01*
X105599150Y-42580735D01*
X105599154Y-42580738D01*
X105745581Y-42657589D01*
X105749775Y-42659790D01*
X105914944Y-42700500D01*
X106085056Y-42700500D01*
X106250225Y-42659790D01*
X106377436Y-42593024D01*
X106400849Y-42580736D01*
X106400850Y-42580734D01*
X106400852Y-42580734D01*
X106528183Y-42467929D01*
X106624818Y-42327930D01*
X106685140Y-42168872D01*
X106705645Y-42000000D01*
X106685140Y-41831128D01*
X106624818Y-41672070D01*
X106554666Y-41570437D01*
X106532784Y-41504086D01*
X106550249Y-41436435D01*
X106554652Y-41429581D01*
X106624818Y-41327930D01*
X106685140Y-41168872D01*
X106705645Y-41000000D01*
X106685140Y-40831128D01*
X106624818Y-40672070D01*
X106624084Y-40671007D01*
X106578153Y-40604465D01*
X106528183Y-40532071D01*
X106433316Y-40448026D01*
X106400849Y-40419263D01*
X106250226Y-40340210D01*
X106085056Y-40299500D01*
X105914944Y-40299500D01*
X105749773Y-40340210D01*
X105599150Y-40419264D01*
X105582227Y-40434257D01*
X105518993Y-40463978D01*
X105449730Y-40454794D01*
X105417773Y-40434257D01*
X105400852Y-40419266D01*
X105400850Y-40419265D01*
X105400849Y-40419264D01*
X105250226Y-40340210D01*
X105085056Y-40299500D01*
X104914944Y-40299500D01*
X104749773Y-40340210D01*
X104599150Y-40419264D01*
X104582227Y-40434257D01*
X104518993Y-40463978D01*
X104449730Y-40454794D01*
X104417773Y-40434257D01*
X104400852Y-40419266D01*
X104400850Y-40419265D01*
X104400849Y-40419264D01*
X104250226Y-40340210D01*
X104085056Y-40299500D01*
X103914944Y-40299500D01*
X103749773Y-40340210D01*
X103599150Y-40419263D01*
X103548678Y-40463978D01*
X103472882Y-40531128D01*
X103471816Y-40532072D01*
X103375182Y-40672068D01*
X103314860Y-40831125D01*
X103314859Y-40831130D01*
X103294355Y-41000000D01*
X103314859Y-41168869D01*
X103314860Y-41168874D01*
X103375182Y-41327931D01*
X103445332Y-41429560D01*
X103467215Y-41495915D01*
X103449750Y-41563566D01*
X103445332Y-41570440D01*
X103375183Y-41672068D01*
X103375182Y-41672068D01*
X103314860Y-41831125D01*
X103314859Y-41831130D01*
X103294355Y-42000000D01*
X101302671Y-42000000D01*
X101300500Y-41979804D01*
X101300500Y-38707646D01*
X101320185Y-38640607D01*
X101372989Y-38594852D01*
X101440686Y-38584707D01*
X101443234Y-38585042D01*
X101443238Y-38585044D01*
X101600000Y-38605682D01*
X101600001Y-38605682D01*
X101652254Y-38598802D01*
X101756762Y-38585044D01*
X101902841Y-38524536D01*
X102028282Y-38428282D01*
X102030082Y-38425936D01*
X107020631Y-38425936D01*
X107051442Y-38627063D01*
X107051445Y-38627075D01*
X107122111Y-38817881D01*
X107122113Y-38817884D01*
X107122114Y-38817887D01*
X107168005Y-38891513D01*
X107229745Y-38990567D01*
X107229747Y-38990569D01*
X107229748Y-38990571D01*
X107246050Y-39007721D01*
X107364255Y-39132072D01*
X107369941Y-39138053D01*
X107466407Y-39205195D01*
X107536949Y-39254294D01*
X107536950Y-39254294D01*
X107536951Y-39254295D01*
X107723942Y-39334540D01*
X107923259Y-39375500D01*
X108075743Y-39375500D01*
X108227439Y-39360074D01*
X108421579Y-39299162D01*
X108421580Y-39299161D01*
X108421588Y-39299159D01*
X108599502Y-39200409D01*
X108753895Y-39067866D01*
X108878448Y-38906958D01*
X108968060Y-38724271D01*
X109019063Y-38527285D01*
X109029369Y-38324064D01*
X108998556Y-38122929D01*
X108958344Y-38014352D01*
X108927888Y-37932118D01*
X108927887Y-37932117D01*
X108927886Y-37932113D01*
X108820252Y-37759429D01*
X108680059Y-37611947D01*
X108581587Y-37543409D01*
X108513050Y-37495705D01*
X108326056Y-37415459D01*
X108126741Y-37374500D01*
X107974258Y-37374500D01*
X107974257Y-37374500D01*
X107822560Y-37389925D01*
X107628420Y-37450837D01*
X107628405Y-37450844D01*
X107450500Y-37549589D01*
X107450495Y-37549592D01*
X107296106Y-37682132D01*
X107296104Y-37682134D01*
X107171554Y-37843037D01*
X107171553Y-37843040D01*
X107081940Y-38025728D01*
X107030937Y-38222714D01*
X107020631Y-38425936D01*
X102030082Y-38425936D01*
X102124536Y-38302841D01*
X102185044Y-38156762D01*
X102205682Y-38000000D01*
X102205616Y-37999501D01*
X102185044Y-37843239D01*
X102185044Y-37843238D01*
X102124536Y-37697159D01*
X102028282Y-37571718D01*
X101902841Y-37475464D01*
X101843386Y-37450837D01*
X101756762Y-37414956D01*
X101756760Y-37414955D01*
X101600001Y-37394318D01*
X101599999Y-37394318D01*
X101440685Y-37415292D01*
X101371650Y-37404526D01*
X101319394Y-37358146D01*
X101300500Y-37292353D01*
X101300500Y-35850001D01*
X103244318Y-35850001D01*
X103264955Y-36006760D01*
X103264956Y-36006762D01*
X103325464Y-36152841D01*
X103421718Y-36278282D01*
X103547159Y-36374536D01*
X103693238Y-36435044D01*
X103771619Y-36445363D01*
X103849999Y-36455682D01*
X103850000Y-36455682D01*
X103850001Y-36455682D01*
X103902254Y-36448802D01*
X104006762Y-36435044D01*
X104152841Y-36374536D01*
X104278282Y-36278282D01*
X104374536Y-36152841D01*
X104435044Y-36006762D01*
X104448802Y-35902254D01*
X104455682Y-35850001D01*
X104455682Y-35849998D01*
X104435044Y-35693239D01*
X104435044Y-35693238D01*
X104379855Y-35560001D01*
X115834318Y-35560001D01*
X115854955Y-35716760D01*
X115854956Y-35716762D01*
X115915464Y-35862841D01*
X116011718Y-35988282D01*
X116137159Y-36084536D01*
X116283238Y-36145044D01*
X116361619Y-36155363D01*
X116439999Y-36165682D01*
X116440000Y-36165682D01*
X116440001Y-36165682D01*
X116492254Y-36158802D01*
X116596762Y-36145044D01*
X116742841Y-36084536D01*
X116868282Y-35988282D01*
X116964536Y-35862841D01*
X117025044Y-35716762D01*
X117045682Y-35560000D01*
X117043991Y-35547159D01*
X117025044Y-35403239D01*
X117025044Y-35403238D01*
X117019101Y-35388890D01*
X120815059Y-35388890D01*
X120835696Y-35545649D01*
X120835697Y-35545651D01*
X120896205Y-35691730D01*
X120992459Y-35817171D01*
X121117900Y-35913425D01*
X121263979Y-35973933D01*
X121342360Y-35984252D01*
X121420740Y-35994571D01*
X121420741Y-35994571D01*
X121420742Y-35994571D01*
X121472995Y-35987691D01*
X121577503Y-35973933D01*
X121723582Y-35913425D01*
X121849023Y-35817171D01*
X121945277Y-35691730D01*
X122005785Y-35545651D01*
X122026423Y-35388889D01*
X122005785Y-35232127D01*
X121945277Y-35086048D01*
X121879251Y-35000001D01*
X125913318Y-35000001D01*
X125933955Y-35156760D01*
X125933956Y-35156762D01*
X125994464Y-35302841D01*
X126090718Y-35428282D01*
X126216159Y-35524536D01*
X126362238Y-35585044D01*
X126440619Y-35595363D01*
X126518999Y-35605682D01*
X126519000Y-35605682D01*
X126519001Y-35605682D01*
X126571254Y-35598802D01*
X126675762Y-35585044D01*
X126821841Y-35524536D01*
X126947282Y-35428282D01*
X127043536Y-35302841D01*
X127104044Y-35156762D01*
X127124682Y-35000000D01*
X127104044Y-34843238D01*
X127043536Y-34697159D01*
X126947282Y-34571718D01*
X126821841Y-34475464D01*
X126675762Y-34414956D01*
X126675760Y-34414955D01*
X126519001Y-34394318D01*
X126518999Y-34394318D01*
X126362239Y-34414955D01*
X126362237Y-34414956D01*
X126216160Y-34475463D01*
X126090718Y-34571718D01*
X125994463Y-34697160D01*
X125933956Y-34843237D01*
X125933955Y-34843239D01*
X125913318Y-34999998D01*
X125913318Y-35000001D01*
X121879251Y-35000001D01*
X121849023Y-34960607D01*
X121723582Y-34864353D01*
X121672608Y-34843239D01*
X121577503Y-34803845D01*
X121577501Y-34803844D01*
X121420742Y-34783207D01*
X121420740Y-34783207D01*
X121263980Y-34803844D01*
X121263978Y-34803845D01*
X121117901Y-34864352D01*
X120992459Y-34960607D01*
X120896204Y-35086049D01*
X120835697Y-35232126D01*
X120835696Y-35232128D01*
X120815059Y-35388887D01*
X120815059Y-35388890D01*
X117019101Y-35388890D01*
X116964536Y-35257159D01*
X116868282Y-35131718D01*
X116742841Y-35035464D01*
X116657223Y-35000000D01*
X116596762Y-34974956D01*
X116596760Y-34974955D01*
X116440001Y-34954318D01*
X116439999Y-34954318D01*
X116283239Y-34974955D01*
X116283237Y-34974956D01*
X116137160Y-35035463D01*
X116011718Y-35131718D01*
X115915463Y-35257160D01*
X115854956Y-35403237D01*
X115854955Y-35403239D01*
X115834318Y-35559998D01*
X115834318Y-35560001D01*
X104379855Y-35560001D01*
X104374536Y-35547159D01*
X104278282Y-35421718D01*
X104152841Y-35325464D01*
X104098224Y-35302841D01*
X104006762Y-35264956D01*
X104006760Y-35264955D01*
X103850001Y-35244318D01*
X103849999Y-35244318D01*
X103693239Y-35264955D01*
X103693237Y-35264956D01*
X103547160Y-35325463D01*
X103421718Y-35421718D01*
X103325463Y-35547160D01*
X103264956Y-35693237D01*
X103264955Y-35693239D01*
X103244318Y-35849998D01*
X103244318Y-35850001D01*
X101300500Y-35850001D01*
X101300500Y-34400001D01*
X105994318Y-34400001D01*
X106014955Y-34556760D01*
X106014956Y-34556762D01*
X106055881Y-34655565D01*
X106075464Y-34702841D01*
X106171718Y-34828282D01*
X106297159Y-34924536D01*
X106443238Y-34985044D01*
X106521619Y-34995363D01*
X106599999Y-35005682D01*
X106600000Y-35005682D01*
X106600001Y-35005682D01*
X106652254Y-34998802D01*
X106756762Y-34985044D01*
X106902841Y-34924536D01*
X107028282Y-34828282D01*
X107124536Y-34702841D01*
X107185044Y-34556762D01*
X107205682Y-34400000D01*
X107199989Y-34356760D01*
X107185044Y-34243239D01*
X107185044Y-34243238D01*
X107124536Y-34097159D01*
X107028282Y-33971718D01*
X106928249Y-33894960D01*
X113769500Y-33894960D01*
X113784630Y-34029249D01*
X113784631Y-34029254D01*
X113844211Y-34199523D01*
X113871680Y-34243239D01*
X113940184Y-34352262D01*
X114067738Y-34479816D01*
X114158080Y-34536582D01*
X114190193Y-34556760D01*
X114220478Y-34575789D01*
X114370492Y-34628281D01*
X114390745Y-34635368D01*
X114390750Y-34635369D01*
X114569996Y-34655565D01*
X114570000Y-34655565D01*
X114570004Y-34655565D01*
X114749249Y-34635369D01*
X114749252Y-34635368D01*
X114749255Y-34635368D01*
X114919522Y-34575789D01*
X115072262Y-34479816D01*
X115199816Y-34352262D01*
X115295789Y-34199522D01*
X115355368Y-34029255D01*
X115360350Y-33985043D01*
X115370499Y-33894960D01*
X115370500Y-33894956D01*
X115370500Y-33260272D01*
X115390185Y-33193233D01*
X115442989Y-33147478D01*
X115512147Y-33137534D01*
X115575703Y-33166559D01*
X115583582Y-33174923D01*
X115583802Y-33174704D01*
X115589544Y-33180446D01*
X115589546Y-33180448D01*
X115589549Y-33180451D01*
X115709767Y-33272698D01*
X115849764Y-33330687D01*
X115962280Y-33345500D01*
X115962287Y-33345500D01*
X116037713Y-33345500D01*
X116037720Y-33345500D01*
X116150236Y-33330687D01*
X116290233Y-33272698D01*
X116410451Y-33180451D01*
X116502698Y-33060233D01*
X116522562Y-33012277D01*
X117236732Y-33012277D01*
X117257369Y-33169036D01*
X117257370Y-33169038D01*
X117317878Y-33315117D01*
X117414132Y-33440558D01*
X117539573Y-33536812D01*
X117685652Y-33597320D01*
X117734402Y-33603738D01*
X117842413Y-33617958D01*
X117842414Y-33617958D01*
X117842415Y-33617958D01*
X117894668Y-33611078D01*
X117999176Y-33597320D01*
X118145255Y-33536812D01*
X118270696Y-33440558D01*
X118366950Y-33315117D01*
X118427458Y-33169038D01*
X118448096Y-33012276D01*
X118442756Y-32971718D01*
X118427458Y-32855515D01*
X118427458Y-32855514D01*
X118392037Y-32770000D01*
X121199534Y-32770000D01*
X121219312Y-32920234D01*
X121219313Y-32920236D01*
X121257436Y-33012274D01*
X121277302Y-33060233D01*
X121369549Y-33180451D01*
X121489767Y-33272698D01*
X121629764Y-33330687D01*
X121742280Y-33345500D01*
X121742287Y-33345500D01*
X121817713Y-33345500D01*
X121817720Y-33345500D01*
X121930236Y-33330687D01*
X122070233Y-33272698D01*
X122190451Y-33180451D01*
X122190455Y-33180446D01*
X122196198Y-33174704D01*
X122198196Y-33176702D01*
X122243539Y-33143587D01*
X122313285Y-33139425D01*
X122374209Y-33173631D01*
X122406969Y-33235345D01*
X122409500Y-33260272D01*
X122409500Y-33894960D01*
X122424630Y-34029249D01*
X122424631Y-34029254D01*
X122484211Y-34199523D01*
X122511680Y-34243239D01*
X122580184Y-34352262D01*
X122707738Y-34479816D01*
X122798080Y-34536582D01*
X122830193Y-34556760D01*
X122860478Y-34575789D01*
X123010492Y-34628281D01*
X123030745Y-34635368D01*
X123030750Y-34635369D01*
X123209996Y-34655565D01*
X123210000Y-34655565D01*
X123210004Y-34655565D01*
X123389249Y-34635369D01*
X123389252Y-34635368D01*
X123389255Y-34635368D01*
X123559522Y-34575789D01*
X123712262Y-34479816D01*
X123712265Y-34479812D01*
X123714843Y-34478193D01*
X123782080Y-34459192D01*
X123848915Y-34479559D01*
X123879190Y-34507697D01*
X123971718Y-34628282D01*
X124097159Y-34724536D01*
X124243238Y-34785044D01*
X124321619Y-34795363D01*
X124399999Y-34805682D01*
X124400000Y-34805682D01*
X124400001Y-34805682D01*
X124452254Y-34798802D01*
X124556762Y-34785044D01*
X124702841Y-34724536D01*
X124828282Y-34628282D01*
X124924536Y-34502841D01*
X124985044Y-34356762D01*
X125005682Y-34200000D01*
X124997313Y-34136435D01*
X125008078Y-34067403D01*
X125054457Y-34015147D01*
X125121726Y-33996261D01*
X125136421Y-33997311D01*
X125200000Y-34005682D01*
X125356762Y-33985044D01*
X125502841Y-33924536D01*
X125628282Y-33828282D01*
X125724536Y-33702841D01*
X125785044Y-33556762D01*
X125805682Y-33400000D01*
X125785044Y-33243238D01*
X125724536Y-33097159D01*
X125628282Y-32971718D01*
X125502841Y-32875464D01*
X125356762Y-32814956D01*
X125356760Y-32814955D01*
X125200001Y-32794318D01*
X125199999Y-32794318D01*
X125043239Y-32814955D01*
X125043237Y-32814956D01*
X124897160Y-32875463D01*
X124771718Y-32971718D01*
X124675463Y-33097160D01*
X124614956Y-33243237D01*
X124614955Y-33243239D01*
X124594318Y-33399998D01*
X124594318Y-33400001D01*
X124602686Y-33463562D01*
X124591920Y-33532597D01*
X124545540Y-33584853D01*
X124478272Y-33603738D01*
X124463562Y-33602686D01*
X124400001Y-33594318D01*
X124399999Y-33594318D01*
X124243239Y-33614955D01*
X124243234Y-33614957D01*
X124181952Y-33640341D01*
X124112483Y-33647810D01*
X124050004Y-33616534D01*
X124014352Y-33556445D01*
X124010500Y-33525780D01*
X124010500Y-32705043D01*
X124010499Y-32705039D01*
X123995369Y-32570750D01*
X123995368Y-32570745D01*
X123958173Y-32464448D01*
X123935789Y-32400478D01*
X123839816Y-32247738D01*
X123712262Y-32120184D01*
X123559523Y-32024211D01*
X123389254Y-31964631D01*
X123389249Y-31964630D01*
X123210004Y-31944435D01*
X123209996Y-31944435D01*
X123030750Y-31964630D01*
X123030745Y-31964631D01*
X122860476Y-32024211D01*
X122707737Y-32120184D01*
X122580184Y-32247737D01*
X122484210Y-32400478D01*
X122477808Y-32418774D01*
X122437085Y-32475549D01*
X122372131Y-32501295D01*
X122303570Y-32487837D01*
X122262394Y-32453306D01*
X122190451Y-32359549D01*
X122070233Y-32267302D01*
X122070229Y-32267300D01*
X122006801Y-32241027D01*
X121930236Y-32209313D01*
X121916171Y-32207461D01*
X121817727Y-32194500D01*
X121817720Y-32194500D01*
X121742280Y-32194500D01*
X121742272Y-32194500D01*
X121629764Y-32209313D01*
X121629763Y-32209313D01*
X121489770Y-32267300D01*
X121489767Y-32267301D01*
X121489767Y-32267302D01*
X121369549Y-32359549D01*
X121338145Y-32400476D01*
X121277300Y-32479770D01*
X121219313Y-32619763D01*
X121219312Y-32619765D01*
X121199534Y-32769999D01*
X121199534Y-32770000D01*
X118392037Y-32770000D01*
X118366950Y-32709435D01*
X118270696Y-32583994D01*
X118145255Y-32487740D01*
X118115823Y-32475549D01*
X117999176Y-32427232D01*
X117999174Y-32427231D01*
X117842415Y-32406594D01*
X117842413Y-32406594D01*
X117685653Y-32427231D01*
X117685651Y-32427232D01*
X117539574Y-32487739D01*
X117414132Y-32583994D01*
X117317877Y-32709436D01*
X117257370Y-32855513D01*
X117257369Y-32855515D01*
X117236732Y-33012274D01*
X117236732Y-33012277D01*
X116522562Y-33012277D01*
X116560687Y-32920236D01*
X116580466Y-32770000D01*
X116560687Y-32619764D01*
X116502698Y-32479767D01*
X116410451Y-32359549D01*
X116290233Y-32267302D01*
X116290229Y-32267300D01*
X116226801Y-32241027D01*
X116150236Y-32209313D01*
X116136171Y-32207461D01*
X116037727Y-32194500D01*
X116037720Y-32194500D01*
X115962280Y-32194500D01*
X115962272Y-32194500D01*
X115849764Y-32209313D01*
X115849763Y-32209313D01*
X115709770Y-32267300D01*
X115709767Y-32267301D01*
X115709767Y-32267302D01*
X115589549Y-32359549D01*
X115589548Y-32359550D01*
X115589547Y-32359551D01*
X115517607Y-32453304D01*
X115461179Y-32494507D01*
X115391433Y-32498661D01*
X115330513Y-32464448D01*
X115302190Y-32418770D01*
X115295790Y-32400479D01*
X115212109Y-32267302D01*
X115199816Y-32247738D01*
X115072262Y-32120184D01*
X114919523Y-32024211D01*
X114749254Y-31964631D01*
X114749249Y-31964630D01*
X114570004Y-31944435D01*
X114569996Y-31944435D01*
X114390750Y-31964630D01*
X114390745Y-31964631D01*
X114220476Y-32024211D01*
X114067737Y-32120184D01*
X113940184Y-32247737D01*
X113844211Y-32400476D01*
X113784631Y-32570745D01*
X113784630Y-32570750D01*
X113769500Y-32705039D01*
X113769500Y-33894960D01*
X106928249Y-33894960D01*
X106902841Y-33875464D01*
X106756762Y-33814956D01*
X106756760Y-33814955D01*
X106600001Y-33794318D01*
X106599999Y-33794318D01*
X106443239Y-33814955D01*
X106443237Y-33814956D01*
X106297160Y-33875463D01*
X106171718Y-33971718D01*
X106075463Y-34097160D01*
X106014956Y-34243237D01*
X106014955Y-34243239D01*
X105994318Y-34399998D01*
X105994318Y-34400001D01*
X101300500Y-34400001D01*
X101300500Y-31224920D01*
X101300726Y-31217432D01*
X101304358Y-31157394D01*
X101293514Y-31098221D01*
X101292387Y-31090815D01*
X101292128Y-31088689D01*
X101285140Y-31031128D01*
X101281548Y-31021656D01*
X101275521Y-31000034D01*
X101273695Y-30990071D01*
X101273693Y-30990063D01*
X101249009Y-30935221D01*
X101246154Y-30928331D01*
X101224818Y-30872070D01*
X101219062Y-30863731D01*
X101208034Y-30844177D01*
X101203880Y-30834946D01*
X101189743Y-30816902D01*
X101166780Y-30787591D01*
X101162352Y-30781573D01*
X101128183Y-30732071D01*
X101083153Y-30692178D01*
X101077715Y-30687058D01*
X101017658Y-30627001D01*
X118994318Y-30627001D01*
X119014955Y-30783760D01*
X119014956Y-30783762D01*
X119075464Y-30929841D01*
X119171718Y-31055282D01*
X119297159Y-31151536D01*
X119443238Y-31212044D01*
X119512542Y-31221168D01*
X119599999Y-31232682D01*
X119600000Y-31232682D01*
X119600001Y-31232682D01*
X119652254Y-31225802D01*
X119756762Y-31212044D01*
X119902841Y-31151536D01*
X120028282Y-31055282D01*
X120124536Y-30929841D01*
X120185044Y-30783762D01*
X120205682Y-30627000D01*
X120203751Y-30612335D01*
X120185044Y-30470239D01*
X120185044Y-30470238D01*
X120124536Y-30324159D01*
X120028282Y-30198718D01*
X119902841Y-30102464D01*
X119839685Y-30076304D01*
X119756762Y-30041956D01*
X119756760Y-30041955D01*
X119600001Y-30021318D01*
X119599999Y-30021318D01*
X119443239Y-30041955D01*
X119443237Y-30041956D01*
X119297160Y-30102463D01*
X119171718Y-30198718D01*
X119075463Y-30324160D01*
X119014956Y-30470237D01*
X119014955Y-30470239D01*
X118994318Y-30626998D01*
X118994318Y-30627001D01*
X101017658Y-30627001D01*
X100912940Y-30522283D01*
X100907805Y-30516828D01*
X100867929Y-30471816D01*
X100867924Y-30471812D01*
X100818438Y-30437655D01*
X100812403Y-30433215D01*
X100765060Y-30396124D01*
X100765055Y-30396120D01*
X100755813Y-30391961D01*
X100736266Y-30380936D01*
X100734657Y-30379826D01*
X100727930Y-30375182D01*
X100671694Y-30353854D01*
X100664790Y-30350994D01*
X100609932Y-30326305D01*
X100609930Y-30326304D01*
X100599946Y-30324474D01*
X100578343Y-30318451D01*
X100568874Y-30314860D01*
X100568871Y-30314859D01*
X100509171Y-30307610D01*
X100501770Y-30306483D01*
X100442609Y-30295642D01*
X100442603Y-30295642D01*
X100382567Y-30299274D01*
X100375079Y-30299500D01*
X99741519Y-30299500D01*
X99674480Y-30279815D01*
X99653837Y-30263180D01*
X99615370Y-30224712D01*
X99576843Y-30194528D01*
X99515057Y-30146122D01*
X99427071Y-30106522D01*
X99359935Y-30076306D01*
X99359931Y-30076304D01*
X99192607Y-30045642D01*
X99192603Y-30045642D01*
X99065254Y-30053346D01*
X99022804Y-30055914D01*
X98941599Y-30081218D01*
X98860393Y-30106522D01*
X98714811Y-30194530D01*
X98594530Y-30314811D01*
X98506522Y-30460393D01*
X98500707Y-30479054D01*
X98459814Y-30610290D01*
X98455914Y-30622805D01*
X98445642Y-30792603D01*
X98445642Y-30792605D01*
X98476304Y-30959931D01*
X98476306Y-30959935D01*
X98519219Y-31055282D01*
X98546122Y-31115057D01*
X98574702Y-31151536D01*
X98624712Y-31215370D01*
X98887058Y-31477715D01*
X98892178Y-31483153D01*
X98932071Y-31528183D01*
X98975018Y-31557827D01*
X98981569Y-31562349D01*
X98987601Y-31566788D01*
X99034938Y-31603874D01*
X99034943Y-31603877D01*
X99044174Y-31608031D01*
X99063727Y-31619059D01*
X99072070Y-31624818D01*
X99128322Y-31646151D01*
X99135228Y-31649012D01*
X99190063Y-31673692D01*
X99190064Y-31673692D01*
X99190068Y-31673694D01*
X99200030Y-31675519D01*
X99221651Y-31681546D01*
X99231125Y-31685139D01*
X99231128Y-31685140D01*
X99275234Y-31690495D01*
X99290830Y-31692389D01*
X99298235Y-31693516D01*
X99319400Y-31697394D01*
X99357394Y-31704357D01*
X99417423Y-31700726D01*
X99424910Y-31700500D01*
X99775500Y-31700500D01*
X99842539Y-31720185D01*
X99888294Y-31772989D01*
X99899500Y-31824500D01*
X99899500Y-38175500D01*
X99879815Y-38242539D01*
X99827011Y-38288294D01*
X99775500Y-38299500D01*
X91967143Y-38299500D01*
X91940785Y-38296666D01*
X91936074Y-38295641D01*
X91936070Y-38295641D01*
X91886539Y-38299184D01*
X91877692Y-38299500D01*
X91864200Y-38299500D01*
X91858063Y-38300382D01*
X91850840Y-38301420D01*
X91842054Y-38302365D01*
X91792516Y-38305909D01*
X91792513Y-38305910D01*
X91787986Y-38307598D01*
X91762327Y-38314146D01*
X91757550Y-38314833D01*
X91757543Y-38314835D01*
X91712365Y-38335466D01*
X91704191Y-38338851D01*
X91657675Y-38356200D01*
X91657664Y-38356206D01*
X91653799Y-38359100D01*
X91631020Y-38372615D01*
X91626636Y-38374617D01*
X91626625Y-38374624D01*
X91589108Y-38407132D01*
X91582226Y-38412678D01*
X91571403Y-38420780D01*
X91561854Y-38430329D01*
X91555384Y-38436353D01*
X91517861Y-38468867D01*
X91517854Y-38468876D01*
X91515243Y-38472938D01*
X91498616Y-38493568D01*
X90329005Y-39663181D01*
X90267682Y-39696666D01*
X90241324Y-39699500D01*
X88576257Y-39699500D01*
X88509218Y-39679815D01*
X88503900Y-39676075D01*
X88502836Y-39675461D01*
X88356765Y-39614957D01*
X88356760Y-39614955D01*
X88200001Y-39594318D01*
X88199999Y-39594318D01*
X88043239Y-39614955D01*
X88043237Y-39614956D01*
X87897160Y-39675463D01*
X87771718Y-39771718D01*
X87675463Y-39897160D01*
X87614956Y-40043237D01*
X87614955Y-40043239D01*
X87594318Y-40199998D01*
X87594318Y-40200001D01*
X87614955Y-40356760D01*
X87614956Y-40356762D01*
X87647055Y-40434257D01*
X87675464Y-40502841D01*
X87771718Y-40628282D01*
X87877430Y-40709397D01*
X87918632Y-40765824D01*
X87922787Y-40835570D01*
X87889624Y-40895453D01*
X87221897Y-41563181D01*
X87160574Y-41596666D01*
X87134216Y-41599500D01*
X85743462Y-41599500D01*
X85676423Y-41579815D01*
X85630668Y-41527011D01*
X85620724Y-41457853D01*
X85628901Y-41428047D01*
X85666793Y-41336567D01*
X85687837Y-41285763D01*
X85708475Y-41129001D01*
X85687837Y-40972239D01*
X85627329Y-40826160D01*
X85531075Y-40700719D01*
X85405634Y-40604465D01*
X85315009Y-40566927D01*
X85259555Y-40543957D01*
X85259553Y-40543956D01*
X85102794Y-40523319D01*
X85102792Y-40523319D01*
X84946032Y-40543956D01*
X84946030Y-40543957D01*
X84799953Y-40604464D01*
X84799952Y-40604465D01*
X84674511Y-40700719D01*
X84674509Y-40700721D01*
X84671700Y-40702877D01*
X84606530Y-40728071D01*
X84596213Y-40728501D01*
X80268683Y-40728501D01*
X80268659Y-40728502D01*
X80241877Y-40728502D01*
X80220812Y-40735347D01*
X80201895Y-40739888D01*
X80180013Y-40743353D01*
X80180008Y-40743355D01*
X80160263Y-40753415D01*
X80142299Y-40760856D01*
X80121220Y-40767706D01*
X80103297Y-40780728D01*
X80086712Y-40790891D01*
X80066972Y-40800949D01*
X80058561Y-40809361D01*
X80044404Y-40823518D01*
X77262181Y-43605740D01*
X77200858Y-43639225D01*
X77131166Y-43634241D01*
X77075233Y-43592369D01*
X77050816Y-43526905D01*
X77050500Y-43518059D01*
X77050500Y-28149500D01*
X77070185Y-28082461D01*
X77122989Y-28036706D01*
X77174500Y-28025500D01*
X99832468Y-28025500D01*
X99899507Y-28045185D01*
G37*
G04 #@! TD.AperFunction*
G04 #@! TA.AperFunction,Conductor*
G36*
X77221949Y-63576226D02*
G01*
X77243238Y-63585044D01*
X77243245Y-63585044D01*
X77251094Y-63587149D01*
X77250572Y-63589093D01*
X77304544Y-63612967D01*
X77312148Y-63619962D01*
X77563181Y-63870995D01*
X77596666Y-63932318D01*
X77599500Y-63958676D01*
X77599500Y-65041323D01*
X77579815Y-65108362D01*
X77563181Y-65129004D01*
X77312146Y-65380038D01*
X77250823Y-65413523D01*
X77244415Y-65414640D01*
X77243238Y-65414955D01*
X77221950Y-65423773D01*
X77152480Y-65431240D01*
X77090002Y-65399964D01*
X77054351Y-65339874D01*
X77050500Y-65309211D01*
X77050500Y-63690788D01*
X77070185Y-63623749D01*
X77122989Y-63577994D01*
X77192147Y-63568050D01*
X77221949Y-63576226D01*
G37*
G04 #@! TD.AperFunction*
G04 #@! TA.AperFunction,Conductor*
G36*
X77221949Y-48976226D02*
G01*
X77243238Y-48985044D01*
X77278437Y-48989678D01*
X77399999Y-49005682D01*
X77400000Y-49005682D01*
X77400001Y-49005682D01*
X77452254Y-48998802D01*
X77556762Y-48985044D01*
X77556765Y-48985042D01*
X77564613Y-48982940D01*
X77565061Y-48984614D01*
X77624718Y-48978198D01*
X77687199Y-49009470D01*
X77722854Y-49069558D01*
X77726707Y-49100229D01*
X77726707Y-58516121D01*
X77726708Y-58516131D01*
X77733553Y-58537199D01*
X77738094Y-58556110D01*
X77741561Y-58577996D01*
X77741562Y-58577999D01*
X77751619Y-58597737D01*
X77759064Y-58615710D01*
X77765911Y-58636782D01*
X77778933Y-58654706D01*
X77789097Y-58671292D01*
X77799156Y-58691032D01*
X77799157Y-58691034D01*
X77818597Y-58710474D01*
X77818626Y-58710505D01*
X78763181Y-59655058D01*
X78796666Y-59716381D01*
X78799500Y-59742739D01*
X78799500Y-63455953D01*
X78779815Y-63522992D01*
X78727011Y-63568747D01*
X78657853Y-63578691D01*
X78594297Y-63549666D01*
X78559319Y-63499289D01*
X78543794Y-63457667D01*
X78540909Y-63453814D01*
X78527379Y-63431012D01*
X78525377Y-63426627D01*
X78492857Y-63389097D01*
X78487304Y-63382206D01*
X78479220Y-63371406D01*
X78479214Y-63371400D01*
X78479210Y-63371395D01*
X78469676Y-63361861D01*
X78463643Y-63355382D01*
X78431129Y-63317858D01*
X78431125Y-63317854D01*
X78427066Y-63315246D01*
X78406428Y-63298614D01*
X78019962Y-62912148D01*
X77986477Y-62850825D01*
X77985361Y-62844423D01*
X77985044Y-62843243D01*
X77985044Y-62843238D01*
X77924536Y-62697159D01*
X77828282Y-62571718D01*
X77702841Y-62475464D01*
X77673793Y-62463432D01*
X77556762Y-62414956D01*
X77556760Y-62414955D01*
X77400001Y-62394318D01*
X77399999Y-62394318D01*
X77243239Y-62414955D01*
X77243234Y-62414957D01*
X77221950Y-62423773D01*
X77152480Y-62431240D01*
X77090002Y-62399964D01*
X77054351Y-62339874D01*
X77050500Y-62309211D01*
X77050500Y-49090788D01*
X77070185Y-49023749D01*
X77122989Y-48977994D01*
X77192147Y-48968050D01*
X77221949Y-48976226D01*
G37*
G04 #@! TD.AperFunction*
G04 #@! TA.AperFunction,Conductor*
G36*
X77255703Y-46368126D02*
G01*
X77262181Y-46374158D01*
X77690388Y-46802365D01*
X77723873Y-46863688D01*
X77726707Y-46890046D01*
X77726707Y-47699770D01*
X77707022Y-47766809D01*
X77654218Y-47812564D01*
X77585060Y-47822508D01*
X77564653Y-47816910D01*
X77564613Y-47817060D01*
X77556760Y-47814955D01*
X77400001Y-47794318D01*
X77399999Y-47794318D01*
X77243239Y-47814955D01*
X77243234Y-47814957D01*
X77221950Y-47823773D01*
X77152480Y-47831240D01*
X77090002Y-47799964D01*
X77054351Y-47739874D01*
X77050500Y-47709211D01*
X77050500Y-46461839D01*
X77070185Y-46394800D01*
X77122989Y-46349045D01*
X77192147Y-46339101D01*
X77255703Y-46368126D01*
G37*
G04 #@! TD.AperFunction*
G04 #@! TA.AperFunction,Conductor*
G36*
X99708363Y-39320185D02*
G01*
X99729005Y-39336819D01*
X99863181Y-39470995D01*
X99896666Y-39532318D01*
X99899500Y-39558676D01*
X99899500Y-42296401D01*
X99899274Y-42303889D01*
X99895642Y-42363926D01*
X99895642Y-42363928D01*
X99906483Y-42423093D01*
X99907610Y-42430494D01*
X99914859Y-42490194D01*
X99914860Y-42490197D01*
X99918451Y-42499666D01*
X99924474Y-42521269D01*
X99926304Y-42531253D01*
X99926305Y-42531255D01*
X99948574Y-42580736D01*
X99950991Y-42586105D01*
X99953854Y-42593017D01*
X99975182Y-42649253D01*
X99975183Y-42649254D01*
X99980936Y-42657589D01*
X99991961Y-42677136D01*
X99996120Y-42686378D01*
X99996124Y-42686383D01*
X100033215Y-42733726D01*
X100037655Y-42739761D01*
X100071812Y-42789247D01*
X100071816Y-42789252D01*
X100116828Y-42829128D01*
X100122283Y-42834263D01*
X101565735Y-44277715D01*
X101570855Y-44283153D01*
X101610748Y-44328183D01*
X101660254Y-44362354D01*
X101666271Y-44366783D01*
X101680445Y-44377887D01*
X101721080Y-44434726D01*
X101724534Y-44504510D01*
X101689711Y-44565084D01*
X101627668Y-44597215D01*
X101603975Y-44599500D01*
X100348349Y-44599500D01*
X100281310Y-44579815D01*
X100235555Y-44527011D01*
X100225611Y-44457853D01*
X100249973Y-44400014D01*
X100305091Y-44328182D01*
X100324536Y-44302841D01*
X100385044Y-44156762D01*
X100404372Y-44009949D01*
X100405682Y-44000001D01*
X100405682Y-43999998D01*
X100387703Y-43863433D01*
X100385044Y-43843238D01*
X100324536Y-43697159D01*
X100228282Y-43571718D01*
X100102841Y-43475464D01*
X100101740Y-43475008D01*
X99956762Y-43414956D01*
X99956760Y-43414955D01*
X99800001Y-43394318D01*
X99799999Y-43394318D01*
X99643239Y-43414955D01*
X99643237Y-43414956D01*
X99497160Y-43475463D01*
X99371718Y-43571718D01*
X99275463Y-43697160D01*
X99214956Y-43843237D01*
X99214955Y-43843239D01*
X99194318Y-43999998D01*
X99194318Y-44000001D01*
X99214955Y-44156760D01*
X99214956Y-44156762D01*
X99275464Y-44302842D01*
X99350027Y-44400014D01*
X99375221Y-44465183D01*
X99361183Y-44533628D01*
X99312369Y-44583617D01*
X99251651Y-44599500D01*
X83266255Y-44599500D01*
X83199216Y-44579815D01*
X83153461Y-44527011D01*
X83143517Y-44457853D01*
X83172542Y-44394297D01*
X83178574Y-44387819D01*
X83505483Y-44060909D01*
X83528050Y-44038342D01*
X83538109Y-44018597D01*
X83548271Y-44002014D01*
X83561296Y-43984090D01*
X83568141Y-43963022D01*
X83575586Y-43945045D01*
X83585646Y-43925304D01*
X83589112Y-43903415D01*
X83593655Y-43884491D01*
X83594850Y-43880814D01*
X83625105Y-43831458D01*
X83628273Y-43828288D01*
X83628282Y-43828282D01*
X83724536Y-43702841D01*
X83785044Y-43556762D01*
X83805682Y-43400000D01*
X83797873Y-43340685D01*
X83808638Y-43271650D01*
X83855018Y-43219394D01*
X83920812Y-43200500D01*
X85479188Y-43200500D01*
X85546227Y-43220185D01*
X85591982Y-43272989D01*
X85602127Y-43340686D01*
X85594318Y-43400000D01*
X85594318Y-43400001D01*
X85614955Y-43556760D01*
X85614956Y-43556762D01*
X85663805Y-43674695D01*
X85675464Y-43702841D01*
X85771718Y-43828282D01*
X85897159Y-43924536D01*
X86043238Y-43985044D01*
X86075004Y-43989226D01*
X86199999Y-44005682D01*
X86200000Y-44005682D01*
X86200001Y-44005682D01*
X86252254Y-43998802D01*
X86356762Y-43985044D01*
X86502841Y-43924536D01*
X86628282Y-43828282D01*
X86701625Y-43732699D01*
X86758052Y-43691497D01*
X86827798Y-43687342D01*
X86888718Y-43721554D01*
X86898372Y-43732695D01*
X86925831Y-43768481D01*
X86971714Y-43828278D01*
X86971718Y-43828282D01*
X87097159Y-43924536D01*
X87243238Y-43985044D01*
X87275004Y-43989226D01*
X87399999Y-44005682D01*
X87400000Y-44005682D01*
X87400001Y-44005682D01*
X87452254Y-43998802D01*
X87556762Y-43985044D01*
X87702841Y-43924536D01*
X87828282Y-43828282D01*
X87924536Y-43702841D01*
X87985044Y-43556762D01*
X88005682Y-43400000D01*
X87985044Y-43243238D01*
X87924536Y-43097159D01*
X87924535Y-43097158D01*
X87924535Y-43097157D01*
X87849973Y-42999986D01*
X87824779Y-42934817D01*
X87838817Y-42866372D01*
X87887631Y-42816383D01*
X87948349Y-42800500D01*
X88334216Y-42800500D01*
X88401255Y-42820185D01*
X88421897Y-42836819D01*
X88542932Y-42957853D01*
X88623421Y-43038342D01*
X88713129Y-43128050D01*
X88732866Y-43138106D01*
X88749452Y-43148269D01*
X88767381Y-43161296D01*
X88767383Y-43161296D01*
X88767384Y-43161297D01*
X88788445Y-43168140D01*
X88806424Y-43175586D01*
X88826167Y-43185646D01*
X88848056Y-43189112D01*
X88866972Y-43193653D01*
X88888038Y-43200499D01*
X88914817Y-43200499D01*
X88914841Y-43200500D01*
X88919952Y-43200500D01*
X90490247Y-43200500D01*
X90557286Y-43220185D01*
X90603041Y-43272989D01*
X90613186Y-43308314D01*
X90614956Y-43321759D01*
X90614956Y-43321760D01*
X90649131Y-43404267D01*
X90675464Y-43467839D01*
X90771718Y-43593280D01*
X90897159Y-43689534D01*
X91043238Y-43750042D01*
X91121619Y-43760361D01*
X91199999Y-43770680D01*
X91200000Y-43770680D01*
X91200001Y-43770680D01*
X91256961Y-43763181D01*
X91356762Y-43750042D01*
X91460411Y-43707109D01*
X93301426Y-43707109D01*
X93322063Y-43863868D01*
X93322064Y-43863870D01*
X93382554Y-44009907D01*
X93382572Y-44009949D01*
X93478826Y-44135390D01*
X93604267Y-44231644D01*
X93750346Y-44292152D01*
X93806160Y-44299500D01*
X93907107Y-44312790D01*
X93907108Y-44312790D01*
X93907109Y-44312790D01*
X93982671Y-44302842D01*
X94063870Y-44292152D01*
X94209949Y-44231644D01*
X94335390Y-44135390D01*
X94431644Y-44009949D01*
X94492152Y-43863870D01*
X94512790Y-43707108D01*
X94512672Y-43706215D01*
X94494966Y-43571718D01*
X94492152Y-43550346D01*
X94431644Y-43404267D01*
X94335390Y-43278826D01*
X94209949Y-43182572D01*
X94193083Y-43175586D01*
X94063870Y-43122064D01*
X94063868Y-43122063D01*
X93907109Y-43101426D01*
X93907107Y-43101426D01*
X93750347Y-43122063D01*
X93750345Y-43122064D01*
X93604268Y-43182571D01*
X93478826Y-43278826D01*
X93382571Y-43404268D01*
X93322064Y-43550345D01*
X93322063Y-43550347D01*
X93301426Y-43707106D01*
X93301426Y-43707109D01*
X91460411Y-43707109D01*
X91502841Y-43689534D01*
X91628282Y-43593280D01*
X91724536Y-43467839D01*
X91785044Y-43321760D01*
X91801909Y-43193655D01*
X91805682Y-43164999D01*
X91805682Y-43164996D01*
X91790878Y-43052547D01*
X91785044Y-43008236D01*
X91724536Y-42862157D01*
X91628282Y-42736716D01*
X91502841Y-42640462D01*
X91356762Y-42579954D01*
X91300577Y-42572557D01*
X91196485Y-42558853D01*
X91132589Y-42530586D01*
X91125000Y-42523605D01*
X91095911Y-42494516D01*
X91095910Y-42494515D01*
X91092798Y-42491403D01*
X91092784Y-42491390D01*
X91073344Y-42471950D01*
X91073342Y-42471949D01*
X91053602Y-42461890D01*
X91037016Y-42451726D01*
X91019092Y-42438704D01*
X91019093Y-42438704D01*
X90998020Y-42431857D01*
X90980047Y-42424412D01*
X90960309Y-42414355D01*
X90960306Y-42414354D01*
X90938420Y-42410887D01*
X90919509Y-42406346D01*
X90898441Y-42399501D01*
X90898436Y-42399500D01*
X90898435Y-42399500D01*
X90898431Y-42399500D01*
X89920812Y-42399500D01*
X89853773Y-42379815D01*
X89808018Y-42327011D01*
X89797873Y-42259314D01*
X89805682Y-42199999D01*
X89805682Y-42199998D01*
X89785044Y-42043239D01*
X89785044Y-42043238D01*
X89724536Y-41897159D01*
X89724535Y-41897158D01*
X89724535Y-41897157D01*
X89626124Y-41768905D01*
X89600930Y-41703736D01*
X89600500Y-41693419D01*
X89600500Y-41336569D01*
X89600500Y-41336567D01*
X89593653Y-41315497D01*
X89589111Y-41296577D01*
X89585646Y-41274696D01*
X89575584Y-41254949D01*
X89568140Y-41236976D01*
X89561295Y-41215909D01*
X89548274Y-41197987D01*
X89538108Y-41181398D01*
X89528050Y-41161658D01*
X89509825Y-41143433D01*
X89509807Y-41143413D01*
X89278575Y-40912181D01*
X89245090Y-40850858D01*
X89250074Y-40781166D01*
X89291946Y-40725233D01*
X89357410Y-40700816D01*
X89366256Y-40700500D01*
X90432857Y-40700500D01*
X90459215Y-40703334D01*
X90463927Y-40704359D01*
X90513461Y-40700815D01*
X90522308Y-40700500D01*
X90535799Y-40700500D01*
X90549156Y-40698579D01*
X90557951Y-40697633D01*
X90607483Y-40694091D01*
X90611992Y-40692408D01*
X90637685Y-40685850D01*
X90642457Y-40685165D01*
X90687637Y-40664530D01*
X90695801Y-40661149D01*
X90742331Y-40643796D01*
X90746189Y-40640907D01*
X90768995Y-40627375D01*
X90773373Y-40625377D01*
X90810899Y-40592859D01*
X90817778Y-40587316D01*
X90828593Y-40579221D01*
X90838155Y-40569658D01*
X90844605Y-40563653D01*
X90882143Y-40531128D01*
X90884751Y-40527068D01*
X90901381Y-40506431D01*
X92070995Y-39336819D01*
X92132318Y-39303334D01*
X92158676Y-39300500D01*
X99641324Y-39300500D01*
X99708363Y-39320185D01*
G37*
G04 #@! TD.AperFunction*
G04 #@! TA.AperFunction,Conductor*
G36*
X88718690Y-41620185D02*
G01*
X88764445Y-41672989D01*
X88774389Y-41742147D01*
X88750027Y-41799986D01*
X88675464Y-41897158D01*
X88675463Y-41897159D01*
X88664779Y-41922954D01*
X88620937Y-41977357D01*
X88554642Y-41999421D01*
X88550218Y-41999500D01*
X88217726Y-41999500D01*
X88150687Y-41979815D01*
X88104932Y-41927011D01*
X88094988Y-41857853D01*
X88124013Y-41794297D01*
X88130045Y-41787819D01*
X88281045Y-41636819D01*
X88342368Y-41603334D01*
X88368726Y-41600500D01*
X88651651Y-41600500D01*
X88718690Y-41620185D01*
G37*
G04 #@! TD.AperFunction*
D18*
X128250000Y-80225000D02*
X128250000Y-30425000D01*
X128250000Y-30425000D02*
X124250000Y-30425000D01*
X77950000Y-88825000D02*
X77950000Y-80225000D01*
X127150000Y-88825000D02*
X127150000Y-80225000D01*
X76850000Y-80225000D02*
X76850000Y-27825000D01*
X124250000Y-27825000D02*
X124250000Y-30425000D01*
X77950000Y-88825000D02*
X127150000Y-88825000D01*
X76850000Y-27825000D02*
X124250000Y-27825000D01*
X127150000Y-80225000D02*
X128250000Y-80225000D01*
X77950000Y-80225000D02*
X76850000Y-80225000D01*
M02*
