G04 #@! TF.GenerationSoftware,KiCad,Pcbnew,7.0.10*
G04 #@! TF.CreationDate,2024-04-17T21:52:57+03:00*
G04 #@! TF.ProjectId,GAMEBOY_STM32_CART,47414d45-424f-4595-9f53-544d33325f43,v5.1*
G04 #@! TF.SameCoordinates,Original*
G04 #@! TF.FileFunction,Legend,Top*
G04 #@! TF.FilePolarity,Positive*
%FSLAX46Y46*%
G04 Gerber Fmt 4.6, Leading zero omitted, Abs format (unit mm)*
G04 Created by KiCad (PCBNEW 7.0.10) date 2024-04-17 21:52:57*
%MOMM*%
%LPD*%
G01*
G04 APERTURE LIST*
%ADD10C,0.200000*%
%ADD11C,0.150000*%
%ADD12C,0.205000*%
%ADD13C,0.100000*%
%ADD14C,0.120000*%
G04 #@! TA.AperFunction,Profile*
%ADD15C,0.150000*%
G04 #@! TD*
G04 APERTURE END LIST*
D10*
G36*
X106402736Y-62851756D02*
G01*
X106413554Y-62852755D01*
X106423627Y-62854420D01*
X106437336Y-62858166D01*
X106449367Y-62863410D01*
X106459718Y-62870153D01*
X106468392Y-62878394D01*
X106475386Y-62888133D01*
X106480702Y-62899371D01*
X106484339Y-62912107D01*
X106486298Y-62926342D01*
X106486671Y-62936664D01*
X106486671Y-63227313D01*
X106486368Y-63238698D01*
X106485460Y-63249589D01*
X106483947Y-63259987D01*
X106481828Y-63269891D01*
X106479104Y-63279301D01*
X106474530Y-63291080D01*
X106468880Y-63301982D01*
X106462154Y-63312005D01*
X106454351Y-63321151D01*
X106452233Y-63323300D01*
X106443730Y-63329891D01*
X106433913Y-63336991D01*
X106423441Y-63344441D01*
X106414060Y-63351060D01*
X106403369Y-63358563D01*
X106391368Y-63366951D01*
X106382640Y-63373034D01*
X106373330Y-63379510D01*
X106368457Y-63382896D01*
X106378383Y-63389809D01*
X106387707Y-63396321D01*
X106396427Y-63402433D01*
X106404544Y-63408144D01*
X106415589Y-63415959D01*
X106425278Y-63422873D01*
X106433610Y-63428885D01*
X106442609Y-63435499D01*
X106450466Y-63441512D01*
X106454919Y-63445422D01*
X106463620Y-63455008D01*
X106471161Y-63465450D01*
X106477542Y-63476746D01*
X106481567Y-63485779D01*
X106484938Y-63495293D01*
X106487657Y-63505288D01*
X106489724Y-63515764D01*
X106491138Y-63526720D01*
X106491899Y-63538158D01*
X106492044Y-63546050D01*
X106492044Y-63844759D01*
X106491661Y-63855081D01*
X106489647Y-63869315D01*
X106485908Y-63882052D01*
X106480442Y-63893289D01*
X106473251Y-63903029D01*
X106464334Y-63911270D01*
X106453690Y-63918013D01*
X106441321Y-63923257D01*
X106427226Y-63927003D01*
X106416871Y-63928668D01*
X106405748Y-63929667D01*
X106393859Y-63930000D01*
X105964480Y-63930000D01*
X105964480Y-63461053D01*
X106125436Y-63461053D01*
X106125436Y-63773684D01*
X106330600Y-63773684D01*
X106330600Y-63506482D01*
X106251709Y-63461053D01*
X106125436Y-63461053D01*
X105964480Y-63461053D01*
X105964480Y-63007739D01*
X106125436Y-63007739D01*
X106125436Y-63304738D01*
X106249023Y-63304738D01*
X106326692Y-63252958D01*
X106326692Y-63007739D01*
X106125436Y-63007739D01*
X105964480Y-63007739D01*
X105964480Y-62851423D01*
X106391172Y-62851423D01*
X106402736Y-62851756D01*
G37*
G36*
X107071465Y-62851756D02*
G01*
X107082505Y-62852755D01*
X107092783Y-62854420D01*
X107102300Y-62856751D01*
X107115148Y-62861495D01*
X107126283Y-62867739D01*
X107135704Y-62875480D01*
X107143413Y-62884720D01*
X107149409Y-62895459D01*
X107153691Y-62907695D01*
X107156261Y-62921430D01*
X107157022Y-62931420D01*
X107157117Y-62936664D01*
X107157117Y-63844759D01*
X107156737Y-63855081D01*
X107154738Y-63869315D01*
X107151027Y-63882052D01*
X107145602Y-63893289D01*
X107138464Y-63903029D01*
X107129614Y-63911270D01*
X107119050Y-63918013D01*
X107106773Y-63923257D01*
X107092783Y-63927003D01*
X107082505Y-63928668D01*
X107071465Y-63929667D01*
X107059665Y-63930000D01*
X106710642Y-63930000D01*
X106699077Y-63929667D01*
X106688259Y-63928668D01*
X106678187Y-63927003D01*
X106664477Y-63923257D01*
X106652447Y-63918013D01*
X106642095Y-63911270D01*
X106633422Y-63903029D01*
X106626427Y-63893289D01*
X106621111Y-63882052D01*
X106617474Y-63869315D01*
X106615516Y-63855081D01*
X106615143Y-63844759D01*
X106615143Y-63007739D01*
X106776099Y-63007739D01*
X106776099Y-63773684D01*
X106996406Y-63773684D01*
X106996406Y-63007739D01*
X106776099Y-63007739D01*
X106615143Y-63007739D01*
X106615143Y-62936664D01*
X106615516Y-62926342D01*
X106617474Y-62912107D01*
X106621111Y-62899371D01*
X106626427Y-62888133D01*
X106633422Y-62878394D01*
X106642095Y-62870153D01*
X106652447Y-62863410D01*
X106664477Y-62858166D01*
X106678187Y-62854420D01*
X106688259Y-62852755D01*
X106699077Y-62851756D01*
X106710642Y-62851423D01*
X107059665Y-62851423D01*
X107071465Y-62851756D01*
G37*
G36*
X107738737Y-62851756D02*
G01*
X107749777Y-62852755D01*
X107760055Y-62854420D01*
X107769572Y-62856751D01*
X107782419Y-62861495D01*
X107793554Y-62867739D01*
X107802976Y-62875480D01*
X107810685Y-62884720D01*
X107816680Y-62895459D01*
X107820963Y-62907695D01*
X107823532Y-62921430D01*
X107824294Y-62931420D01*
X107824389Y-62936664D01*
X107824389Y-63844759D01*
X107824008Y-63855081D01*
X107822010Y-63869315D01*
X107818298Y-63882052D01*
X107812873Y-63893289D01*
X107805736Y-63903029D01*
X107796885Y-63911270D01*
X107786321Y-63918013D01*
X107774045Y-63923257D01*
X107760055Y-63927003D01*
X107749777Y-63928668D01*
X107738737Y-63929667D01*
X107726936Y-63930000D01*
X107377913Y-63930000D01*
X107366349Y-63929667D01*
X107355530Y-63928668D01*
X107345458Y-63927003D01*
X107331749Y-63923257D01*
X107319718Y-63918013D01*
X107309366Y-63911270D01*
X107300693Y-63903029D01*
X107293699Y-63893289D01*
X107288383Y-63882052D01*
X107284746Y-63869315D01*
X107282787Y-63855081D01*
X107282414Y-63844759D01*
X107282414Y-63007739D01*
X107443370Y-63007739D01*
X107443370Y-63773684D01*
X107663677Y-63773684D01*
X107663677Y-63007739D01*
X107443370Y-63007739D01*
X107282414Y-63007739D01*
X107282414Y-62936664D01*
X107282787Y-62926342D01*
X107284746Y-62912107D01*
X107288383Y-62899371D01*
X107293699Y-62888133D01*
X107300693Y-62878394D01*
X107309366Y-62870153D01*
X107319718Y-62863410D01*
X107331749Y-62858166D01*
X107345458Y-62854420D01*
X107355530Y-62852755D01*
X107366349Y-62851756D01*
X107377913Y-62851423D01*
X107726936Y-62851423D01*
X107738737Y-62851756D01*
G37*
G36*
X108416922Y-63007739D02*
G01*
X108239602Y-63007739D01*
X108239602Y-63930000D01*
X108079623Y-63930000D01*
X108079623Y-63007739D01*
X107902302Y-63007739D01*
X107902302Y-62851423D01*
X108416922Y-62851423D01*
X108416922Y-63007739D01*
G37*
G36*
X108938369Y-62851756D02*
G01*
X108949326Y-62852755D01*
X108959527Y-62854420D01*
X108973411Y-62858166D01*
X108985596Y-62863410D01*
X108996080Y-62870153D01*
X109004864Y-62878394D01*
X109011948Y-62888133D01*
X109017332Y-62899371D01*
X109021016Y-62912107D01*
X109022999Y-62926342D01*
X109023377Y-62936664D01*
X109023377Y-63844759D01*
X109022999Y-63855081D01*
X109021016Y-63869315D01*
X109017332Y-63882052D01*
X109011948Y-63893289D01*
X109004864Y-63903029D01*
X108996080Y-63911270D01*
X108985596Y-63918013D01*
X108973411Y-63923257D01*
X108959527Y-63927003D01*
X108949326Y-63928668D01*
X108938369Y-63929667D01*
X108926657Y-63930000D01*
X108591311Y-63930000D01*
X108579747Y-63929667D01*
X108568929Y-63928668D01*
X108558857Y-63927003D01*
X108545147Y-63923257D01*
X108533117Y-63918013D01*
X108522765Y-63911270D01*
X108514092Y-63903029D01*
X108507097Y-63893289D01*
X108501781Y-63882052D01*
X108498144Y-63869315D01*
X108496186Y-63855081D01*
X108495812Y-63844759D01*
X108495812Y-63007739D01*
X108653838Y-63007739D01*
X108653838Y-63773684D01*
X108866085Y-63773684D01*
X108866085Y-63007739D01*
X108653838Y-63007739D01*
X108495812Y-63007739D01*
X108495812Y-62936664D01*
X108496194Y-62926342D01*
X108498198Y-62912107D01*
X108501919Y-62899371D01*
X108507357Y-62888133D01*
X108514512Y-62878394D01*
X108523385Y-62870153D01*
X108533975Y-62863410D01*
X108546283Y-62858166D01*
X108560308Y-62854420D01*
X108570612Y-62852755D01*
X108581679Y-62851756D01*
X108593510Y-62851423D01*
X108926657Y-62851423D01*
X108938369Y-62851756D01*
G37*
G36*
X112714759Y-47730000D02*
G01*
X112547208Y-47730000D01*
X112369888Y-47232477D01*
X112369888Y-47221077D01*
X112369888Y-47211278D01*
X112369888Y-47198465D01*
X112369888Y-47186877D01*
X112369888Y-47173593D01*
X112369888Y-47163794D01*
X112369888Y-47153242D01*
X112369888Y-47141936D01*
X112369888Y-47136001D01*
X112527913Y-47136001D01*
X112527913Y-46807739D01*
X112325436Y-46807739D01*
X112325436Y-47730000D01*
X112164480Y-47730000D01*
X112164480Y-46651423D01*
X112591172Y-46651423D01*
X112602914Y-46651756D01*
X112613898Y-46652755D01*
X112624125Y-46654420D01*
X112638044Y-46658166D01*
X112650260Y-46663410D01*
X112660770Y-46670153D01*
X112669577Y-46678394D01*
X112676679Y-46688133D01*
X112682076Y-46699371D01*
X112685769Y-46712107D01*
X112687758Y-46726342D01*
X112688136Y-46736664D01*
X112688136Y-47144549D01*
X112687733Y-47155263D01*
X112686522Y-47165238D01*
X112683652Y-47177389D01*
X112679347Y-47188227D01*
X112673608Y-47197752D01*
X112666433Y-47205965D01*
X112657823Y-47212865D01*
X112647779Y-47218452D01*
X112642219Y-47220753D01*
X112630953Y-47223824D01*
X112621305Y-47225519D01*
X112609948Y-47226931D01*
X112596881Y-47228060D01*
X112585959Y-47228722D01*
X112574075Y-47229225D01*
X112561229Y-47229570D01*
X112547422Y-47229755D01*
X112537683Y-47229790D01*
X112714759Y-47730000D01*
G37*
G36*
X113255268Y-47730000D02*
G01*
X112809281Y-47730000D01*
X112809281Y-46651423D01*
X113251116Y-46651423D01*
X113251116Y-46807739D01*
X112970237Y-46807739D01*
X112970237Y-47104738D01*
X113212037Y-47104738D01*
X113212037Y-47261053D01*
X112970237Y-47261053D01*
X112970237Y-47573684D01*
X113255268Y-47573684D01*
X113255268Y-47730000D01*
G37*
G36*
X113877599Y-47644759D02*
G01*
X113877217Y-47655081D01*
X113875214Y-47669315D01*
X113871493Y-47682052D01*
X113866055Y-47693289D01*
X113858899Y-47703029D01*
X113850026Y-47711270D01*
X113839436Y-47718013D01*
X113827128Y-47723257D01*
X113813104Y-47727003D01*
X113802800Y-47728668D01*
X113791732Y-47729667D01*
X113779902Y-47730000D01*
X113456524Y-47730000D01*
X113444782Y-47729667D01*
X113433798Y-47728668D01*
X113423572Y-47727003D01*
X113409652Y-47723257D01*
X113397437Y-47718013D01*
X113386926Y-47711270D01*
X113378119Y-47703029D01*
X113371018Y-47693289D01*
X113365620Y-47682052D01*
X113361927Y-47669315D01*
X113359939Y-47655081D01*
X113359560Y-47644759D01*
X113359560Y-47386106D01*
X113520272Y-47386106D01*
X113520272Y-47573684D01*
X113716887Y-47573684D01*
X113716887Y-47386106D01*
X113394487Y-47078604D01*
X113386301Y-47069823D01*
X113379206Y-47060454D01*
X113373203Y-47050497D01*
X113368292Y-47039952D01*
X113364471Y-47028820D01*
X113361743Y-47017100D01*
X113360106Y-47004793D01*
X113359560Y-46991898D01*
X113359560Y-46736664D01*
X113359939Y-46726342D01*
X113361927Y-46712107D01*
X113365620Y-46699371D01*
X113371018Y-46688133D01*
X113378119Y-46678394D01*
X113386926Y-46670153D01*
X113397437Y-46663410D01*
X113409652Y-46658166D01*
X113423572Y-46654420D01*
X113433798Y-46652755D01*
X113444782Y-46651756D01*
X113456524Y-46651423D01*
X113779902Y-46651423D01*
X113791732Y-46651751D01*
X113802800Y-46652736D01*
X113813104Y-46654377D01*
X113822644Y-46656674D01*
X113835524Y-46661351D01*
X113846687Y-46667505D01*
X113856132Y-46675136D01*
X113863860Y-46684243D01*
X113869871Y-46694828D01*
X113874164Y-46706889D01*
X113876740Y-46720427D01*
X113877504Y-46730273D01*
X113877599Y-46735443D01*
X113877599Y-46995317D01*
X113716887Y-46995317D01*
X113716887Y-46807739D01*
X113520272Y-46807739D01*
X113520272Y-46987501D01*
X113842672Y-47294026D01*
X113850858Y-47302666D01*
X113857953Y-47311978D01*
X113863956Y-47321961D01*
X113868867Y-47332616D01*
X113872687Y-47343943D01*
X113875416Y-47355942D01*
X113877053Y-47368612D01*
X113877565Y-47378555D01*
X113877599Y-47381953D01*
X113877599Y-47644759D01*
G37*
G36*
X114448150Y-47730000D02*
G01*
X114002163Y-47730000D01*
X114002163Y-46651423D01*
X114443998Y-46651423D01*
X114443998Y-46807739D01*
X114163119Y-46807739D01*
X114163119Y-47104738D01*
X114404919Y-47104738D01*
X114404919Y-47261053D01*
X114163119Y-47261053D01*
X114163119Y-47573684D01*
X114448150Y-47573684D01*
X114448150Y-47730000D01*
G37*
G36*
X115022365Y-46807739D02*
G01*
X114845045Y-46807739D01*
X114845045Y-47730000D01*
X114685066Y-47730000D01*
X114685066Y-46807739D01*
X114507745Y-46807739D01*
X114507745Y-46651423D01*
X115022365Y-46651423D01*
X115022365Y-46807739D01*
G37*
D11*
X76850000Y-27825000D02*
X76850000Y-45830000D01*
X68754819Y-40875118D02*
X68754819Y-41446546D01*
X68754819Y-41160832D02*
X67754819Y-41160832D01*
X67754819Y-41160832D02*
X67897676Y-41256070D01*
X67897676Y-41256070D02*
X67992914Y-41351308D01*
X67992914Y-41351308D02*
X68040533Y-41446546D01*
X68183390Y-40303689D02*
X68135771Y-40398927D01*
X68135771Y-40398927D02*
X68088152Y-40446546D01*
X68088152Y-40446546D02*
X67992914Y-40494165D01*
X67992914Y-40494165D02*
X67945295Y-40494165D01*
X67945295Y-40494165D02*
X67850057Y-40446546D01*
X67850057Y-40446546D02*
X67802438Y-40398927D01*
X67802438Y-40398927D02*
X67754819Y-40303689D01*
X67754819Y-40303689D02*
X67754819Y-40113213D01*
X67754819Y-40113213D02*
X67802438Y-40017975D01*
X67802438Y-40017975D02*
X67850057Y-39970356D01*
X67850057Y-39970356D02*
X67945295Y-39922737D01*
X67945295Y-39922737D02*
X67992914Y-39922737D01*
X67992914Y-39922737D02*
X68088152Y-39970356D01*
X68088152Y-39970356D02*
X68135771Y-40017975D01*
X68135771Y-40017975D02*
X68183390Y-40113213D01*
X68183390Y-40113213D02*
X68183390Y-40303689D01*
X68183390Y-40303689D02*
X68231009Y-40398927D01*
X68231009Y-40398927D02*
X68278628Y-40446546D01*
X68278628Y-40446546D02*
X68373866Y-40494165D01*
X68373866Y-40494165D02*
X68564342Y-40494165D01*
X68564342Y-40494165D02*
X68659580Y-40446546D01*
X68659580Y-40446546D02*
X68707200Y-40398927D01*
X68707200Y-40398927D02*
X68754819Y-40303689D01*
X68754819Y-40303689D02*
X68754819Y-40113213D01*
X68754819Y-40113213D02*
X68707200Y-40017975D01*
X68707200Y-40017975D02*
X68659580Y-39970356D01*
X68659580Y-39970356D02*
X68564342Y-39922737D01*
X68564342Y-39922737D02*
X68373866Y-39922737D01*
X68373866Y-39922737D02*
X68278628Y-39970356D01*
X68278628Y-39970356D02*
X68231009Y-40017975D01*
X68231009Y-40017975D02*
X68183390Y-40113213D01*
X68659580Y-39494165D02*
X68707200Y-39446546D01*
X68707200Y-39446546D02*
X68754819Y-39494165D01*
X68754819Y-39494165D02*
X68707200Y-39541784D01*
X68707200Y-39541784D02*
X68659580Y-39494165D01*
X68659580Y-39494165D02*
X68754819Y-39494165D01*
X67754819Y-38827499D02*
X67754819Y-38732261D01*
X67754819Y-38732261D02*
X67802438Y-38637023D01*
X67802438Y-38637023D02*
X67850057Y-38589404D01*
X67850057Y-38589404D02*
X67945295Y-38541785D01*
X67945295Y-38541785D02*
X68135771Y-38494166D01*
X68135771Y-38494166D02*
X68373866Y-38494166D01*
X68373866Y-38494166D02*
X68564342Y-38541785D01*
X68564342Y-38541785D02*
X68659580Y-38589404D01*
X68659580Y-38589404D02*
X68707200Y-38637023D01*
X68707200Y-38637023D02*
X68754819Y-38732261D01*
X68754819Y-38732261D02*
X68754819Y-38827499D01*
X68754819Y-38827499D02*
X68707200Y-38922737D01*
X68707200Y-38922737D02*
X68659580Y-38970356D01*
X68659580Y-38970356D02*
X68564342Y-39017975D01*
X68564342Y-39017975D02*
X68373866Y-39065594D01*
X68373866Y-39065594D02*
X68135771Y-39065594D01*
X68135771Y-39065594D02*
X67945295Y-39017975D01*
X67945295Y-39017975D02*
X67850057Y-38970356D01*
X67850057Y-38970356D02*
X67802438Y-38922737D01*
X67802438Y-38922737D02*
X67754819Y-38827499D01*
X67754819Y-37875118D02*
X67754819Y-37779880D01*
X67754819Y-37779880D02*
X67802438Y-37684642D01*
X67802438Y-37684642D02*
X67850057Y-37637023D01*
X67850057Y-37637023D02*
X67945295Y-37589404D01*
X67945295Y-37589404D02*
X68135771Y-37541785D01*
X68135771Y-37541785D02*
X68373866Y-37541785D01*
X68373866Y-37541785D02*
X68564342Y-37589404D01*
X68564342Y-37589404D02*
X68659580Y-37637023D01*
X68659580Y-37637023D02*
X68707200Y-37684642D01*
X68707200Y-37684642D02*
X68754819Y-37779880D01*
X68754819Y-37779880D02*
X68754819Y-37875118D01*
X68754819Y-37875118D02*
X68707200Y-37970356D01*
X68707200Y-37970356D02*
X68659580Y-38017975D01*
X68659580Y-38017975D02*
X68564342Y-38065594D01*
X68564342Y-38065594D02*
X68373866Y-38113213D01*
X68373866Y-38113213D02*
X68135771Y-38113213D01*
X68135771Y-38113213D02*
X67945295Y-38065594D01*
X67945295Y-38065594D02*
X67850057Y-38017975D01*
X67850057Y-38017975D02*
X67802438Y-37970356D01*
X67802438Y-37970356D02*
X67754819Y-37875118D01*
X67754819Y-36637023D02*
X67754819Y-37113213D01*
X67754819Y-37113213D02*
X68231009Y-37160832D01*
X68231009Y-37160832D02*
X68183390Y-37113213D01*
X68183390Y-37113213D02*
X68135771Y-37017975D01*
X68135771Y-37017975D02*
X68135771Y-36779880D01*
X68135771Y-36779880D02*
X68183390Y-36684642D01*
X68183390Y-36684642D02*
X68231009Y-36637023D01*
X68231009Y-36637023D02*
X68326247Y-36589404D01*
X68326247Y-36589404D02*
X68564342Y-36589404D01*
X68564342Y-36589404D02*
X68659580Y-36637023D01*
X68659580Y-36637023D02*
X68707200Y-36684642D01*
X68707200Y-36684642D02*
X68754819Y-36779880D01*
X68754819Y-36779880D02*
X68754819Y-37017975D01*
X68754819Y-37017975D02*
X68707200Y-37113213D01*
X68707200Y-37113213D02*
X68659580Y-37160832D01*
X67754819Y-35970356D02*
X67754819Y-35875118D01*
X67754819Y-35875118D02*
X67802438Y-35779880D01*
X67802438Y-35779880D02*
X67850057Y-35732261D01*
X67850057Y-35732261D02*
X67945295Y-35684642D01*
X67945295Y-35684642D02*
X68135771Y-35637023D01*
X68135771Y-35637023D02*
X68373866Y-35637023D01*
X68373866Y-35637023D02*
X68564342Y-35684642D01*
X68564342Y-35684642D02*
X68659580Y-35732261D01*
X68659580Y-35732261D02*
X68707200Y-35779880D01*
X68707200Y-35779880D02*
X68754819Y-35875118D01*
X68754819Y-35875118D02*
X68754819Y-35970356D01*
X68754819Y-35970356D02*
X68707200Y-36065594D01*
X68707200Y-36065594D02*
X68659580Y-36113213D01*
X68659580Y-36113213D02*
X68564342Y-36160832D01*
X68564342Y-36160832D02*
X68373866Y-36208451D01*
X68373866Y-36208451D02*
X68135771Y-36208451D01*
X68135771Y-36208451D02*
X67945295Y-36160832D01*
X67945295Y-36160832D02*
X67850057Y-36113213D01*
X67850057Y-36113213D02*
X67802438Y-36065594D01*
X67802438Y-36065594D02*
X67754819Y-35970356D01*
X68754819Y-34446546D02*
X68088152Y-34446546D01*
X68183390Y-34446546D02*
X68135771Y-34398927D01*
X68135771Y-34398927D02*
X68088152Y-34303689D01*
X68088152Y-34303689D02*
X68088152Y-34160832D01*
X68088152Y-34160832D02*
X68135771Y-34065594D01*
X68135771Y-34065594D02*
X68231009Y-34017975D01*
X68231009Y-34017975D02*
X68754819Y-34017975D01*
X68231009Y-34017975D02*
X68135771Y-33970356D01*
X68135771Y-33970356D02*
X68088152Y-33875118D01*
X68088152Y-33875118D02*
X68088152Y-33732261D01*
X68088152Y-33732261D02*
X68135771Y-33637022D01*
X68135771Y-33637022D02*
X68231009Y-33589403D01*
X68231009Y-33589403D02*
X68754819Y-33589403D01*
X68754819Y-33113213D02*
X68088152Y-33113213D01*
X68183390Y-33113213D02*
X68135771Y-33065594D01*
X68135771Y-33065594D02*
X68088152Y-32970356D01*
X68088152Y-32970356D02*
X68088152Y-32827499D01*
X68088152Y-32827499D02*
X68135771Y-32732261D01*
X68135771Y-32732261D02*
X68231009Y-32684642D01*
X68231009Y-32684642D02*
X68754819Y-32684642D01*
X68231009Y-32684642D02*
X68135771Y-32637023D01*
X68135771Y-32637023D02*
X68088152Y-32541785D01*
X68088152Y-32541785D02*
X68088152Y-32398928D01*
X68088152Y-32398928D02*
X68135771Y-32303689D01*
X68135771Y-32303689D02*
X68231009Y-32256070D01*
X68231009Y-32256070D02*
X68754819Y-32256070D01*
X76350000Y-45830000D02*
X68863580Y-45830000D01*
X76350000Y-27825000D02*
X68863580Y-27825000D01*
X69450000Y-45830000D02*
X69450000Y-27825000D01*
X69450000Y-45830000D02*
X69450000Y-27825000D01*
X69450000Y-45830000D02*
X68863579Y-44703496D01*
X69450000Y-45830000D02*
X70036421Y-44703496D01*
X69450000Y-27825000D02*
X70036421Y-28951504D01*
X69450000Y-27825000D02*
X68863579Y-28951504D01*
X114114285Y-61612295D02*
X114314285Y-62412295D01*
X114314285Y-62412295D02*
X114514285Y-61612295D01*
X114714286Y-62412295D02*
X114714286Y-61612295D01*
X114714286Y-61612295D02*
X114857143Y-61612295D01*
X114857143Y-61612295D02*
X114942857Y-61650390D01*
X114942857Y-61650390D02*
X115000000Y-61726580D01*
X115000000Y-61726580D02*
X115028571Y-61802771D01*
X115028571Y-61802771D02*
X115057143Y-61955152D01*
X115057143Y-61955152D02*
X115057143Y-62069438D01*
X115057143Y-62069438D02*
X115028571Y-62221819D01*
X115028571Y-62221819D02*
X115000000Y-62298009D01*
X115000000Y-62298009D02*
X114942857Y-62374200D01*
X114942857Y-62374200D02*
X114857143Y-62412295D01*
X114857143Y-62412295D02*
X114714286Y-62412295D01*
X115314286Y-62412295D02*
X115314286Y-61612295D01*
X115314286Y-61612295D02*
X115457143Y-61612295D01*
X115457143Y-61612295D02*
X115542857Y-61650390D01*
X115542857Y-61650390D02*
X115600000Y-61726580D01*
X115600000Y-61726580D02*
X115628571Y-61802771D01*
X115628571Y-61802771D02*
X115657143Y-61955152D01*
X115657143Y-61955152D02*
X115657143Y-62069438D01*
X115657143Y-62069438D02*
X115628571Y-62221819D01*
X115628571Y-62221819D02*
X115600000Y-62298009D01*
X115600000Y-62298009D02*
X115542857Y-62374200D01*
X115542857Y-62374200D02*
X115457143Y-62412295D01*
X115457143Y-62412295D02*
X115314286Y-62412295D01*
X116228571Y-62412295D02*
X115885714Y-62412295D01*
X116057143Y-62412295D02*
X116057143Y-61612295D01*
X116057143Y-61612295D02*
X116000000Y-61726580D01*
X116000000Y-61726580D02*
X115942857Y-61802771D01*
X115942857Y-61802771D02*
X115885714Y-61840866D01*
X77299999Y-72712295D02*
X77642857Y-72712295D01*
X77471428Y-73512295D02*
X77471428Y-72712295D01*
X77842857Y-73512295D02*
X77842857Y-72712295D01*
X77842857Y-72712295D02*
X78071428Y-72712295D01*
X78071428Y-72712295D02*
X78128571Y-72750390D01*
X78128571Y-72750390D02*
X78157142Y-72788485D01*
X78157142Y-72788485D02*
X78185714Y-72864676D01*
X78185714Y-72864676D02*
X78185714Y-72978961D01*
X78185714Y-72978961D02*
X78157142Y-73055152D01*
X78157142Y-73055152D02*
X78128571Y-73093247D01*
X78128571Y-73093247D02*
X78071428Y-73131342D01*
X78071428Y-73131342D02*
X77842857Y-73131342D01*
X78728571Y-72712295D02*
X78442857Y-72712295D01*
X78442857Y-72712295D02*
X78414285Y-73093247D01*
X78414285Y-73093247D02*
X78442857Y-73055152D01*
X78442857Y-73055152D02*
X78500000Y-73017057D01*
X78500000Y-73017057D02*
X78642857Y-73017057D01*
X78642857Y-73017057D02*
X78700000Y-73055152D01*
X78700000Y-73055152D02*
X78728571Y-73093247D01*
X78728571Y-73093247D02*
X78757142Y-73169438D01*
X78757142Y-73169438D02*
X78757142Y-73359914D01*
X78757142Y-73359914D02*
X78728571Y-73436104D01*
X78728571Y-73436104D02*
X78700000Y-73474200D01*
X78700000Y-73474200D02*
X78642857Y-73512295D01*
X78642857Y-73512295D02*
X78500000Y-73512295D01*
X78500000Y-73512295D02*
X78442857Y-73474200D01*
X78442857Y-73474200D02*
X78414285Y-73436104D01*
X78928571Y-72712295D02*
X79128571Y-73512295D01*
X79128571Y-73512295D02*
X79328571Y-72712295D01*
X79842857Y-73512295D02*
X79500000Y-73512295D01*
X79671429Y-73512295D02*
X79671429Y-72712295D01*
X79671429Y-72712295D02*
X79614286Y-72826580D01*
X79614286Y-72826580D02*
X79557143Y-72902771D01*
X79557143Y-72902771D02*
X79500000Y-72940866D01*
X123557142Y-69550390D02*
X123500000Y-69512295D01*
X123500000Y-69512295D02*
X123414285Y-69512295D01*
X123414285Y-69512295D02*
X123328571Y-69550390D01*
X123328571Y-69550390D02*
X123271428Y-69626580D01*
X123271428Y-69626580D02*
X123242857Y-69702771D01*
X123242857Y-69702771D02*
X123214285Y-69855152D01*
X123214285Y-69855152D02*
X123214285Y-69969438D01*
X123214285Y-69969438D02*
X123242857Y-70121819D01*
X123242857Y-70121819D02*
X123271428Y-70198009D01*
X123271428Y-70198009D02*
X123328571Y-70274200D01*
X123328571Y-70274200D02*
X123414285Y-70312295D01*
X123414285Y-70312295D02*
X123471428Y-70312295D01*
X123471428Y-70312295D02*
X123557142Y-70274200D01*
X123557142Y-70274200D02*
X123585714Y-70236104D01*
X123585714Y-70236104D02*
X123585714Y-69969438D01*
X123585714Y-69969438D02*
X123471428Y-69969438D01*
X123842857Y-70312295D02*
X123842857Y-69512295D01*
X123842857Y-69512295D02*
X124185714Y-70312295D01*
X124185714Y-70312295D02*
X124185714Y-69512295D01*
X124471428Y-70312295D02*
X124471428Y-69512295D01*
X124471428Y-69512295D02*
X124614285Y-69512295D01*
X124614285Y-69512295D02*
X124699999Y-69550390D01*
X124699999Y-69550390D02*
X124757142Y-69626580D01*
X124757142Y-69626580D02*
X124785713Y-69702771D01*
X124785713Y-69702771D02*
X124814285Y-69855152D01*
X124814285Y-69855152D02*
X124814285Y-69969438D01*
X124814285Y-69969438D02*
X124785713Y-70121819D01*
X124785713Y-70121819D02*
X124757142Y-70198009D01*
X124757142Y-70198009D02*
X124699999Y-70274200D01*
X124699999Y-70274200D02*
X124614285Y-70312295D01*
X124614285Y-70312295D02*
X124471428Y-70312295D01*
X125042856Y-69588485D02*
X125071428Y-69550390D01*
X125071428Y-69550390D02*
X125128571Y-69512295D01*
X125128571Y-69512295D02*
X125271428Y-69512295D01*
X125271428Y-69512295D02*
X125328571Y-69550390D01*
X125328571Y-69550390D02*
X125357142Y-69588485D01*
X125357142Y-69588485D02*
X125385713Y-69664676D01*
X125385713Y-69664676D02*
X125385713Y-69740866D01*
X125385713Y-69740866D02*
X125357142Y-69855152D01*
X125357142Y-69855152D02*
X125014285Y-70312295D01*
X125014285Y-70312295D02*
X125385713Y-70312295D01*
X107857142Y-70550390D02*
X107800000Y-70512295D01*
X107800000Y-70512295D02*
X107714285Y-70512295D01*
X107714285Y-70512295D02*
X107628571Y-70550390D01*
X107628571Y-70550390D02*
X107571428Y-70626580D01*
X107571428Y-70626580D02*
X107542857Y-70702771D01*
X107542857Y-70702771D02*
X107514285Y-70855152D01*
X107514285Y-70855152D02*
X107514285Y-70969438D01*
X107514285Y-70969438D02*
X107542857Y-71121819D01*
X107542857Y-71121819D02*
X107571428Y-71198009D01*
X107571428Y-71198009D02*
X107628571Y-71274200D01*
X107628571Y-71274200D02*
X107714285Y-71312295D01*
X107714285Y-71312295D02*
X107771428Y-71312295D01*
X107771428Y-71312295D02*
X107857142Y-71274200D01*
X107857142Y-71274200D02*
X107885714Y-71236104D01*
X107885714Y-71236104D02*
X107885714Y-70969438D01*
X107885714Y-70969438D02*
X107771428Y-70969438D01*
X108142857Y-71312295D02*
X108142857Y-70512295D01*
X108142857Y-70512295D02*
X108485714Y-71312295D01*
X108485714Y-71312295D02*
X108485714Y-70512295D01*
X108771428Y-71312295D02*
X108771428Y-70512295D01*
X108771428Y-70512295D02*
X108914285Y-70512295D01*
X108914285Y-70512295D02*
X108999999Y-70550390D01*
X108999999Y-70550390D02*
X109057142Y-70626580D01*
X109057142Y-70626580D02*
X109085713Y-70702771D01*
X109085713Y-70702771D02*
X109114285Y-70855152D01*
X109114285Y-70855152D02*
X109114285Y-70969438D01*
X109114285Y-70969438D02*
X109085713Y-71121819D01*
X109085713Y-71121819D02*
X109057142Y-71198009D01*
X109057142Y-71198009D02*
X108999999Y-71274200D01*
X108999999Y-71274200D02*
X108914285Y-71312295D01*
X108914285Y-71312295D02*
X108771428Y-71312295D01*
X109685713Y-71312295D02*
X109342856Y-71312295D01*
X109514285Y-71312295D02*
X109514285Y-70512295D01*
X109514285Y-70512295D02*
X109457142Y-70626580D01*
X109457142Y-70626580D02*
X109399999Y-70702771D01*
X109399999Y-70702771D02*
X109342856Y-70740866D01*
X91271428Y-29493247D02*
X91357142Y-29531342D01*
X91357142Y-29531342D02*
X91385713Y-29569438D01*
X91385713Y-29569438D02*
X91414285Y-29645628D01*
X91414285Y-29645628D02*
X91414285Y-29759914D01*
X91414285Y-29759914D02*
X91385713Y-29836104D01*
X91385713Y-29836104D02*
X91357142Y-29874200D01*
X91357142Y-29874200D02*
X91299999Y-29912295D01*
X91299999Y-29912295D02*
X91071428Y-29912295D01*
X91071428Y-29912295D02*
X91071428Y-29112295D01*
X91071428Y-29112295D02*
X91271428Y-29112295D01*
X91271428Y-29112295D02*
X91328571Y-29150390D01*
X91328571Y-29150390D02*
X91357142Y-29188485D01*
X91357142Y-29188485D02*
X91385713Y-29264676D01*
X91385713Y-29264676D02*
X91385713Y-29340866D01*
X91385713Y-29340866D02*
X91357142Y-29417057D01*
X91357142Y-29417057D02*
X91328571Y-29455152D01*
X91328571Y-29455152D02*
X91271428Y-29493247D01*
X91271428Y-29493247D02*
X91071428Y-29493247D01*
X91642856Y-29683723D02*
X91928571Y-29683723D01*
X91585713Y-29912295D02*
X91785713Y-29112295D01*
X91785713Y-29112295D02*
X91985713Y-29912295D01*
X92099999Y-29112295D02*
X92442857Y-29112295D01*
X92271428Y-29912295D02*
X92271428Y-29112295D01*
X92957142Y-29912295D02*
X92614285Y-29912295D01*
X92785714Y-29912295D02*
X92785714Y-29112295D01*
X92785714Y-29112295D02*
X92728571Y-29226580D01*
X92728571Y-29226580D02*
X92671428Y-29302771D01*
X92671428Y-29302771D02*
X92614285Y-29340866D01*
X114857142Y-66212295D02*
X115228570Y-66212295D01*
X115228570Y-66212295D02*
X115028570Y-66517057D01*
X115028570Y-66517057D02*
X115114285Y-66517057D01*
X115114285Y-66517057D02*
X115171428Y-66555152D01*
X115171428Y-66555152D02*
X115199999Y-66593247D01*
X115199999Y-66593247D02*
X115228570Y-66669438D01*
X115228570Y-66669438D02*
X115228570Y-66859914D01*
X115228570Y-66859914D02*
X115199999Y-66936104D01*
X115199999Y-66936104D02*
X115171428Y-66974200D01*
X115171428Y-66974200D02*
X115114285Y-67012295D01*
X115114285Y-67012295D02*
X114942856Y-67012295D01*
X114942856Y-67012295D02*
X114885713Y-66974200D01*
X114885713Y-66974200D02*
X114857142Y-66936104D01*
X115399999Y-66212295D02*
X115599999Y-67012295D01*
X115599999Y-67012295D02*
X115799999Y-66212295D01*
X115942857Y-66212295D02*
X116314285Y-66212295D01*
X116314285Y-66212295D02*
X116114285Y-66517057D01*
X116114285Y-66517057D02*
X116200000Y-66517057D01*
X116200000Y-66517057D02*
X116257143Y-66555152D01*
X116257143Y-66555152D02*
X116285714Y-66593247D01*
X116285714Y-66593247D02*
X116314285Y-66669438D01*
X116314285Y-66669438D02*
X116314285Y-66859914D01*
X116314285Y-66859914D02*
X116285714Y-66936104D01*
X116285714Y-66936104D02*
X116257143Y-66974200D01*
X116257143Y-66974200D02*
X116200000Y-67012295D01*
X116200000Y-67012295D02*
X116028571Y-67012295D01*
X116028571Y-67012295D02*
X115971428Y-66974200D01*
X115971428Y-66974200D02*
X115942857Y-66936104D01*
X91437738Y-68289548D02*
X91437738Y-68953358D01*
X91437738Y-68953358D02*
X91476785Y-69031453D01*
X91476785Y-69031453D02*
X91515833Y-69070501D01*
X91515833Y-69070501D02*
X91593928Y-69109548D01*
X91593928Y-69109548D02*
X91750119Y-69109548D01*
X91750119Y-69109548D02*
X91828214Y-69070501D01*
X91828214Y-69070501D02*
X91867261Y-69031453D01*
X91867261Y-69031453D02*
X91906309Y-68953358D01*
X91906309Y-68953358D02*
X91906309Y-68289548D01*
X92726309Y-69109548D02*
X92257738Y-69109548D01*
X92492024Y-69109548D02*
X92492024Y-68289548D01*
X92492024Y-68289548D02*
X92413928Y-68406691D01*
X92413928Y-68406691D02*
X92335833Y-68484786D01*
X92335833Y-68484786D02*
X92257738Y-68523834D01*
X91071548Y-40037142D02*
X90681072Y-40310475D01*
X91071548Y-40505713D02*
X90251548Y-40505713D01*
X90251548Y-40505713D02*
X90251548Y-40193332D01*
X90251548Y-40193332D02*
X90290596Y-40115237D01*
X90290596Y-40115237D02*
X90329643Y-40076190D01*
X90329643Y-40076190D02*
X90407739Y-40037142D01*
X90407739Y-40037142D02*
X90524881Y-40037142D01*
X90524881Y-40037142D02*
X90602977Y-40076190D01*
X90602977Y-40076190D02*
X90642024Y-40115237D01*
X90642024Y-40115237D02*
X90681072Y-40193332D01*
X90681072Y-40193332D02*
X90681072Y-40505713D01*
X91071548Y-39256190D02*
X91071548Y-39724761D01*
X91071548Y-39490475D02*
X90251548Y-39490475D01*
X90251548Y-39490475D02*
X90368691Y-39568571D01*
X90368691Y-39568571D02*
X90446786Y-39646666D01*
X90446786Y-39646666D02*
X90485834Y-39724761D01*
X90251548Y-38514285D02*
X90251548Y-38904761D01*
X90251548Y-38904761D02*
X90642024Y-38943809D01*
X90642024Y-38943809D02*
X90602977Y-38904761D01*
X90602977Y-38904761D02*
X90563929Y-38826666D01*
X90563929Y-38826666D02*
X90563929Y-38631428D01*
X90563929Y-38631428D02*
X90602977Y-38553333D01*
X90602977Y-38553333D02*
X90642024Y-38514285D01*
X90642024Y-38514285D02*
X90720120Y-38475238D01*
X90720120Y-38475238D02*
X90915358Y-38475238D01*
X90915358Y-38475238D02*
X90993453Y-38514285D01*
X90993453Y-38514285D02*
X91032501Y-38553333D01*
X91032501Y-38553333D02*
X91071548Y-38631428D01*
X91071548Y-38631428D02*
X91071548Y-38826666D01*
X91071548Y-38826666D02*
X91032501Y-38904761D01*
X91032501Y-38904761D02*
X90993453Y-38943809D01*
X121941548Y-49227142D02*
X121551072Y-49500475D01*
X121941548Y-49695713D02*
X121121548Y-49695713D01*
X121121548Y-49695713D02*
X121121548Y-49383332D01*
X121121548Y-49383332D02*
X121160596Y-49305237D01*
X121160596Y-49305237D02*
X121199643Y-49266190D01*
X121199643Y-49266190D02*
X121277739Y-49227142D01*
X121277739Y-49227142D02*
X121394881Y-49227142D01*
X121394881Y-49227142D02*
X121472977Y-49266190D01*
X121472977Y-49266190D02*
X121512024Y-49305237D01*
X121512024Y-49305237D02*
X121551072Y-49383332D01*
X121551072Y-49383332D02*
X121551072Y-49695713D01*
X121199643Y-48914761D02*
X121160596Y-48875713D01*
X121160596Y-48875713D02*
X121121548Y-48797618D01*
X121121548Y-48797618D02*
X121121548Y-48602380D01*
X121121548Y-48602380D02*
X121160596Y-48524285D01*
X121160596Y-48524285D02*
X121199643Y-48485237D01*
X121199643Y-48485237D02*
X121277739Y-48446190D01*
X121277739Y-48446190D02*
X121355834Y-48446190D01*
X121355834Y-48446190D02*
X121472977Y-48485237D01*
X121472977Y-48485237D02*
X121941548Y-48953809D01*
X121941548Y-48953809D02*
X121941548Y-48446190D01*
X121199643Y-48133809D02*
X121160596Y-48094761D01*
X121160596Y-48094761D02*
X121121548Y-48016666D01*
X121121548Y-48016666D02*
X121121548Y-47821428D01*
X121121548Y-47821428D02*
X121160596Y-47743333D01*
X121160596Y-47743333D02*
X121199643Y-47704285D01*
X121199643Y-47704285D02*
X121277739Y-47665238D01*
X121277739Y-47665238D02*
X121355834Y-47665238D01*
X121355834Y-47665238D02*
X121472977Y-47704285D01*
X121472977Y-47704285D02*
X121941548Y-48172857D01*
X121941548Y-48172857D02*
X121941548Y-47665238D01*
X106663333Y-50093453D02*
X106624285Y-50132501D01*
X106624285Y-50132501D02*
X106507143Y-50171548D01*
X106507143Y-50171548D02*
X106429047Y-50171548D01*
X106429047Y-50171548D02*
X106311904Y-50132501D01*
X106311904Y-50132501D02*
X106233809Y-50054405D01*
X106233809Y-50054405D02*
X106194762Y-49976310D01*
X106194762Y-49976310D02*
X106155714Y-49820120D01*
X106155714Y-49820120D02*
X106155714Y-49702977D01*
X106155714Y-49702977D02*
X106194762Y-49546786D01*
X106194762Y-49546786D02*
X106233809Y-49468691D01*
X106233809Y-49468691D02*
X106311904Y-49390596D01*
X106311904Y-49390596D02*
X106429047Y-49351548D01*
X106429047Y-49351548D02*
X106507143Y-49351548D01*
X106507143Y-49351548D02*
X106624285Y-49390596D01*
X106624285Y-49390596D02*
X106663333Y-49429643D01*
X107405238Y-49351548D02*
X107014762Y-49351548D01*
X107014762Y-49351548D02*
X106975714Y-49742024D01*
X106975714Y-49742024D02*
X107014762Y-49702977D01*
X107014762Y-49702977D02*
X107092857Y-49663929D01*
X107092857Y-49663929D02*
X107288095Y-49663929D01*
X107288095Y-49663929D02*
X107366190Y-49702977D01*
X107366190Y-49702977D02*
X107405238Y-49742024D01*
X107405238Y-49742024D02*
X107444285Y-49820120D01*
X107444285Y-49820120D02*
X107444285Y-50015358D01*
X107444285Y-50015358D02*
X107405238Y-50093453D01*
X107405238Y-50093453D02*
X107366190Y-50132501D01*
X107366190Y-50132501D02*
X107288095Y-50171548D01*
X107288095Y-50171548D02*
X107092857Y-50171548D01*
X107092857Y-50171548D02*
X107014762Y-50132501D01*
X107014762Y-50132501D02*
X106975714Y-50093453D01*
X118771548Y-29536666D02*
X118381072Y-29809999D01*
X118771548Y-30005237D02*
X117951548Y-30005237D01*
X117951548Y-30005237D02*
X117951548Y-29692856D01*
X117951548Y-29692856D02*
X117990596Y-29614761D01*
X117990596Y-29614761D02*
X118029643Y-29575714D01*
X118029643Y-29575714D02*
X118107739Y-29536666D01*
X118107739Y-29536666D02*
X118224881Y-29536666D01*
X118224881Y-29536666D02*
X118302977Y-29575714D01*
X118302977Y-29575714D02*
X118342024Y-29614761D01*
X118342024Y-29614761D02*
X118381072Y-29692856D01*
X118381072Y-29692856D02*
X118381072Y-30005237D01*
X117951548Y-28833809D02*
X117951548Y-28989999D01*
X117951548Y-28989999D02*
X117990596Y-29068095D01*
X117990596Y-29068095D02*
X118029643Y-29107142D01*
X118029643Y-29107142D02*
X118146786Y-29185237D01*
X118146786Y-29185237D02*
X118302977Y-29224285D01*
X118302977Y-29224285D02*
X118615358Y-29224285D01*
X118615358Y-29224285D02*
X118693453Y-29185237D01*
X118693453Y-29185237D02*
X118732501Y-29146190D01*
X118732501Y-29146190D02*
X118771548Y-29068095D01*
X118771548Y-29068095D02*
X118771548Y-28911904D01*
X118771548Y-28911904D02*
X118732501Y-28833809D01*
X118732501Y-28833809D02*
X118693453Y-28794761D01*
X118693453Y-28794761D02*
X118615358Y-28755714D01*
X118615358Y-28755714D02*
X118420120Y-28755714D01*
X118420120Y-28755714D02*
X118342024Y-28794761D01*
X118342024Y-28794761D02*
X118302977Y-28833809D01*
X118302977Y-28833809D02*
X118263929Y-28911904D01*
X118263929Y-28911904D02*
X118263929Y-29068095D01*
X118263929Y-29068095D02*
X118302977Y-29146190D01*
X118302977Y-29146190D02*
X118342024Y-29185237D01*
X118342024Y-29185237D02*
X118420120Y-29224285D01*
X118541548Y-49427142D02*
X118151072Y-49700475D01*
X118541548Y-49895713D02*
X117721548Y-49895713D01*
X117721548Y-49895713D02*
X117721548Y-49583332D01*
X117721548Y-49583332D02*
X117760596Y-49505237D01*
X117760596Y-49505237D02*
X117799643Y-49466190D01*
X117799643Y-49466190D02*
X117877739Y-49427142D01*
X117877739Y-49427142D02*
X117994881Y-49427142D01*
X117994881Y-49427142D02*
X118072977Y-49466190D01*
X118072977Y-49466190D02*
X118112024Y-49505237D01*
X118112024Y-49505237D02*
X118151072Y-49583332D01*
X118151072Y-49583332D02*
X118151072Y-49895713D01*
X117799643Y-49114761D02*
X117760596Y-49075713D01*
X117760596Y-49075713D02*
X117721548Y-48997618D01*
X117721548Y-48997618D02*
X117721548Y-48802380D01*
X117721548Y-48802380D02*
X117760596Y-48724285D01*
X117760596Y-48724285D02*
X117799643Y-48685237D01*
X117799643Y-48685237D02*
X117877739Y-48646190D01*
X117877739Y-48646190D02*
X117955834Y-48646190D01*
X117955834Y-48646190D02*
X118072977Y-48685237D01*
X118072977Y-48685237D02*
X118541548Y-49153809D01*
X118541548Y-49153809D02*
X118541548Y-48646190D01*
X117721548Y-48372857D02*
X117721548Y-47865238D01*
X117721548Y-47865238D02*
X118033929Y-48138571D01*
X118033929Y-48138571D02*
X118033929Y-48021428D01*
X118033929Y-48021428D02*
X118072977Y-47943333D01*
X118072977Y-47943333D02*
X118112024Y-47904285D01*
X118112024Y-47904285D02*
X118190120Y-47865238D01*
X118190120Y-47865238D02*
X118385358Y-47865238D01*
X118385358Y-47865238D02*
X118463453Y-47904285D01*
X118463453Y-47904285D02*
X118502501Y-47943333D01*
X118502501Y-47943333D02*
X118541548Y-48021428D01*
X118541548Y-48021428D02*
X118541548Y-48255714D01*
X118541548Y-48255714D02*
X118502501Y-48333809D01*
X118502501Y-48333809D02*
X118463453Y-48372857D01*
X107601548Y-31146666D02*
X107601548Y-31537142D01*
X107601548Y-31537142D02*
X106781548Y-31537142D01*
X107601548Y-30873332D02*
X106781548Y-30873332D01*
X106781548Y-30873332D02*
X106781548Y-30678094D01*
X106781548Y-30678094D02*
X106820596Y-30560951D01*
X106820596Y-30560951D02*
X106898691Y-30482856D01*
X106898691Y-30482856D02*
X106976786Y-30443809D01*
X106976786Y-30443809D02*
X107132977Y-30404761D01*
X107132977Y-30404761D02*
X107250120Y-30404761D01*
X107250120Y-30404761D02*
X107406310Y-30443809D01*
X107406310Y-30443809D02*
X107484405Y-30482856D01*
X107484405Y-30482856D02*
X107562501Y-30560951D01*
X107562501Y-30560951D02*
X107601548Y-30678094D01*
X107601548Y-30678094D02*
X107601548Y-30873332D01*
X106781548Y-30131428D02*
X106781548Y-29623809D01*
X106781548Y-29623809D02*
X107093929Y-29897142D01*
X107093929Y-29897142D02*
X107093929Y-29779999D01*
X107093929Y-29779999D02*
X107132977Y-29701904D01*
X107132977Y-29701904D02*
X107172024Y-29662856D01*
X107172024Y-29662856D02*
X107250120Y-29623809D01*
X107250120Y-29623809D02*
X107445358Y-29623809D01*
X107445358Y-29623809D02*
X107523453Y-29662856D01*
X107523453Y-29662856D02*
X107562501Y-29701904D01*
X107562501Y-29701904D02*
X107601548Y-29779999D01*
X107601548Y-29779999D02*
X107601548Y-30014285D01*
X107601548Y-30014285D02*
X107562501Y-30092380D01*
X107562501Y-30092380D02*
X107523453Y-30131428D01*
X121071548Y-33171666D02*
X121071548Y-33562142D01*
X121071548Y-33562142D02*
X120251548Y-33562142D01*
X121071548Y-32898332D02*
X120251548Y-32898332D01*
X120251548Y-32898332D02*
X120251548Y-32703094D01*
X120251548Y-32703094D02*
X120290596Y-32585951D01*
X120290596Y-32585951D02*
X120368691Y-32507856D01*
X120368691Y-32507856D02*
X120446786Y-32468809D01*
X120446786Y-32468809D02*
X120602977Y-32429761D01*
X120602977Y-32429761D02*
X120720120Y-32429761D01*
X120720120Y-32429761D02*
X120876310Y-32468809D01*
X120876310Y-32468809D02*
X120954405Y-32507856D01*
X120954405Y-32507856D02*
X121032501Y-32585951D01*
X121032501Y-32585951D02*
X121071548Y-32703094D01*
X121071548Y-32703094D02*
X121071548Y-32898332D01*
X121071548Y-31648809D02*
X121071548Y-32117380D01*
X121071548Y-31883094D02*
X120251548Y-31883094D01*
X120251548Y-31883094D02*
X120368691Y-31961190D01*
X120368691Y-31961190D02*
X120446786Y-32039285D01*
X120446786Y-32039285D02*
X120485834Y-32117380D01*
X126222857Y-53993453D02*
X126183809Y-54032501D01*
X126183809Y-54032501D02*
X126066667Y-54071548D01*
X126066667Y-54071548D02*
X125988571Y-54071548D01*
X125988571Y-54071548D02*
X125871428Y-54032501D01*
X125871428Y-54032501D02*
X125793333Y-53954405D01*
X125793333Y-53954405D02*
X125754286Y-53876310D01*
X125754286Y-53876310D02*
X125715238Y-53720120D01*
X125715238Y-53720120D02*
X125715238Y-53602977D01*
X125715238Y-53602977D02*
X125754286Y-53446786D01*
X125754286Y-53446786D02*
X125793333Y-53368691D01*
X125793333Y-53368691D02*
X125871428Y-53290596D01*
X125871428Y-53290596D02*
X125988571Y-53251548D01*
X125988571Y-53251548D02*
X126066667Y-53251548D01*
X126066667Y-53251548D02*
X126183809Y-53290596D01*
X126183809Y-53290596D02*
X126222857Y-53329643D01*
X126535238Y-53329643D02*
X126574286Y-53290596D01*
X126574286Y-53290596D02*
X126652381Y-53251548D01*
X126652381Y-53251548D02*
X126847619Y-53251548D01*
X126847619Y-53251548D02*
X126925714Y-53290596D01*
X126925714Y-53290596D02*
X126964762Y-53329643D01*
X126964762Y-53329643D02*
X127003809Y-53407739D01*
X127003809Y-53407739D02*
X127003809Y-53485834D01*
X127003809Y-53485834D02*
X126964762Y-53602977D01*
X126964762Y-53602977D02*
X126496190Y-54071548D01*
X126496190Y-54071548D02*
X127003809Y-54071548D01*
X127277142Y-53251548D02*
X127784761Y-53251548D01*
X127784761Y-53251548D02*
X127511428Y-53563929D01*
X127511428Y-53563929D02*
X127628571Y-53563929D01*
X127628571Y-53563929D02*
X127706666Y-53602977D01*
X127706666Y-53602977D02*
X127745714Y-53642024D01*
X127745714Y-53642024D02*
X127784761Y-53720120D01*
X127784761Y-53720120D02*
X127784761Y-53915358D01*
X127784761Y-53915358D02*
X127745714Y-53993453D01*
X127745714Y-53993453D02*
X127706666Y-54032501D01*
X127706666Y-54032501D02*
X127628571Y-54071548D01*
X127628571Y-54071548D02*
X127394285Y-54071548D01*
X127394285Y-54071548D02*
X127316190Y-54032501D01*
X127316190Y-54032501D02*
X127277142Y-53993453D01*
X87871548Y-44417857D02*
X87481072Y-44634524D01*
X87871548Y-44789286D02*
X87051548Y-44789286D01*
X87051548Y-44789286D02*
X87051548Y-44541667D01*
X87051548Y-44541667D02*
X87090596Y-44479762D01*
X87090596Y-44479762D02*
X87129643Y-44448809D01*
X87129643Y-44448809D02*
X87207739Y-44417857D01*
X87207739Y-44417857D02*
X87324881Y-44417857D01*
X87324881Y-44417857D02*
X87402977Y-44448809D01*
X87402977Y-44448809D02*
X87442024Y-44479762D01*
X87442024Y-44479762D02*
X87481072Y-44541667D01*
X87481072Y-44541667D02*
X87481072Y-44789286D01*
X87871548Y-43798809D02*
X87871548Y-44170238D01*
X87871548Y-43984524D02*
X87051548Y-43984524D01*
X87051548Y-43984524D02*
X87168691Y-44046428D01*
X87168691Y-44046428D02*
X87246786Y-44108333D01*
X87246786Y-44108333D02*
X87285834Y-44170238D01*
X87051548Y-43582142D02*
X87051548Y-43179761D01*
X87051548Y-43179761D02*
X87363929Y-43396428D01*
X87363929Y-43396428D02*
X87363929Y-43303571D01*
X87363929Y-43303571D02*
X87402977Y-43241666D01*
X87402977Y-43241666D02*
X87442024Y-43210714D01*
X87442024Y-43210714D02*
X87520120Y-43179761D01*
X87520120Y-43179761D02*
X87715358Y-43179761D01*
X87715358Y-43179761D02*
X87793453Y-43210714D01*
X87793453Y-43210714D02*
X87832501Y-43241666D01*
X87832501Y-43241666D02*
X87871548Y-43303571D01*
X87871548Y-43303571D02*
X87871548Y-43489285D01*
X87871548Y-43489285D02*
X87832501Y-43551190D01*
X87832501Y-43551190D02*
X87793453Y-43582142D01*
X104472857Y-55933453D02*
X104433809Y-55972501D01*
X104433809Y-55972501D02*
X104316667Y-56011548D01*
X104316667Y-56011548D02*
X104238571Y-56011548D01*
X104238571Y-56011548D02*
X104121428Y-55972501D01*
X104121428Y-55972501D02*
X104043333Y-55894405D01*
X104043333Y-55894405D02*
X104004286Y-55816310D01*
X104004286Y-55816310D02*
X103965238Y-55660120D01*
X103965238Y-55660120D02*
X103965238Y-55542977D01*
X103965238Y-55542977D02*
X104004286Y-55386786D01*
X104004286Y-55386786D02*
X104043333Y-55308691D01*
X104043333Y-55308691D02*
X104121428Y-55230596D01*
X104121428Y-55230596D02*
X104238571Y-55191548D01*
X104238571Y-55191548D02*
X104316667Y-55191548D01*
X104316667Y-55191548D02*
X104433809Y-55230596D01*
X104433809Y-55230596D02*
X104472857Y-55269643D01*
X105175714Y-55464881D02*
X105175714Y-56011548D01*
X104980476Y-55152501D02*
X104785238Y-55738215D01*
X104785238Y-55738215D02*
X105292857Y-55738215D01*
X105956666Y-55464881D02*
X105956666Y-56011548D01*
X105761428Y-55152501D02*
X105566190Y-55738215D01*
X105566190Y-55738215D02*
X106073809Y-55738215D01*
X95853453Y-70047142D02*
X95892501Y-70086190D01*
X95892501Y-70086190D02*
X95931548Y-70203332D01*
X95931548Y-70203332D02*
X95931548Y-70281428D01*
X95931548Y-70281428D02*
X95892501Y-70398571D01*
X95892501Y-70398571D02*
X95814405Y-70476666D01*
X95814405Y-70476666D02*
X95736310Y-70515713D01*
X95736310Y-70515713D02*
X95580120Y-70554761D01*
X95580120Y-70554761D02*
X95462977Y-70554761D01*
X95462977Y-70554761D02*
X95306786Y-70515713D01*
X95306786Y-70515713D02*
X95228691Y-70476666D01*
X95228691Y-70476666D02*
X95150596Y-70398571D01*
X95150596Y-70398571D02*
X95111548Y-70281428D01*
X95111548Y-70281428D02*
X95111548Y-70203332D01*
X95111548Y-70203332D02*
X95150596Y-70086190D01*
X95150596Y-70086190D02*
X95189643Y-70047142D01*
X95111548Y-69773809D02*
X95111548Y-69266190D01*
X95111548Y-69266190D02*
X95423929Y-69539523D01*
X95423929Y-69539523D02*
X95423929Y-69422380D01*
X95423929Y-69422380D02*
X95462977Y-69344285D01*
X95462977Y-69344285D02*
X95502024Y-69305237D01*
X95502024Y-69305237D02*
X95580120Y-69266190D01*
X95580120Y-69266190D02*
X95775358Y-69266190D01*
X95775358Y-69266190D02*
X95853453Y-69305237D01*
X95853453Y-69305237D02*
X95892501Y-69344285D01*
X95892501Y-69344285D02*
X95931548Y-69422380D01*
X95931548Y-69422380D02*
X95931548Y-69656666D01*
X95931548Y-69656666D02*
X95892501Y-69734761D01*
X95892501Y-69734761D02*
X95853453Y-69773809D01*
X95462977Y-68797619D02*
X95423929Y-68875714D01*
X95423929Y-68875714D02*
X95384881Y-68914761D01*
X95384881Y-68914761D02*
X95306786Y-68953809D01*
X95306786Y-68953809D02*
X95267739Y-68953809D01*
X95267739Y-68953809D02*
X95189643Y-68914761D01*
X95189643Y-68914761D02*
X95150596Y-68875714D01*
X95150596Y-68875714D02*
X95111548Y-68797619D01*
X95111548Y-68797619D02*
X95111548Y-68641428D01*
X95111548Y-68641428D02*
X95150596Y-68563333D01*
X95150596Y-68563333D02*
X95189643Y-68524285D01*
X95189643Y-68524285D02*
X95267739Y-68485238D01*
X95267739Y-68485238D02*
X95306786Y-68485238D01*
X95306786Y-68485238D02*
X95384881Y-68524285D01*
X95384881Y-68524285D02*
X95423929Y-68563333D01*
X95423929Y-68563333D02*
X95462977Y-68641428D01*
X95462977Y-68641428D02*
X95462977Y-68797619D01*
X95462977Y-68797619D02*
X95502024Y-68875714D01*
X95502024Y-68875714D02*
X95541072Y-68914761D01*
X95541072Y-68914761D02*
X95619167Y-68953809D01*
X95619167Y-68953809D02*
X95775358Y-68953809D01*
X95775358Y-68953809D02*
X95853453Y-68914761D01*
X95853453Y-68914761D02*
X95892501Y-68875714D01*
X95892501Y-68875714D02*
X95931548Y-68797619D01*
X95931548Y-68797619D02*
X95931548Y-68641428D01*
X95931548Y-68641428D02*
X95892501Y-68563333D01*
X95892501Y-68563333D02*
X95853453Y-68524285D01*
X95853453Y-68524285D02*
X95775358Y-68485238D01*
X95775358Y-68485238D02*
X95619167Y-68485238D01*
X95619167Y-68485238D02*
X95541072Y-68524285D01*
X95541072Y-68524285D02*
X95502024Y-68563333D01*
X95502024Y-68563333D02*
X95462977Y-68641428D01*
X111032501Y-66693332D02*
X111071548Y-66576189D01*
X111071548Y-66576189D02*
X111071548Y-66380951D01*
X111071548Y-66380951D02*
X111032501Y-66302856D01*
X111032501Y-66302856D02*
X110993453Y-66263808D01*
X110993453Y-66263808D02*
X110915358Y-66224761D01*
X110915358Y-66224761D02*
X110837262Y-66224761D01*
X110837262Y-66224761D02*
X110759167Y-66263808D01*
X110759167Y-66263808D02*
X110720120Y-66302856D01*
X110720120Y-66302856D02*
X110681072Y-66380951D01*
X110681072Y-66380951D02*
X110642024Y-66537142D01*
X110642024Y-66537142D02*
X110602977Y-66615237D01*
X110602977Y-66615237D02*
X110563929Y-66654284D01*
X110563929Y-66654284D02*
X110485834Y-66693332D01*
X110485834Y-66693332D02*
X110407739Y-66693332D01*
X110407739Y-66693332D02*
X110329643Y-66654284D01*
X110329643Y-66654284D02*
X110290596Y-66615237D01*
X110290596Y-66615237D02*
X110251548Y-66537142D01*
X110251548Y-66537142D02*
X110251548Y-66341903D01*
X110251548Y-66341903D02*
X110290596Y-66224761D01*
X110251548Y-65951428D02*
X111071548Y-65756190D01*
X111071548Y-65756190D02*
X110485834Y-65599999D01*
X110485834Y-65599999D02*
X111071548Y-65443809D01*
X111071548Y-65443809D02*
X110251548Y-65248571D01*
X111071548Y-64506666D02*
X111071548Y-64975237D01*
X111071548Y-64740951D02*
X110251548Y-64740951D01*
X110251548Y-64740951D02*
X110368691Y-64819047D01*
X110368691Y-64819047D02*
X110446786Y-64897142D01*
X110446786Y-64897142D02*
X110485834Y-64975237D01*
X78013453Y-64136666D02*
X78052501Y-64175714D01*
X78052501Y-64175714D02*
X78091548Y-64292856D01*
X78091548Y-64292856D02*
X78091548Y-64370952D01*
X78091548Y-64370952D02*
X78052501Y-64488095D01*
X78052501Y-64488095D02*
X77974405Y-64566190D01*
X77974405Y-64566190D02*
X77896310Y-64605237D01*
X77896310Y-64605237D02*
X77740120Y-64644285D01*
X77740120Y-64644285D02*
X77622977Y-64644285D01*
X77622977Y-64644285D02*
X77466786Y-64605237D01*
X77466786Y-64605237D02*
X77388691Y-64566190D01*
X77388691Y-64566190D02*
X77310596Y-64488095D01*
X77310596Y-64488095D02*
X77271548Y-64370952D01*
X77271548Y-64370952D02*
X77271548Y-64292856D01*
X77271548Y-64292856D02*
X77310596Y-64175714D01*
X77310596Y-64175714D02*
X77349643Y-64136666D01*
X77544881Y-63433809D02*
X78091548Y-63433809D01*
X77232501Y-63629047D02*
X77818215Y-63824285D01*
X77818215Y-63824285D02*
X77818215Y-63316666D01*
X104693453Y-37727142D02*
X104732501Y-37766190D01*
X104732501Y-37766190D02*
X104771548Y-37883332D01*
X104771548Y-37883332D02*
X104771548Y-37961428D01*
X104771548Y-37961428D02*
X104732501Y-38078571D01*
X104732501Y-38078571D02*
X104654405Y-38156666D01*
X104654405Y-38156666D02*
X104576310Y-38195713D01*
X104576310Y-38195713D02*
X104420120Y-38234761D01*
X104420120Y-38234761D02*
X104302977Y-38234761D01*
X104302977Y-38234761D02*
X104146786Y-38195713D01*
X104146786Y-38195713D02*
X104068691Y-38156666D01*
X104068691Y-38156666D02*
X103990596Y-38078571D01*
X103990596Y-38078571D02*
X103951548Y-37961428D01*
X103951548Y-37961428D02*
X103951548Y-37883332D01*
X103951548Y-37883332D02*
X103990596Y-37766190D01*
X103990596Y-37766190D02*
X104029643Y-37727142D01*
X104224881Y-37024285D02*
X104771548Y-37024285D01*
X103912501Y-37219523D02*
X104498215Y-37414761D01*
X104498215Y-37414761D02*
X104498215Y-36907142D01*
X104302977Y-36477619D02*
X104263929Y-36555714D01*
X104263929Y-36555714D02*
X104224881Y-36594761D01*
X104224881Y-36594761D02*
X104146786Y-36633809D01*
X104146786Y-36633809D02*
X104107739Y-36633809D01*
X104107739Y-36633809D02*
X104029643Y-36594761D01*
X104029643Y-36594761D02*
X103990596Y-36555714D01*
X103990596Y-36555714D02*
X103951548Y-36477619D01*
X103951548Y-36477619D02*
X103951548Y-36321428D01*
X103951548Y-36321428D02*
X103990596Y-36243333D01*
X103990596Y-36243333D02*
X104029643Y-36204285D01*
X104029643Y-36204285D02*
X104107739Y-36165238D01*
X104107739Y-36165238D02*
X104146786Y-36165238D01*
X104146786Y-36165238D02*
X104224881Y-36204285D01*
X104224881Y-36204285D02*
X104263929Y-36243333D01*
X104263929Y-36243333D02*
X104302977Y-36321428D01*
X104302977Y-36321428D02*
X104302977Y-36477619D01*
X104302977Y-36477619D02*
X104342024Y-36555714D01*
X104342024Y-36555714D02*
X104381072Y-36594761D01*
X104381072Y-36594761D02*
X104459167Y-36633809D01*
X104459167Y-36633809D02*
X104615358Y-36633809D01*
X104615358Y-36633809D02*
X104693453Y-36594761D01*
X104693453Y-36594761D02*
X104732501Y-36555714D01*
X104732501Y-36555714D02*
X104771548Y-36477619D01*
X104771548Y-36477619D02*
X104771548Y-36321428D01*
X104771548Y-36321428D02*
X104732501Y-36243333D01*
X104732501Y-36243333D02*
X104693453Y-36204285D01*
X104693453Y-36204285D02*
X104615358Y-36165238D01*
X104615358Y-36165238D02*
X104459167Y-36165238D01*
X104459167Y-36165238D02*
X104381072Y-36204285D01*
X104381072Y-36204285D02*
X104342024Y-36243333D01*
X104342024Y-36243333D02*
X104302977Y-36321428D01*
X78672857Y-66653453D02*
X78633809Y-66692501D01*
X78633809Y-66692501D02*
X78516667Y-66731548D01*
X78516667Y-66731548D02*
X78438571Y-66731548D01*
X78438571Y-66731548D02*
X78321428Y-66692501D01*
X78321428Y-66692501D02*
X78243333Y-66614405D01*
X78243333Y-66614405D02*
X78204286Y-66536310D01*
X78204286Y-66536310D02*
X78165238Y-66380120D01*
X78165238Y-66380120D02*
X78165238Y-66262977D01*
X78165238Y-66262977D02*
X78204286Y-66106786D01*
X78204286Y-66106786D02*
X78243333Y-66028691D01*
X78243333Y-66028691D02*
X78321428Y-65950596D01*
X78321428Y-65950596D02*
X78438571Y-65911548D01*
X78438571Y-65911548D02*
X78516667Y-65911548D01*
X78516667Y-65911548D02*
X78633809Y-65950596D01*
X78633809Y-65950596D02*
X78672857Y-65989643D01*
X79375714Y-66184881D02*
X79375714Y-66731548D01*
X79180476Y-65872501D02*
X78985238Y-66458215D01*
X78985238Y-66458215D02*
X79492857Y-66458215D01*
X79766190Y-65989643D02*
X79805238Y-65950596D01*
X79805238Y-65950596D02*
X79883333Y-65911548D01*
X79883333Y-65911548D02*
X80078571Y-65911548D01*
X80078571Y-65911548D02*
X80156666Y-65950596D01*
X80156666Y-65950596D02*
X80195714Y-65989643D01*
X80195714Y-65989643D02*
X80234761Y-66067739D01*
X80234761Y-66067739D02*
X80234761Y-66145834D01*
X80234761Y-66145834D02*
X80195714Y-66262977D01*
X80195714Y-66262977D02*
X79727142Y-66731548D01*
X79727142Y-66731548D02*
X80234761Y-66731548D01*
X102276666Y-78376548D02*
X102276666Y-78962262D01*
X102276666Y-78962262D02*
X102237619Y-79079405D01*
X102237619Y-79079405D02*
X102159523Y-79157501D01*
X102159523Y-79157501D02*
X102042381Y-79196548D01*
X102042381Y-79196548D02*
X101964285Y-79196548D01*
X103096666Y-79196548D02*
X102628095Y-79196548D01*
X102862381Y-79196548D02*
X102862381Y-78376548D01*
X102862381Y-78376548D02*
X102784285Y-78493691D01*
X102784285Y-78493691D02*
X102706190Y-78571786D01*
X102706190Y-78571786D02*
X102628095Y-78610834D01*
X124940476Y-79779819D02*
X125559523Y-79779819D01*
X125559523Y-79779819D02*
X125226190Y-80160771D01*
X125226190Y-80160771D02*
X125369047Y-80160771D01*
X125369047Y-80160771D02*
X125464285Y-80208390D01*
X125464285Y-80208390D02*
X125511904Y-80256009D01*
X125511904Y-80256009D02*
X125559523Y-80351247D01*
X125559523Y-80351247D02*
X125559523Y-80589342D01*
X125559523Y-80589342D02*
X125511904Y-80684580D01*
X125511904Y-80684580D02*
X125464285Y-80732200D01*
X125464285Y-80732200D02*
X125369047Y-80779819D01*
X125369047Y-80779819D02*
X125083333Y-80779819D01*
X125083333Y-80779819D02*
X124988095Y-80732200D01*
X124988095Y-80732200D02*
X124940476Y-80684580D01*
X125940476Y-79875057D02*
X125988095Y-79827438D01*
X125988095Y-79827438D02*
X126083333Y-79779819D01*
X126083333Y-79779819D02*
X126321428Y-79779819D01*
X126321428Y-79779819D02*
X126416666Y-79827438D01*
X126416666Y-79827438D02*
X126464285Y-79875057D01*
X126464285Y-79875057D02*
X126511904Y-79970295D01*
X126511904Y-79970295D02*
X126511904Y-80065533D01*
X126511904Y-80065533D02*
X126464285Y-80208390D01*
X126464285Y-80208390D02*
X125892857Y-80779819D01*
X125892857Y-80779819D02*
X126511904Y-80779819D01*
X79135714Y-80779819D02*
X78564286Y-80779819D01*
X78850000Y-80779819D02*
X78850000Y-79779819D01*
X78850000Y-79779819D02*
X78754762Y-79922676D01*
X78754762Y-79922676D02*
X78659524Y-80017914D01*
X78659524Y-80017914D02*
X78564286Y-80065533D01*
X104872857Y-68371548D02*
X104599524Y-67981072D01*
X104404286Y-68371548D02*
X104404286Y-67551548D01*
X104404286Y-67551548D02*
X104716667Y-67551548D01*
X104716667Y-67551548D02*
X104794762Y-67590596D01*
X104794762Y-67590596D02*
X104833809Y-67629643D01*
X104833809Y-67629643D02*
X104872857Y-67707739D01*
X104872857Y-67707739D02*
X104872857Y-67824881D01*
X104872857Y-67824881D02*
X104833809Y-67902977D01*
X104833809Y-67902977D02*
X104794762Y-67942024D01*
X104794762Y-67942024D02*
X104716667Y-67981072D01*
X104716667Y-67981072D02*
X104404286Y-67981072D01*
X105185238Y-67629643D02*
X105224286Y-67590596D01*
X105224286Y-67590596D02*
X105302381Y-67551548D01*
X105302381Y-67551548D02*
X105497619Y-67551548D01*
X105497619Y-67551548D02*
X105575714Y-67590596D01*
X105575714Y-67590596D02*
X105614762Y-67629643D01*
X105614762Y-67629643D02*
X105653809Y-67707739D01*
X105653809Y-67707739D02*
X105653809Y-67785834D01*
X105653809Y-67785834D02*
X105614762Y-67902977D01*
X105614762Y-67902977D02*
X105146190Y-68371548D01*
X105146190Y-68371548D02*
X105653809Y-68371548D01*
X106044285Y-68371548D02*
X106200476Y-68371548D01*
X106200476Y-68371548D02*
X106278571Y-68332501D01*
X106278571Y-68332501D02*
X106317619Y-68293453D01*
X106317619Y-68293453D02*
X106395714Y-68176310D01*
X106395714Y-68176310D02*
X106434761Y-68020120D01*
X106434761Y-68020120D02*
X106434761Y-67707739D01*
X106434761Y-67707739D02*
X106395714Y-67629643D01*
X106395714Y-67629643D02*
X106356666Y-67590596D01*
X106356666Y-67590596D02*
X106278571Y-67551548D01*
X106278571Y-67551548D02*
X106122380Y-67551548D01*
X106122380Y-67551548D02*
X106044285Y-67590596D01*
X106044285Y-67590596D02*
X106005238Y-67629643D01*
X106005238Y-67629643D02*
X105966190Y-67707739D01*
X105966190Y-67707739D02*
X105966190Y-67902977D01*
X105966190Y-67902977D02*
X106005238Y-67981072D01*
X106005238Y-67981072D02*
X106044285Y-68020120D01*
X106044285Y-68020120D02*
X106122380Y-68059167D01*
X106122380Y-68059167D02*
X106278571Y-68059167D01*
X106278571Y-68059167D02*
X106356666Y-68020120D01*
X106356666Y-68020120D02*
X106395714Y-67981072D01*
X106395714Y-67981072D02*
X106434761Y-67902977D01*
X123642857Y-58671548D02*
X123369524Y-58281072D01*
X123174286Y-58671548D02*
X123174286Y-57851548D01*
X123174286Y-57851548D02*
X123486667Y-57851548D01*
X123486667Y-57851548D02*
X123564762Y-57890596D01*
X123564762Y-57890596D02*
X123603809Y-57929643D01*
X123603809Y-57929643D02*
X123642857Y-58007739D01*
X123642857Y-58007739D02*
X123642857Y-58124881D01*
X123642857Y-58124881D02*
X123603809Y-58202977D01*
X123603809Y-58202977D02*
X123564762Y-58242024D01*
X123564762Y-58242024D02*
X123486667Y-58281072D01*
X123486667Y-58281072D02*
X123174286Y-58281072D01*
X124423809Y-58671548D02*
X123955238Y-58671548D01*
X124189524Y-58671548D02*
X124189524Y-57851548D01*
X124189524Y-57851548D02*
X124111428Y-57968691D01*
X124111428Y-57968691D02*
X124033333Y-58046786D01*
X124033333Y-58046786D02*
X123955238Y-58085834D01*
X124814285Y-58671548D02*
X124970476Y-58671548D01*
X124970476Y-58671548D02*
X125048571Y-58632501D01*
X125048571Y-58632501D02*
X125087619Y-58593453D01*
X125087619Y-58593453D02*
X125165714Y-58476310D01*
X125165714Y-58476310D02*
X125204761Y-58320120D01*
X125204761Y-58320120D02*
X125204761Y-58007739D01*
X125204761Y-58007739D02*
X125165714Y-57929643D01*
X125165714Y-57929643D02*
X125126666Y-57890596D01*
X125126666Y-57890596D02*
X125048571Y-57851548D01*
X125048571Y-57851548D02*
X124892380Y-57851548D01*
X124892380Y-57851548D02*
X124814285Y-57890596D01*
X124814285Y-57890596D02*
X124775238Y-57929643D01*
X124775238Y-57929643D02*
X124736190Y-58007739D01*
X124736190Y-58007739D02*
X124736190Y-58202977D01*
X124736190Y-58202977D02*
X124775238Y-58281072D01*
X124775238Y-58281072D02*
X124814285Y-58320120D01*
X124814285Y-58320120D02*
X124892380Y-58359167D01*
X124892380Y-58359167D02*
X125048571Y-58359167D01*
X125048571Y-58359167D02*
X125126666Y-58320120D01*
X125126666Y-58320120D02*
X125165714Y-58281072D01*
X125165714Y-58281072D02*
X125204761Y-58202977D01*
X107663333Y-47971548D02*
X107272857Y-47971548D01*
X107272857Y-47971548D02*
X107272857Y-47151548D01*
X108366190Y-47971548D02*
X107897619Y-47971548D01*
X108131905Y-47971548D02*
X108131905Y-47151548D01*
X108131905Y-47151548D02*
X108053809Y-47268691D01*
X108053809Y-47268691D02*
X107975714Y-47346786D01*
X107975714Y-47346786D02*
X107897619Y-47385834D01*
X126272857Y-55093453D02*
X126233809Y-55132501D01*
X126233809Y-55132501D02*
X126116667Y-55171548D01*
X126116667Y-55171548D02*
X126038571Y-55171548D01*
X126038571Y-55171548D02*
X125921428Y-55132501D01*
X125921428Y-55132501D02*
X125843333Y-55054405D01*
X125843333Y-55054405D02*
X125804286Y-54976310D01*
X125804286Y-54976310D02*
X125765238Y-54820120D01*
X125765238Y-54820120D02*
X125765238Y-54702977D01*
X125765238Y-54702977D02*
X125804286Y-54546786D01*
X125804286Y-54546786D02*
X125843333Y-54468691D01*
X125843333Y-54468691D02*
X125921428Y-54390596D01*
X125921428Y-54390596D02*
X126038571Y-54351548D01*
X126038571Y-54351548D02*
X126116667Y-54351548D01*
X126116667Y-54351548D02*
X126233809Y-54390596D01*
X126233809Y-54390596D02*
X126272857Y-54429643D01*
X126585238Y-54429643D02*
X126624286Y-54390596D01*
X126624286Y-54390596D02*
X126702381Y-54351548D01*
X126702381Y-54351548D02*
X126897619Y-54351548D01*
X126897619Y-54351548D02*
X126975714Y-54390596D01*
X126975714Y-54390596D02*
X127014762Y-54429643D01*
X127014762Y-54429643D02*
X127053809Y-54507739D01*
X127053809Y-54507739D02*
X127053809Y-54585834D01*
X127053809Y-54585834D02*
X127014762Y-54702977D01*
X127014762Y-54702977D02*
X126546190Y-55171548D01*
X126546190Y-55171548D02*
X127053809Y-55171548D01*
X127366190Y-54429643D02*
X127405238Y-54390596D01*
X127405238Y-54390596D02*
X127483333Y-54351548D01*
X127483333Y-54351548D02*
X127678571Y-54351548D01*
X127678571Y-54351548D02*
X127756666Y-54390596D01*
X127756666Y-54390596D02*
X127795714Y-54429643D01*
X127795714Y-54429643D02*
X127834761Y-54507739D01*
X127834761Y-54507739D02*
X127834761Y-54585834D01*
X127834761Y-54585834D02*
X127795714Y-54702977D01*
X127795714Y-54702977D02*
X127327142Y-55171548D01*
X127327142Y-55171548D02*
X127834761Y-55171548D01*
X78782857Y-60123453D02*
X78743809Y-60162501D01*
X78743809Y-60162501D02*
X78626667Y-60201548D01*
X78626667Y-60201548D02*
X78548571Y-60201548D01*
X78548571Y-60201548D02*
X78431428Y-60162501D01*
X78431428Y-60162501D02*
X78353333Y-60084405D01*
X78353333Y-60084405D02*
X78314286Y-60006310D01*
X78314286Y-60006310D02*
X78275238Y-59850120D01*
X78275238Y-59850120D02*
X78275238Y-59732977D01*
X78275238Y-59732977D02*
X78314286Y-59576786D01*
X78314286Y-59576786D02*
X78353333Y-59498691D01*
X78353333Y-59498691D02*
X78431428Y-59420596D01*
X78431428Y-59420596D02*
X78548571Y-59381548D01*
X78548571Y-59381548D02*
X78626667Y-59381548D01*
X78626667Y-59381548D02*
X78743809Y-59420596D01*
X78743809Y-59420596D02*
X78782857Y-59459643D01*
X79485714Y-59654881D02*
X79485714Y-60201548D01*
X79290476Y-59342501D02*
X79095238Y-59928215D01*
X79095238Y-59928215D02*
X79602857Y-59928215D01*
X80071428Y-59381548D02*
X80149523Y-59381548D01*
X80149523Y-59381548D02*
X80227619Y-59420596D01*
X80227619Y-59420596D02*
X80266666Y-59459643D01*
X80266666Y-59459643D02*
X80305714Y-59537739D01*
X80305714Y-59537739D02*
X80344761Y-59693929D01*
X80344761Y-59693929D02*
X80344761Y-59889167D01*
X80344761Y-59889167D02*
X80305714Y-60045358D01*
X80305714Y-60045358D02*
X80266666Y-60123453D01*
X80266666Y-60123453D02*
X80227619Y-60162501D01*
X80227619Y-60162501D02*
X80149523Y-60201548D01*
X80149523Y-60201548D02*
X80071428Y-60201548D01*
X80071428Y-60201548D02*
X79993333Y-60162501D01*
X79993333Y-60162501D02*
X79954285Y-60123453D01*
X79954285Y-60123453D02*
X79915238Y-60045358D01*
X79915238Y-60045358D02*
X79876190Y-59889167D01*
X79876190Y-59889167D02*
X79876190Y-59693929D01*
X79876190Y-59693929D02*
X79915238Y-59537739D01*
X79915238Y-59537739D02*
X79954285Y-59459643D01*
X79954285Y-59459643D02*
X79993333Y-59420596D01*
X79993333Y-59420596D02*
X80071428Y-59381548D01*
X91496857Y-77718453D02*
X91457809Y-77757501D01*
X91457809Y-77757501D02*
X91340667Y-77796548D01*
X91340667Y-77796548D02*
X91262571Y-77796548D01*
X91262571Y-77796548D02*
X91145428Y-77757501D01*
X91145428Y-77757501D02*
X91067333Y-77679405D01*
X91067333Y-77679405D02*
X91028286Y-77601310D01*
X91028286Y-77601310D02*
X90989238Y-77445120D01*
X90989238Y-77445120D02*
X90989238Y-77327977D01*
X90989238Y-77327977D02*
X91028286Y-77171786D01*
X91028286Y-77171786D02*
X91067333Y-77093691D01*
X91067333Y-77093691D02*
X91145428Y-77015596D01*
X91145428Y-77015596D02*
X91262571Y-76976548D01*
X91262571Y-76976548D02*
X91340667Y-76976548D01*
X91340667Y-76976548D02*
X91457809Y-77015596D01*
X91457809Y-77015596D02*
X91496857Y-77054643D01*
X92238762Y-76976548D02*
X91848286Y-76976548D01*
X91848286Y-76976548D02*
X91809238Y-77367024D01*
X91809238Y-77367024D02*
X91848286Y-77327977D01*
X91848286Y-77327977D02*
X91926381Y-77288929D01*
X91926381Y-77288929D02*
X92121619Y-77288929D01*
X92121619Y-77288929D02*
X92199714Y-77327977D01*
X92199714Y-77327977D02*
X92238762Y-77367024D01*
X92238762Y-77367024D02*
X92277809Y-77445120D01*
X92277809Y-77445120D02*
X92277809Y-77640358D01*
X92277809Y-77640358D02*
X92238762Y-77718453D01*
X92238762Y-77718453D02*
X92199714Y-77757501D01*
X92199714Y-77757501D02*
X92121619Y-77796548D01*
X92121619Y-77796548D02*
X91926381Y-77796548D01*
X91926381Y-77796548D02*
X91848286Y-77757501D01*
X91848286Y-77757501D02*
X91809238Y-77718453D01*
X93058761Y-77796548D02*
X92590190Y-77796548D01*
X92824476Y-77796548D02*
X92824476Y-76976548D01*
X92824476Y-76976548D02*
X92746380Y-77093691D01*
X92746380Y-77093691D02*
X92668285Y-77171786D01*
X92668285Y-77171786D02*
X92590190Y-77210834D01*
X106293453Y-37527142D02*
X106332501Y-37566190D01*
X106332501Y-37566190D02*
X106371548Y-37683332D01*
X106371548Y-37683332D02*
X106371548Y-37761428D01*
X106371548Y-37761428D02*
X106332501Y-37878571D01*
X106332501Y-37878571D02*
X106254405Y-37956666D01*
X106254405Y-37956666D02*
X106176310Y-37995713D01*
X106176310Y-37995713D02*
X106020120Y-38034761D01*
X106020120Y-38034761D02*
X105902977Y-38034761D01*
X105902977Y-38034761D02*
X105746786Y-37995713D01*
X105746786Y-37995713D02*
X105668691Y-37956666D01*
X105668691Y-37956666D02*
X105590596Y-37878571D01*
X105590596Y-37878571D02*
X105551548Y-37761428D01*
X105551548Y-37761428D02*
X105551548Y-37683332D01*
X105551548Y-37683332D02*
X105590596Y-37566190D01*
X105590596Y-37566190D02*
X105629643Y-37527142D01*
X105824881Y-36824285D02*
X106371548Y-36824285D01*
X105512501Y-37019523D02*
X106098215Y-37214761D01*
X106098215Y-37214761D02*
X106098215Y-36707142D01*
X106371548Y-36355714D02*
X106371548Y-36199523D01*
X106371548Y-36199523D02*
X106332501Y-36121428D01*
X106332501Y-36121428D02*
X106293453Y-36082380D01*
X106293453Y-36082380D02*
X106176310Y-36004285D01*
X106176310Y-36004285D02*
X106020120Y-35965238D01*
X106020120Y-35965238D02*
X105707739Y-35965238D01*
X105707739Y-35965238D02*
X105629643Y-36004285D01*
X105629643Y-36004285D02*
X105590596Y-36043333D01*
X105590596Y-36043333D02*
X105551548Y-36121428D01*
X105551548Y-36121428D02*
X105551548Y-36277619D01*
X105551548Y-36277619D02*
X105590596Y-36355714D01*
X105590596Y-36355714D02*
X105629643Y-36394761D01*
X105629643Y-36394761D02*
X105707739Y-36433809D01*
X105707739Y-36433809D02*
X105902977Y-36433809D01*
X105902977Y-36433809D02*
X105981072Y-36394761D01*
X105981072Y-36394761D02*
X106020120Y-36355714D01*
X106020120Y-36355714D02*
X106059167Y-36277619D01*
X106059167Y-36277619D02*
X106059167Y-36121428D01*
X106059167Y-36121428D02*
X106020120Y-36043333D01*
X106020120Y-36043333D02*
X105981072Y-36004285D01*
X105981072Y-36004285D02*
X105902977Y-35965238D01*
X88693453Y-41736666D02*
X88732501Y-41775714D01*
X88732501Y-41775714D02*
X88771548Y-41892856D01*
X88771548Y-41892856D02*
X88771548Y-41970952D01*
X88771548Y-41970952D02*
X88732501Y-42088095D01*
X88732501Y-42088095D02*
X88654405Y-42166190D01*
X88654405Y-42166190D02*
X88576310Y-42205237D01*
X88576310Y-42205237D02*
X88420120Y-42244285D01*
X88420120Y-42244285D02*
X88302977Y-42244285D01*
X88302977Y-42244285D02*
X88146786Y-42205237D01*
X88146786Y-42205237D02*
X88068691Y-42166190D01*
X88068691Y-42166190D02*
X87990596Y-42088095D01*
X87990596Y-42088095D02*
X87951548Y-41970952D01*
X87951548Y-41970952D02*
X87951548Y-41892856D01*
X87951548Y-41892856D02*
X87990596Y-41775714D01*
X87990596Y-41775714D02*
X88029643Y-41736666D01*
X88029643Y-41424285D02*
X87990596Y-41385237D01*
X87990596Y-41385237D02*
X87951548Y-41307142D01*
X87951548Y-41307142D02*
X87951548Y-41111904D01*
X87951548Y-41111904D02*
X87990596Y-41033809D01*
X87990596Y-41033809D02*
X88029643Y-40994761D01*
X88029643Y-40994761D02*
X88107739Y-40955714D01*
X88107739Y-40955714D02*
X88185834Y-40955714D01*
X88185834Y-40955714D02*
X88302977Y-40994761D01*
X88302977Y-40994761D02*
X88771548Y-41463333D01*
X88771548Y-41463333D02*
X88771548Y-40955714D01*
X78021904Y-41249643D02*
X77943809Y-41210596D01*
X77943809Y-41210596D02*
X77865714Y-41132501D01*
X77865714Y-41132501D02*
X77748571Y-41015358D01*
X77748571Y-41015358D02*
X77670476Y-40976310D01*
X77670476Y-40976310D02*
X77592380Y-40976310D01*
X77631428Y-41171548D02*
X77553333Y-41132501D01*
X77553333Y-41132501D02*
X77475238Y-41054405D01*
X77475238Y-41054405D02*
X77436190Y-40898215D01*
X77436190Y-40898215D02*
X77436190Y-40624881D01*
X77436190Y-40624881D02*
X77475238Y-40468691D01*
X77475238Y-40468691D02*
X77553333Y-40390596D01*
X77553333Y-40390596D02*
X77631428Y-40351548D01*
X77631428Y-40351548D02*
X77787619Y-40351548D01*
X77787619Y-40351548D02*
X77865714Y-40390596D01*
X77865714Y-40390596D02*
X77943809Y-40468691D01*
X77943809Y-40468691D02*
X77982857Y-40624881D01*
X77982857Y-40624881D02*
X77982857Y-40898215D01*
X77982857Y-40898215D02*
X77943809Y-41054405D01*
X77943809Y-41054405D02*
X77865714Y-41132501D01*
X77865714Y-41132501D02*
X77787619Y-41171548D01*
X77787619Y-41171548D02*
X77631428Y-41171548D01*
X78763809Y-41171548D02*
X78295238Y-41171548D01*
X78529524Y-41171548D02*
X78529524Y-40351548D01*
X78529524Y-40351548D02*
X78451428Y-40468691D01*
X78451428Y-40468691D02*
X78373333Y-40546786D01*
X78373333Y-40546786D02*
X78295238Y-40585834D01*
X106672857Y-49093453D02*
X106633809Y-49132501D01*
X106633809Y-49132501D02*
X106516667Y-49171548D01*
X106516667Y-49171548D02*
X106438571Y-49171548D01*
X106438571Y-49171548D02*
X106321428Y-49132501D01*
X106321428Y-49132501D02*
X106243333Y-49054405D01*
X106243333Y-49054405D02*
X106204286Y-48976310D01*
X106204286Y-48976310D02*
X106165238Y-48820120D01*
X106165238Y-48820120D02*
X106165238Y-48702977D01*
X106165238Y-48702977D02*
X106204286Y-48546786D01*
X106204286Y-48546786D02*
X106243333Y-48468691D01*
X106243333Y-48468691D02*
X106321428Y-48390596D01*
X106321428Y-48390596D02*
X106438571Y-48351548D01*
X106438571Y-48351548D02*
X106516667Y-48351548D01*
X106516667Y-48351548D02*
X106633809Y-48390596D01*
X106633809Y-48390596D02*
X106672857Y-48429643D01*
X107375714Y-48624881D02*
X107375714Y-49171548D01*
X107180476Y-48312501D02*
X106985238Y-48898215D01*
X106985238Y-48898215D02*
X107492857Y-48898215D01*
X108156666Y-48351548D02*
X108000476Y-48351548D01*
X108000476Y-48351548D02*
X107922380Y-48390596D01*
X107922380Y-48390596D02*
X107883333Y-48429643D01*
X107883333Y-48429643D02*
X107805238Y-48546786D01*
X107805238Y-48546786D02*
X107766190Y-48702977D01*
X107766190Y-48702977D02*
X107766190Y-49015358D01*
X107766190Y-49015358D02*
X107805238Y-49093453D01*
X107805238Y-49093453D02*
X107844285Y-49132501D01*
X107844285Y-49132501D02*
X107922380Y-49171548D01*
X107922380Y-49171548D02*
X108078571Y-49171548D01*
X108078571Y-49171548D02*
X108156666Y-49132501D01*
X108156666Y-49132501D02*
X108195714Y-49093453D01*
X108195714Y-49093453D02*
X108234761Y-49015358D01*
X108234761Y-49015358D02*
X108234761Y-48820120D01*
X108234761Y-48820120D02*
X108195714Y-48742024D01*
X108195714Y-48742024D02*
X108156666Y-48702977D01*
X108156666Y-48702977D02*
X108078571Y-48663929D01*
X108078571Y-48663929D02*
X107922380Y-48663929D01*
X107922380Y-48663929D02*
X107844285Y-48702977D01*
X107844285Y-48702977D02*
X107805238Y-48742024D01*
X107805238Y-48742024D02*
X107766190Y-48820120D01*
X99872857Y-69281548D02*
X99599524Y-68891072D01*
X99404286Y-69281548D02*
X99404286Y-68461548D01*
X99404286Y-68461548D02*
X99716667Y-68461548D01*
X99716667Y-68461548D02*
X99794762Y-68500596D01*
X99794762Y-68500596D02*
X99833809Y-68539643D01*
X99833809Y-68539643D02*
X99872857Y-68617739D01*
X99872857Y-68617739D02*
X99872857Y-68734881D01*
X99872857Y-68734881D02*
X99833809Y-68812977D01*
X99833809Y-68812977D02*
X99794762Y-68852024D01*
X99794762Y-68852024D02*
X99716667Y-68891072D01*
X99716667Y-68891072D02*
X99404286Y-68891072D01*
X100185238Y-68539643D02*
X100224286Y-68500596D01*
X100224286Y-68500596D02*
X100302381Y-68461548D01*
X100302381Y-68461548D02*
X100497619Y-68461548D01*
X100497619Y-68461548D02*
X100575714Y-68500596D01*
X100575714Y-68500596D02*
X100614762Y-68539643D01*
X100614762Y-68539643D02*
X100653809Y-68617739D01*
X100653809Y-68617739D02*
X100653809Y-68695834D01*
X100653809Y-68695834D02*
X100614762Y-68812977D01*
X100614762Y-68812977D02*
X100146190Y-69281548D01*
X100146190Y-69281548D02*
X100653809Y-69281548D01*
X100927142Y-68461548D02*
X101473809Y-68461548D01*
X101473809Y-68461548D02*
X101122380Y-69281548D01*
X113072857Y-52171548D02*
X112799524Y-51781072D01*
X112604286Y-52171548D02*
X112604286Y-51351548D01*
X112604286Y-51351548D02*
X112916667Y-51351548D01*
X112916667Y-51351548D02*
X112994762Y-51390596D01*
X112994762Y-51390596D02*
X113033809Y-51429643D01*
X113033809Y-51429643D02*
X113072857Y-51507739D01*
X113072857Y-51507739D02*
X113072857Y-51624881D01*
X113072857Y-51624881D02*
X113033809Y-51702977D01*
X113033809Y-51702977D02*
X112994762Y-51742024D01*
X112994762Y-51742024D02*
X112916667Y-51781072D01*
X112916667Y-51781072D02*
X112604286Y-51781072D01*
X113385238Y-51429643D02*
X113424286Y-51390596D01*
X113424286Y-51390596D02*
X113502381Y-51351548D01*
X113502381Y-51351548D02*
X113697619Y-51351548D01*
X113697619Y-51351548D02*
X113775714Y-51390596D01*
X113775714Y-51390596D02*
X113814762Y-51429643D01*
X113814762Y-51429643D02*
X113853809Y-51507739D01*
X113853809Y-51507739D02*
X113853809Y-51585834D01*
X113853809Y-51585834D02*
X113814762Y-51702977D01*
X113814762Y-51702977D02*
X113346190Y-52171548D01*
X113346190Y-52171548D02*
X113853809Y-52171548D01*
X114322380Y-51702977D02*
X114244285Y-51663929D01*
X114244285Y-51663929D02*
X114205238Y-51624881D01*
X114205238Y-51624881D02*
X114166190Y-51546786D01*
X114166190Y-51546786D02*
X114166190Y-51507739D01*
X114166190Y-51507739D02*
X114205238Y-51429643D01*
X114205238Y-51429643D02*
X114244285Y-51390596D01*
X114244285Y-51390596D02*
X114322380Y-51351548D01*
X114322380Y-51351548D02*
X114478571Y-51351548D01*
X114478571Y-51351548D02*
X114556666Y-51390596D01*
X114556666Y-51390596D02*
X114595714Y-51429643D01*
X114595714Y-51429643D02*
X114634761Y-51507739D01*
X114634761Y-51507739D02*
X114634761Y-51546786D01*
X114634761Y-51546786D02*
X114595714Y-51624881D01*
X114595714Y-51624881D02*
X114556666Y-51663929D01*
X114556666Y-51663929D02*
X114478571Y-51702977D01*
X114478571Y-51702977D02*
X114322380Y-51702977D01*
X114322380Y-51702977D02*
X114244285Y-51742024D01*
X114244285Y-51742024D02*
X114205238Y-51781072D01*
X114205238Y-51781072D02*
X114166190Y-51859167D01*
X114166190Y-51859167D02*
X114166190Y-52015358D01*
X114166190Y-52015358D02*
X114205238Y-52093453D01*
X114205238Y-52093453D02*
X114244285Y-52132501D01*
X114244285Y-52132501D02*
X114322380Y-52171548D01*
X114322380Y-52171548D02*
X114478571Y-52171548D01*
X114478571Y-52171548D02*
X114556666Y-52132501D01*
X114556666Y-52132501D02*
X114595714Y-52093453D01*
X114595714Y-52093453D02*
X114634761Y-52015358D01*
X114634761Y-52015358D02*
X114634761Y-51859167D01*
X114634761Y-51859167D02*
X114595714Y-51781072D01*
X114595714Y-51781072D02*
X114556666Y-51742024D01*
X114556666Y-51742024D02*
X114478571Y-51702977D01*
X118813453Y-59527142D02*
X118852501Y-59566190D01*
X118852501Y-59566190D02*
X118891548Y-59683332D01*
X118891548Y-59683332D02*
X118891548Y-59761428D01*
X118891548Y-59761428D02*
X118852501Y-59878571D01*
X118852501Y-59878571D02*
X118774405Y-59956666D01*
X118774405Y-59956666D02*
X118696310Y-59995713D01*
X118696310Y-59995713D02*
X118540120Y-60034761D01*
X118540120Y-60034761D02*
X118422977Y-60034761D01*
X118422977Y-60034761D02*
X118266786Y-59995713D01*
X118266786Y-59995713D02*
X118188691Y-59956666D01*
X118188691Y-59956666D02*
X118110596Y-59878571D01*
X118110596Y-59878571D02*
X118071548Y-59761428D01*
X118071548Y-59761428D02*
X118071548Y-59683332D01*
X118071548Y-59683332D02*
X118110596Y-59566190D01*
X118110596Y-59566190D02*
X118149643Y-59527142D01*
X118071548Y-59253809D02*
X118071548Y-58746190D01*
X118071548Y-58746190D02*
X118383929Y-59019523D01*
X118383929Y-59019523D02*
X118383929Y-58902380D01*
X118383929Y-58902380D02*
X118422977Y-58824285D01*
X118422977Y-58824285D02*
X118462024Y-58785237D01*
X118462024Y-58785237D02*
X118540120Y-58746190D01*
X118540120Y-58746190D02*
X118735358Y-58746190D01*
X118735358Y-58746190D02*
X118813453Y-58785237D01*
X118813453Y-58785237D02*
X118852501Y-58824285D01*
X118852501Y-58824285D02*
X118891548Y-58902380D01*
X118891548Y-58902380D02*
X118891548Y-59136666D01*
X118891548Y-59136666D02*
X118852501Y-59214761D01*
X118852501Y-59214761D02*
X118813453Y-59253809D01*
X118891548Y-57965238D02*
X118891548Y-58433809D01*
X118891548Y-58199523D02*
X118071548Y-58199523D01*
X118071548Y-58199523D02*
X118188691Y-58277619D01*
X118188691Y-58277619D02*
X118266786Y-58355714D01*
X118266786Y-58355714D02*
X118305834Y-58433809D01*
X117032501Y-50693332D02*
X117071548Y-50576189D01*
X117071548Y-50576189D02*
X117071548Y-50380951D01*
X117071548Y-50380951D02*
X117032501Y-50302856D01*
X117032501Y-50302856D02*
X116993453Y-50263808D01*
X116993453Y-50263808D02*
X116915358Y-50224761D01*
X116915358Y-50224761D02*
X116837262Y-50224761D01*
X116837262Y-50224761D02*
X116759167Y-50263808D01*
X116759167Y-50263808D02*
X116720120Y-50302856D01*
X116720120Y-50302856D02*
X116681072Y-50380951D01*
X116681072Y-50380951D02*
X116642024Y-50537142D01*
X116642024Y-50537142D02*
X116602977Y-50615237D01*
X116602977Y-50615237D02*
X116563929Y-50654284D01*
X116563929Y-50654284D02*
X116485834Y-50693332D01*
X116485834Y-50693332D02*
X116407739Y-50693332D01*
X116407739Y-50693332D02*
X116329643Y-50654284D01*
X116329643Y-50654284D02*
X116290596Y-50615237D01*
X116290596Y-50615237D02*
X116251548Y-50537142D01*
X116251548Y-50537142D02*
X116251548Y-50341903D01*
X116251548Y-50341903D02*
X116290596Y-50224761D01*
X116251548Y-49951428D02*
X117071548Y-49756190D01*
X117071548Y-49756190D02*
X116485834Y-49599999D01*
X116485834Y-49599999D02*
X117071548Y-49443809D01*
X117071548Y-49443809D02*
X116251548Y-49248571D01*
X116329643Y-48975237D02*
X116290596Y-48936189D01*
X116290596Y-48936189D02*
X116251548Y-48858094D01*
X116251548Y-48858094D02*
X116251548Y-48662856D01*
X116251548Y-48662856D02*
X116290596Y-48584761D01*
X116290596Y-48584761D02*
X116329643Y-48545713D01*
X116329643Y-48545713D02*
X116407739Y-48506666D01*
X116407739Y-48506666D02*
X116485834Y-48506666D01*
X116485834Y-48506666D02*
X116602977Y-48545713D01*
X116602977Y-48545713D02*
X117071548Y-49014285D01*
X117071548Y-49014285D02*
X117071548Y-48506666D01*
X108893453Y-46327142D02*
X108932501Y-46366190D01*
X108932501Y-46366190D02*
X108971548Y-46483332D01*
X108971548Y-46483332D02*
X108971548Y-46561428D01*
X108971548Y-46561428D02*
X108932501Y-46678571D01*
X108932501Y-46678571D02*
X108854405Y-46756666D01*
X108854405Y-46756666D02*
X108776310Y-46795713D01*
X108776310Y-46795713D02*
X108620120Y-46834761D01*
X108620120Y-46834761D02*
X108502977Y-46834761D01*
X108502977Y-46834761D02*
X108346786Y-46795713D01*
X108346786Y-46795713D02*
X108268691Y-46756666D01*
X108268691Y-46756666D02*
X108190596Y-46678571D01*
X108190596Y-46678571D02*
X108151548Y-46561428D01*
X108151548Y-46561428D02*
X108151548Y-46483332D01*
X108151548Y-46483332D02*
X108190596Y-46366190D01*
X108190596Y-46366190D02*
X108229643Y-46327142D01*
X108424881Y-45624285D02*
X108971548Y-45624285D01*
X108112501Y-45819523D02*
X108698215Y-46014761D01*
X108698215Y-46014761D02*
X108698215Y-45507142D01*
X108151548Y-45272857D02*
X108151548Y-44726190D01*
X108151548Y-44726190D02*
X108971548Y-45077619D01*
X86172857Y-41293453D02*
X86133809Y-41332501D01*
X86133809Y-41332501D02*
X86016667Y-41371548D01*
X86016667Y-41371548D02*
X85938571Y-41371548D01*
X85938571Y-41371548D02*
X85821428Y-41332501D01*
X85821428Y-41332501D02*
X85743333Y-41254405D01*
X85743333Y-41254405D02*
X85704286Y-41176310D01*
X85704286Y-41176310D02*
X85665238Y-41020120D01*
X85665238Y-41020120D02*
X85665238Y-40902977D01*
X85665238Y-40902977D02*
X85704286Y-40746786D01*
X85704286Y-40746786D02*
X85743333Y-40668691D01*
X85743333Y-40668691D02*
X85821428Y-40590596D01*
X85821428Y-40590596D02*
X85938571Y-40551548D01*
X85938571Y-40551548D02*
X86016667Y-40551548D01*
X86016667Y-40551548D02*
X86133809Y-40590596D01*
X86133809Y-40590596D02*
X86172857Y-40629643D01*
X86953809Y-41371548D02*
X86485238Y-41371548D01*
X86719524Y-41371548D02*
X86719524Y-40551548D01*
X86719524Y-40551548D02*
X86641428Y-40668691D01*
X86641428Y-40668691D02*
X86563333Y-40746786D01*
X86563333Y-40746786D02*
X86485238Y-40785834D01*
X87734761Y-41371548D02*
X87266190Y-41371548D01*
X87500476Y-41371548D02*
X87500476Y-40551548D01*
X87500476Y-40551548D02*
X87422380Y-40668691D01*
X87422380Y-40668691D02*
X87344285Y-40746786D01*
X87344285Y-40746786D02*
X87266190Y-40785834D01*
X116342024Y-59883332D02*
X116342024Y-60156665D01*
X116771548Y-60156665D02*
X115951548Y-60156665D01*
X115951548Y-60156665D02*
X115951548Y-59766189D01*
X116342024Y-59180475D02*
X116381072Y-59063332D01*
X116381072Y-59063332D02*
X116420120Y-59024285D01*
X116420120Y-59024285D02*
X116498215Y-58985237D01*
X116498215Y-58985237D02*
X116615358Y-58985237D01*
X116615358Y-58985237D02*
X116693453Y-59024285D01*
X116693453Y-59024285D02*
X116732501Y-59063332D01*
X116732501Y-59063332D02*
X116771548Y-59141427D01*
X116771548Y-59141427D02*
X116771548Y-59453808D01*
X116771548Y-59453808D02*
X115951548Y-59453808D01*
X115951548Y-59453808D02*
X115951548Y-59180475D01*
X115951548Y-59180475D02*
X115990596Y-59102380D01*
X115990596Y-59102380D02*
X116029643Y-59063332D01*
X116029643Y-59063332D02*
X116107739Y-59024285D01*
X116107739Y-59024285D02*
X116185834Y-59024285D01*
X116185834Y-59024285D02*
X116263929Y-59063332D01*
X116263929Y-59063332D02*
X116302977Y-59102380D01*
X116302977Y-59102380D02*
X116342024Y-59180475D01*
X116342024Y-59180475D02*
X116342024Y-59453808D01*
X116771548Y-58204285D02*
X116771548Y-58672856D01*
X116771548Y-58438570D02*
X115951548Y-58438570D01*
X115951548Y-58438570D02*
X116068691Y-58516666D01*
X116068691Y-58516666D02*
X116146786Y-58594761D01*
X116146786Y-58594761D02*
X116185834Y-58672856D01*
X115971548Y-31546666D02*
X115971548Y-31937142D01*
X115971548Y-31937142D02*
X115151548Y-31937142D01*
X115971548Y-31273332D02*
X115151548Y-31273332D01*
X115151548Y-31273332D02*
X115151548Y-31078094D01*
X115151548Y-31078094D02*
X115190596Y-30960951D01*
X115190596Y-30960951D02*
X115268691Y-30882856D01*
X115268691Y-30882856D02*
X115346786Y-30843809D01*
X115346786Y-30843809D02*
X115502977Y-30804761D01*
X115502977Y-30804761D02*
X115620120Y-30804761D01*
X115620120Y-30804761D02*
X115776310Y-30843809D01*
X115776310Y-30843809D02*
X115854405Y-30882856D01*
X115854405Y-30882856D02*
X115932501Y-30960951D01*
X115932501Y-30960951D02*
X115971548Y-31078094D01*
X115971548Y-31078094D02*
X115971548Y-31273332D01*
X115229643Y-30492380D02*
X115190596Y-30453332D01*
X115190596Y-30453332D02*
X115151548Y-30375237D01*
X115151548Y-30375237D02*
X115151548Y-30179999D01*
X115151548Y-30179999D02*
X115190596Y-30101904D01*
X115190596Y-30101904D02*
X115229643Y-30062856D01*
X115229643Y-30062856D02*
X115307739Y-30023809D01*
X115307739Y-30023809D02*
X115385834Y-30023809D01*
X115385834Y-30023809D02*
X115502977Y-30062856D01*
X115502977Y-30062856D02*
X115971548Y-30531428D01*
X115971548Y-30531428D02*
X115971548Y-30023809D01*
X90853453Y-69927142D02*
X90892501Y-69966190D01*
X90892501Y-69966190D02*
X90931548Y-70083332D01*
X90931548Y-70083332D02*
X90931548Y-70161428D01*
X90931548Y-70161428D02*
X90892501Y-70278571D01*
X90892501Y-70278571D02*
X90814405Y-70356666D01*
X90814405Y-70356666D02*
X90736310Y-70395713D01*
X90736310Y-70395713D02*
X90580120Y-70434761D01*
X90580120Y-70434761D02*
X90462977Y-70434761D01*
X90462977Y-70434761D02*
X90306786Y-70395713D01*
X90306786Y-70395713D02*
X90228691Y-70356666D01*
X90228691Y-70356666D02*
X90150596Y-70278571D01*
X90150596Y-70278571D02*
X90111548Y-70161428D01*
X90111548Y-70161428D02*
X90111548Y-70083332D01*
X90111548Y-70083332D02*
X90150596Y-69966190D01*
X90150596Y-69966190D02*
X90189643Y-69927142D01*
X90384881Y-69224285D02*
X90931548Y-69224285D01*
X90072501Y-69419523D02*
X90658215Y-69614761D01*
X90658215Y-69614761D02*
X90658215Y-69107142D01*
X90111548Y-68872857D02*
X90111548Y-68365238D01*
X90111548Y-68365238D02*
X90423929Y-68638571D01*
X90423929Y-68638571D02*
X90423929Y-68521428D01*
X90423929Y-68521428D02*
X90462977Y-68443333D01*
X90462977Y-68443333D02*
X90502024Y-68404285D01*
X90502024Y-68404285D02*
X90580120Y-68365238D01*
X90580120Y-68365238D02*
X90775358Y-68365238D01*
X90775358Y-68365238D02*
X90853453Y-68404285D01*
X90853453Y-68404285D02*
X90892501Y-68443333D01*
X90892501Y-68443333D02*
X90931548Y-68521428D01*
X90931548Y-68521428D02*
X90931548Y-68755714D01*
X90931548Y-68755714D02*
X90892501Y-68833809D01*
X90892501Y-68833809D02*
X90853453Y-68872857D01*
X113512857Y-54693453D02*
X113473809Y-54732501D01*
X113473809Y-54732501D02*
X113356667Y-54771548D01*
X113356667Y-54771548D02*
X113278571Y-54771548D01*
X113278571Y-54771548D02*
X113161428Y-54732501D01*
X113161428Y-54732501D02*
X113083333Y-54654405D01*
X113083333Y-54654405D02*
X113044286Y-54576310D01*
X113044286Y-54576310D02*
X113005238Y-54420120D01*
X113005238Y-54420120D02*
X113005238Y-54302977D01*
X113005238Y-54302977D02*
X113044286Y-54146786D01*
X113044286Y-54146786D02*
X113083333Y-54068691D01*
X113083333Y-54068691D02*
X113161428Y-53990596D01*
X113161428Y-53990596D02*
X113278571Y-53951548D01*
X113278571Y-53951548D02*
X113356667Y-53951548D01*
X113356667Y-53951548D02*
X113473809Y-53990596D01*
X113473809Y-53990596D02*
X113512857Y-54029643D01*
X114293809Y-54771548D02*
X113825238Y-54771548D01*
X114059524Y-54771548D02*
X114059524Y-53951548D01*
X114059524Y-53951548D02*
X113981428Y-54068691D01*
X113981428Y-54068691D02*
X113903333Y-54146786D01*
X113903333Y-54146786D02*
X113825238Y-54185834D01*
X114762380Y-54302977D02*
X114684285Y-54263929D01*
X114684285Y-54263929D02*
X114645238Y-54224881D01*
X114645238Y-54224881D02*
X114606190Y-54146786D01*
X114606190Y-54146786D02*
X114606190Y-54107739D01*
X114606190Y-54107739D02*
X114645238Y-54029643D01*
X114645238Y-54029643D02*
X114684285Y-53990596D01*
X114684285Y-53990596D02*
X114762380Y-53951548D01*
X114762380Y-53951548D02*
X114918571Y-53951548D01*
X114918571Y-53951548D02*
X114996666Y-53990596D01*
X114996666Y-53990596D02*
X115035714Y-54029643D01*
X115035714Y-54029643D02*
X115074761Y-54107739D01*
X115074761Y-54107739D02*
X115074761Y-54146786D01*
X115074761Y-54146786D02*
X115035714Y-54224881D01*
X115035714Y-54224881D02*
X114996666Y-54263929D01*
X114996666Y-54263929D02*
X114918571Y-54302977D01*
X114918571Y-54302977D02*
X114762380Y-54302977D01*
X114762380Y-54302977D02*
X114684285Y-54342024D01*
X114684285Y-54342024D02*
X114645238Y-54381072D01*
X114645238Y-54381072D02*
X114606190Y-54459167D01*
X114606190Y-54459167D02*
X114606190Y-54615358D01*
X114606190Y-54615358D02*
X114645238Y-54693453D01*
X114645238Y-54693453D02*
X114684285Y-54732501D01*
X114684285Y-54732501D02*
X114762380Y-54771548D01*
X114762380Y-54771548D02*
X114918571Y-54771548D01*
X114918571Y-54771548D02*
X114996666Y-54732501D01*
X114996666Y-54732501D02*
X115035714Y-54693453D01*
X115035714Y-54693453D02*
X115074761Y-54615358D01*
X115074761Y-54615358D02*
X115074761Y-54459167D01*
X115074761Y-54459167D02*
X115035714Y-54381072D01*
X115035714Y-54381072D02*
X114996666Y-54342024D01*
X114996666Y-54342024D02*
X114918571Y-54302977D01*
X121863453Y-51627142D02*
X121902501Y-51666190D01*
X121902501Y-51666190D02*
X121941548Y-51783332D01*
X121941548Y-51783332D02*
X121941548Y-51861428D01*
X121941548Y-51861428D02*
X121902501Y-51978571D01*
X121902501Y-51978571D02*
X121824405Y-52056666D01*
X121824405Y-52056666D02*
X121746310Y-52095713D01*
X121746310Y-52095713D02*
X121590120Y-52134761D01*
X121590120Y-52134761D02*
X121472977Y-52134761D01*
X121472977Y-52134761D02*
X121316786Y-52095713D01*
X121316786Y-52095713D02*
X121238691Y-52056666D01*
X121238691Y-52056666D02*
X121160596Y-51978571D01*
X121160596Y-51978571D02*
X121121548Y-51861428D01*
X121121548Y-51861428D02*
X121121548Y-51783332D01*
X121121548Y-51783332D02*
X121160596Y-51666190D01*
X121160596Y-51666190D02*
X121199643Y-51627142D01*
X121199643Y-51314761D02*
X121160596Y-51275713D01*
X121160596Y-51275713D02*
X121121548Y-51197618D01*
X121121548Y-51197618D02*
X121121548Y-51002380D01*
X121121548Y-51002380D02*
X121160596Y-50924285D01*
X121160596Y-50924285D02*
X121199643Y-50885237D01*
X121199643Y-50885237D02*
X121277739Y-50846190D01*
X121277739Y-50846190D02*
X121355834Y-50846190D01*
X121355834Y-50846190D02*
X121472977Y-50885237D01*
X121472977Y-50885237D02*
X121941548Y-51353809D01*
X121941548Y-51353809D02*
X121941548Y-50846190D01*
X121121548Y-50104285D02*
X121121548Y-50494761D01*
X121121548Y-50494761D02*
X121512024Y-50533809D01*
X121512024Y-50533809D02*
X121472977Y-50494761D01*
X121472977Y-50494761D02*
X121433929Y-50416666D01*
X121433929Y-50416666D02*
X121433929Y-50221428D01*
X121433929Y-50221428D02*
X121472977Y-50143333D01*
X121472977Y-50143333D02*
X121512024Y-50104285D01*
X121512024Y-50104285D02*
X121590120Y-50065238D01*
X121590120Y-50065238D02*
X121785358Y-50065238D01*
X121785358Y-50065238D02*
X121863453Y-50104285D01*
X121863453Y-50104285D02*
X121902501Y-50143333D01*
X121902501Y-50143333D02*
X121941548Y-50221428D01*
X121941548Y-50221428D02*
X121941548Y-50416666D01*
X121941548Y-50416666D02*
X121902501Y-50494761D01*
X121902501Y-50494761D02*
X121863453Y-50533809D01*
X104493453Y-59327142D02*
X104532501Y-59366190D01*
X104532501Y-59366190D02*
X104571548Y-59483332D01*
X104571548Y-59483332D02*
X104571548Y-59561428D01*
X104571548Y-59561428D02*
X104532501Y-59678571D01*
X104532501Y-59678571D02*
X104454405Y-59756666D01*
X104454405Y-59756666D02*
X104376310Y-59795713D01*
X104376310Y-59795713D02*
X104220120Y-59834761D01*
X104220120Y-59834761D02*
X104102977Y-59834761D01*
X104102977Y-59834761D02*
X103946786Y-59795713D01*
X103946786Y-59795713D02*
X103868691Y-59756666D01*
X103868691Y-59756666D02*
X103790596Y-59678571D01*
X103790596Y-59678571D02*
X103751548Y-59561428D01*
X103751548Y-59561428D02*
X103751548Y-59483332D01*
X103751548Y-59483332D02*
X103790596Y-59366190D01*
X103790596Y-59366190D02*
X103829643Y-59327142D01*
X103751548Y-59053809D02*
X103751548Y-58546190D01*
X103751548Y-58546190D02*
X104063929Y-58819523D01*
X104063929Y-58819523D02*
X104063929Y-58702380D01*
X104063929Y-58702380D02*
X104102977Y-58624285D01*
X104102977Y-58624285D02*
X104142024Y-58585237D01*
X104142024Y-58585237D02*
X104220120Y-58546190D01*
X104220120Y-58546190D02*
X104415358Y-58546190D01*
X104415358Y-58546190D02*
X104493453Y-58585237D01*
X104493453Y-58585237D02*
X104532501Y-58624285D01*
X104532501Y-58624285D02*
X104571548Y-58702380D01*
X104571548Y-58702380D02*
X104571548Y-58936666D01*
X104571548Y-58936666D02*
X104532501Y-59014761D01*
X104532501Y-59014761D02*
X104493453Y-59053809D01*
X103751548Y-57843333D02*
X103751548Y-57999523D01*
X103751548Y-57999523D02*
X103790596Y-58077619D01*
X103790596Y-58077619D02*
X103829643Y-58116666D01*
X103829643Y-58116666D02*
X103946786Y-58194761D01*
X103946786Y-58194761D02*
X104102977Y-58233809D01*
X104102977Y-58233809D02*
X104415358Y-58233809D01*
X104415358Y-58233809D02*
X104493453Y-58194761D01*
X104493453Y-58194761D02*
X104532501Y-58155714D01*
X104532501Y-58155714D02*
X104571548Y-58077619D01*
X104571548Y-58077619D02*
X104571548Y-57921428D01*
X104571548Y-57921428D02*
X104532501Y-57843333D01*
X104532501Y-57843333D02*
X104493453Y-57804285D01*
X104493453Y-57804285D02*
X104415358Y-57765238D01*
X104415358Y-57765238D02*
X104220120Y-57765238D01*
X104220120Y-57765238D02*
X104142024Y-57804285D01*
X104142024Y-57804285D02*
X104102977Y-57843333D01*
X104102977Y-57843333D02*
X104063929Y-57921428D01*
X104063929Y-57921428D02*
X104063929Y-58077619D01*
X104063929Y-58077619D02*
X104102977Y-58155714D01*
X104102977Y-58155714D02*
X104142024Y-58194761D01*
X104142024Y-58194761D02*
X104220120Y-58233809D01*
X122311548Y-59427142D02*
X121921072Y-59700475D01*
X122311548Y-59895713D02*
X121491548Y-59895713D01*
X121491548Y-59895713D02*
X121491548Y-59583332D01*
X121491548Y-59583332D02*
X121530596Y-59505237D01*
X121530596Y-59505237D02*
X121569643Y-59466190D01*
X121569643Y-59466190D02*
X121647739Y-59427142D01*
X121647739Y-59427142D02*
X121764881Y-59427142D01*
X121764881Y-59427142D02*
X121842977Y-59466190D01*
X121842977Y-59466190D02*
X121882024Y-59505237D01*
X121882024Y-59505237D02*
X121921072Y-59583332D01*
X121921072Y-59583332D02*
X121921072Y-59895713D01*
X121569643Y-59114761D02*
X121530596Y-59075713D01*
X121530596Y-59075713D02*
X121491548Y-58997618D01*
X121491548Y-58997618D02*
X121491548Y-58802380D01*
X121491548Y-58802380D02*
X121530596Y-58724285D01*
X121530596Y-58724285D02*
X121569643Y-58685237D01*
X121569643Y-58685237D02*
X121647739Y-58646190D01*
X121647739Y-58646190D02*
X121725834Y-58646190D01*
X121725834Y-58646190D02*
X121842977Y-58685237D01*
X121842977Y-58685237D02*
X122311548Y-59153809D01*
X122311548Y-59153809D02*
X122311548Y-58646190D01*
X121491548Y-58138571D02*
X121491548Y-58060476D01*
X121491548Y-58060476D02*
X121530596Y-57982380D01*
X121530596Y-57982380D02*
X121569643Y-57943333D01*
X121569643Y-57943333D02*
X121647739Y-57904285D01*
X121647739Y-57904285D02*
X121803929Y-57865238D01*
X121803929Y-57865238D02*
X121999167Y-57865238D01*
X121999167Y-57865238D02*
X122155358Y-57904285D01*
X122155358Y-57904285D02*
X122233453Y-57943333D01*
X122233453Y-57943333D02*
X122272501Y-57982380D01*
X122272501Y-57982380D02*
X122311548Y-58060476D01*
X122311548Y-58060476D02*
X122311548Y-58138571D01*
X122311548Y-58138571D02*
X122272501Y-58216666D01*
X122272501Y-58216666D02*
X122233453Y-58255714D01*
X122233453Y-58255714D02*
X122155358Y-58294761D01*
X122155358Y-58294761D02*
X121999167Y-58333809D01*
X121999167Y-58333809D02*
X121803929Y-58333809D01*
X121803929Y-58333809D02*
X121647739Y-58294761D01*
X121647739Y-58294761D02*
X121569643Y-58255714D01*
X121569643Y-58255714D02*
X121530596Y-58216666D01*
X121530596Y-58216666D02*
X121491548Y-58138571D01*
X80972857Y-41271548D02*
X80699524Y-40881072D01*
X80504286Y-41271548D02*
X80504286Y-40451548D01*
X80504286Y-40451548D02*
X80816667Y-40451548D01*
X80816667Y-40451548D02*
X80894762Y-40490596D01*
X80894762Y-40490596D02*
X80933809Y-40529643D01*
X80933809Y-40529643D02*
X80972857Y-40607739D01*
X80972857Y-40607739D02*
X80972857Y-40724881D01*
X80972857Y-40724881D02*
X80933809Y-40802977D01*
X80933809Y-40802977D02*
X80894762Y-40842024D01*
X80894762Y-40842024D02*
X80816667Y-40881072D01*
X80816667Y-40881072D02*
X80504286Y-40881072D01*
X81753809Y-41271548D02*
X81285238Y-41271548D01*
X81519524Y-41271548D02*
X81519524Y-40451548D01*
X81519524Y-40451548D02*
X81441428Y-40568691D01*
X81441428Y-40568691D02*
X81363333Y-40646786D01*
X81363333Y-40646786D02*
X81285238Y-40685834D01*
X82261428Y-40451548D02*
X82339523Y-40451548D01*
X82339523Y-40451548D02*
X82417619Y-40490596D01*
X82417619Y-40490596D02*
X82456666Y-40529643D01*
X82456666Y-40529643D02*
X82495714Y-40607739D01*
X82495714Y-40607739D02*
X82534761Y-40763929D01*
X82534761Y-40763929D02*
X82534761Y-40959167D01*
X82534761Y-40959167D02*
X82495714Y-41115358D01*
X82495714Y-41115358D02*
X82456666Y-41193453D01*
X82456666Y-41193453D02*
X82417619Y-41232501D01*
X82417619Y-41232501D02*
X82339523Y-41271548D01*
X82339523Y-41271548D02*
X82261428Y-41271548D01*
X82261428Y-41271548D02*
X82183333Y-41232501D01*
X82183333Y-41232501D02*
X82144285Y-41193453D01*
X82144285Y-41193453D02*
X82105238Y-41115358D01*
X82105238Y-41115358D02*
X82066190Y-40959167D01*
X82066190Y-40959167D02*
X82066190Y-40763929D01*
X82066190Y-40763929D02*
X82105238Y-40607739D01*
X82105238Y-40607739D02*
X82144285Y-40529643D01*
X82144285Y-40529643D02*
X82183333Y-40490596D01*
X82183333Y-40490596D02*
X82261428Y-40451548D01*
X109673333Y-34441548D02*
X109400000Y-34051072D01*
X109204762Y-34441548D02*
X109204762Y-33621548D01*
X109204762Y-33621548D02*
X109517143Y-33621548D01*
X109517143Y-33621548D02*
X109595238Y-33660596D01*
X109595238Y-33660596D02*
X109634285Y-33699643D01*
X109634285Y-33699643D02*
X109673333Y-33777739D01*
X109673333Y-33777739D02*
X109673333Y-33894881D01*
X109673333Y-33894881D02*
X109634285Y-33972977D01*
X109634285Y-33972977D02*
X109595238Y-34012024D01*
X109595238Y-34012024D02*
X109517143Y-34051072D01*
X109517143Y-34051072D02*
X109204762Y-34051072D01*
X110141904Y-33972977D02*
X110063809Y-33933929D01*
X110063809Y-33933929D02*
X110024762Y-33894881D01*
X110024762Y-33894881D02*
X109985714Y-33816786D01*
X109985714Y-33816786D02*
X109985714Y-33777739D01*
X109985714Y-33777739D02*
X110024762Y-33699643D01*
X110024762Y-33699643D02*
X110063809Y-33660596D01*
X110063809Y-33660596D02*
X110141904Y-33621548D01*
X110141904Y-33621548D02*
X110298095Y-33621548D01*
X110298095Y-33621548D02*
X110376190Y-33660596D01*
X110376190Y-33660596D02*
X110415238Y-33699643D01*
X110415238Y-33699643D02*
X110454285Y-33777739D01*
X110454285Y-33777739D02*
X110454285Y-33816786D01*
X110454285Y-33816786D02*
X110415238Y-33894881D01*
X110415238Y-33894881D02*
X110376190Y-33933929D01*
X110376190Y-33933929D02*
X110298095Y-33972977D01*
X110298095Y-33972977D02*
X110141904Y-33972977D01*
X110141904Y-33972977D02*
X110063809Y-34012024D01*
X110063809Y-34012024D02*
X110024762Y-34051072D01*
X110024762Y-34051072D02*
X109985714Y-34129167D01*
X109985714Y-34129167D02*
X109985714Y-34285358D01*
X109985714Y-34285358D02*
X110024762Y-34363453D01*
X110024762Y-34363453D02*
X110063809Y-34402501D01*
X110063809Y-34402501D02*
X110141904Y-34441548D01*
X110141904Y-34441548D02*
X110298095Y-34441548D01*
X110298095Y-34441548D02*
X110376190Y-34402501D01*
X110376190Y-34402501D02*
X110415238Y-34363453D01*
X110415238Y-34363453D02*
X110454285Y-34285358D01*
X110454285Y-34285358D02*
X110454285Y-34129167D01*
X110454285Y-34129167D02*
X110415238Y-34051072D01*
X110415238Y-34051072D02*
X110376190Y-34012024D01*
X110376190Y-34012024D02*
X110298095Y-33972977D01*
X97371548Y-72327142D02*
X96981072Y-72600475D01*
X97371548Y-72795713D02*
X96551548Y-72795713D01*
X96551548Y-72795713D02*
X96551548Y-72483332D01*
X96551548Y-72483332D02*
X96590596Y-72405237D01*
X96590596Y-72405237D02*
X96629643Y-72366190D01*
X96629643Y-72366190D02*
X96707739Y-72327142D01*
X96707739Y-72327142D02*
X96824881Y-72327142D01*
X96824881Y-72327142D02*
X96902977Y-72366190D01*
X96902977Y-72366190D02*
X96942024Y-72405237D01*
X96942024Y-72405237D02*
X96981072Y-72483332D01*
X96981072Y-72483332D02*
X96981072Y-72795713D01*
X97371548Y-71546190D02*
X97371548Y-72014761D01*
X97371548Y-71780475D02*
X96551548Y-71780475D01*
X96551548Y-71780475D02*
X96668691Y-71858571D01*
X96668691Y-71858571D02*
X96746786Y-71936666D01*
X96746786Y-71936666D02*
X96785834Y-72014761D01*
X96629643Y-71233809D02*
X96590596Y-71194761D01*
X96590596Y-71194761D02*
X96551548Y-71116666D01*
X96551548Y-71116666D02*
X96551548Y-70921428D01*
X96551548Y-70921428D02*
X96590596Y-70843333D01*
X96590596Y-70843333D02*
X96629643Y-70804285D01*
X96629643Y-70804285D02*
X96707739Y-70765238D01*
X96707739Y-70765238D02*
X96785834Y-70765238D01*
X96785834Y-70765238D02*
X96902977Y-70804285D01*
X96902977Y-70804285D02*
X97371548Y-71272857D01*
X97371548Y-71272857D02*
X97371548Y-70765238D01*
X113472857Y-53693453D02*
X113433809Y-53732501D01*
X113433809Y-53732501D02*
X113316667Y-53771548D01*
X113316667Y-53771548D02*
X113238571Y-53771548D01*
X113238571Y-53771548D02*
X113121428Y-53732501D01*
X113121428Y-53732501D02*
X113043333Y-53654405D01*
X113043333Y-53654405D02*
X113004286Y-53576310D01*
X113004286Y-53576310D02*
X112965238Y-53420120D01*
X112965238Y-53420120D02*
X112965238Y-53302977D01*
X112965238Y-53302977D02*
X113004286Y-53146786D01*
X113004286Y-53146786D02*
X113043333Y-53068691D01*
X113043333Y-53068691D02*
X113121428Y-52990596D01*
X113121428Y-52990596D02*
X113238571Y-52951548D01*
X113238571Y-52951548D02*
X113316667Y-52951548D01*
X113316667Y-52951548D02*
X113433809Y-52990596D01*
X113433809Y-52990596D02*
X113472857Y-53029643D01*
X113785238Y-53029643D02*
X113824286Y-52990596D01*
X113824286Y-52990596D02*
X113902381Y-52951548D01*
X113902381Y-52951548D02*
X114097619Y-52951548D01*
X114097619Y-52951548D02*
X114175714Y-52990596D01*
X114175714Y-52990596D02*
X114214762Y-53029643D01*
X114214762Y-53029643D02*
X114253809Y-53107739D01*
X114253809Y-53107739D02*
X114253809Y-53185834D01*
X114253809Y-53185834D02*
X114214762Y-53302977D01*
X114214762Y-53302977D02*
X113746190Y-53771548D01*
X113746190Y-53771548D02*
X114253809Y-53771548D01*
X114761428Y-52951548D02*
X114839523Y-52951548D01*
X114839523Y-52951548D02*
X114917619Y-52990596D01*
X114917619Y-52990596D02*
X114956666Y-53029643D01*
X114956666Y-53029643D02*
X114995714Y-53107739D01*
X114995714Y-53107739D02*
X115034761Y-53263929D01*
X115034761Y-53263929D02*
X115034761Y-53459167D01*
X115034761Y-53459167D02*
X114995714Y-53615358D01*
X114995714Y-53615358D02*
X114956666Y-53693453D01*
X114956666Y-53693453D02*
X114917619Y-53732501D01*
X114917619Y-53732501D02*
X114839523Y-53771548D01*
X114839523Y-53771548D02*
X114761428Y-53771548D01*
X114761428Y-53771548D02*
X114683333Y-53732501D01*
X114683333Y-53732501D02*
X114644285Y-53693453D01*
X114644285Y-53693453D02*
X114605238Y-53615358D01*
X114605238Y-53615358D02*
X114566190Y-53459167D01*
X114566190Y-53459167D02*
X114566190Y-53263929D01*
X114566190Y-53263929D02*
X114605238Y-53107739D01*
X114605238Y-53107739D02*
X114644285Y-53029643D01*
X114644285Y-53029643D02*
X114683333Y-52990596D01*
X114683333Y-52990596D02*
X114761428Y-52951548D01*
X127263333Y-31771548D02*
X126990000Y-31381072D01*
X126794762Y-31771548D02*
X126794762Y-30951548D01*
X126794762Y-30951548D02*
X127107143Y-30951548D01*
X127107143Y-30951548D02*
X127185238Y-30990596D01*
X127185238Y-30990596D02*
X127224285Y-31029643D01*
X127224285Y-31029643D02*
X127263333Y-31107739D01*
X127263333Y-31107739D02*
X127263333Y-31224881D01*
X127263333Y-31224881D02*
X127224285Y-31302977D01*
X127224285Y-31302977D02*
X127185238Y-31342024D01*
X127185238Y-31342024D02*
X127107143Y-31381072D01*
X127107143Y-31381072D02*
X126794762Y-31381072D01*
X127575714Y-31029643D02*
X127614762Y-30990596D01*
X127614762Y-30990596D02*
X127692857Y-30951548D01*
X127692857Y-30951548D02*
X127888095Y-30951548D01*
X127888095Y-30951548D02*
X127966190Y-30990596D01*
X127966190Y-30990596D02*
X128005238Y-31029643D01*
X128005238Y-31029643D02*
X128044285Y-31107739D01*
X128044285Y-31107739D02*
X128044285Y-31185834D01*
X128044285Y-31185834D02*
X128005238Y-31302977D01*
X128005238Y-31302977D02*
X127536666Y-31771548D01*
X127536666Y-31771548D02*
X128044285Y-31771548D01*
X117192857Y-62293453D02*
X117153809Y-62332501D01*
X117153809Y-62332501D02*
X117036667Y-62371548D01*
X117036667Y-62371548D02*
X116958571Y-62371548D01*
X116958571Y-62371548D02*
X116841428Y-62332501D01*
X116841428Y-62332501D02*
X116763333Y-62254405D01*
X116763333Y-62254405D02*
X116724286Y-62176310D01*
X116724286Y-62176310D02*
X116685238Y-62020120D01*
X116685238Y-62020120D02*
X116685238Y-61902977D01*
X116685238Y-61902977D02*
X116724286Y-61746786D01*
X116724286Y-61746786D02*
X116763333Y-61668691D01*
X116763333Y-61668691D02*
X116841428Y-61590596D01*
X116841428Y-61590596D02*
X116958571Y-61551548D01*
X116958571Y-61551548D02*
X117036667Y-61551548D01*
X117036667Y-61551548D02*
X117153809Y-61590596D01*
X117153809Y-61590596D02*
X117192857Y-61629643D01*
X117466190Y-61551548D02*
X117973809Y-61551548D01*
X117973809Y-61551548D02*
X117700476Y-61863929D01*
X117700476Y-61863929D02*
X117817619Y-61863929D01*
X117817619Y-61863929D02*
X117895714Y-61902977D01*
X117895714Y-61902977D02*
X117934762Y-61942024D01*
X117934762Y-61942024D02*
X117973809Y-62020120D01*
X117973809Y-62020120D02*
X117973809Y-62215358D01*
X117973809Y-62215358D02*
X117934762Y-62293453D01*
X117934762Y-62293453D02*
X117895714Y-62332501D01*
X117895714Y-62332501D02*
X117817619Y-62371548D01*
X117817619Y-62371548D02*
X117583333Y-62371548D01*
X117583333Y-62371548D02*
X117505238Y-62332501D01*
X117505238Y-62332501D02*
X117466190Y-62293453D01*
X118247142Y-61551548D02*
X118754761Y-61551548D01*
X118754761Y-61551548D02*
X118481428Y-61863929D01*
X118481428Y-61863929D02*
X118598571Y-61863929D01*
X118598571Y-61863929D02*
X118676666Y-61902977D01*
X118676666Y-61902977D02*
X118715714Y-61942024D01*
X118715714Y-61942024D02*
X118754761Y-62020120D01*
X118754761Y-62020120D02*
X118754761Y-62215358D01*
X118754761Y-62215358D02*
X118715714Y-62293453D01*
X118715714Y-62293453D02*
X118676666Y-62332501D01*
X118676666Y-62332501D02*
X118598571Y-62371548D01*
X118598571Y-62371548D02*
X118364285Y-62371548D01*
X118364285Y-62371548D02*
X118286190Y-62332501D01*
X118286190Y-62332501D02*
X118247142Y-62293453D01*
X104863333Y-52093453D02*
X104824285Y-52132501D01*
X104824285Y-52132501D02*
X104707143Y-52171548D01*
X104707143Y-52171548D02*
X104629047Y-52171548D01*
X104629047Y-52171548D02*
X104511904Y-52132501D01*
X104511904Y-52132501D02*
X104433809Y-52054405D01*
X104433809Y-52054405D02*
X104394762Y-51976310D01*
X104394762Y-51976310D02*
X104355714Y-51820120D01*
X104355714Y-51820120D02*
X104355714Y-51702977D01*
X104355714Y-51702977D02*
X104394762Y-51546786D01*
X104394762Y-51546786D02*
X104433809Y-51468691D01*
X104433809Y-51468691D02*
X104511904Y-51390596D01*
X104511904Y-51390596D02*
X104629047Y-51351548D01*
X104629047Y-51351548D02*
X104707143Y-51351548D01*
X104707143Y-51351548D02*
X104824285Y-51390596D01*
X104824285Y-51390596D02*
X104863333Y-51429643D01*
X105644285Y-52171548D02*
X105175714Y-52171548D01*
X105410000Y-52171548D02*
X105410000Y-51351548D01*
X105410000Y-51351548D02*
X105331904Y-51468691D01*
X105331904Y-51468691D02*
X105253809Y-51546786D01*
X105253809Y-51546786D02*
X105175714Y-51585834D01*
X121792857Y-64541548D02*
X121519524Y-64151072D01*
X121324286Y-64541548D02*
X121324286Y-63721548D01*
X121324286Y-63721548D02*
X121636667Y-63721548D01*
X121636667Y-63721548D02*
X121714762Y-63760596D01*
X121714762Y-63760596D02*
X121753809Y-63799643D01*
X121753809Y-63799643D02*
X121792857Y-63877739D01*
X121792857Y-63877739D02*
X121792857Y-63994881D01*
X121792857Y-63994881D02*
X121753809Y-64072977D01*
X121753809Y-64072977D02*
X121714762Y-64112024D01*
X121714762Y-64112024D02*
X121636667Y-64151072D01*
X121636667Y-64151072D02*
X121324286Y-64151072D01*
X122105238Y-63799643D02*
X122144286Y-63760596D01*
X122144286Y-63760596D02*
X122222381Y-63721548D01*
X122222381Y-63721548D02*
X122417619Y-63721548D01*
X122417619Y-63721548D02*
X122495714Y-63760596D01*
X122495714Y-63760596D02*
X122534762Y-63799643D01*
X122534762Y-63799643D02*
X122573809Y-63877739D01*
X122573809Y-63877739D02*
X122573809Y-63955834D01*
X122573809Y-63955834D02*
X122534762Y-64072977D01*
X122534762Y-64072977D02*
X122066190Y-64541548D01*
X122066190Y-64541548D02*
X122573809Y-64541548D01*
X123276666Y-63721548D02*
X123120476Y-63721548D01*
X123120476Y-63721548D02*
X123042380Y-63760596D01*
X123042380Y-63760596D02*
X123003333Y-63799643D01*
X123003333Y-63799643D02*
X122925238Y-63916786D01*
X122925238Y-63916786D02*
X122886190Y-64072977D01*
X122886190Y-64072977D02*
X122886190Y-64385358D01*
X122886190Y-64385358D02*
X122925238Y-64463453D01*
X122925238Y-64463453D02*
X122964285Y-64502501D01*
X122964285Y-64502501D02*
X123042380Y-64541548D01*
X123042380Y-64541548D02*
X123198571Y-64541548D01*
X123198571Y-64541548D02*
X123276666Y-64502501D01*
X123276666Y-64502501D02*
X123315714Y-64463453D01*
X123315714Y-64463453D02*
X123354761Y-64385358D01*
X123354761Y-64385358D02*
X123354761Y-64190120D01*
X123354761Y-64190120D02*
X123315714Y-64112024D01*
X123315714Y-64112024D02*
X123276666Y-64072977D01*
X123276666Y-64072977D02*
X123198571Y-64033929D01*
X123198571Y-64033929D02*
X123042380Y-64033929D01*
X123042380Y-64033929D02*
X122964285Y-64072977D01*
X122964285Y-64072977D02*
X122925238Y-64112024D01*
X122925238Y-64112024D02*
X122886190Y-64190120D01*
X107851548Y-40773333D02*
X108437262Y-40773333D01*
X108437262Y-40773333D02*
X108554405Y-40812380D01*
X108554405Y-40812380D02*
X108632501Y-40890476D01*
X108632501Y-40890476D02*
X108671548Y-41007618D01*
X108671548Y-41007618D02*
X108671548Y-41085714D01*
X108124881Y-40031428D02*
X108671548Y-40031428D01*
X107812501Y-40226666D02*
X108398215Y-40421904D01*
X108398215Y-40421904D02*
X108398215Y-39914285D01*
X118503453Y-51827142D02*
X118542501Y-51866190D01*
X118542501Y-51866190D02*
X118581548Y-51983332D01*
X118581548Y-51983332D02*
X118581548Y-52061428D01*
X118581548Y-52061428D02*
X118542501Y-52178571D01*
X118542501Y-52178571D02*
X118464405Y-52256666D01*
X118464405Y-52256666D02*
X118386310Y-52295713D01*
X118386310Y-52295713D02*
X118230120Y-52334761D01*
X118230120Y-52334761D02*
X118112977Y-52334761D01*
X118112977Y-52334761D02*
X117956786Y-52295713D01*
X117956786Y-52295713D02*
X117878691Y-52256666D01*
X117878691Y-52256666D02*
X117800596Y-52178571D01*
X117800596Y-52178571D02*
X117761548Y-52061428D01*
X117761548Y-52061428D02*
X117761548Y-51983332D01*
X117761548Y-51983332D02*
X117800596Y-51866190D01*
X117800596Y-51866190D02*
X117839643Y-51827142D01*
X117839643Y-51514761D02*
X117800596Y-51475713D01*
X117800596Y-51475713D02*
X117761548Y-51397618D01*
X117761548Y-51397618D02*
X117761548Y-51202380D01*
X117761548Y-51202380D02*
X117800596Y-51124285D01*
X117800596Y-51124285D02*
X117839643Y-51085237D01*
X117839643Y-51085237D02*
X117917739Y-51046190D01*
X117917739Y-51046190D02*
X117995834Y-51046190D01*
X117995834Y-51046190D02*
X118112977Y-51085237D01*
X118112977Y-51085237D02*
X118581548Y-51553809D01*
X118581548Y-51553809D02*
X118581548Y-51046190D01*
X117761548Y-50343333D02*
X117761548Y-50499523D01*
X117761548Y-50499523D02*
X117800596Y-50577619D01*
X117800596Y-50577619D02*
X117839643Y-50616666D01*
X117839643Y-50616666D02*
X117956786Y-50694761D01*
X117956786Y-50694761D02*
X118112977Y-50733809D01*
X118112977Y-50733809D02*
X118425358Y-50733809D01*
X118425358Y-50733809D02*
X118503453Y-50694761D01*
X118503453Y-50694761D02*
X118542501Y-50655714D01*
X118542501Y-50655714D02*
X118581548Y-50577619D01*
X118581548Y-50577619D02*
X118581548Y-50421428D01*
X118581548Y-50421428D02*
X118542501Y-50343333D01*
X118542501Y-50343333D02*
X118503453Y-50304285D01*
X118503453Y-50304285D02*
X118425358Y-50265238D01*
X118425358Y-50265238D02*
X118230120Y-50265238D01*
X118230120Y-50265238D02*
X118152024Y-50304285D01*
X118152024Y-50304285D02*
X118112977Y-50343333D01*
X118112977Y-50343333D02*
X118073929Y-50421428D01*
X118073929Y-50421428D02*
X118073929Y-50577619D01*
X118073929Y-50577619D02*
X118112977Y-50655714D01*
X118112977Y-50655714D02*
X118152024Y-50694761D01*
X118152024Y-50694761D02*
X118230120Y-50733809D01*
X78303426Y-30014584D02*
X78413869Y-29959362D01*
X78413869Y-29959362D02*
X78469091Y-29959362D01*
X78469091Y-29959362D02*
X78551924Y-29986973D01*
X78551924Y-29986973D02*
X78634756Y-30069805D01*
X78634756Y-30069805D02*
X78662367Y-30152638D01*
X78662367Y-30152638D02*
X78662367Y-30207859D01*
X78662367Y-30207859D02*
X78634756Y-30290692D01*
X78634756Y-30290692D02*
X78413869Y-30511579D01*
X78413869Y-30511579D02*
X77834042Y-29931751D01*
X77834042Y-29931751D02*
X78027318Y-29738475D01*
X78027318Y-29738475D02*
X78110150Y-29710864D01*
X78110150Y-29710864D02*
X78165372Y-29710864D01*
X78165372Y-29710864D02*
X78248204Y-29738475D01*
X78248204Y-29738475D02*
X78303426Y-29793697D01*
X78303426Y-29793697D02*
X78331037Y-29876529D01*
X78331037Y-29876529D02*
X78331037Y-29931751D01*
X78331037Y-29931751D02*
X78303426Y-30014584D01*
X78303426Y-30014584D02*
X78110150Y-30207859D01*
X78331037Y-29434756D02*
X78662367Y-29103426D01*
X79076530Y-29848919D02*
X78496702Y-29269091D01*
X79739190Y-29186258D02*
X79407860Y-29517588D01*
X79573525Y-29351923D02*
X78993697Y-28772096D01*
X78993697Y-28772096D02*
X79021308Y-28910150D01*
X79021308Y-28910150D02*
X79021308Y-29020593D01*
X79021308Y-29020593D02*
X78993697Y-29103426D01*
X126072857Y-56193453D02*
X126033809Y-56232501D01*
X126033809Y-56232501D02*
X125916667Y-56271548D01*
X125916667Y-56271548D02*
X125838571Y-56271548D01*
X125838571Y-56271548D02*
X125721428Y-56232501D01*
X125721428Y-56232501D02*
X125643333Y-56154405D01*
X125643333Y-56154405D02*
X125604286Y-56076310D01*
X125604286Y-56076310D02*
X125565238Y-55920120D01*
X125565238Y-55920120D02*
X125565238Y-55802977D01*
X125565238Y-55802977D02*
X125604286Y-55646786D01*
X125604286Y-55646786D02*
X125643333Y-55568691D01*
X125643333Y-55568691D02*
X125721428Y-55490596D01*
X125721428Y-55490596D02*
X125838571Y-55451548D01*
X125838571Y-55451548D02*
X125916667Y-55451548D01*
X125916667Y-55451548D02*
X126033809Y-55490596D01*
X126033809Y-55490596D02*
X126072857Y-55529643D01*
X126385238Y-55529643D02*
X126424286Y-55490596D01*
X126424286Y-55490596D02*
X126502381Y-55451548D01*
X126502381Y-55451548D02*
X126697619Y-55451548D01*
X126697619Y-55451548D02*
X126775714Y-55490596D01*
X126775714Y-55490596D02*
X126814762Y-55529643D01*
X126814762Y-55529643D02*
X126853809Y-55607739D01*
X126853809Y-55607739D02*
X126853809Y-55685834D01*
X126853809Y-55685834D02*
X126814762Y-55802977D01*
X126814762Y-55802977D02*
X126346190Y-56271548D01*
X126346190Y-56271548D02*
X126853809Y-56271548D01*
X127634761Y-56271548D02*
X127166190Y-56271548D01*
X127400476Y-56271548D02*
X127400476Y-55451548D01*
X127400476Y-55451548D02*
X127322380Y-55568691D01*
X127322380Y-55568691D02*
X127244285Y-55646786D01*
X127244285Y-55646786D02*
X127166190Y-55685834D01*
X109272857Y-51293453D02*
X109233809Y-51332501D01*
X109233809Y-51332501D02*
X109116667Y-51371548D01*
X109116667Y-51371548D02*
X109038571Y-51371548D01*
X109038571Y-51371548D02*
X108921428Y-51332501D01*
X108921428Y-51332501D02*
X108843333Y-51254405D01*
X108843333Y-51254405D02*
X108804286Y-51176310D01*
X108804286Y-51176310D02*
X108765238Y-51020120D01*
X108765238Y-51020120D02*
X108765238Y-50902977D01*
X108765238Y-50902977D02*
X108804286Y-50746786D01*
X108804286Y-50746786D02*
X108843333Y-50668691D01*
X108843333Y-50668691D02*
X108921428Y-50590596D01*
X108921428Y-50590596D02*
X109038571Y-50551548D01*
X109038571Y-50551548D02*
X109116667Y-50551548D01*
X109116667Y-50551548D02*
X109233809Y-50590596D01*
X109233809Y-50590596D02*
X109272857Y-50629643D01*
X109546190Y-50551548D02*
X110053809Y-50551548D01*
X110053809Y-50551548D02*
X109780476Y-50863929D01*
X109780476Y-50863929D02*
X109897619Y-50863929D01*
X109897619Y-50863929D02*
X109975714Y-50902977D01*
X109975714Y-50902977D02*
X110014762Y-50942024D01*
X110014762Y-50942024D02*
X110053809Y-51020120D01*
X110053809Y-51020120D02*
X110053809Y-51215358D01*
X110053809Y-51215358D02*
X110014762Y-51293453D01*
X110014762Y-51293453D02*
X109975714Y-51332501D01*
X109975714Y-51332501D02*
X109897619Y-51371548D01*
X109897619Y-51371548D02*
X109663333Y-51371548D01*
X109663333Y-51371548D02*
X109585238Y-51332501D01*
X109585238Y-51332501D02*
X109546190Y-51293453D01*
X110795714Y-50551548D02*
X110405238Y-50551548D01*
X110405238Y-50551548D02*
X110366190Y-50942024D01*
X110366190Y-50942024D02*
X110405238Y-50902977D01*
X110405238Y-50902977D02*
X110483333Y-50863929D01*
X110483333Y-50863929D02*
X110678571Y-50863929D01*
X110678571Y-50863929D02*
X110756666Y-50902977D01*
X110756666Y-50902977D02*
X110795714Y-50942024D01*
X110795714Y-50942024D02*
X110834761Y-51020120D01*
X110834761Y-51020120D02*
X110834761Y-51215358D01*
X110834761Y-51215358D02*
X110795714Y-51293453D01*
X110795714Y-51293453D02*
X110756666Y-51332501D01*
X110756666Y-51332501D02*
X110678571Y-51371548D01*
X110678571Y-51371548D02*
X110483333Y-51371548D01*
X110483333Y-51371548D02*
X110405238Y-51332501D01*
X110405238Y-51332501D02*
X110366190Y-51293453D01*
X86472857Y-75093453D02*
X86433809Y-75132501D01*
X86433809Y-75132501D02*
X86316667Y-75171548D01*
X86316667Y-75171548D02*
X86238571Y-75171548D01*
X86238571Y-75171548D02*
X86121428Y-75132501D01*
X86121428Y-75132501D02*
X86043333Y-75054405D01*
X86043333Y-75054405D02*
X86004286Y-74976310D01*
X86004286Y-74976310D02*
X85965238Y-74820120D01*
X85965238Y-74820120D02*
X85965238Y-74702977D01*
X85965238Y-74702977D02*
X86004286Y-74546786D01*
X86004286Y-74546786D02*
X86043333Y-74468691D01*
X86043333Y-74468691D02*
X86121428Y-74390596D01*
X86121428Y-74390596D02*
X86238571Y-74351548D01*
X86238571Y-74351548D02*
X86316667Y-74351548D01*
X86316667Y-74351548D02*
X86433809Y-74390596D01*
X86433809Y-74390596D02*
X86472857Y-74429643D01*
X87214762Y-74351548D02*
X86824286Y-74351548D01*
X86824286Y-74351548D02*
X86785238Y-74742024D01*
X86785238Y-74742024D02*
X86824286Y-74702977D01*
X86824286Y-74702977D02*
X86902381Y-74663929D01*
X86902381Y-74663929D02*
X87097619Y-74663929D01*
X87097619Y-74663929D02*
X87175714Y-74702977D01*
X87175714Y-74702977D02*
X87214762Y-74742024D01*
X87214762Y-74742024D02*
X87253809Y-74820120D01*
X87253809Y-74820120D02*
X87253809Y-75015358D01*
X87253809Y-75015358D02*
X87214762Y-75093453D01*
X87214762Y-75093453D02*
X87175714Y-75132501D01*
X87175714Y-75132501D02*
X87097619Y-75171548D01*
X87097619Y-75171548D02*
X86902381Y-75171548D01*
X86902381Y-75171548D02*
X86824286Y-75132501D01*
X86824286Y-75132501D02*
X86785238Y-75093453D01*
X87761428Y-74351548D02*
X87839523Y-74351548D01*
X87839523Y-74351548D02*
X87917619Y-74390596D01*
X87917619Y-74390596D02*
X87956666Y-74429643D01*
X87956666Y-74429643D02*
X87995714Y-74507739D01*
X87995714Y-74507739D02*
X88034761Y-74663929D01*
X88034761Y-74663929D02*
X88034761Y-74859167D01*
X88034761Y-74859167D02*
X87995714Y-75015358D01*
X87995714Y-75015358D02*
X87956666Y-75093453D01*
X87956666Y-75093453D02*
X87917619Y-75132501D01*
X87917619Y-75132501D02*
X87839523Y-75171548D01*
X87839523Y-75171548D02*
X87761428Y-75171548D01*
X87761428Y-75171548D02*
X87683333Y-75132501D01*
X87683333Y-75132501D02*
X87644285Y-75093453D01*
X87644285Y-75093453D02*
X87605238Y-75015358D01*
X87605238Y-75015358D02*
X87566190Y-74859167D01*
X87566190Y-74859167D02*
X87566190Y-74663929D01*
X87566190Y-74663929D02*
X87605238Y-74507739D01*
X87605238Y-74507739D02*
X87644285Y-74429643D01*
X87644285Y-74429643D02*
X87683333Y-74390596D01*
X87683333Y-74390596D02*
X87761428Y-74351548D01*
X104263333Y-66171548D02*
X103990000Y-65781072D01*
X103794762Y-66171548D02*
X103794762Y-65351548D01*
X103794762Y-65351548D02*
X104107143Y-65351548D01*
X104107143Y-65351548D02*
X104185238Y-65390596D01*
X104185238Y-65390596D02*
X104224285Y-65429643D01*
X104224285Y-65429643D02*
X104263333Y-65507739D01*
X104263333Y-65507739D02*
X104263333Y-65624881D01*
X104263333Y-65624881D02*
X104224285Y-65702977D01*
X104224285Y-65702977D02*
X104185238Y-65742024D01*
X104185238Y-65742024D02*
X104107143Y-65781072D01*
X104107143Y-65781072D02*
X103794762Y-65781072D01*
X104653809Y-66171548D02*
X104810000Y-66171548D01*
X104810000Y-66171548D02*
X104888095Y-66132501D01*
X104888095Y-66132501D02*
X104927143Y-66093453D01*
X104927143Y-66093453D02*
X105005238Y-65976310D01*
X105005238Y-65976310D02*
X105044285Y-65820120D01*
X105044285Y-65820120D02*
X105044285Y-65507739D01*
X105044285Y-65507739D02*
X105005238Y-65429643D01*
X105005238Y-65429643D02*
X104966190Y-65390596D01*
X104966190Y-65390596D02*
X104888095Y-65351548D01*
X104888095Y-65351548D02*
X104731904Y-65351548D01*
X104731904Y-65351548D02*
X104653809Y-65390596D01*
X104653809Y-65390596D02*
X104614762Y-65429643D01*
X104614762Y-65429643D02*
X104575714Y-65507739D01*
X104575714Y-65507739D02*
X104575714Y-65702977D01*
X104575714Y-65702977D02*
X104614762Y-65781072D01*
X104614762Y-65781072D02*
X104653809Y-65820120D01*
X104653809Y-65820120D02*
X104731904Y-65859167D01*
X104731904Y-65859167D02*
X104888095Y-65859167D01*
X104888095Y-65859167D02*
X104966190Y-65820120D01*
X104966190Y-65820120D02*
X105005238Y-65781072D01*
X105005238Y-65781072D02*
X105044285Y-65702977D01*
X109109524Y-56381072D02*
X109109524Y-56771548D01*
X108836191Y-55951548D02*
X109109524Y-56381072D01*
X109109524Y-56381072D02*
X109382857Y-55951548D01*
X109617143Y-56029643D02*
X109656191Y-55990596D01*
X109656191Y-55990596D02*
X109734286Y-55951548D01*
X109734286Y-55951548D02*
X109929524Y-55951548D01*
X109929524Y-55951548D02*
X110007619Y-55990596D01*
X110007619Y-55990596D02*
X110046667Y-56029643D01*
X110046667Y-56029643D02*
X110085714Y-56107739D01*
X110085714Y-56107739D02*
X110085714Y-56185834D01*
X110085714Y-56185834D02*
X110046667Y-56302977D01*
X110046667Y-56302977D02*
X109578095Y-56771548D01*
X109578095Y-56771548D02*
X110085714Y-56771548D01*
X125792857Y-51893453D02*
X125753809Y-51932501D01*
X125753809Y-51932501D02*
X125636667Y-51971548D01*
X125636667Y-51971548D02*
X125558571Y-51971548D01*
X125558571Y-51971548D02*
X125441428Y-51932501D01*
X125441428Y-51932501D02*
X125363333Y-51854405D01*
X125363333Y-51854405D02*
X125324286Y-51776310D01*
X125324286Y-51776310D02*
X125285238Y-51620120D01*
X125285238Y-51620120D02*
X125285238Y-51502977D01*
X125285238Y-51502977D02*
X125324286Y-51346786D01*
X125324286Y-51346786D02*
X125363333Y-51268691D01*
X125363333Y-51268691D02*
X125441428Y-51190596D01*
X125441428Y-51190596D02*
X125558571Y-51151548D01*
X125558571Y-51151548D02*
X125636667Y-51151548D01*
X125636667Y-51151548D02*
X125753809Y-51190596D01*
X125753809Y-51190596D02*
X125792857Y-51229643D01*
X126066190Y-51151548D02*
X126573809Y-51151548D01*
X126573809Y-51151548D02*
X126300476Y-51463929D01*
X126300476Y-51463929D02*
X126417619Y-51463929D01*
X126417619Y-51463929D02*
X126495714Y-51502977D01*
X126495714Y-51502977D02*
X126534762Y-51542024D01*
X126534762Y-51542024D02*
X126573809Y-51620120D01*
X126573809Y-51620120D02*
X126573809Y-51815358D01*
X126573809Y-51815358D02*
X126534762Y-51893453D01*
X126534762Y-51893453D02*
X126495714Y-51932501D01*
X126495714Y-51932501D02*
X126417619Y-51971548D01*
X126417619Y-51971548D02*
X126183333Y-51971548D01*
X126183333Y-51971548D02*
X126105238Y-51932501D01*
X126105238Y-51932501D02*
X126066190Y-51893453D01*
X127081428Y-51151548D02*
X127159523Y-51151548D01*
X127159523Y-51151548D02*
X127237619Y-51190596D01*
X127237619Y-51190596D02*
X127276666Y-51229643D01*
X127276666Y-51229643D02*
X127315714Y-51307739D01*
X127315714Y-51307739D02*
X127354761Y-51463929D01*
X127354761Y-51463929D02*
X127354761Y-51659167D01*
X127354761Y-51659167D02*
X127315714Y-51815358D01*
X127315714Y-51815358D02*
X127276666Y-51893453D01*
X127276666Y-51893453D02*
X127237619Y-51932501D01*
X127237619Y-51932501D02*
X127159523Y-51971548D01*
X127159523Y-51971548D02*
X127081428Y-51971548D01*
X127081428Y-51971548D02*
X127003333Y-51932501D01*
X127003333Y-51932501D02*
X126964285Y-51893453D01*
X126964285Y-51893453D02*
X126925238Y-51815358D01*
X126925238Y-51815358D02*
X126886190Y-51659167D01*
X126886190Y-51659167D02*
X126886190Y-51463929D01*
X126886190Y-51463929D02*
X126925238Y-51307739D01*
X126925238Y-51307739D02*
X126964285Y-51229643D01*
X126964285Y-51229643D02*
X127003333Y-51190596D01*
X127003333Y-51190596D02*
X127081428Y-51151548D01*
X111201548Y-31146666D02*
X111201548Y-31537142D01*
X111201548Y-31537142D02*
X110381548Y-31537142D01*
X111201548Y-30873332D02*
X110381548Y-30873332D01*
X110381548Y-30873332D02*
X110381548Y-30678094D01*
X110381548Y-30678094D02*
X110420596Y-30560951D01*
X110420596Y-30560951D02*
X110498691Y-30482856D01*
X110498691Y-30482856D02*
X110576786Y-30443809D01*
X110576786Y-30443809D02*
X110732977Y-30404761D01*
X110732977Y-30404761D02*
X110850120Y-30404761D01*
X110850120Y-30404761D02*
X111006310Y-30443809D01*
X111006310Y-30443809D02*
X111084405Y-30482856D01*
X111084405Y-30482856D02*
X111162501Y-30560951D01*
X111162501Y-30560951D02*
X111201548Y-30678094D01*
X111201548Y-30678094D02*
X111201548Y-30873332D01*
X110654881Y-29701904D02*
X111201548Y-29701904D01*
X110342501Y-29897142D02*
X110928215Y-30092380D01*
X110928215Y-30092380D02*
X110928215Y-29584761D01*
X103814584Y-29996573D02*
X103759362Y-29886130D01*
X103759362Y-29886130D02*
X103759362Y-29830908D01*
X103759362Y-29830908D02*
X103786973Y-29748075D01*
X103786973Y-29748075D02*
X103869805Y-29665243D01*
X103869805Y-29665243D02*
X103952638Y-29637632D01*
X103952638Y-29637632D02*
X104007859Y-29637632D01*
X104007859Y-29637632D02*
X104090692Y-29665243D01*
X104090692Y-29665243D02*
X104311579Y-29886130D01*
X104311579Y-29886130D02*
X103731751Y-30465957D01*
X103731751Y-30465957D02*
X103538475Y-30272681D01*
X103538475Y-30272681D02*
X103510864Y-30189849D01*
X103510864Y-30189849D02*
X103510864Y-30134627D01*
X103510864Y-30134627D02*
X103538475Y-30051795D01*
X103538475Y-30051795D02*
X103593697Y-29996573D01*
X103593697Y-29996573D02*
X103676529Y-29968962D01*
X103676529Y-29968962D02*
X103731751Y-29968962D01*
X103731751Y-29968962D02*
X103814584Y-29996573D01*
X103814584Y-29996573D02*
X104007859Y-30189849D01*
X103234756Y-29968962D02*
X102903426Y-29637632D01*
X103648919Y-29223469D02*
X103069091Y-29803297D01*
X102792983Y-29416745D02*
X102737761Y-29416745D01*
X102737761Y-29416745D02*
X102654928Y-29389134D01*
X102654928Y-29389134D02*
X102516874Y-29251080D01*
X102516874Y-29251080D02*
X102489263Y-29168248D01*
X102489263Y-29168248D02*
X102489263Y-29113026D01*
X102489263Y-29113026D02*
X102516874Y-29030194D01*
X102516874Y-29030194D02*
X102572096Y-28974972D01*
X102572096Y-28974972D02*
X102682539Y-28919750D01*
X102682539Y-28919750D02*
X103345199Y-28919750D01*
X103345199Y-28919750D02*
X102986258Y-28560809D01*
X78672857Y-54653453D02*
X78633809Y-54692501D01*
X78633809Y-54692501D02*
X78516667Y-54731548D01*
X78516667Y-54731548D02*
X78438571Y-54731548D01*
X78438571Y-54731548D02*
X78321428Y-54692501D01*
X78321428Y-54692501D02*
X78243333Y-54614405D01*
X78243333Y-54614405D02*
X78204286Y-54536310D01*
X78204286Y-54536310D02*
X78165238Y-54380120D01*
X78165238Y-54380120D02*
X78165238Y-54262977D01*
X78165238Y-54262977D02*
X78204286Y-54106786D01*
X78204286Y-54106786D02*
X78243333Y-54028691D01*
X78243333Y-54028691D02*
X78321428Y-53950596D01*
X78321428Y-53950596D02*
X78438571Y-53911548D01*
X78438571Y-53911548D02*
X78516667Y-53911548D01*
X78516667Y-53911548D02*
X78633809Y-53950596D01*
X78633809Y-53950596D02*
X78672857Y-53989643D01*
X78946190Y-53911548D02*
X79453809Y-53911548D01*
X79453809Y-53911548D02*
X79180476Y-54223929D01*
X79180476Y-54223929D02*
X79297619Y-54223929D01*
X79297619Y-54223929D02*
X79375714Y-54262977D01*
X79375714Y-54262977D02*
X79414762Y-54302024D01*
X79414762Y-54302024D02*
X79453809Y-54380120D01*
X79453809Y-54380120D02*
X79453809Y-54575358D01*
X79453809Y-54575358D02*
X79414762Y-54653453D01*
X79414762Y-54653453D02*
X79375714Y-54692501D01*
X79375714Y-54692501D02*
X79297619Y-54731548D01*
X79297619Y-54731548D02*
X79063333Y-54731548D01*
X79063333Y-54731548D02*
X78985238Y-54692501D01*
X78985238Y-54692501D02*
X78946190Y-54653453D01*
X79844285Y-54731548D02*
X80000476Y-54731548D01*
X80000476Y-54731548D02*
X80078571Y-54692501D01*
X80078571Y-54692501D02*
X80117619Y-54653453D01*
X80117619Y-54653453D02*
X80195714Y-54536310D01*
X80195714Y-54536310D02*
X80234761Y-54380120D01*
X80234761Y-54380120D02*
X80234761Y-54067739D01*
X80234761Y-54067739D02*
X80195714Y-53989643D01*
X80195714Y-53989643D02*
X80156666Y-53950596D01*
X80156666Y-53950596D02*
X80078571Y-53911548D01*
X80078571Y-53911548D02*
X79922380Y-53911548D01*
X79922380Y-53911548D02*
X79844285Y-53950596D01*
X79844285Y-53950596D02*
X79805238Y-53989643D01*
X79805238Y-53989643D02*
X79766190Y-54067739D01*
X79766190Y-54067739D02*
X79766190Y-54262977D01*
X79766190Y-54262977D02*
X79805238Y-54341072D01*
X79805238Y-54341072D02*
X79844285Y-54380120D01*
X79844285Y-54380120D02*
X79922380Y-54419167D01*
X79922380Y-54419167D02*
X80078571Y-54419167D01*
X80078571Y-54419167D02*
X80156666Y-54380120D01*
X80156666Y-54380120D02*
X80195714Y-54341072D01*
X80195714Y-54341072D02*
X80234761Y-54262977D01*
X84693453Y-41936666D02*
X84732501Y-41975714D01*
X84732501Y-41975714D02*
X84771548Y-42092856D01*
X84771548Y-42092856D02*
X84771548Y-42170952D01*
X84771548Y-42170952D02*
X84732501Y-42288095D01*
X84732501Y-42288095D02*
X84654405Y-42366190D01*
X84654405Y-42366190D02*
X84576310Y-42405237D01*
X84576310Y-42405237D02*
X84420120Y-42444285D01*
X84420120Y-42444285D02*
X84302977Y-42444285D01*
X84302977Y-42444285D02*
X84146786Y-42405237D01*
X84146786Y-42405237D02*
X84068691Y-42366190D01*
X84068691Y-42366190D02*
X83990596Y-42288095D01*
X83990596Y-42288095D02*
X83951548Y-42170952D01*
X83951548Y-42170952D02*
X83951548Y-42092856D01*
X83951548Y-42092856D02*
X83990596Y-41975714D01*
X83990596Y-41975714D02*
X84029643Y-41936666D01*
X83951548Y-41663333D02*
X83951548Y-41155714D01*
X83951548Y-41155714D02*
X84263929Y-41429047D01*
X84263929Y-41429047D02*
X84263929Y-41311904D01*
X84263929Y-41311904D02*
X84302977Y-41233809D01*
X84302977Y-41233809D02*
X84342024Y-41194761D01*
X84342024Y-41194761D02*
X84420120Y-41155714D01*
X84420120Y-41155714D02*
X84615358Y-41155714D01*
X84615358Y-41155714D02*
X84693453Y-41194761D01*
X84693453Y-41194761D02*
X84732501Y-41233809D01*
X84732501Y-41233809D02*
X84771548Y-41311904D01*
X84771548Y-41311904D02*
X84771548Y-41546190D01*
X84771548Y-41546190D02*
X84732501Y-41624285D01*
X84732501Y-41624285D02*
X84693453Y-41663333D01*
X117192857Y-61093453D02*
X117153809Y-61132501D01*
X117153809Y-61132501D02*
X117036667Y-61171548D01*
X117036667Y-61171548D02*
X116958571Y-61171548D01*
X116958571Y-61171548D02*
X116841428Y-61132501D01*
X116841428Y-61132501D02*
X116763333Y-61054405D01*
X116763333Y-61054405D02*
X116724286Y-60976310D01*
X116724286Y-60976310D02*
X116685238Y-60820120D01*
X116685238Y-60820120D02*
X116685238Y-60702977D01*
X116685238Y-60702977D02*
X116724286Y-60546786D01*
X116724286Y-60546786D02*
X116763333Y-60468691D01*
X116763333Y-60468691D02*
X116841428Y-60390596D01*
X116841428Y-60390596D02*
X116958571Y-60351548D01*
X116958571Y-60351548D02*
X117036667Y-60351548D01*
X117036667Y-60351548D02*
X117153809Y-60390596D01*
X117153809Y-60390596D02*
X117192857Y-60429643D01*
X117466190Y-60351548D02*
X117973809Y-60351548D01*
X117973809Y-60351548D02*
X117700476Y-60663929D01*
X117700476Y-60663929D02*
X117817619Y-60663929D01*
X117817619Y-60663929D02*
X117895714Y-60702977D01*
X117895714Y-60702977D02*
X117934762Y-60742024D01*
X117934762Y-60742024D02*
X117973809Y-60820120D01*
X117973809Y-60820120D02*
X117973809Y-61015358D01*
X117973809Y-61015358D02*
X117934762Y-61093453D01*
X117934762Y-61093453D02*
X117895714Y-61132501D01*
X117895714Y-61132501D02*
X117817619Y-61171548D01*
X117817619Y-61171548D02*
X117583333Y-61171548D01*
X117583333Y-61171548D02*
X117505238Y-61132501D01*
X117505238Y-61132501D02*
X117466190Y-61093453D01*
X118286190Y-60429643D02*
X118325238Y-60390596D01*
X118325238Y-60390596D02*
X118403333Y-60351548D01*
X118403333Y-60351548D02*
X118598571Y-60351548D01*
X118598571Y-60351548D02*
X118676666Y-60390596D01*
X118676666Y-60390596D02*
X118715714Y-60429643D01*
X118715714Y-60429643D02*
X118754761Y-60507739D01*
X118754761Y-60507739D02*
X118754761Y-60585834D01*
X118754761Y-60585834D02*
X118715714Y-60702977D01*
X118715714Y-60702977D02*
X118247142Y-61171548D01*
X118247142Y-61171548D02*
X118754761Y-61171548D01*
X114013453Y-62127142D02*
X114052501Y-62166190D01*
X114052501Y-62166190D02*
X114091548Y-62283332D01*
X114091548Y-62283332D02*
X114091548Y-62361428D01*
X114091548Y-62361428D02*
X114052501Y-62478571D01*
X114052501Y-62478571D02*
X113974405Y-62556666D01*
X113974405Y-62556666D02*
X113896310Y-62595713D01*
X113896310Y-62595713D02*
X113740120Y-62634761D01*
X113740120Y-62634761D02*
X113622977Y-62634761D01*
X113622977Y-62634761D02*
X113466786Y-62595713D01*
X113466786Y-62595713D02*
X113388691Y-62556666D01*
X113388691Y-62556666D02*
X113310596Y-62478571D01*
X113310596Y-62478571D02*
X113271548Y-62361428D01*
X113271548Y-62361428D02*
X113271548Y-62283332D01*
X113271548Y-62283332D02*
X113310596Y-62166190D01*
X113310596Y-62166190D02*
X113349643Y-62127142D01*
X114091548Y-61346190D02*
X114091548Y-61814761D01*
X114091548Y-61580475D02*
X113271548Y-61580475D01*
X113271548Y-61580475D02*
X113388691Y-61658571D01*
X113388691Y-61658571D02*
X113466786Y-61736666D01*
X113466786Y-61736666D02*
X113505834Y-61814761D01*
X114091548Y-60955714D02*
X114091548Y-60799523D01*
X114091548Y-60799523D02*
X114052501Y-60721428D01*
X114052501Y-60721428D02*
X114013453Y-60682380D01*
X114013453Y-60682380D02*
X113896310Y-60604285D01*
X113896310Y-60604285D02*
X113740120Y-60565238D01*
X113740120Y-60565238D02*
X113427739Y-60565238D01*
X113427739Y-60565238D02*
X113349643Y-60604285D01*
X113349643Y-60604285D02*
X113310596Y-60643333D01*
X113310596Y-60643333D02*
X113271548Y-60721428D01*
X113271548Y-60721428D02*
X113271548Y-60877619D01*
X113271548Y-60877619D02*
X113310596Y-60955714D01*
X113310596Y-60955714D02*
X113349643Y-60994761D01*
X113349643Y-60994761D02*
X113427739Y-61033809D01*
X113427739Y-61033809D02*
X113622977Y-61033809D01*
X113622977Y-61033809D02*
X113701072Y-60994761D01*
X113701072Y-60994761D02*
X113740120Y-60955714D01*
X113740120Y-60955714D02*
X113779167Y-60877619D01*
X113779167Y-60877619D02*
X113779167Y-60721428D01*
X113779167Y-60721428D02*
X113740120Y-60643333D01*
X113740120Y-60643333D02*
X113701072Y-60604285D01*
X113701072Y-60604285D02*
X113622977Y-60565238D01*
X113392857Y-56693453D02*
X113353809Y-56732501D01*
X113353809Y-56732501D02*
X113236667Y-56771548D01*
X113236667Y-56771548D02*
X113158571Y-56771548D01*
X113158571Y-56771548D02*
X113041428Y-56732501D01*
X113041428Y-56732501D02*
X112963333Y-56654405D01*
X112963333Y-56654405D02*
X112924286Y-56576310D01*
X112924286Y-56576310D02*
X112885238Y-56420120D01*
X112885238Y-56420120D02*
X112885238Y-56302977D01*
X112885238Y-56302977D02*
X112924286Y-56146786D01*
X112924286Y-56146786D02*
X112963333Y-56068691D01*
X112963333Y-56068691D02*
X113041428Y-55990596D01*
X113041428Y-55990596D02*
X113158571Y-55951548D01*
X113158571Y-55951548D02*
X113236667Y-55951548D01*
X113236667Y-55951548D02*
X113353809Y-55990596D01*
X113353809Y-55990596D02*
X113392857Y-56029643D01*
X113705238Y-56029643D02*
X113744286Y-55990596D01*
X113744286Y-55990596D02*
X113822381Y-55951548D01*
X113822381Y-55951548D02*
X114017619Y-55951548D01*
X114017619Y-55951548D02*
X114095714Y-55990596D01*
X114095714Y-55990596D02*
X114134762Y-56029643D01*
X114134762Y-56029643D02*
X114173809Y-56107739D01*
X114173809Y-56107739D02*
X114173809Y-56185834D01*
X114173809Y-56185834D02*
X114134762Y-56302977D01*
X114134762Y-56302977D02*
X113666190Y-56771548D01*
X113666190Y-56771548D02*
X114173809Y-56771548D01*
X114564285Y-56771548D02*
X114720476Y-56771548D01*
X114720476Y-56771548D02*
X114798571Y-56732501D01*
X114798571Y-56732501D02*
X114837619Y-56693453D01*
X114837619Y-56693453D02*
X114915714Y-56576310D01*
X114915714Y-56576310D02*
X114954761Y-56420120D01*
X114954761Y-56420120D02*
X114954761Y-56107739D01*
X114954761Y-56107739D02*
X114915714Y-56029643D01*
X114915714Y-56029643D02*
X114876666Y-55990596D01*
X114876666Y-55990596D02*
X114798571Y-55951548D01*
X114798571Y-55951548D02*
X114642380Y-55951548D01*
X114642380Y-55951548D02*
X114564285Y-55990596D01*
X114564285Y-55990596D02*
X114525238Y-56029643D01*
X114525238Y-56029643D02*
X114486190Y-56107739D01*
X114486190Y-56107739D02*
X114486190Y-56302977D01*
X114486190Y-56302977D02*
X114525238Y-56381072D01*
X114525238Y-56381072D02*
X114564285Y-56420120D01*
X114564285Y-56420120D02*
X114642380Y-56459167D01*
X114642380Y-56459167D02*
X114798571Y-56459167D01*
X114798571Y-56459167D02*
X114876666Y-56420120D01*
X114876666Y-56420120D02*
X114915714Y-56381072D01*
X114915714Y-56381072D02*
X114954761Y-56302977D01*
X103463333Y-45893453D02*
X103424285Y-45932501D01*
X103424285Y-45932501D02*
X103307143Y-45971548D01*
X103307143Y-45971548D02*
X103229047Y-45971548D01*
X103229047Y-45971548D02*
X103111904Y-45932501D01*
X103111904Y-45932501D02*
X103033809Y-45854405D01*
X103033809Y-45854405D02*
X102994762Y-45776310D01*
X102994762Y-45776310D02*
X102955714Y-45620120D01*
X102955714Y-45620120D02*
X102955714Y-45502977D01*
X102955714Y-45502977D02*
X102994762Y-45346786D01*
X102994762Y-45346786D02*
X103033809Y-45268691D01*
X103033809Y-45268691D02*
X103111904Y-45190596D01*
X103111904Y-45190596D02*
X103229047Y-45151548D01*
X103229047Y-45151548D02*
X103307143Y-45151548D01*
X103307143Y-45151548D02*
X103424285Y-45190596D01*
X103424285Y-45190596D02*
X103463333Y-45229643D01*
X103853809Y-45971548D02*
X104010000Y-45971548D01*
X104010000Y-45971548D02*
X104088095Y-45932501D01*
X104088095Y-45932501D02*
X104127143Y-45893453D01*
X104127143Y-45893453D02*
X104205238Y-45776310D01*
X104205238Y-45776310D02*
X104244285Y-45620120D01*
X104244285Y-45620120D02*
X104244285Y-45307739D01*
X104244285Y-45307739D02*
X104205238Y-45229643D01*
X104205238Y-45229643D02*
X104166190Y-45190596D01*
X104166190Y-45190596D02*
X104088095Y-45151548D01*
X104088095Y-45151548D02*
X103931904Y-45151548D01*
X103931904Y-45151548D02*
X103853809Y-45190596D01*
X103853809Y-45190596D02*
X103814762Y-45229643D01*
X103814762Y-45229643D02*
X103775714Y-45307739D01*
X103775714Y-45307739D02*
X103775714Y-45502977D01*
X103775714Y-45502977D02*
X103814762Y-45581072D01*
X103814762Y-45581072D02*
X103853809Y-45620120D01*
X103853809Y-45620120D02*
X103931904Y-45659167D01*
X103931904Y-45659167D02*
X104088095Y-45659167D01*
X104088095Y-45659167D02*
X104166190Y-45620120D01*
X104166190Y-45620120D02*
X104205238Y-45581072D01*
X104205238Y-45581072D02*
X104244285Y-45502977D01*
X105001548Y-33936666D02*
X104611072Y-34209999D01*
X105001548Y-34405237D02*
X104181548Y-34405237D01*
X104181548Y-34405237D02*
X104181548Y-34092856D01*
X104181548Y-34092856D02*
X104220596Y-34014761D01*
X104220596Y-34014761D02*
X104259643Y-33975714D01*
X104259643Y-33975714D02*
X104337739Y-33936666D01*
X104337739Y-33936666D02*
X104454881Y-33936666D01*
X104454881Y-33936666D02*
X104532977Y-33975714D01*
X104532977Y-33975714D02*
X104572024Y-34014761D01*
X104572024Y-34014761D02*
X104611072Y-34092856D01*
X104611072Y-34092856D02*
X104611072Y-34405237D01*
X104181548Y-33663333D02*
X104181548Y-33116666D01*
X104181548Y-33116666D02*
X105001548Y-33468095D01*
X122571548Y-29161666D02*
X122181072Y-29434999D01*
X122571548Y-29630237D02*
X121751548Y-29630237D01*
X121751548Y-29630237D02*
X121751548Y-29317856D01*
X121751548Y-29317856D02*
X121790596Y-29239761D01*
X121790596Y-29239761D02*
X121829643Y-29200714D01*
X121829643Y-29200714D02*
X121907739Y-29161666D01*
X121907739Y-29161666D02*
X122024881Y-29161666D01*
X122024881Y-29161666D02*
X122102977Y-29200714D01*
X122102977Y-29200714D02*
X122142024Y-29239761D01*
X122142024Y-29239761D02*
X122181072Y-29317856D01*
X122181072Y-29317856D02*
X122181072Y-29630237D01*
X121751548Y-28419761D02*
X121751548Y-28810237D01*
X121751548Y-28810237D02*
X122142024Y-28849285D01*
X122142024Y-28849285D02*
X122102977Y-28810237D01*
X122102977Y-28810237D02*
X122063929Y-28732142D01*
X122063929Y-28732142D02*
X122063929Y-28536904D01*
X122063929Y-28536904D02*
X122102977Y-28458809D01*
X122102977Y-28458809D02*
X122142024Y-28419761D01*
X122142024Y-28419761D02*
X122220120Y-28380714D01*
X122220120Y-28380714D02*
X122415358Y-28380714D01*
X122415358Y-28380714D02*
X122493453Y-28419761D01*
X122493453Y-28419761D02*
X122532501Y-28458809D01*
X122532501Y-28458809D02*
X122571548Y-28536904D01*
X122571548Y-28536904D02*
X122571548Y-28732142D01*
X122571548Y-28732142D02*
X122532501Y-28810237D01*
X122532501Y-28810237D02*
X122493453Y-28849285D01*
X107152857Y-57093453D02*
X107113809Y-57132501D01*
X107113809Y-57132501D02*
X106996667Y-57171548D01*
X106996667Y-57171548D02*
X106918571Y-57171548D01*
X106918571Y-57171548D02*
X106801428Y-57132501D01*
X106801428Y-57132501D02*
X106723333Y-57054405D01*
X106723333Y-57054405D02*
X106684286Y-56976310D01*
X106684286Y-56976310D02*
X106645238Y-56820120D01*
X106645238Y-56820120D02*
X106645238Y-56702977D01*
X106645238Y-56702977D02*
X106684286Y-56546786D01*
X106684286Y-56546786D02*
X106723333Y-56468691D01*
X106723333Y-56468691D02*
X106801428Y-56390596D01*
X106801428Y-56390596D02*
X106918571Y-56351548D01*
X106918571Y-56351548D02*
X106996667Y-56351548D01*
X106996667Y-56351548D02*
X107113809Y-56390596D01*
X107113809Y-56390596D02*
X107152857Y-56429643D01*
X107426190Y-56351548D02*
X107933809Y-56351548D01*
X107933809Y-56351548D02*
X107660476Y-56663929D01*
X107660476Y-56663929D02*
X107777619Y-56663929D01*
X107777619Y-56663929D02*
X107855714Y-56702977D01*
X107855714Y-56702977D02*
X107894762Y-56742024D01*
X107894762Y-56742024D02*
X107933809Y-56820120D01*
X107933809Y-56820120D02*
X107933809Y-57015358D01*
X107933809Y-57015358D02*
X107894762Y-57093453D01*
X107894762Y-57093453D02*
X107855714Y-57132501D01*
X107855714Y-57132501D02*
X107777619Y-57171548D01*
X107777619Y-57171548D02*
X107543333Y-57171548D01*
X107543333Y-57171548D02*
X107465238Y-57132501D01*
X107465238Y-57132501D02*
X107426190Y-57093453D01*
X108207142Y-56351548D02*
X108753809Y-56351548D01*
X108753809Y-56351548D02*
X108402380Y-57171548D01*
X119502857Y-64541548D02*
X119229524Y-64151072D01*
X119034286Y-64541548D02*
X119034286Y-63721548D01*
X119034286Y-63721548D02*
X119346667Y-63721548D01*
X119346667Y-63721548D02*
X119424762Y-63760596D01*
X119424762Y-63760596D02*
X119463809Y-63799643D01*
X119463809Y-63799643D02*
X119502857Y-63877739D01*
X119502857Y-63877739D02*
X119502857Y-63994881D01*
X119502857Y-63994881D02*
X119463809Y-64072977D01*
X119463809Y-64072977D02*
X119424762Y-64112024D01*
X119424762Y-64112024D02*
X119346667Y-64151072D01*
X119346667Y-64151072D02*
X119034286Y-64151072D01*
X119815238Y-63799643D02*
X119854286Y-63760596D01*
X119854286Y-63760596D02*
X119932381Y-63721548D01*
X119932381Y-63721548D02*
X120127619Y-63721548D01*
X120127619Y-63721548D02*
X120205714Y-63760596D01*
X120205714Y-63760596D02*
X120244762Y-63799643D01*
X120244762Y-63799643D02*
X120283809Y-63877739D01*
X120283809Y-63877739D02*
X120283809Y-63955834D01*
X120283809Y-63955834D02*
X120244762Y-64072977D01*
X120244762Y-64072977D02*
X119776190Y-64541548D01*
X119776190Y-64541548D02*
X120283809Y-64541548D01*
X121025714Y-63721548D02*
X120635238Y-63721548D01*
X120635238Y-63721548D02*
X120596190Y-64112024D01*
X120596190Y-64112024D02*
X120635238Y-64072977D01*
X120635238Y-64072977D02*
X120713333Y-64033929D01*
X120713333Y-64033929D02*
X120908571Y-64033929D01*
X120908571Y-64033929D02*
X120986666Y-64072977D01*
X120986666Y-64072977D02*
X121025714Y-64112024D01*
X121025714Y-64112024D02*
X121064761Y-64190120D01*
X121064761Y-64190120D02*
X121064761Y-64385358D01*
X121064761Y-64385358D02*
X121025714Y-64463453D01*
X121025714Y-64463453D02*
X120986666Y-64502501D01*
X120986666Y-64502501D02*
X120908571Y-64541548D01*
X120908571Y-64541548D02*
X120713333Y-64541548D01*
X120713333Y-64541548D02*
X120635238Y-64502501D01*
X120635238Y-64502501D02*
X120596190Y-64463453D01*
X127263333Y-32871548D02*
X126990000Y-32481072D01*
X126794762Y-32871548D02*
X126794762Y-32051548D01*
X126794762Y-32051548D02*
X127107143Y-32051548D01*
X127107143Y-32051548D02*
X127185238Y-32090596D01*
X127185238Y-32090596D02*
X127224285Y-32129643D01*
X127224285Y-32129643D02*
X127263333Y-32207739D01*
X127263333Y-32207739D02*
X127263333Y-32324881D01*
X127263333Y-32324881D02*
X127224285Y-32402977D01*
X127224285Y-32402977D02*
X127185238Y-32442024D01*
X127185238Y-32442024D02*
X127107143Y-32481072D01*
X127107143Y-32481072D02*
X126794762Y-32481072D01*
X128044285Y-32871548D02*
X127575714Y-32871548D01*
X127810000Y-32871548D02*
X127810000Y-32051548D01*
X127810000Y-32051548D02*
X127731904Y-32168691D01*
X127731904Y-32168691D02*
X127653809Y-32246786D01*
X127653809Y-32246786D02*
X127575714Y-32285834D01*
D12*
X91287238Y-73513688D02*
X91287238Y-74177498D01*
X91287238Y-74177498D02*
X91326285Y-74255593D01*
X91326285Y-74255593D02*
X91365333Y-74294641D01*
X91365333Y-74294641D02*
X91443428Y-74333688D01*
X91443428Y-74333688D02*
X91599619Y-74333688D01*
X91599619Y-74333688D02*
X91677714Y-74294641D01*
X91677714Y-74294641D02*
X91716761Y-74255593D01*
X91716761Y-74255593D02*
X91755809Y-74177498D01*
X91755809Y-74177498D02*
X91755809Y-73513688D01*
X92068190Y-73513688D02*
X92575809Y-73513688D01*
X92575809Y-73513688D02*
X92302476Y-73826069D01*
X92302476Y-73826069D02*
X92419619Y-73826069D01*
X92419619Y-73826069D02*
X92497714Y-73865117D01*
X92497714Y-73865117D02*
X92536762Y-73904164D01*
X92536762Y-73904164D02*
X92575809Y-73982260D01*
X92575809Y-73982260D02*
X92575809Y-74177498D01*
X92575809Y-74177498D02*
X92536762Y-74255593D01*
X92536762Y-74255593D02*
X92497714Y-74294641D01*
X92497714Y-74294641D02*
X92419619Y-74333688D01*
X92419619Y-74333688D02*
X92185333Y-74333688D01*
X92185333Y-74333688D02*
X92107238Y-74294641D01*
X92107238Y-74294641D02*
X92068190Y-74255593D01*
D11*
X109209524Y-59181072D02*
X109209524Y-59571548D01*
X108936191Y-58751548D02*
X109209524Y-59181072D01*
X109209524Y-59181072D02*
X109482857Y-58751548D01*
X109678095Y-58751548D02*
X110185714Y-58751548D01*
X110185714Y-58751548D02*
X109912381Y-59063929D01*
X109912381Y-59063929D02*
X110029524Y-59063929D01*
X110029524Y-59063929D02*
X110107619Y-59102977D01*
X110107619Y-59102977D02*
X110146667Y-59142024D01*
X110146667Y-59142024D02*
X110185714Y-59220120D01*
X110185714Y-59220120D02*
X110185714Y-59415358D01*
X110185714Y-59415358D02*
X110146667Y-59493453D01*
X110146667Y-59493453D02*
X110107619Y-59532501D01*
X110107619Y-59532501D02*
X110029524Y-59571548D01*
X110029524Y-59571548D02*
X109795238Y-59571548D01*
X109795238Y-59571548D02*
X109717143Y-59532501D01*
X109717143Y-59532501D02*
X109678095Y-59493453D01*
X104272857Y-61733453D02*
X104233809Y-61772501D01*
X104233809Y-61772501D02*
X104116667Y-61811548D01*
X104116667Y-61811548D02*
X104038571Y-61811548D01*
X104038571Y-61811548D02*
X103921428Y-61772501D01*
X103921428Y-61772501D02*
X103843333Y-61694405D01*
X103843333Y-61694405D02*
X103804286Y-61616310D01*
X103804286Y-61616310D02*
X103765238Y-61460120D01*
X103765238Y-61460120D02*
X103765238Y-61342977D01*
X103765238Y-61342977D02*
X103804286Y-61186786D01*
X103804286Y-61186786D02*
X103843333Y-61108691D01*
X103843333Y-61108691D02*
X103921428Y-61030596D01*
X103921428Y-61030596D02*
X104038571Y-60991548D01*
X104038571Y-60991548D02*
X104116667Y-60991548D01*
X104116667Y-60991548D02*
X104233809Y-61030596D01*
X104233809Y-61030596D02*
X104272857Y-61069643D01*
X104975714Y-61264881D02*
X104975714Y-61811548D01*
X104780476Y-60952501D02*
X104585238Y-61538215D01*
X104585238Y-61538215D02*
X105092857Y-61538215D01*
X105795714Y-60991548D02*
X105405238Y-60991548D01*
X105405238Y-60991548D02*
X105366190Y-61382024D01*
X105366190Y-61382024D02*
X105405238Y-61342977D01*
X105405238Y-61342977D02*
X105483333Y-61303929D01*
X105483333Y-61303929D02*
X105678571Y-61303929D01*
X105678571Y-61303929D02*
X105756666Y-61342977D01*
X105756666Y-61342977D02*
X105795714Y-61382024D01*
X105795714Y-61382024D02*
X105834761Y-61460120D01*
X105834761Y-61460120D02*
X105834761Y-61655358D01*
X105834761Y-61655358D02*
X105795714Y-61733453D01*
X105795714Y-61733453D02*
X105756666Y-61772501D01*
X105756666Y-61772501D02*
X105678571Y-61811548D01*
X105678571Y-61811548D02*
X105483333Y-61811548D01*
X105483333Y-61811548D02*
X105405238Y-61772501D01*
X105405238Y-61772501D02*
X105366190Y-61733453D01*
X78872857Y-45893453D02*
X78833809Y-45932501D01*
X78833809Y-45932501D02*
X78716667Y-45971548D01*
X78716667Y-45971548D02*
X78638571Y-45971548D01*
X78638571Y-45971548D02*
X78521428Y-45932501D01*
X78521428Y-45932501D02*
X78443333Y-45854405D01*
X78443333Y-45854405D02*
X78404286Y-45776310D01*
X78404286Y-45776310D02*
X78365238Y-45620120D01*
X78365238Y-45620120D02*
X78365238Y-45502977D01*
X78365238Y-45502977D02*
X78404286Y-45346786D01*
X78404286Y-45346786D02*
X78443333Y-45268691D01*
X78443333Y-45268691D02*
X78521428Y-45190596D01*
X78521428Y-45190596D02*
X78638571Y-45151548D01*
X78638571Y-45151548D02*
X78716667Y-45151548D01*
X78716667Y-45151548D02*
X78833809Y-45190596D01*
X78833809Y-45190596D02*
X78872857Y-45229643D01*
X79575714Y-45424881D02*
X79575714Y-45971548D01*
X79380476Y-45112501D02*
X79185238Y-45698215D01*
X79185238Y-45698215D02*
X79692857Y-45698215D01*
X80434761Y-45971548D02*
X79966190Y-45971548D01*
X80200476Y-45971548D02*
X80200476Y-45151548D01*
X80200476Y-45151548D02*
X80122380Y-45268691D01*
X80122380Y-45268691D02*
X80044285Y-45346786D01*
X80044285Y-45346786D02*
X79966190Y-45385834D01*
X89871548Y-40027142D02*
X89481072Y-40300475D01*
X89871548Y-40495713D02*
X89051548Y-40495713D01*
X89051548Y-40495713D02*
X89051548Y-40183332D01*
X89051548Y-40183332D02*
X89090596Y-40105237D01*
X89090596Y-40105237D02*
X89129643Y-40066190D01*
X89129643Y-40066190D02*
X89207739Y-40027142D01*
X89207739Y-40027142D02*
X89324881Y-40027142D01*
X89324881Y-40027142D02*
X89402977Y-40066190D01*
X89402977Y-40066190D02*
X89442024Y-40105237D01*
X89442024Y-40105237D02*
X89481072Y-40183332D01*
X89481072Y-40183332D02*
X89481072Y-40495713D01*
X89871548Y-39246190D02*
X89871548Y-39714761D01*
X89871548Y-39480475D02*
X89051548Y-39480475D01*
X89051548Y-39480475D02*
X89168691Y-39558571D01*
X89168691Y-39558571D02*
X89246786Y-39636666D01*
X89246786Y-39636666D02*
X89285834Y-39714761D01*
X89324881Y-38543333D02*
X89871548Y-38543333D01*
X89012501Y-38738571D02*
X89598215Y-38933809D01*
X89598215Y-38933809D02*
X89598215Y-38426190D01*
X113392857Y-55771548D02*
X113119524Y-55381072D01*
X112924286Y-55771548D02*
X112924286Y-54951548D01*
X112924286Y-54951548D02*
X113236667Y-54951548D01*
X113236667Y-54951548D02*
X113314762Y-54990596D01*
X113314762Y-54990596D02*
X113353809Y-55029643D01*
X113353809Y-55029643D02*
X113392857Y-55107739D01*
X113392857Y-55107739D02*
X113392857Y-55224881D01*
X113392857Y-55224881D02*
X113353809Y-55302977D01*
X113353809Y-55302977D02*
X113314762Y-55342024D01*
X113314762Y-55342024D02*
X113236667Y-55381072D01*
X113236667Y-55381072D02*
X112924286Y-55381072D01*
X114173809Y-55771548D02*
X113705238Y-55771548D01*
X113939524Y-55771548D02*
X113939524Y-54951548D01*
X113939524Y-54951548D02*
X113861428Y-55068691D01*
X113861428Y-55068691D02*
X113783333Y-55146786D01*
X113783333Y-55146786D02*
X113705238Y-55185834D01*
X114642380Y-55302977D02*
X114564285Y-55263929D01*
X114564285Y-55263929D02*
X114525238Y-55224881D01*
X114525238Y-55224881D02*
X114486190Y-55146786D01*
X114486190Y-55146786D02*
X114486190Y-55107739D01*
X114486190Y-55107739D02*
X114525238Y-55029643D01*
X114525238Y-55029643D02*
X114564285Y-54990596D01*
X114564285Y-54990596D02*
X114642380Y-54951548D01*
X114642380Y-54951548D02*
X114798571Y-54951548D01*
X114798571Y-54951548D02*
X114876666Y-54990596D01*
X114876666Y-54990596D02*
X114915714Y-55029643D01*
X114915714Y-55029643D02*
X114954761Y-55107739D01*
X114954761Y-55107739D02*
X114954761Y-55146786D01*
X114954761Y-55146786D02*
X114915714Y-55224881D01*
X114915714Y-55224881D02*
X114876666Y-55263929D01*
X114876666Y-55263929D02*
X114798571Y-55302977D01*
X114798571Y-55302977D02*
X114642380Y-55302977D01*
X114642380Y-55302977D02*
X114564285Y-55342024D01*
X114564285Y-55342024D02*
X114525238Y-55381072D01*
X114525238Y-55381072D02*
X114486190Y-55459167D01*
X114486190Y-55459167D02*
X114486190Y-55615358D01*
X114486190Y-55615358D02*
X114525238Y-55693453D01*
X114525238Y-55693453D02*
X114564285Y-55732501D01*
X114564285Y-55732501D02*
X114642380Y-55771548D01*
X114642380Y-55771548D02*
X114798571Y-55771548D01*
X114798571Y-55771548D02*
X114876666Y-55732501D01*
X114876666Y-55732501D02*
X114915714Y-55693453D01*
X114915714Y-55693453D02*
X114954761Y-55615358D01*
X114954761Y-55615358D02*
X114954761Y-55459167D01*
X114954761Y-55459167D02*
X114915714Y-55381072D01*
X114915714Y-55381072D02*
X114876666Y-55342024D01*
X114876666Y-55342024D02*
X114798571Y-55302977D01*
X110693453Y-53527142D02*
X110732501Y-53566190D01*
X110732501Y-53566190D02*
X110771548Y-53683332D01*
X110771548Y-53683332D02*
X110771548Y-53761428D01*
X110771548Y-53761428D02*
X110732501Y-53878571D01*
X110732501Y-53878571D02*
X110654405Y-53956666D01*
X110654405Y-53956666D02*
X110576310Y-53995713D01*
X110576310Y-53995713D02*
X110420120Y-54034761D01*
X110420120Y-54034761D02*
X110302977Y-54034761D01*
X110302977Y-54034761D02*
X110146786Y-53995713D01*
X110146786Y-53995713D02*
X110068691Y-53956666D01*
X110068691Y-53956666D02*
X109990596Y-53878571D01*
X109990596Y-53878571D02*
X109951548Y-53761428D01*
X109951548Y-53761428D02*
X109951548Y-53683332D01*
X109951548Y-53683332D02*
X109990596Y-53566190D01*
X109990596Y-53566190D02*
X110029643Y-53527142D01*
X109951548Y-53253809D02*
X109951548Y-52746190D01*
X109951548Y-52746190D02*
X110263929Y-53019523D01*
X110263929Y-53019523D02*
X110263929Y-52902380D01*
X110263929Y-52902380D02*
X110302977Y-52824285D01*
X110302977Y-52824285D02*
X110342024Y-52785237D01*
X110342024Y-52785237D02*
X110420120Y-52746190D01*
X110420120Y-52746190D02*
X110615358Y-52746190D01*
X110615358Y-52746190D02*
X110693453Y-52785237D01*
X110693453Y-52785237D02*
X110732501Y-52824285D01*
X110732501Y-52824285D02*
X110771548Y-52902380D01*
X110771548Y-52902380D02*
X110771548Y-53136666D01*
X110771548Y-53136666D02*
X110732501Y-53214761D01*
X110732501Y-53214761D02*
X110693453Y-53253809D01*
X110224881Y-52043333D02*
X110771548Y-52043333D01*
X109912501Y-52238571D02*
X110498215Y-52433809D01*
X110498215Y-52433809D02*
X110498215Y-51926190D01*
X83771548Y-44417857D02*
X83381072Y-44634524D01*
X83771548Y-44789286D02*
X82951548Y-44789286D01*
X82951548Y-44789286D02*
X82951548Y-44541667D01*
X82951548Y-44541667D02*
X82990596Y-44479762D01*
X82990596Y-44479762D02*
X83029643Y-44448809D01*
X83029643Y-44448809D02*
X83107739Y-44417857D01*
X83107739Y-44417857D02*
X83224881Y-44417857D01*
X83224881Y-44417857D02*
X83302977Y-44448809D01*
X83302977Y-44448809D02*
X83342024Y-44479762D01*
X83342024Y-44479762D02*
X83381072Y-44541667D01*
X83381072Y-44541667D02*
X83381072Y-44789286D01*
X83771548Y-43798809D02*
X83771548Y-44170238D01*
X83771548Y-43984524D02*
X82951548Y-43984524D01*
X82951548Y-43984524D02*
X83068691Y-44046428D01*
X83068691Y-44046428D02*
X83146786Y-44108333D01*
X83146786Y-44108333D02*
X83185834Y-44170238D01*
X83771548Y-43179761D02*
X83771548Y-43551190D01*
X83771548Y-43365476D02*
X82951548Y-43365476D01*
X82951548Y-43365476D02*
X83068691Y-43427380D01*
X83068691Y-43427380D02*
X83146786Y-43489285D01*
X83146786Y-43489285D02*
X83185834Y-43551190D01*
X113392857Y-57693453D02*
X113353809Y-57732501D01*
X113353809Y-57732501D02*
X113236667Y-57771548D01*
X113236667Y-57771548D02*
X113158571Y-57771548D01*
X113158571Y-57771548D02*
X113041428Y-57732501D01*
X113041428Y-57732501D02*
X112963333Y-57654405D01*
X112963333Y-57654405D02*
X112924286Y-57576310D01*
X112924286Y-57576310D02*
X112885238Y-57420120D01*
X112885238Y-57420120D02*
X112885238Y-57302977D01*
X112885238Y-57302977D02*
X112924286Y-57146786D01*
X112924286Y-57146786D02*
X112963333Y-57068691D01*
X112963333Y-57068691D02*
X113041428Y-56990596D01*
X113041428Y-56990596D02*
X113158571Y-56951548D01*
X113158571Y-56951548D02*
X113236667Y-56951548D01*
X113236667Y-56951548D02*
X113353809Y-56990596D01*
X113353809Y-56990596D02*
X113392857Y-57029643D01*
X113705238Y-57029643D02*
X113744286Y-56990596D01*
X113744286Y-56990596D02*
X113822381Y-56951548D01*
X113822381Y-56951548D02*
X114017619Y-56951548D01*
X114017619Y-56951548D02*
X114095714Y-56990596D01*
X114095714Y-56990596D02*
X114134762Y-57029643D01*
X114134762Y-57029643D02*
X114173809Y-57107739D01*
X114173809Y-57107739D02*
X114173809Y-57185834D01*
X114173809Y-57185834D02*
X114134762Y-57302977D01*
X114134762Y-57302977D02*
X113666190Y-57771548D01*
X113666190Y-57771548D02*
X114173809Y-57771548D01*
X114642380Y-57302977D02*
X114564285Y-57263929D01*
X114564285Y-57263929D02*
X114525238Y-57224881D01*
X114525238Y-57224881D02*
X114486190Y-57146786D01*
X114486190Y-57146786D02*
X114486190Y-57107739D01*
X114486190Y-57107739D02*
X114525238Y-57029643D01*
X114525238Y-57029643D02*
X114564285Y-56990596D01*
X114564285Y-56990596D02*
X114642380Y-56951548D01*
X114642380Y-56951548D02*
X114798571Y-56951548D01*
X114798571Y-56951548D02*
X114876666Y-56990596D01*
X114876666Y-56990596D02*
X114915714Y-57029643D01*
X114915714Y-57029643D02*
X114954761Y-57107739D01*
X114954761Y-57107739D02*
X114954761Y-57146786D01*
X114954761Y-57146786D02*
X114915714Y-57224881D01*
X114915714Y-57224881D02*
X114876666Y-57263929D01*
X114876666Y-57263929D02*
X114798571Y-57302977D01*
X114798571Y-57302977D02*
X114642380Y-57302977D01*
X114642380Y-57302977D02*
X114564285Y-57342024D01*
X114564285Y-57342024D02*
X114525238Y-57381072D01*
X114525238Y-57381072D02*
X114486190Y-57459167D01*
X114486190Y-57459167D02*
X114486190Y-57615358D01*
X114486190Y-57615358D02*
X114525238Y-57693453D01*
X114525238Y-57693453D02*
X114564285Y-57732501D01*
X114564285Y-57732501D02*
X114642380Y-57771548D01*
X114642380Y-57771548D02*
X114798571Y-57771548D01*
X114798571Y-57771548D02*
X114876666Y-57732501D01*
X114876666Y-57732501D02*
X114915714Y-57693453D01*
X114915714Y-57693453D02*
X114954761Y-57615358D01*
X114954761Y-57615358D02*
X114954761Y-57459167D01*
X114954761Y-57459167D02*
X114915714Y-57381072D01*
X114915714Y-57381072D02*
X114876666Y-57342024D01*
X114876666Y-57342024D02*
X114798571Y-57302977D01*
D13*
X115850000Y-63300000D02*
G75*
G03*
X114550000Y-63300000I-650000J0D01*
G01*
X114550000Y-63300000D02*
G75*
G03*
X115850000Y-63300000I650000J0D01*
G01*
X79250000Y-74400000D02*
G75*
G03*
X77950000Y-74400000I-650000J0D01*
G01*
X77950000Y-74400000D02*
G75*
G03*
X79250000Y-74400000I650000J0D01*
G01*
X124950000Y-71200000D02*
G75*
G03*
X123650000Y-71200000I-650000J0D01*
G01*
X123650000Y-71200000D02*
G75*
G03*
X124950000Y-71200000I650000J0D01*
G01*
X109250000Y-72200000D02*
G75*
G03*
X107950000Y-72200000I-650000J0D01*
G01*
X107950000Y-72200000D02*
G75*
G03*
X109250000Y-72200000I650000J0D01*
G01*
X92350000Y-30800000D02*
G75*
G03*
X91050000Y-30800000I-650000J0D01*
G01*
X91050000Y-30800000D02*
G75*
G03*
X92350000Y-30800000I650000J0D01*
G01*
X116250000Y-67900000D02*
G75*
G03*
X114950000Y-67900000I-650000J0D01*
G01*
X114950000Y-67900000D02*
G75*
G03*
X116250000Y-67900000I650000J0D01*
G01*
D14*
X102172500Y-66498000D02*
X102172500Y-65548000D01*
X102172500Y-65548000D02*
X103462500Y-65548000D01*
X102172500Y-46278000D02*
X102172500Y-47228000D01*
X101222500Y-66498000D02*
X102172500Y-66498000D01*
X101222500Y-46278000D02*
X102172500Y-46278000D01*
X82902500Y-66498000D02*
X81952500Y-66498000D01*
X82902500Y-46278000D02*
X81952500Y-46278000D01*
X81952500Y-66498000D02*
X81952500Y-65548000D01*
X81952500Y-46278000D02*
X81952500Y-47228000D01*
X91580000Y-41556359D02*
X91580000Y-41863641D01*
X90820000Y-41556359D02*
X90820000Y-41863641D01*
X120190000Y-49053641D02*
X120190000Y-48746359D01*
X120950000Y-49053641D02*
X120950000Y-48746359D01*
X104892164Y-49440000D02*
X105107836Y-49440000D01*
X104892164Y-50160000D02*
X105107836Y-50160000D01*
X118780000Y-30956359D02*
X118780000Y-31263641D01*
X118020000Y-30956359D02*
X118020000Y-31263641D01*
X118990000Y-49053641D02*
X118990000Y-48746359D01*
X119750000Y-49053641D02*
X119750000Y-48746359D01*
X106535000Y-29115000D02*
X105065000Y-29115000D01*
X105065000Y-29115000D02*
X105065000Y-31400000D01*
X106535000Y-31400000D02*
X106535000Y-29115000D01*
X121535000Y-28715000D02*
X120065000Y-28715000D01*
X120065000Y-28715000D02*
X120065000Y-31000000D01*
X121535000Y-31000000D02*
X121535000Y-28715000D01*
X124492164Y-53440000D02*
X124707836Y-53440000D01*
X124492164Y-54160000D02*
X124707836Y-54160000D01*
X87780000Y-42046359D02*
X87780000Y-42353641D01*
X87020000Y-42046359D02*
X87020000Y-42353641D01*
X104892164Y-56440000D02*
X105107836Y-56440000D01*
X104892164Y-57160000D02*
X105107836Y-57160000D01*
X94760000Y-69412164D02*
X94760000Y-69627836D01*
X94040000Y-69412164D02*
X94040000Y-69627836D01*
X109250000Y-67000000D02*
X105950000Y-67000000D01*
X109250000Y-66700000D02*
X109250000Y-67000000D01*
X109250000Y-64500000D02*
X109250000Y-64200000D01*
X109250000Y-64200000D02*
X105950000Y-64200000D01*
X105950000Y-67000000D02*
X105950000Y-66700000D01*
X105950000Y-64200000D02*
X105950000Y-64500000D01*
X79307836Y-64360000D02*
X79092164Y-64360000D01*
X79307836Y-63640000D02*
X79092164Y-63640000D01*
X103915835Y-39360000D02*
X103684165Y-39360000D01*
X103915835Y-38640000D02*
X103684165Y-38640000D01*
X79307836Y-65560000D02*
X79092164Y-65560000D01*
X79307836Y-64840000D02*
X79092164Y-64840000D01*
X103353641Y-68380000D02*
X103046359Y-68380000D01*
X103353641Y-67620000D02*
X103046359Y-67620000D01*
X124016359Y-56920000D02*
X124323641Y-56920000D01*
X124016359Y-57680000D02*
X124323641Y-57680000D01*
X105762779Y-48110000D02*
X105437221Y-48110000D01*
X105762779Y-47090000D02*
X105437221Y-47090000D01*
X124492164Y-54440000D02*
X124707836Y-54440000D01*
X124492164Y-55160000D02*
X124707836Y-55160000D01*
X79427836Y-58960000D02*
X79212164Y-58960000D01*
X79427836Y-58240000D02*
X79212164Y-58240000D01*
X89516164Y-77065000D02*
X89731836Y-77065000D01*
X89516164Y-77785000D02*
X89731836Y-77785000D01*
X105892164Y-38640000D02*
X106107836Y-38640000D01*
X105892164Y-39360000D02*
X106107836Y-39360000D01*
X88040000Y-43507836D02*
X88040000Y-43292164D01*
X88760000Y-43507836D02*
X88760000Y-43292164D01*
X79737500Y-41440000D02*
X78062500Y-41440000D01*
X79737500Y-41440000D02*
X80387500Y-41440000D01*
X79737500Y-44560000D02*
X79087500Y-44560000D01*
X79737500Y-44560000D02*
X80387500Y-44560000D01*
X104892164Y-48440000D02*
X105107836Y-48440000D01*
X104892164Y-49160000D02*
X105107836Y-49160000D01*
X98020000Y-69753641D02*
X98020000Y-69446359D01*
X98780000Y-69753641D02*
X98780000Y-69446359D01*
X122430000Y-53090000D02*
X122430000Y-53465000D01*
X122055000Y-57310000D02*
X122430000Y-57310000D01*
X122055000Y-53090000D02*
X122430000Y-53090000D01*
X118585000Y-57310000D02*
X118210000Y-57310000D01*
X118585000Y-53090000D02*
X118210000Y-53090000D01*
X118210000Y-57310000D02*
X118210000Y-56935000D01*
X118210000Y-53090000D02*
X118210000Y-53465000D01*
X115953641Y-51980000D02*
X115646359Y-51980000D01*
X115953641Y-51220000D02*
X115646359Y-51220000D01*
X119160000Y-59387836D02*
X119160000Y-59172164D01*
X119880000Y-59387836D02*
X119880000Y-59172164D01*
X112050000Y-48000000D02*
X115350000Y-48000000D01*
X112050000Y-48300000D02*
X112050000Y-48000000D01*
X112050000Y-50500000D02*
X112050000Y-50800000D01*
X112050000Y-50800000D02*
X115350000Y-50800000D01*
X115350000Y-48000000D02*
X115350000Y-48300000D01*
X115350000Y-50800000D02*
X115350000Y-50500000D01*
X107760000Y-45692164D02*
X107760000Y-45907836D01*
X107040000Y-45692164D02*
X107040000Y-45907836D01*
X86560000Y-42092164D02*
X86560000Y-42307836D01*
X85840000Y-42092164D02*
X85840000Y-42307836D01*
X114610000Y-59962779D02*
X114610000Y-59637221D01*
X115630000Y-59962779D02*
X115630000Y-59637221D01*
X117735000Y-29102500D02*
X116265000Y-29102500D01*
X116265000Y-29102500D02*
X116265000Y-31387500D01*
X117735000Y-31387500D02*
X117735000Y-29102500D01*
X89760000Y-69292164D02*
X89760000Y-69507836D01*
X89040000Y-69292164D02*
X89040000Y-69507836D01*
X116227836Y-54760000D02*
X116012164Y-54760000D01*
X116227836Y-54040000D02*
X116012164Y-54040000D01*
X120210000Y-51007836D02*
X120210000Y-50792164D01*
X120930000Y-51007836D02*
X120930000Y-50792164D01*
X105492164Y-57440000D02*
X105707836Y-57440000D01*
X105492164Y-58160000D02*
X105707836Y-58160000D01*
X121150000Y-58746359D02*
X121150000Y-59053641D01*
X120390000Y-58746359D02*
X120390000Y-59053641D01*
X82580000Y-42046359D02*
X82580000Y-42353641D01*
X81820000Y-42046359D02*
X81820000Y-42353641D01*
X109963641Y-33280000D02*
X109656359Y-33280000D01*
X109963641Y-32520000D02*
X109656359Y-32520000D01*
X96620000Y-69753641D02*
X96620000Y-69446359D01*
X97380000Y-69753641D02*
X97380000Y-69446359D01*
X116227836Y-53760000D02*
X116012164Y-53760000D01*
X116227836Y-53040000D02*
X116012164Y-53040000D01*
X125646359Y-31020000D02*
X125953641Y-31020000D01*
X125646359Y-31780000D02*
X125953641Y-31780000D01*
X119892164Y-61640000D02*
X120107836Y-61640000D01*
X119892164Y-62360000D02*
X120107836Y-62360000D01*
X104892164Y-50440000D02*
X105107836Y-50440000D01*
X104892164Y-51160000D02*
X105107836Y-51160000D01*
X122473641Y-63380000D02*
X122166359Y-63380000D01*
X122473641Y-62620000D02*
X122166359Y-62620000D01*
X109560000Y-43765000D02*
X109560000Y-42325000D01*
X108990000Y-42325000D02*
X109560000Y-42325000D01*
X108990000Y-42325000D02*
X108990000Y-37125000D01*
X111080000Y-42325000D02*
X112100000Y-42325000D01*
X113620000Y-42325000D02*
X114640000Y-42325000D01*
X116160000Y-42325000D02*
X117180000Y-42325000D01*
X118700000Y-42325000D02*
X119720000Y-42325000D01*
X121240000Y-42325000D02*
X122260000Y-42325000D01*
X123780000Y-42325000D02*
X124800000Y-42325000D01*
X126320000Y-42325000D02*
X126890000Y-42325000D01*
X126890000Y-42325000D02*
X126890000Y-37125000D01*
X108990000Y-37125000D02*
X109560000Y-37125000D01*
X111080000Y-37125000D02*
X112100000Y-37125000D01*
X113620000Y-37125000D02*
X114640000Y-37125000D01*
X116160000Y-37125000D02*
X117180000Y-37125000D01*
X118700000Y-37125000D02*
X119720000Y-37125000D01*
X121240000Y-37125000D02*
X122260000Y-37125000D01*
X123780000Y-37125000D02*
X124800000Y-37125000D01*
X126320000Y-37125000D02*
X126890000Y-37125000D01*
X119010000Y-51007836D02*
X119010000Y-50792164D01*
X119730000Y-51007836D02*
X119730000Y-50792164D01*
X80908161Y-39530944D02*
G75*
G03*
X89464153Y-30974952I3466645J5089347D01*
G01*
X87908518Y-29277896D02*
G75*
G03*
X79281815Y-37904599I-3495307J-5131396D01*
G01*
X90595524Y-29843582D02*
X89534864Y-30904242D01*
X88969178Y-28217236D02*
X90595524Y-29843582D01*
X88969178Y-28217236D02*
X87908518Y-29277896D01*
X79847501Y-40591605D02*
X80908161Y-39530944D01*
X78221155Y-38965259D02*
X79281815Y-37904599D01*
X78221155Y-38965259D02*
X79847501Y-40591605D01*
X124292164Y-55540000D02*
X124507836Y-55540000D01*
X124292164Y-56260000D02*
X124507836Y-56260000D01*
X107492164Y-50640000D02*
X107707836Y-50640000D01*
X107492164Y-51360000D02*
X107707836Y-51360000D01*
X87107836Y-76160000D02*
X86892164Y-76160000D01*
X87107836Y-75440000D02*
X86892164Y-75440000D01*
X104153641Y-67180000D02*
X103846359Y-67180000D01*
X104153641Y-66420000D02*
X103846359Y-66420000D01*
X109700000Y-51700000D02*
X106400000Y-51700000D01*
X106400000Y-51700000D02*
X106400000Y-55700000D01*
X124012164Y-51240000D02*
X124227836Y-51240000D01*
X124012164Y-51960000D02*
X124227836Y-51960000D01*
X110135000Y-29115000D02*
X108665000Y-29115000D01*
X108665000Y-29115000D02*
X108665000Y-31400000D01*
X110135000Y-31400000D02*
X110135000Y-29115000D01*
X91244365Y-39800000D02*
X92870711Y-41426346D01*
X91244365Y-39800000D02*
X92305025Y-38739340D01*
X92870711Y-41426346D02*
X93931371Y-40365685D01*
X101992388Y-29051977D02*
X100931728Y-30112637D01*
X101992388Y-29051977D02*
X103618734Y-30678323D01*
X103618734Y-30678323D02*
X102558074Y-31738983D01*
X100931728Y-30112637D02*
G75*
G03*
X92305025Y-38739340I-3495307J-5131396D01*
G01*
X93931371Y-40365685D02*
G75*
G03*
X102487363Y-31809693I3466645J5089347D01*
G01*
X79307836Y-53560000D02*
X79092164Y-53560000D01*
X79307836Y-52840000D02*
X79092164Y-52840000D01*
X84040000Y-43707836D02*
X84040000Y-43492164D01*
X84760000Y-43707836D02*
X84760000Y-43492164D01*
X119892164Y-60440000D02*
X120107836Y-60440000D01*
X119892164Y-61160000D02*
X120107836Y-61160000D01*
X114080000Y-59212164D02*
X114080000Y-59427836D01*
X113360000Y-59212164D02*
X113360000Y-59427836D01*
X116227836Y-56760000D02*
X116012164Y-56760000D01*
X116227836Y-56040000D02*
X116012164Y-56040000D01*
X105715835Y-45960000D02*
X105484165Y-45960000D01*
X105715835Y-45240000D02*
X105484165Y-45240000D01*
X105420000Y-33953641D02*
X105420000Y-33646359D01*
X106180000Y-33953641D02*
X106180000Y-33646359D01*
X122680000Y-30581359D02*
X122680000Y-30888641D01*
X121920000Y-30581359D02*
X121920000Y-30888641D01*
X107787836Y-58160000D02*
X107572164Y-58160000D01*
X107787836Y-57440000D02*
X107572164Y-57440000D01*
X120183641Y-63380000D02*
X119876359Y-63380000D01*
X120183641Y-62620000D02*
X119876359Y-62620000D01*
X125646359Y-32220000D02*
X125953641Y-32220000D01*
X125646359Y-32980000D02*
X125953641Y-32980000D01*
D10*
X95387000Y-76545000D02*
X93862000Y-76545000D01*
X93512000Y-76415000D02*
X90312000Y-76415000D01*
X93512000Y-71515000D02*
X93512000Y-76415000D01*
X90312000Y-76415000D02*
X90312000Y-71515000D01*
X90312000Y-71515000D02*
X93512000Y-71515000D01*
D14*
X105925000Y-58725000D02*
X107275000Y-58725000D01*
X105925000Y-60475000D02*
X107275000Y-60475000D01*
X103070000Y-44400000D02*
X103070000Y-43260000D01*
X102840000Y-43260000D02*
X103070000Y-43260000D01*
X102840000Y-43260000D02*
X102840000Y-40540000D01*
X107560000Y-43260000D02*
X107330000Y-43260000D01*
X102840000Y-40540000D02*
X104150000Y-40540000D01*
X106250000Y-40540000D02*
X107560000Y-40540000D01*
X107560000Y-40540000D02*
X107560000Y-43260000D01*
X104692164Y-62240000D02*
X104907836Y-62240000D01*
X104692164Y-62960000D02*
X104907836Y-62960000D01*
X81907836Y-45960000D02*
X81692164Y-45960000D01*
X81907836Y-45240000D02*
X81692164Y-45240000D01*
X90180000Y-41446359D02*
X90180000Y-41753641D01*
X89420000Y-41446359D02*
X89420000Y-41753641D01*
X115966359Y-55020000D02*
X116273641Y-55020000D01*
X115966359Y-55780000D02*
X116273641Y-55780000D01*
X110040000Y-55027836D02*
X110040000Y-54812164D01*
X110760000Y-55027836D02*
X110760000Y-54812164D01*
X83780000Y-42046359D02*
X83780000Y-42353641D01*
X83020000Y-42046359D02*
X83020000Y-42353641D01*
X116227836Y-57760000D02*
X116012164Y-57760000D01*
X116227836Y-57040000D02*
X116012164Y-57040000D01*
D15*
X128250000Y-80225000D02*
X128250000Y-30425000D01*
X128250000Y-30425000D02*
X124250000Y-30425000D01*
X77950000Y-88825000D02*
X77950000Y-80225000D01*
X127150000Y-88825000D02*
X127150000Y-80225000D01*
X76850000Y-80225000D02*
X76850000Y-27825000D01*
X124250000Y-27825000D02*
X124250000Y-30425000D01*
X77950000Y-88825000D02*
X127150000Y-88825000D01*
X76850000Y-27825000D02*
X124250000Y-27825000D01*
X127150000Y-80225000D02*
X128250000Y-80225000D01*
X77950000Y-80225000D02*
X76850000Y-80225000D01*
M02*
